
<svg xmlns:svg="http://www.w3.org/2000/svg" xmlns="http://www.w3.org/2000/svg" xml:space="preserve" y="0px" x="0px" viewBox="0 0 100 100" id="icons" version="1.1">
  <g class="target" id="istock-logo">
    <path fill="white" d="m 0.7168875,67.91856 0.97054,0 0,-6.73095 -0.984174,0 0,-1.03585 2.10972,0 0,3.00025 c 0.662604,-0.70588 1.429534,-1.04118 2.375869,-1.04118 2.010635,0 3.448365,1.53544 3.448365,3.49993 0,1.98475 -1.46767,3.5108 -3.486499,3.5108 -0.908201,0 -1.615559,-0.32048 -2.317284,-1.03465 l 0,0.88794 -2.116537,0 0,-1.05629 z m 4.412185,-4.71893 c -1.24637,0 -2.316099,1.0304 -2.316099,2.44778 0,1.32906 1.069729,2.38111 2.2998,2.38111 1.254374,0 2.321434,-1.00314 2.321434,-2.44226 0,-1.39278 -1.06706,-2.38663 -2.305135,-2.38663 z m 4.9674955,6.88032 1.04395,0 0.52271,-1.30594 -2.1613905,-5.44941 -0.88103,0 0,-1.05363 2.9772205,0 0,1.05363 -0.91907,0 1.56399,3.98036 1.57476,-3.98036 -0.91502,0 0,-1.05363 2.96497,0 0,1.05363 -0.86889,0 -2.68123,6.75535 0.92865,0 0,1.05086 -3.149621,0 0,-1.05086 z m 12.754749,-5.52548 5.35971,0 0,4.42038 -0.95296,0 0,-1.39278 c -0.96935,1.0561 -2.07583,1.56656 -3.40904,1.56656 -2.64459,0 -4.52076,-2.06625 -4.52076,-4.64573 0,-2.38387 1.91421,-4.52896 4.63615,-4.52896 1.01697,0 1.82737,0.28373 2.685481,0.92045 l 0,-0.74263 0.965209,0 0,2.36639 -1.09146,0 c -0.75893,-0.87975 -1.58583,-1.30614 -2.62849,-1.30614 -1.88566,0 -3.27715,1.5301 -3.27715,3.33021 0,1.93456 1.4405,3.38731 3.260951,3.38731 1.369859,0 2.59855,-0.90415 3.007059,-2.31077 l -4.0347,0 0,-1.06429 z m 13.174121,2.29713 c -0.57013,1.46352 -1.8002,2.28073 -3.27449,2.28073 -1.96182,0 -3.49993,-1.55026 -3.49993,-3.50132 0,-1.99294 1.62504,-3.53925 3.463279,-3.53925 1.959061,0 3.522951,1.52862 3.522951,3.58964 0,0.10037 0,0.22534 -0.023,0.38549 l -5.73591,0 c 0.18603,1.19332 1.13494,1.97526 2.257611,1.97526 0.84725,0 1.564,-0.40989 1.973979,-1.19055 l 1.315531,0 z m -1.027651,-1.73767 c -0.301409,-1.24232 -1.145789,-1.94967 -2.246839,-1.94967 -1.11606,0 -2.052711,0.75754 -2.27263,1.94967 l 4.519469,0 z m 2.62829,-1.80574 -1.033169,0 0,-1.03722 1.033169,0 0,-2.11921 1.12674,0 0,2.11921 0.99246,0 0,1.03722 -0.99246,0 0,4.61037 0.99246,0 0,1.05629 -2.1192,0 0,-5.66666 z m 3.756501,0 -1.02765,0 0,-1.03722 1.02765,0 0,-2.11921 1.130879,0 0,2.11921 0.987041,0 0,1.03722 -0.987041,0 0,4.61037 0.987041,0 0,1.05629 -2.11792,0 0,-5.66666 z m 4.26281,6.77176 1.04404,0 0.5241,-1.30594 -2.16406,-5.44941 -0.87837,0 0,-1.05363 2.97722,0 0,1.05363 -0.92045,0 1.56261,3.98036 1.58296,-3.98036 -0.92184,0 0,-1.05363 2.97188,0 0,1.05363 -0.87293,0 -2.68538,6.75535 0.93684,0 0,1.05086 -3.15662,0 0,-1.05086 z m 9.1735,-2.17344 0.98023,0 0,-6.6945 -0.98023,0 0,-1.06025 3.21482,0 0,1.06025 -1.00877,0 0,6.6945 1.00877,0 0,1.06834 -3.21482,0 0,-1.06834 z m 4.15553,0.0121 0.95453,0 0,-4.61037 -0.94495,0 0,-1.03722 2.06082,0 0,0.95306 c 0.41275,-0.72218 0.99365,-1.06302 1.82599,-1.06302 0.98022,0 1.69567,0.46847 2.104179,1.33459 0.521331,-0.91501 1.159431,-1.34674 2.06358,-1.34674 1.652321,0 2.40838,1.20142 2.40838,2.86173 l 0,2.90797 0.967971,0 0,1.05629 -3.05586,0 0,-1.05629 0.9571,0 0,-2.97041 c 0,-1.1295 -0.521331,-1.7349 -1.448491,-1.7349 -1.06855,0 -1.640069,0.79281 -1.640069,2.37301 l 0,2.3323 0.972029,0 0,1.05629 -3.03284,0 0,-1.05629 0.96659,0 0,-2.22373 c 0,-1.57337 -0.17378,-2.48158 -1.48792,-2.48158 -1.01688,0 -1.60064,0.79281 -1.60064,2.37301 l 0,2.3323 0.970641,0 0,1.05629 -3.04104,0 0,-1.05629 z m 17.59184,0.16834 c -0.70588,0.71417 -1.41729,1.03466 -2.31057,1.03466 -2.03375,0 -3.4864,-1.52605 -3.4864,-3.5108 0,-1.96449 1.401079,-3.49173 3.44016,-3.49173 0.95444,0 1.7189,0.31218 2.38535,1.03297 l 0,-0.88103 2.06764,0 0,1.03722 -0.95167,0 0,4.59831 0.96263,0 0,1.06835 -2.10714,0 0,-0.88795 z m -2.29437,-4.88728 c -1.24074,0 -2.31067,0.99386 -2.31067,2.38664 0,1.43912 1.06993,2.44225 2.31749,2.44225 1.2273,0 2.29713,-1.04384 2.29713,-2.3811 0,-1.41738 -1.06983,-2.44779 -2.30395,-2.44779 z m 6.65636,6.16892 c 0.2376,0.71141 0.86888,1.09156 1.81384,1.09156 1.1947,0 2.19803,-0.85801 2.24674,-2.0948 l 0.0109,-0.33679 c -0.66923,0.7455 -1.40366,1.07942 -2.32954,1.07942 -1.98614,0 -3.44974,-1.50156 -3.44974,-3.49717 0,-1.92518 1.4146,-3.49993 3.4117,-3.49993 0.96392,0 1.73628,0.34616 2.38259,1.10242 l 0,-0.94228 2.07168,0 0,1.05362 -0.95434,0 0,4.54783 c 0,2.30256 -1.33043,3.57057 -3.38997,3.57057 -1.62781,0 -2.69072,-0.6951 -3.12393,-2.07445 l 1.31009,0 z m 4.08647,-3.71026 c 0,-1.41323 -1.05629,-2.45866 -2.29842,-2.45866 -1.23678,0 -2.30513,1.00463 -2.30513,2.3975 0,1.45256 1.07792,2.44503 2.30513,2.44503 1.22997,0 2.29842,-1.05748 2.29842,-2.38387 z m 9.26844,1.19331 c -0.57172,1.46352 -1.79754,2.28074 -3.27725,2.28074 -1.96045,0 -3.50408,-1.55026 -3.50408,-3.50132 0,-1.99295 1.63048,-3.53925 3.46872,-3.53925 1.96034,0 3.5257,1.52862 3.5257,3.58964 0,0.10037 0,0.22534 -0.0245,0.38548 l -5.73997,0 c 0.19147,1.19332 1.13494,1.97527 2.26187,1.97527 0.84705,0 1.56398,-0.40989 1.97111,-1.19056 l 1.31839,0 z m -1.03041,-1.73766 c -0.29598,-1.24232 -1.14175,-1.94968 -2.24684,-1.94968 -1.11607,0 -2.04876,0.75755 -2.27412,1.94968 l 4.52096,0 z m 1.93317,1.74853 1.12002,0 c 0,0.64621 0.5565,1.29508 1.38883,1.29508 0.70459,0 1.11992,-0.37739 1.11992,-1.02498 0,-0.71536 -0.53754,-0.97883 -1.71584,-1.21643 -1.50016,-0.30537 -1.82342,-1.08741 -1.82342,-1.8992 0,-1.11596 0.79015,-1.93466 2.05816,-1.93466 0.54988,0 0.98022,0.1887 1.3414,0.58239 l 0,-0.40723 0.92995,0 0,1.78657 -1.03318,0 c -0.15619,-0.65697 -0.529431,-0.95295 -1.163481,-0.95295 -0.619049,0 -0.967969,0.30675 -0.967969,0.83075 0,0.74262 0.60698,0.88251 1.650819,1.14995 1.30327,0.3516 1.908871,0.89733 1.908871,1.98899 0,1.25437 -0.871641,2.08789 -2.25771,2.08789 -0.634061,0 -1.114571,-0.19946 -1.538201,-0.6626 l 0,0.49702 -1.01817,0 0,-2.12059 z"/>
    <path id="istock-logo-mobile" fill="white" d="m 5.5548975,54.859 -4.813308,0 0,-17.96837 4.813308,0 0,17.96837 z m 4.6206105,-6.92811 c 1.48307,1.62843 3.74136,2.85254 6.11148,2.85254 2.22269,0 3.778929,-1.37233 3.778929,-3.26091 0,-3.3326 -4.814199,-3.74047 -8.296589,-5.77677 -2.0368005,-1.18694 -3.6691805,-2.96467 -3.6691805,-5.89334 0,-4.62929 4.2633405,-7.29545 8.5585195,-7.29545 2.629081,0 5.07424,0.63025 7.52039,2.44516 l -2.59249,3.70329 c -1.0401,-0.96297 -2.78026,-1.7016 -4.48492,-1.7016 -1.88651,0 -3.99944,0.81229 -3.99944,2.8125 0,4.1873 11.96577,2.88864 11.96577,11.63353 0,4.59123 -4.11413,7.77699 -8.78099,7.77699 -3.48141,0 -6.7037595,-1.44165 -9.3713995,-3.88967 l 3.2599195,-3.40627 z m 29.85031,6.92811 c -0.62887,0.2205 -2.07624,0.36783 -3.00076,0.36783 -2.89011,0 -4.99919,-0.96298 -6.22419,-2.59249 -0.92541,-1.22204 -1.33377,-2.813 -1.33377,-5.37137 l 0,-6.29727 -5.000091,0 0,-4.07507 5.000091,0 0,-5.00107 4.816169,0 0,5.00107 5.92745,0 0,4.07507 -5.92745,0 0,6.85109 c 0,1.11563 0.18391,1.77922 0.593261,2.26263 0.47858,0.55658 1.25676,0.88793 2.44221,0.88793 0.705,0 1.63336,-0.10789 1.96658,-0.18392 l 0.7405,4.07557 z M 50.704957,36.52033 c 5.44316,0 9.5563,4.1868 9.5563,9.37327 0,5.18548 -4.11314,9.33323 -9.5563,9.33323 -5.444049,0 -9.55818,-4.14775 -9.55818,-9.33323 0,-5.18647 4.114131,-9.37327 9.55818,-9.37327 z m 0,14.2631 c 2.814971,0 4.73914,-2.1861 4.73914,-4.88983 0,-2.70521 -1.924169,-4.9279 -4.73914,-4.9279 -2.81684,0 -4.74102,2.22269 -4.74102,4.9279 0,2.70373 1.92418,4.88983 4.74102,4.88983 z m 28.572451,0.40728 c -2.11391,2.81595 -4.78244,4.03612 -8.15123,4.03612 -5.55568,0 -9.63223,-4.14775 -9.63223,-9.33323 0,-5.22305 4.18631,-9.37327 9.669799,-9.37327 3.111611,0 5.889011,1.44648 7.555991,3.59304 l -3.40813,3.00037 c -0.961101,-1.25873 -2.40474,-2.14804 -4.147861,-2.14804 -2.77838,0 -4.852749,2.18758 -4.852749,4.9279 0,2.81536 2.03877,4.88983 4.965469,4.88983 1.961651,0 3.51701,-1.18742 4.295181,-2.371 l 3.70576,2.77828 z m 10.83031,-6.22409 9.89228,9.89238 -6.48414,0 -7.595431,-7.78232 0,7.78232 -4.81331,0 0,-25.93174 4.81331,0 0,13.78156 6.18562,-5.81819 6.78266,0 -8.78099,8.07599 z M 2.5e-6,31.70564 c 0,-1.73977 1.410888,-3.14868 3.149176,-3.14868 1.739275,0 3.148189,1.40891 3.148189,3.14868 0,1.73681 -1.408914,3.14858 -3.148189,3.14858 -1.738288,0 -3.149176,-1.41177 -3.149176,-3.14858 z"/>
  </g>
</svg>