<?xml version="1.0" encoding="utf-8"?>
<!-- Generator: Adobe Illustrator 23.0.3, SVG Export Plug-In . SVG Version: 6.00 Build 0)  -->
<svg version="1.1"
	 id="svg1997" inkscape:version="0.44.1" sodipodi:docbase="C:\Documents and Settings\Sigurd\Mine dokumenter\Mine bilder" sodipodi:docname="Diesel logo.svg" sodipodi:version="0.32" xmlns:cc="http://web.resource.org/cc/" xmlns:dc="http://purl.org/dc/elements/1.1/" xmlns:inkscape="http://www.inkscape.org/namespaces/inkscape" xmlns:rdf="http://www.w3.org/1999/02/22-rdf-syntax-ns#" xmlns:sodipodi="http://sodipodi.sourceforge.net/DTD/sodipodi-0.dtd" xmlns:svg="http://www.w3.org/2000/svg"
	 xmlns="http://www.w3.org/2000/svg" xmlns:xlink="http://www.w3.org/1999/xlink" x="0px" y="0px" viewBox="0 0 222.1 124.5"
	 style="enable-background:new 0 0 222.1 124.5;" xml:space="preserve">
<style type="text/css">
	.st0{fill:#FFFFFF;}
</style>
<sodipodi:namedview  bordercolor="#666666" borderopacity="1.0" gridtolerance="10000" guidetolerance="10" id="base" inkscape:current-layer="layer1" inkscape:cx="266.02988" inkscape:cy="139.66646" inkscape:document-units="px" inkscape:pageopacity="0.0" inkscape:pageshadow="2" inkscape:window-height="719" inkscape:window-width="1024" inkscape:window-x="-4" inkscape:window-y="-4" inkscape:zoom="1" objecttolerance="10" pagecolor="#ffffff">
	</sodipodi:namedview>
<g id="layer1" transform="translate(-263.9375,-470.0982)" inkscape:groupmode="layer" inkscape:label="Layer 1">
	<polygon id="polygon1958" points="263.9,470.1 486.1,470.1 486.1,594.6 263.9,594.6 	"/>
	<path id="path1960" class="st0" d="M277.5,491.5v70.7h15c19.8,1.8,19.8-23.3,19.8-23.3v-21.8c-0.2-26-18.9-25.6-18.9-25.6H277.5z
		 M291.4,502.5c7.7-0.6,7.5,10.7,7.5,10.7v26.9c0.2,13.4-8.3,11.3-8.3,11.3v-48.8C290.9,502.5,291.2,502.5,291.4,502.5z"/>
	<polygon id="polygon1964" class="st0" points="318.7,491.5 331.6,491.5 331.6,562.2 318.7,562.2 	"/>
	<polygon id="polygon1966" class="st0" points="368.2,562 368.2,551.6 351.4,551.6 351.4,531.8 363.1,531.8 363.1,520.5 
		351.6,520.5 351.6,502.8 367.8,502.8 367.8,491.5 338.3,491.5 338.3,562.1 	"/>
	<path id="path1968" class="st0" d="M392.1,511.8h11.3c0,0,1.4-21.9-16.3-21.9c-17.7,0-16.8,17-16.8,17s-2.3,13.8,12.4,24.9
		c0,0,15.4,9,9.7,18.6c0,0-9.2,8.3-9.4-8.3h-11.7c0,0-2.1,22.8,17.3,21.9c0,0,15.9-0.2,17-16.8c0,0,1.8-12.2-10.6-23.5
		c0,0-17.7-11.5-11.3-20.7C383.6,503,391,495.4,392.1,511.8L392.1,511.8z"/>
	<polygon id="polygon1970" class="st0" points="409.6,491.5 439.1,491.5 439.1,503 423,503 423,520.7 435,520.7 435,532.5 
		422.8,532.5 422.8,551.6 439.6,551.6 439.6,562.6 409.9,562.6 	"/>
	<polygon id="polygon1972" class="st0" points="445.7,491.5 458.7,491.5 458.7,551.6 472.3,551.6 472.3,562.6 445.7,562.6 	"/>
	<path id="path1974" class="st0" d="M467.3,492.7c0.3-0.1,0.7-0.1,1.1-0.1c0.6,0,1,0.1,1.3,0.4c0.2,0.2,0.3,0.5,0.3,0.8
		c0,0.6-0.4,1-0.8,1.1v0c0.3,0.1,0.5,0.4,0.7,0.9c0.1,0.6,0.2,1,0.3,1.2h-0.6c-0.1-0.1-0.2-0.5-0.3-1.1c-0.1-0.6-0.4-0.8-0.9-0.9
		h-0.5v1.9h-0.6L467.3,492.7L467.3,492.7z M467.9,494.7h0.6c0.6,0,1-0.3,1-0.8c0-0.6-0.4-0.8-1-0.8c-0.3,0-0.5,0-0.6,0.1V494.7
		L467.9,494.7z"/>
	<path id="path1976" class="st0" d="M472.5,495L472.5,495L472.5,495c0,1.1-0.4,2.1-1.1,2.8h0c-0.7,0.7-1.7,1.1-2.8,1.1v0h0h0v0
		c-1.1,0-2.1-0.4-2.8-1.1c-0.7-0.7-1.1-1.7-1.1-2.8h0v0v0h0c0-1.1,0.4-2.1,1.1-2.8s1.7-1.1,2.8-1.1v0h0h0v0c1.1,0,2,0.4,2.8,1.1l0,0
		C472,492.9,472.5,493.9,472.5,495L472.5,495L472.5,495L472.5,495z M471.6,495L471.6,495L471.6,495L471.6,495L471.6,495
		c0-0.8-0.3-1.6-0.9-2.1v0c-0.5-0.5-1.3-0.9-2.1-0.9v0h0h0v0c-0.8,0-1.6,0.3-2.1,0.9c-0.5,0.5-0.9,1.3-0.9,2.1h0v0v0h0
		c0,0.8,0.3,1.6,0.9,2.1c0.5,0.5,1.3,0.9,2.1,0.9v0h0h0v0c0.8,0,1.6-0.3,2.1-0.9h0C471.2,496.5,471.6,495.8,471.6,495L471.6,495z"/>
</g>
</svg>
