<svg xmlns="http://www.w3.org/2000/svg" viewBox="0 0 123.77 79.63">
  <title>Rhymesayers Logo</title>
  <path d="M8.73,31.3l-5.65-.45L8.69,34.3l-3.42,0L9,37.11H9c-.8,2.68-1.75,5.74-2.55,8.73-.71,2.62-.06,7.16,5.43,8.82l.85-4.37c-3.14-1.17-4-3.89,1.36-16.93,2.25-5.45-2-7.82-12.12-7.82L6.3,27.75H0ZM6.09,68A14.18,14.18,0,0,0,17.85,58.2l0,6.5,4.52-5.2V63l5.43-5,.7,1.21c4.56,7.78-7.16,7.9-10.34,7.8l-2.63-.48,3.58,3.59h0l-3,0,4.36,3.05H15.94l7.15,4.33,1.22,2.24h9.8l-2.76-2.95-3.52-1.34-2.08-4.16,14.68-5.42L33.89,55.59l7-11,5,.9-2.63,3.74,6.21-2.49-2.22,4.41,5.36-4.9.38,2.3L56.21,40l1.84-4.3,1,.7,1.49-2.21-1.45-1,.27-.63L55.13,29.4l-2.64,3.33,1.4,2.88-4.36,4.28-9.42-8.62c-.9-.82-1.14-2.17,1.15-.85a7.81,7.81,0,0,1,1.82,1.9l.61-2.07h0l.25-.75c.18.17.36.32.56.47A2.59,2.59,0,0,0,48,29.14c1-1.78-1-3.5-1-3.5s.48,2.14-1.46,2.38c-1.66.21-2-.34-4.46-1.16A3.36,3.36,0,0,0,37,28.08c-.09-.73-1-2.89,2.69-2.89,4.14,0,3.72,2,3.72,2a2,2,0,0,0,2.08-2l-.21-2.13-4.63-.7-.55-1.6-4.74-1.29-.82-1.31L29.1,16.88l2.56,4-2.08,2.22h1.14l-2.53,3.7h1.2a5.7,5.7,0,0,1-1.78,2.75c-2.69-6.53-5.18-9.42-5.18-9.42L17.7,14.79s-2.09,37.78-6.86,47.45C9.67,64.63,6.09,68,6.09,68ZM39.8,22.37l-2.1,1.4-1.88-2.29Zm14,6.36-2.49-1.89-2.06,2.78,2.49,1.89Zm26.9,50.88,5.51-3.5H81.7l4.35-3-3.46.05,0-.16L86,70.11H83.48S74.14,57.31,86.27,59l2.24-3.43-1.65-2.47-14.6.12,5.62,16.1-2.5,5.95-4.26,1.29-2.41,3.1ZM64.22,50.53l-2.3-7.16-2.3,7.16-7.52,0,6.1,4.4-2.35,7.15,6.07-4.44L68,62.06l-2.35-7.15,6.1-4.4ZM79.27,30c.2-.15.38-.31.55-.48l.25.76h0l.61,2.07A7.74,7.74,0,0,1,82.5,30.4c2.29-1.31,2.05,0,1.15.86l-9.43,8.62L69.87,35.6l1.4-2.88-2.64-3.33-4.25,3.14.27.64-1.45,1,1.49,2.2,1-.69L67.55,40l3.2,8.58.38-2.3,5.36,4.9-2.22-4.41,6.21,2.49-2.64-3.74,5-.9,7,11L83.33,65.75,98,71.17l-2.08,4.16-3.52,1.34-2.76,2.94h9.8l1.22-2.23L107.83,73h-4.48l4.36-3-3,0h0l3.58-3.59-2.64.48c-3.18.1-14.9,0-10.34-7.8l.7-1.2,5.43,5V59.49l4.52,5.2,0-6.5A14.18,14.18,0,0,0,117.68,68s-3.58-3.36-4.75-5.75c-4.76-9.67-6.86-47.45-6.86-47.45l-4.73,5.34S98.85,23,96.16,29.54a5.71,5.71,0,0,1-1.78-2.75h1.2L93,23.11h1.14l-2.08-2.22,2.56-4-5.39,1.29-.82,1.31-4.74,1.29-.55,1.6-4.64.7-.21,2.13a2,2,0,0,0,2.07,2s-.41-2,3.73-2c3.64,0,2.78,2.16,2.69,2.89a3.36,3.36,0,0,0-4.2-1.23c-2.41.82-2.79,1.37-4.46,1.16-1.95-.25-1.46-2.39-1.46-2.39s-2,1.72-1,3.51A2.6,2.6,0,0,0,79.27,30Zm7.12-6.2L84,22.36l4-.89ZM111,50.29l.84,4.36c5.5-1.65,6.14-6.19,5.44-8.81-.81-3-1.75-6.06-2.55-8.74h0l3.76-2.83-3.42,0,5.61-3.44L115,31.3l8.73-3.54h-6.3l4.3-2.2c-10.15,0-14.37,2.38-12.12,7.82C115,46.39,114.15,49.12,111,50.29ZM72.07,31.5l2.49-1.89L72.5,26.83,70,28.72Zm0-7H68.85v-4L61.92,23,55,20.55v4H51.73l10.19,6.7ZM48.39,75.24l-2.5-5.95,5.62-16.1-14.6-.12-1.65,2.48L37.49,59c12.13-1.65,2.79,11.13,2.79,11.13H37.74L41.14,73l0,.15-3.47,0,4.36,3H37.6l5.5,3.46,11.95,0-2.4-3.1ZM68.85,18.67V8.89l-1.59,5.25L66.34,8.2l1.23-1.8L66.06,4.2,64.55,6.4l1.21,1.77-1.24,7.4L62.28,3.92,63.45,2.2,61.94,0,60.43,2.2l1.13,1.66-2.25,11.7-1.24-7.4L59.28,6.4,57.78,4.2,56.27,6.4,57.5,8.2l-.92,5.94L55,8.82v9.85l6.93,2.49Zm-7,45.49v0l-8.37,6.06,3.11.13v4.76l5-3.14.31-.2,5.26,3.34V70.36l3.11-.13ZM56.57,77.35v2.27l5.27-3.12v0l5.26,3.12V77.36L61.83,74Z"></path>
</svg>