<?xml version="1.0" encoding="utf-8"?>
<!-- Generator: Adobe Illustrator 15.0.2, SVG Export Plug-In . SVG Version: 6.00 Build 0)  -->
<!DOCTYPE svg PUBLIC "-//W3C//DTD SVG 1.1//EN" "http://www.w3.org/Graphics/SVG/1.1/DTD/svg11.dtd">
<svg version="1.1" id="Layer_1" xmlns="http://www.w3.org/2000/svg" xmlns:xlink="http://www.w3.org/1999/xlink" x="0px" y="0px"
	 width="370px" height="200px" viewBox="0 0 370 200" enable-background="new 0 0 370 200" xml:space="preserve">
<rect display="none" fill="#231F20" width="720" height="432"/>
<path display="none" fill="#222222" d="M229.518,257.695h-17.006c0-19.95,0-11.85,0-36.086c-4.082,0-8.033,0-12.05,0v46.863
	c9.507,0,19.415,0,29.056,0C229.518,264.456,229.518,261.712,229.518,257.695z"/>
<path display="none" fill="#222222" d="M265.948,257.828c-7.028,0-11.046,0-17.94,0c0-2.813,0-5.488,0-8.232h15.932
	c0-3.55,0-7.098,0-10.646h-15.932v-6.628c6.895,0,10.375,0,17.338,0c0-3.615,0-7.23,0-10.713c-10.979,0-18.41,0-29.256,0
	c0,15.533,0,31.199,0,46.863c10.846,0,18.879,0,29.858,0C265.948,264.925,265.948,261.311,265.948,257.828z"/>
<path display="none" fill="#222222" d="M313.411,268.473v-46.863c-4.084,0-8.167,0-12.251,0v17.008H286.7v-17.008
	c-4.083,0-8.235,0-12.251,0v46.863c4.016,0,8.167,0,12.251,0V249.66h14.46v18.813C305.243,268.473,309.327,268.473,313.411,268.473z
	"/>
<path display="none" fill="#222222" d="M369.262,253.691v-32.215h-4.285l-18.678,20.352l-18.343-20.352h-4.419v46.996
	c4.083,0,8.167,0,12.251,0v-20.89l9.907,10.44h1.34l9.974-10.44v20.89c2.191,0,4.382,0,6.572,0v-2.457L369.262,253.691z"/>
<path display="none" fill="#222222" d="M457.296,244.574l-23.698-23.163h-4.352v29.862l6.792,14.742v2.457c1.861,0,3.726,0,5.593,0
	v-23.029l23.632,23.099h4.284v-46.931c-4.083,0-8.168,0-12.251,0V244.574L457.296,244.574z"/>
<path display="none" fill="#222222" d="M479.675,221.411v47.062c4.083,0,8.234,0,12.384,0v-23.027l23.636,23.1h4.282v-46.934
	c-4.085,0-8.169,0-12.252,0v22.966l-23.696-23.163L479.675,221.411L479.675,221.411z"/>
<path display="none" fill="#222222" d="M402.525,182.659c10.553,0,19.105-8.556,19.105-19.109c0-10.552-8.556-19.106-19.105-19.106
	c-10.553,0-19.107,8.557-19.107,19.106C383.418,174.104,391.973,182.659,402.525,182.659z M402.526,166.416
	c-1.583,0-2.866-1.283-2.866-2.866s1.283-2.866,2.866-2.866s2.862,1.283,2.862,2.866S404.109,166.416,402.526,166.416z
	 M415.859,164.628c2.74,1.583,3.682,5.088,2.098,7.831c-1.582,2.742-5.088,3.682-7.83,2.1c-2.741-1.584-3.681-5.09-2.099-7.832
	C409.611,163.984,413.117,163.045,415.859,164.628z M402.526,145.73c3.165,0,5.729,2.565,5.729,5.73c0,3.166-2.564,5.73-5.729,5.73
	c-3.167,0-5.732-2.564-5.732-5.73C396.794,148.298,399.359,145.73,402.526,145.73z M387.096,172.459
	c-1.584-2.743-0.646-6.248,2.096-7.831c2.742-1.583,6.25-0.644,7.834,2.099s0.644,6.248-2.101,7.832
	C392.184,176.141,388.677,175.201,387.096,172.459z"/>
<path display="none" fill="#222222" d="M460.887,163.55c0-10.552-8.558-19.106-19.108-19.106c-10.554,0-19.106,8.557-19.106,19.106
	c0,10.554,8.555,19.109,19.106,19.109C452.329,182.659,460.887,174.104,460.887,163.55z M455.111,164.628
	c2.739,1.583,3.682,5.088,2.097,7.831c-1.582,2.742-5.088,3.682-7.829,2.1c-2.742-1.584-3.681-5.09-2.1-7.832
	C448.863,163.984,452.368,163.045,455.111,164.628z M434.176,174.559c-2.742,1.582-6.248,0.645-7.83-2.1
	c-1.583-2.743-0.644-6.248,2.1-7.831c2.74-1.583,6.25-0.644,7.831,2.099C437.857,169.471,436.919,172.975,434.176,174.559z
	 M436.044,151.463c0-3.165,2.566-5.732,5.731-5.732c3.168,0,5.731,2.567,5.731,5.732c0,3.166-2.563,5.732-5.731,5.732
	C438.61,157.197,436.044,154.629,436.044,151.463z M438.911,163.55c0-1.583,1.283-2.866,2.865-2.866
	c1.584,0,2.863,1.283,2.863,2.866s-1.279,2.866-2.863,2.866C440.194,166.416,438.911,165.133,438.911,163.55z"/>
<path display="none" fill="#222222" d="M390.121,202.428l6.637-14.383l-0.003-0.003c0.163-0.372,0.256-0.782,0.256-1.213
	c0-1.685-1.366-3.052-3.052-3.052c-0.02,0-0.038,0.007-0.061,0.007l-0.002-0.003H373h-0.792h-1.972l22.611-49.008h-18.98
	l-0.008,0.004c-1.203,0.02-2.23,0.732-2.711,1.762l-0.012,0.007l-30.396,65.882H390.121z"/>
<path display="none" fill="#222222" d="M429.246,251.273l-22.507-48.848h48.213l0.004-0.003c0.01,0,0.019,0.003,0.029,0.003
	c1.155,0,2.15-0.652,2.671-1.604l0.036-0.022l30.464-66.026h-92.547l-3.813,8.262h79.602h0.021h2.74l-17.928,38.855
	c-0.017,0.036-0.033,0.069-0.051,0.104l-0.012,0.024l-0.003,0.002c-0.47,1.01-1.472,1.713-2.648,1.756l-0.004,0.002h-0.021
	c-0.029,0-0.059,0.01-0.084,0.01c-0.028,0-0.058-0.01-0.085-0.01h-0.729H403.46c-0.008,0-0.016-0.002-0.021-0.002
	c-0.014,0-0.021,0.002-0.025,0.002h-0.037l-0.007,0.005c-1.182,0.026-2.192,0.725-2.675,1.729l-0.017,0.01l-0.052,0.11
	c-0.001,0.001-0.002,0.005-0.002,0.007l-5.38,11.657l-2.669,5.776l-23.319,50.611l-5.68,12.324v2.457v0.002h17.007l19.21-43.279
	l0.013,0.027l0.016-0.027l19.207,43.279h17.007v-0.002v-2.457L429.246,251.273z"/>
<path display="none" fill="#222222" d="M326.611,195.523c0.451,0,0.875-0.104,1.258-0.277l0.015,0.009l16.985-7.745l14.355-31.201
	l-31.314-14.412c-0.396-0.188-0.832-0.301-1.299-0.301c-1.684,0-3.049,1.365-3.049,3.049h-0.002l0,0v47.875l0.006,0.002
	C323.594,194.184,324.943,195.523,326.611,195.523z"/>
<path display="none" fill="#222222" d="M200,285.372c0-5.195,3.91-8.7,8.979-8.7c3.685,0,5.826,1.992,7.014,4.11l-3.077,1.514
	c-0.706-1.362-2.222-2.446-3.937-2.446c-3.076,0-5.297,2.346-5.297,5.522c0,3.176,2.221,5.522,5.297,5.522
	c1.715,0,3.229-1.084,3.937-2.444l3.077,1.487c-1.188,2.092-3.33,4.137-7.014,4.137C203.91,294.074,200,290.544,200,285.372z"/>
<path display="none" fill="#222222" d="M219.591,285.372c0-5.069,3.708-8.7,8.802-8.7c5.069,0,8.777,3.631,8.777,8.7
	s-3.708,8.702-8.777,8.702C223.299,294.074,219.591,290.441,219.591,285.372z M233.488,285.372c0-3.151-1.993-5.522-5.096-5.522
	c-3.127,0-5.119,2.371-5.119,5.522c0,3.128,1.992,5.522,5.119,5.522C231.496,290.896,233.488,288.5,233.488,285.372z"/>
<path display="none" fill="#222222" d="M241.958,287.037v-10.088h3.63v9.986c0,2.346,1.363,3.959,3.96,3.959
	c2.599,0,3.935-1.613,3.935-3.959v-9.986h3.656v10.088c0,4.162-2.471,7.037-7.591,7.037
	C244.43,294.074,241.958,291.199,241.958,287.037z"/>
<path display="none" fill="#222222" d="M272.242,293.771l-3.305-5.979h-2.623v5.979h-3.582V276.95h7.869
	c3.506,0,5.676,2.295,5.676,5.422c0,2.951-1.895,4.563-3.709,4.993l3.809,6.406H272.242L272.242,293.771z M272.596,282.346
	c0-1.388-1.084-2.244-2.498-2.244h-3.783v4.539h3.783C271.511,284.641,272.596,283.784,272.596,282.346z"/>
<path display="none" fill="#222222" d="M284.848,293.771v-13.67h-4.918v-3.151h13.418v3.151h-4.894v13.67H284.848z"/>
<path display="none" fill="#222222" d="M316.166,293.771l-3.305-5.979h-2.621v5.979h-3.582V276.95h7.869
	c3.505,0,5.675,2.295,5.675,5.422c0,2.951-1.892,4.563-3.708,4.993l3.809,6.406H316.166L316.166,293.771z M316.52,282.346
	c0-1.388-1.084-2.244-2.498-2.244h-3.779v4.539h3.779C315.434,284.641,316.52,283.784,316.52,282.346z"/>
<path display="none" fill="#222222" d="M325.139,293.771V276.95h11.905v3.151h-8.323v3.528h8.146v3.153h-8.146v3.833h8.323v3.149
	h-11.905V293.771z"/>
<path display="none" fill="#222222" d="M342.107,293.771V276.95h7.871c3.654,0,5.646,2.472,5.646,5.422
	c0,2.926-2.02,5.397-5.646,5.397h-4.289v6.002H342.107L342.107,293.771z M351.971,282.371c0-1.413-1.084-2.27-2.496-2.27h-3.785
	v4.514h3.785C350.886,284.615,351.971,283.759,351.971,282.371z"/>
<path display="none" fill="#222222" d="M359.33,285.372c0-5.069,3.707-8.7,8.802-8.7c5.07,0,8.777,3.631,8.777,8.7
	s-3.707,8.702-8.777,8.702C363.037,294.074,359.33,290.441,359.33,285.372z M373.227,285.372c0-3.151-1.992-5.522-5.095-5.522
	c-3.128,0-5.118,2.371-5.118,5.522c0,3.128,1.99,5.522,5.118,5.522C371.234,290.896,373.227,288.5,373.227,285.372z"/>
<path display="none" fill="#222222" d="M391.203,293.771l-3.305-5.979h-2.621v5.979h-3.582V276.95h7.869
	c3.506,0,5.674,2.295,5.674,5.422c0,2.951-1.891,4.563-3.706,4.993l3.808,6.406H391.203L391.203,293.771z M391.557,282.346
	c0-1.388-1.084-2.244-2.496-2.244h-3.783v4.539h3.783C390.473,284.641,391.557,283.784,391.557,282.346z"/>
<path display="none" fill="#222222" d="M403.81,293.771v-13.67h-4.918v-3.151h13.417v3.151h-4.893v13.67H403.81z"/>
<path display="none" fill="#222222" d="M416.87,293.771V276.95h3.581v16.821H416.87z"/>
<path display="none" fill="#222222" d="M437.649,293.771l-8.021-10.974v10.974h-3.582V276.95h3.687l7.79,10.567V276.95h3.585v16.821
	H437.649z"/>
<path display="none" fill="#222222" d="M445.891,285.372c0-5.321,4.035-8.7,8.979-8.7c3.479,0,5.675,1.766,6.937,3.758l-2.948,1.614
	c-0.781-1.187-2.223-2.194-3.985-2.194c-3.076,0-5.295,2.346-5.295,5.522c0,3.176,2.219,5.522,5.295,5.522
	c1.489,0,2.875-0.654,3.556-1.285v-2.021h-4.438v-3.127h8.02v6.457c-1.715,1.916-4.108,3.149-7.138,3.149
	C449.926,294.074,445.891,290.669,445.891,285.372z"/>
<path display="none" fill="#222222" d="M467.777,297.227l-1.39-1.136c0.811-0.428,1.74-1.487,1.941-2.368
	c-0.075,0.023-0.277,0.074-0.479,0.074c-0.961,0-1.717-0.757-1.717-1.814c0-1.108,0.908-2.02,1.992-2.02
	c1.188,0,2.244,0.934,2.244,2.572C470.375,294.426,469.341,296.116,467.777,297.227z"/>
<path display="none" fill="#222222" d="M479.527,293.771V276.95h3.581v16.821H479.527z"/>
<path display="none" fill="#222222" d="M498.037,293.771l-8.021-10.974v10.974h-3.582V276.95h3.686l7.793,10.567V276.95h3.582
	v16.821H498.037z"/>
<path display="none" fill="#222222" d="M504.01,285.372c0-5.195,3.909-8.7,8.979-8.7c3.683,0,5.826,1.992,7.012,4.11l-3.078,1.514
	c-0.706-1.362-2.219-2.446-3.934-2.446c-3.078,0-5.296,2.346-5.296,5.522c0,3.176,2.218,5.522,5.296,5.522
	c1.715,0,3.228-1.084,3.934-2.444l3.078,1.487c-1.186,2.092-3.329,4.137-7.012,4.137C507.919,294.074,504.01,290.544,504.01,285.372
	z"/>
<path display="none" fill="#222222" d="M259.229,189.691c3.49-0.391,5.586-2.25,5.586-5.043V147.8c0-3.724,0-4.5-5.738-5.663v-1.938
	h6.051c6.98,0,8.688-0.313,8.688-0.313l0.39,0.313c0,0-2.562,2.947-2.562,9.387v14.43H300.5l0.773-0.774V147.8
	c0-3.724,0-4.5-5.738-5.663v-1.938h6.051c6.98,0,8.688-0.232,8.688-0.232l0.39,0.311c0,0-2.562,2.871-2.562,9.312v35.063
	c0,2.328-0.389,4.188-0.389,4.188l6.982,0.699l-0.313,2.171l-18.692,0.465v-2.48c3.412-0.389,5.584-2.172,5.584-4.813v-17.607
	h-28.857l-0.775,0.774v16.603c0,2.326-0.388,4.188-0.388,4.188l6.981,0.699l-0.313,2.171l-18.695,0.465v-2.479h0.002V189.691
	L259.229,189.691z"/>
<path display="none" fill="#222222" d="M316.855,189.691c3.258-0.313,4.576-1.939,5.194-3.491l18.388-45.771l3.183-0.699
	l17.222,44.063c2.096,5.273,3.49,5.663,5.896,6.051l-0.313,2.098h-3.336c-2.866,0-11.791,0.229-11.791,0.229v-2.637
	c2.173-0.078,4.112-0.699,3.259-3.026l-4.73-12.41h-18.54l-1.011,0.774l-5.354,13.963l6.596,0.933l-0.312,2.172h-14.353v-2.248
	H316.855z M340.359,148.421l-8.61,22.419h16.833l-6.671-17.688C341.291,151.602,340.671,149.585,340.359,148.421z"/>
<path display="none" fill="#222222" d="M369.162,189.691c3.413-0.391,5.584-2.172,5.584-4.813V147.8c0-3.724-0.387-4.5-6.359-5.663
	v-1.938h17.997c13.963,0,19.238,5.738,19.238,12.488c0,7.291-6.517,12.256-10.24,14.195v1.01l11.171,16.369
	c3.336,4.809,4.892,4.965,6.905,5.118l0.854,0.078L414,191.941h-11.248l-0.312-0.233c0,0-1.628-3.878-4.812-8.533l-9.618-14.196
	h-5.663l-0.775,0.775v15.127c0,2.25-0.387,3.957-0.387,3.957l6.979,0.699l-0.313,2.171l-18.692,0.465L369.162,189.691
	L369.162,189.691z M388.09,165.953c4.654,0,10.008-3.725,10.008-11.249c0-5.896-3.336-11.481-12.877-11.481h-2.871l-0.774,0.776
	v21.954H388.09z"/>
<path display="none" fill="#222222" d="M425.848,189.691c3.49-0.391,5.585-2.25,5.585-5.043v-41.426h-7.68
	c-5.354,0-7.682,1.629-10.63,9.617h-2.637l2.402-13.109c0,0,2.02,0.467,5.197,0.467h36.306c3.185,0,5.585-0.467,5.585-0.467
	l-2.4,13.109h-2.642c0.391-7.988-2.172-9.617-8.223-9.617h-7.681l-0.776,0.774v40.647c0,2.326-0.388,4.188-0.388,4.188l7.759,0.699
	l-0.313,2.171l-19.472,0.465v-2.48h0.004v0.004H425.848z"/>
<path display="none" fill="#222222" d="M234.893,223.004l-11.947,37.78l-3.024-0.933l-17.842-45.306
	c-1.319-3.336-4.578-4.267-4.578-4.267v-1.939h4.731c4.889,0,7.99-0.311,7.99-0.311l0.312,0.311
	c-0.854,1.862-1.318,4.891-0.468,7.141l11.173,29.941c0.544,1.477,1.087,3.49,1.476,4.967l10.24-32.271l-1.318-3.569
	c-1.316-3.336-4.576-4.266-4.576-4.266v-1.94h4.73c4.887,0,7.988-0.31,7.988-0.31l0.313,0.31c-0.854,1.862-1.316,4.889-0.466,7.139
	l10.938,30.101c0.465,1.396,1.008,3.258,1.396,4.731l10.55-33.279c1.164-3.646,0.313-5.588-3.724-6.749v-1.94h11.792l0.311,1.088
	c0,0-2.716,1.396-5.041,8.301l-13.652,43.057l-3.026-0.934L234.893,223.004z"/>
<path display="none" fill="#222222" d="M263.307,257.837c3.26-0.312,4.577-1.938,5.198-3.493l18.386-45.769l3.18-0.699
	l17.225,44.063c2.098,5.272,3.491,5.662,5.896,6.052l-0.313,2.095h-3.336c-2.87,0-11.791,0.232-11.791,0.232v-2.639
	c2.172-0.078,4.109-0.697,3.258-3.025l-4.73-12.411h-18.541l-1.008,0.774l-5.354,13.965l6.593,0.932l-0.31,2.172h-14.354V257.837
	L263.307,257.837z M286.813,216.564l-8.608,22.42h16.835l-6.672-17.688C287.744,219.746,287.123,217.729,286.813,216.564z"/>
<path display="none" fill="#222222" d="M341.48,207.411c6.594,0,14.814,1.474,17.377,1.707l-2.328,11.868h-2.637
	c-0.078-8.533-6.826-10.627-12.955-10.627c-13.576,0-20.635,10.861-20.635,23.117c0,14.043,9.539,24.205,23.813,24.205
	c2.479,0,4.964-0.313,7.758-0.934V245.5c0-3.727-0.313-4.652-7.138-5.662V237.9h16.521l0.389,1.086c0,0-3.023,1.396-3.023,7.369V259
	c-5.042,0.775-11.945,2.018-17.607,2.018c-15.518,0-28.316-9.076-28.316-25.754C312.699,221.375,321.621,207.411,341.48,207.411z"/>
<path display="none" fill="#222222" d="M366.191,257.837c3.49-0.388,5.586-2.019,5.586-4.812v-34.908
	c0-5.354-1.242-6.905-6.361-7.835v-1.94h2.328c3.801,0,7.756-0.31,7.756-0.31s0.932,1.784,2.871,4.034l28.082,32.427
	c1.011,1.241,2.251,2.871,3.104,4.112v-32.272c0-3.414-0.077-5.198-6.359-5.817v-2.174h14.739l0.39,1.088
	c0,0-5.354,1.473-5.354,7.912v43.133h-2.018l-32.972-38.94c-0.932-1.089-2.019-2.563-2.795-3.728v35.221
	c0,2.328-0.387,4.188-0.387,4.188l6.981,0.468l-0.312,2.172l-15.281,0.467v-2.482h0.002V257.837L366.191,257.837z"/>
<path display="none" fill="#222222" d="M423.707,257.837c3.492-0.388,5.586-2.019,5.586-4.812v-37.08c0-3.725-0.387-4.5-6.36-5.663
	v-1.94h31.961c3.184,0,5.585-0.31,5.585-0.31l-2.401,12.954h-2.642c0.392-7.989-2.171-9.619-8.378-9.619h-10.158l-0.777,0.775
	v20.172h14.352l0.622-4.424l2.87-0.467v13.653h-3.646v-5.741H436.9l-0.777,0.775v16.602c0,2.328-0.387,4.348-0.387,4.348h12.179
	c6.671,0,7.603-1.478,11.479-9.619h2.64l-2.87,12.645h-24.205c-3.878,0-11.248,0.232-11.248,0.232v-2.481H423.707z"/>
<path display="none" fill="#222222" d="M466.041,257.837c3.413-0.388,5.586-2.174,5.586-4.812v-37.08c0-3.725-0.388-4.5-6.362-5.663
	v-1.94h17.998c13.965,0,19.238,5.741,19.238,12.49c0,7.293-6.516,12.257-10.238,14.195v1.01l11.171,16.369
	c3.336,4.809,4.89,4.965,6.903,5.119l0.854,0.076l-0.313,2.481h-11.247l-0.312-0.231c0,0-1.629-3.879-4.813-8.533l-9.619-14.195
	h-5.662l-0.773,0.775v15.127c0,2.25-0.388,3.957-0.388,3.957l6.979,0.695l-0.311,2.174l-18.696,0.467L466.041,257.837
	L466.041,257.837z M484.969,234.098c4.656,0,10.008-3.723,10.008-11.248c0-5.896-3.336-11.479-12.876-11.479h-2.868l-0.776,0.774
	v21.953H484.969z"/>
<path display="none" fill="#222222" d="M221.773,291.999v-13.81h-4.896v-1.166h11.093v1.166h-4.896v13.81H221.773z"/>
<path display="none" fill="#222222" d="M247.254,291.999l-4.197-6.197h-3.302v6.197h-1.28v-14.976h5.592
	c2.582,0,4.56,1.639,4.56,4.377c0,2.718-1.909,4.222-4.151,4.313l4.332,6.286H247.254z M247.275,281.4
	c0-1.887-1.324-3.211-3.322-3.211h-4.199v6.441h4.199C245.951,284.634,247.275,283.287,247.275,281.4z"/>
<path display="none" fill="#222222" d="M259.666,291.999v-14.976h1.279v14.976H259.666z"/>
<path display="none" fill="#222222" d="M283.372,291.999l-1.481-3.683h-7.925l-1.481,3.683h-1.479l6.129-14.976h1.597l6.129,14.976
	H283.372z M277.939,278.393l-3.547,8.756h7.069L277.939,278.393z"/>
<path display="none" fill="#222222" d="M294.596,291.999v-14.976h1.301v13.808h7.252v1.168H294.596z"/>
<path display="none" fill="#222222" d="M339.365,291.999l-1.482-3.683h-7.926l-1.482,3.683h-1.479l6.129-14.976h1.596l6.131,14.976
	H339.365z M333.932,278.393l-3.549,8.756h7.073L333.932,278.393z"/>
<path display="none" fill="#222222" d="M353.168,291.999v-13.81h-4.895v-1.166h11.092v1.166h-4.895v13.81H353.168z"/>
<path display="none" fill="#222222" d="M373.688,291.999v-13.81h-4.895v-1.166h11.09v1.166h-4.895v13.81H373.688z"/>
<path display="none" fill="#222222" d="M389.176,284.521c0-4.379,2.872-7.746,7.272-7.746c4.378,0,7.272,3.367,7.272,7.746
	s-2.896,7.746-7.272,7.746C392.048,292.27,389.176,288.9,389.176,284.521z M402.375,284.521c0-3.795-2.334-6.578-5.927-6.578
	c-3.614,0-5.927,2.783-5.927,6.578c0,3.771,2.313,6.578,5.927,6.578C400.041,291.1,402.375,288.293,402.375,284.521z"/>
<path display="none" fill="#222222" d="M423.521,291.999l-4.198-6.197h-3.301v6.197h-1.279v-14.976h5.591
	c2.582,0,4.558,1.639,4.558,4.377c0,2.718-1.907,4.222-4.15,4.313l4.332,6.286H423.521z M423.544,281.4
	c0-1.887-1.324-3.211-3.322-3.211h-4.196v6.441h4.196C422.22,284.634,423.544,283.287,423.544,281.4z"/>
<path display="none" fill="#222222" d="M446.643,291.999l-9.43-12.865v12.865h-1.278v-14.976h1.304l9.384,12.686v-12.686h1.281
	v14.976H446.643z"/>
<path display="none" fill="#222222" d="M459.48,291.999v-14.976h9.495v1.166h-8.218v5.547h8.063v1.168h-8.063v5.927h8.218v1.168
	H459.48L459.48,291.999z"/>
<path display="none" fill="#222222" d="M484.422,291.999v-6.397l-5.949-8.578h1.552l5.051,7.365l5.053-7.365h1.548l-5.948,8.578
	v6.397H484.422z"/>
<path display="none" fill="#222222" d="M500.449,289.889l0.83-0.967c0.965,1.102,2.537,2.178,4.689,2.178
	c3.058,0,3.932-1.705,3.932-2.982c0-4.399-8.979-2.109-8.979-7.344c0-2.445,2.199-3.996,4.915-3.996
	c2.224,0,3.931,0.785,5.076,2.109l-0.855,0.943c-1.076-1.303-2.604-1.887-4.287-1.887c-1.996,0-3.503,1.146-3.503,2.761
	c0,3.84,8.982,1.729,8.982,7.319c0,1.932-1.281,4.244-5.322,4.244C503.456,292.27,501.594,291.257,500.449,289.889z"/>
<path display="none" fill="#222222" d="M503.693,243.23c0.666-0.072,0.988-0.383,0.988-0.916v-7.073c0-0.71,0-0.858-1.095-1.08
	v-0.37h1.153c1.333,0,1.657-0.059,1.657-0.059l0.072,0.059c0,0-0.486,0.563-0.486,1.791v6.688c0,0.443-0.073,0.813-0.073,0.813
	h2.471c1.271,0,1.51-0.458,2.25-2.132h0.503l-0.604,2.708h-4.768c-0.736,0-2.068,0.046-2.068,0.046V243.23L503.693,243.23z"/>
<path display="none" fill="#222222" d="M512.038,243.23c0.665-0.072,0.991-0.383,0.991-0.916v-7.073c0-0.71,0-0.858-1.099-1.08
	v-0.37h1.154c1.332,0,1.658-0.059,1.658-0.059l0.074,0.059c0,0-0.489,0.563-0.489,1.791v6.688c0,0.443-0.073,0.813-0.073,0.813
	h2.474c1.271,0,1.51-0.458,2.246-2.132h0.507l-0.608,2.708h-4.764c-0.74,0-2.071,0.046-2.071,0.046V243.23L512.038,243.23z"/>
<path display="none" fill="#222222" d="M520.354,243.23c0.65-0.072,1.064-0.414,1.064-0.916v-7.073c0-0.71-0.073-0.858-1.212-1.08
	v-0.37h3.669c1.701,0,3.625,0.548,3.625,2.723c0,2.383-2.232,3.166-3.832,3.004v-0.414c1.716-0.045,2.383-1.107,2.383-2.275
	c0-1.776-1.393-2.457-2.959-2.457h-0.224l-0.146,0.146v7.797c0,0.432-0.072,0.754-0.072,0.754l1.403,0.137l-0.059,0.414l-3.641,0.09
	V243.23L520.354,243.23z"/>
<rect display="none" fill="#231F20" width="720" height="432"/>
<path display="none" fill="#A4CD3C" d="M178.702,215.285h-0.138c-7.809,0-14.224-6.276-14.224-14.084v-0.139h14.224v-9.619
	c0-12.411,8.368-21.754,20.775-21.754h2.667c-14.354-5.183-48.502-0.48-48.502-0.48h0.021c-2.047,8.62-5.272,30.879-1.427,46.007
	c3.844,15.132,12.28,23.563,26.6,28.774c0.002,0,0.003,0,0.003,0L178.702,215.285L178.702,215.285z"/>
<path display="none" fill="#A4CD3C" d="M228.656,198.479c-2.711-10.672-7.708-18.008-15.442-23.232
	c-1.797,5.229-6.582,8.709-12.481,9.363c-3.9,0.418-6.832,3.207-6.832,7.108v9.345h18.406v0.141c0,7.808-6.271,14.084-14.082,14.084
	H193.9v31.054c15.354,0.623,33.349-1.854,33.349-1.854l-0.021,0.005C229.277,235.866,232.5,213.607,228.656,198.479z"/>
<path display="none" fill="#FFFFFF" d="M263.186,210.634c-4.986,0-9.08-4.001-9.08-8.987v-0.088h9.08v-6.14
	c0-7.927,5.332-13.89,13.258-13.89h9.348v0.539c0,4.979-3.648,8.455-8.46,8.988c-2.489,0.268-4.354,2.045-4.354,4.541v5.961h11.748
	v0.088c0,4.984-4.006,8.985-8.992,8.985h-2.756v27.146c0,4.979-3.918,8.99-8.896,8.99h-0.808v-36.137L263.186,210.634
	L263.186,210.634z"/>
<path display="none" fill="#FFFFFF" d="M287.652,246.051v-56.238c0-4.983,4.007-8.985,8.99-8.985h0.806v65.228L287.652,246.051
	L287.652,246.051z"/>
<path display="none" fill="#FFFFFF" d="M324.055,246.945c-12.813,0-21.007-10.319-21.007-23.135
	c0-12.824,9.442-23.146,22.254-23.146c12.816,0,22.251,10.417,22.251,23.232c0,2.492-1.955,4.09-4.457,4.09h-29.539
	c1.336,5.521,5.242,9.531,11.027,9.531c5.341,0,7.924-0.72,10.771-0.72c3.92,0,7.211,2.494,8.545,6.14
	C339.63,245.251,331.71,246.945,324.055,246.945z M313.557,219.805h23.316c-1.604-5.516-5.699-9.975-11.571-9.975
	C319.337,209.83,314.975,214.191,313.557,219.805z"/>
<path display="none" fill="#FFFFFF" d="M400.771,246.051v-56.238c0-4.983,4.004-8.985,8.983-8.985h0.801v65.228L400.771,246.051
	L400.771,246.051z"/>
<path display="none" fill="#FFFFFF" d="M437.17,246.945c-12.813,0-20.998-10.319-20.998-23.135c0-12.824,9.435-23.146,22.248-23.146
	c12.816,0,22.248,10.417,22.248,23.232c0,2.492-1.956,4.09-4.442,4.09h-29.557c1.341,5.521,5.258,9.531,11.041,9.531
	c5.341,0,7.921-0.72,10.766-0.72c3.913,0,7.21,2.494,8.55,6.14C452.747,245.251,444.83,246.945,437.17,246.945z M426.669,219.805
	h23.324c-1.605-5.516-5.696-9.975-11.573-9.975C432.459,209.83,428.093,214.191,426.669,219.805z"/>
<path display="none" fill="#FFFFFF" d="M468.502,261.102c1.156-3.83,3.917-6.143,7.653-6.143c3.649,0,5.153,0.623,10.771,0.623
	c4.979,0,9.522-3.826,9.522-8.995v-2.04c-2.938,0.977-6.679,1.951-10.504,1.951c-11.932,0-21.716-9.872-21.716-22.688
	c0-12.824,10.052-23.146,22.868-23.146c4.453,0,8.37,0.271,11.479,1.245c4.271,1.339,7.656,4.012,7.656,9.698v34.269
	c0,10.685-7.565,18.867-18.161,18.867C480.25,264.744,473.043,262.793,468.502,261.102z M496.45,235.73v-25.099
	c0,0-4.362-0.886-9.076-0.886c-7.215,0-13.002,6.579-13.002,14.063c0,7.48,5.7,13.709,12.103,13.709
	C491.468,237.52,496.45,235.73,496.45,235.73z"/>
<path display="none" fill="#FFFFFF" d="M551.98,219.533v15.935c0,5.696-3.384,8.278-7.652,9.706
	c-3.116,1.061-8.012,1.771-15.752,1.771c-10.772,0-16.639-6.23-16.639-14.063s6.316-14.066,15.925-14.066h14.331
	c0-5.16-4.54-8.987-9.526-8.987c-5.604,0-7.116,0.629-10.762,0.629c-3.743,0-6.504-2.312-7.663-6.138
	c4.54-1.692,11.751-3.655,19.585-3.655C544.415,200.665,551.98,208.857,551.98,219.533z M542.193,227.016h-13.526
	c-4.449,0-6.591,2.575-6.591,5.248c0,2.668,2.229,5.699,7.928,5.699c6.232,0,9.604-0.803,12.189-1.432V227.016z"/>
<path display="none" fill="#FFFFFF" d="M391.782,203.154c-1.779-1.777-4-2.313-5.959-2.313c-2.583,0-4.983,0.894-7.031,3.56
	l-7.108,9.174l5.729,7.208L391.782,203.154z"/>
<path display="none" fill="#FFFFFF" d="M377.404,225.242l-6.123,7.699l8.312,10.357c1.688,2.042,4.272,3.471,6.943,3.471
	c2.397,0,4.803-0.981,6.313-2.494L377.404,225.242z"/>
<polygon display="none" fill="#FFFFFF" points="369.913,215.859 360.813,204.4 369.895,215.883 "/>
<polygon display="none" fill="#FFFFFF" points="359.389,243.389 369.477,230.699 369.452,230.659 "/>
<path display="none" fill="#FFFFFF" d="M369.895,215.883l-9.082-11.482c-1.688-2.131-4.449-3.559-7.119-3.559
	c-2.397,0-4.629,0.981-6.141,2.498l16.014,20.021l-17.082,21.187c1.781,1.601,4.097,2.224,6.146,2.224
	c2.405,0,4.713-0.72,6.762-3.381l10.063-12.729l0.021,0.04l6.116-7.698l-5.68-7.143L369.895,215.883z"/>
<path display="none" fill="#222222" d="M185.645,201.755c-5.848,0-10.645-4.692-10.645-10.537v-0.103h10.645v-7.199
	c0-9.294,6.254-16.284,15.545-16.284h10.957v0.634c0,5.838-4.278,9.91-9.92,10.536c-2.916,0.313-5.104,2.396-5.104,5.322v6.991
	h13.771v0.103c0,5.845-4.693,10.537-10.541,10.537h-3.23v31.826c0,5.837-4.596,10.539-10.432,10.539h-0.943v-42.365H185.645z"/>
<path display="none" fill="#222222" d="M214.33,243.277v-65.936c0-5.846,4.697-10.537,10.542-10.537h0.942v76.473H214.33
	L214.33,243.277z"/>
<path display="none" fill="#222222" d="M257.008,244.327c-15.021,0-24.627-12.099-24.627-27.123
	c0-15.035,11.07-27.138,26.092-27.138c15.025,0,26.086,12.213,26.086,27.24c0,2.922-2.291,4.795-5.227,4.795H244.7
	c1.565,6.474,6.147,11.174,12.93,11.174c6.263,0,9.29-0.84,12.627-0.84c4.597,0,8.455,2.924,10.019,7.192
	C275.27,242.34,265.984,244.327,257.008,244.327z M244.699,212.506h27.338c-1.879-6.466-6.682-11.693-13.566-11.693
	C251.479,200.813,246.361,205.927,244.699,212.506z"/>
<path display="none" fill="#222222" d="M346.952,243.277v-65.936c0-5.846,4.694-10.537,10.534-10.537h0.938v76.473H346.952
	L346.952,243.277z"/>
<path display="none" fill="#222222" d="M389.627,244.327c-15.021,0-24.619-12.099-24.619-27.123
	c0-15.035,11.059-27.138,26.084-27.138c15.026,0,26.084,12.213,26.084,27.24c0,2.922-2.295,4.795-5.21,4.795h-34.651
	c1.572,6.474,6.164,11.174,12.943,11.174c6.267,0,9.288-0.84,12.622-0.84c4.59,0,8.454,2.924,10.021,7.192
	C407.888,242.34,398.607,244.327,389.627,244.327z M377.314,212.506h27.345c-1.883-6.466-6.678-11.693-13.567-11.693
	C384.104,200.813,378.982,205.927,377.314,212.506z"/>
<path display="none" fill="#222222" d="M426.359,260.923c1.354-4.491,4.592-7.2,8.973-7.2c4.281,0,6.045,0.73,12.631,0.73
	c5.836,0,11.162-4.486,11.162-10.547v-2.391c-3.443,1.145-7.828,2.284-12.314,2.284c-13.98,0-25.458-11.571-25.458-26.599
	c0-15.035,11.783-27.139,26.813-27.139c5.222,0,9.813,0.317,13.457,1.459c5.011,1.568,8.977,4.703,8.977,11.371v40.178
	c0,12.523-8.865,22.119-21.291,22.119C440.134,265.193,431.685,262.907,426.359,260.923z M459.125,231.18v-29.424
	c0,0-5.112-1.039-10.64-1.039c-8.459,0-15.244,7.713-15.244,16.487c0,8.771,6.684,16.071,14.188,16.071
	C453.285,233.275,459.125,231.18,459.125,231.18z"/>
<path display="none" fill="#222222" d="M524.23,212.189v18.682c0,6.678-3.967,9.705-8.974,11.379
	c-3.654,1.242-9.394,2.077-18.469,2.077c-12.63,0-19.507-7.306-19.507-16.484c0-9.178,7.406-16.493,18.669-16.493h16.804
	c0-6.052-5.324-10.537-11.17-10.537c-6.572,0-8.343,0.736-12.617,0.736c-4.388,0-7.626-2.71-8.98-7.197
	c5.318-1.981,13.773-4.285,22.96-4.285C515.36,190.066,524.23,199.672,524.23,212.189z M512.757,220.961H496.9
	c-5.22,0-7.729,3.02-7.729,6.152c0,3.129,2.613,6.683,9.295,6.683c7.31,0,11.256-0.94,14.291-1.679V220.961z"/>
<path display="none" fill="#222222" d="M533.517,243.277v-65.936c0-5.846,4.698-10.537,10.54-10.537H545v76.473H533.517
	L533.517,243.277z"/>
<path display="none" fill="#222222" d="M336.413,192.986c-2.086-2.084-4.688-2.711-6.986-2.711c-3.028,0-5.842,1.045-8.243,4.17
	L312.85,205.2l6.717,8.45L336.413,192.986z"/>
<path display="none" fill="#222222" d="M319.557,218.882l-7.179,9.028l9.744,12.145c1.979,2.396,5.009,4.065,8.14,4.065
	c2.813,0,5.631-1.149,7.403-2.925L319.557,218.882z"/>
<polygon display="none" fill="#222222" points="310.773,207.881 300.104,194.445 310.751,207.909 "/>
<polygon display="none" fill="#222222" points="298.434,240.157 310.262,225.279 310.232,225.232 "/>
<path display="none" fill="#222222" d="M310.751,207.909l-10.647-13.462c-1.979-2.497-5.217-4.172-8.347-4.172
	c-2.813,0-5.428,1.148-7.198,2.929l18.773,23.474l-20.027,24.84c2.09,1.875,4.801,2.604,7.203,2.604c2.82,0,5.525-0.843,7.926-3.963
	l11.799-14.925l0.029,0.045l7.17-9.023l-6.658-8.373L310.751,207.909z"/>
<path display="none" fill="#222222" d="M175,182.363v67.273h370v-67.273H175z M541.637,246.273H178.364v-60.547h363.272
	L541.637,246.273L541.637,246.273z"/>
<path display="none" fill="#222222" d="M210.027,234.293c-10.334,0-18.209-6.424-18.209-18.209c0-11.061,7.932-18.377,18.32-18.377
	c10.387,0,18.266,6.367,18.266,18.152C228.402,226.919,220.416,234.293,210.027,234.293z M210.027,204.857
	c-5.922,0-9.272,4.468-9.272,11.002c0,6.703,3.463,11.283,9.438,11.283c5.865,0,9.271-4.524,9.271-11.062
	C219.466,209.38,215.948,204.857,210.027,204.857z"/>
<path display="none" fill="#222222" d="M241.691,233.454h-8.881v-34.908c0,0,14.354,0,14.02,0c9.271,0,14.131,4.3,14.131,11.06
	c0,4.69-2.457,8.268-7.148,10.056l8.938,13.796h-9.998l-6.979-11.729l-4.078,0.334v11.394h-0.004V233.454z M245.993,215.357
	c3.798-0.279,5.864-1.844,5.864-5.194c0-3.072-2.123-4.581-6.59-4.581c-0.168,0-3.744,0-3.744,0v9.887L245.993,215.357z"/>
<path display="none" fill="#222222" d="M265.872,233.454v-34.908h25.526v7.147h-16.813v6.703h13.519v7.095h-13.519v6.813h16.813
	v7.146L265.872,233.454L265.872,233.454z"/>
<path display="none" fill="#222222" d="M312.732,234.293c-11.17,0-18.771-6.646-18.771-18.152c0-11.451,7.373-18.434,18.824-18.434
	c4.468,0,9.772,1.006,13.125,3.018l-2.793,7.428c-3.295-1.896-6.703-2.902-10.056-2.902c-6.256,0-10.275,4.188-10.275,10.669
	c0,6.979,3.521,11.115,10.167,11.115c2.01,0,4.133-0.447,5.585-1.063v-5.141h-8.604v-7.036h16.646v17.261
	C322.786,233.119,317.814,234.293,312.732,234.293z"/>
<path display="none" fill="#222222" d="M348.363,234.293c-10.334,0-18.209-6.424-18.209-18.209c0-11.061,7.933-18.377,18.32-18.377
	c10.389,0,18.264,6.367,18.264,18.152C366.739,226.919,358.753,234.293,348.363,234.293z M348.363,204.857
	c-5.92,0-9.271,4.468-9.271,11.002c0,6.703,3.463,11.283,9.438,11.283c5.865,0,9.271-4.524,9.271-11.062
	C357.802,209.38,354.285,204.857,348.363,204.857z"/>
<path display="none" fill="none" d="M407.715,205.582c-0.168,0-3.743,0-3.743,0v9.887l4.471-0.111
	c3.799-0.276,5.862-1.842,5.862-5.191C414.305,207.091,412.183,205.582,407.715,205.582z"/>
<path display="none" fill="#459A41" d="M416.26,219.658c4.692-1.788,7.149-5.362,7.149-10.055c0-6.758-4.86-11.061-14.132-11.061
	c0.146,0-2.587,0-5.682,0h-8.318c-0.006,0-0.021,0-0.021,0v22.646v7.832v4.764h8.34h0.541v-4.764v-6.965l4.077-0.334l6.981,11.729
	h9.999L416.26,219.658z M408.439,215.357l-4.471,0.108v-9.887c0,0,3.575,0,3.743,0c4.468,0,6.59,1.509,6.59,4.581
	C414.305,213.516,412.238,215.078,408.439,215.357z"/>
<path display="none" fill="#459A41" d="M443.123,234.293c-9.104,0-15.36-4.47-15.36-14.299v-21.448h8.825v20.274
	c0,5.25,2.122,7.986,6.759,7.986c4.188,0,6.367-2.232,6.367-7.652c0,0.113,0-20.608,0-20.608h8.825c0,0,0,20.499,0,20.666
	C458.539,229.32,452.506,234.293,443.123,234.293z"/>
<path display="none" fill="#459A41" d="M488.249,198.546h8.322v35.244h-9.439l-14.688-22.957v22.621h-8.321v-34.908h9.604
	l14.522,22.677V198.546L488.249,198.546z"/>
<path display="none" fill="#459A41" d="M519.356,223.68c0-2.346-2.517-3.128-7.149-4.412c-5.084-1.396-11.227-3.742-11.227-10.725
	c0-6.479,4.744-10.779,13.402-10.779c5.477,0,9.721,1.229,13.069,3.071l-1.731,7.317c-3.463-1.844-7.816-3.072-11.279-3.072
	c-3.072,0-4.58,1.063-4.58,2.96c0,2.291,3.183,3.185,7.373,4.356c5.358,1.453,10.945,3.91,10.945,10.558s-5.14,11.339-14.3,11.339
	c-5.192,0-10.221-1.341-13.461-3.186l1.676-7.373c3.464,1.845,7.652,3.24,11.953,3.24
	C517.178,226.975,519.356,225.803,519.356,223.68z"/>
<polygon display="none" fill="#222222" points="395.259,231.792 395.259,229.025 395.259,221.193 380.755,198.546 371.146,198.546 
	371.146,233.454 379.471,233.454 379.471,210.833 394.159,233.79 395.257,233.79 395.257,231.792 "/>
<rect x="175" y="223.659" display="none" fill="#E4BA00" width="370" height="2.467"/>
<path display="none" fill="#222222" d="M194.354,249.546c-1.16-1.142-1.74-2.606-1.74-4.397s0.58-3.258,1.74-4.396
	c1.162-1.143,2.604-1.711,4.326-1.711c1.9,0,3.396,0.779,4.479,2.342l-1.221,0.691c-0.34-0.521-0.803-0.938-1.388-1.248
	c-0.585-0.314-1.208-0.475-1.87-0.475c-1.309,0-2.393,0.448-3.254,1.344c-0.861,0.896-1.292,2.05-1.292,3.453
	c0,1.396,0.435,2.541,1.302,3.442c0.865,0.902,1.947,1.353,3.244,1.353c0.662,0,1.284-0.156,1.866-0.479
	c0.581-0.318,1.045-0.732,1.392-1.24l1.234,0.676c-1.141,1.572-2.638,2.357-4.492,2.357
	C196.957,251.257,195.516,250.688,194.354,249.546z"/>
<path display="none" fill="#222222" d="M208.598,251.041v-11.805h4.743c1.095,0,1.987,0.324,2.679,0.973
	c0.692,0.648,1.037,1.512,1.037,2.588c0,1.021-0.298,1.834-0.895,2.439c-0.598,0.604-1.326,0.943-2.189,1.015l3.188,4.79h-1.737
	l-2.988-4.666h-2.367v4.666H208.598L208.598,251.041z M210.064,245.063h3.095c0.696,0,1.268-0.213,1.711-0.641
	c0.442-0.427,0.665-0.968,0.665-1.625c0-0.674-0.223-1.217-0.665-1.629c-0.443-0.411-1.015-0.617-1.711-0.617h-3.095V245.063z"/>
<path display="none" fill="#222222" d="M222.912,251.041v-11.805h1.469v11.805H222.912L222.912,251.041z"/>
<path display="none" fill="#222222" d="M230.677,251.041v-11.805h2.101l3.683,9.1l3.664-9.1h2.106v11.805h-1.469v-9.93l-4.002,9.93
	h-0.597l-4.019-9.93v9.93H230.677L230.677,251.041z"/>
<path display="none" fill="#222222" d="M248.525,251.041v-11.805h1.47v11.805H248.525L248.525,251.041z"/>
<path display="none" fill="#222222" d="M256.291,251.041v-11.805h1.503l6.792,9.221v-9.221h1.469v11.805h-1.416l-6.879-9.419v9.419
	H256.291L256.291,251.041z"/>
<path display="none" fill="#222222" d="M271.124,251.041l4.762-11.805h1.823l4.744,11.805h-1.678l-1.045-2.618h-5.877l-1.045,2.618
	H271.124L271.124,251.041z M274.295,247.109h5.014l-2.516-6.369L274.295,247.109z"/>
<path display="none" fill="#222222" d="M287.332,251.041v-11.805h1.469v10.49h5.487v1.313L287.332,251.041L287.332,251.041z"/>
<path display="none" fill="#222222" d="M307.908,251.041v-11.805h4.035c1.804,0,3.263,0.562,4.377,1.682
	c1.115,1.12,1.672,2.53,1.672,4.229c0,1.711-0.555,3.121-1.663,4.23c-1.108,1.107-2.57,1.663-4.386,1.663L307.908,251.041
	L307.908,251.041z M309.377,249.729h2.566c1.395,0,2.498-0.438,3.31-1.311c0.813-0.872,1.22-1.963,1.22-3.271
	c0-1.316-0.402-2.414-1.205-3.287c-0.805-0.873-1.912-1.31-3.324-1.31h-2.563L309.377,249.729L309.377,249.729z"/>
<path display="none" fill="#222222" d="M323.83,251.041v-11.805h7.734v1.313h-6.269v3.793h6.138v1.313h-6.138v4.07h6.269v1.313
	h-7.734V251.041z"/>
<path display="none" fill="#222222" d="M337.438,251.041v-11.805h7.733v1.313h-6.267v3.793h6.137v1.313h-6.137v5.386
	L337.438,251.041L337.438,251.041z"/>
<path display="none" fill="#222222" d="M350.725,251.041v-11.805h7.733v1.313h-6.267v3.793h6.137v1.313h-6.137v4.07h6.267v1.313
	h-7.733V251.041z"/>
<path display="none" fill="#222222" d="M364.33,251.041v-11.805h1.503l6.792,9.221v-9.221h1.47v11.805h-1.417l-6.879-9.419v9.419
	H364.33L364.33,251.041z"/>
<path display="none" fill="#222222" d="M379.682,249.372l0.883-1.134c0.979,1.137,2.211,1.705,3.697,1.705
	c0.956,0,1.659-0.205,2.108-0.616c0.448-0.412,0.674-0.892,0.674-1.438c0-0.552-0.239-0.992-0.718-1.318s-1.063-0.588-1.746-0.776
	c-0.686-0.188-1.372-0.382-2.061-0.571c-0.689-0.191-1.271-0.525-1.75-1.006c-0.479-0.48-0.719-1.107-0.719-1.896
	c0-0.965,0.385-1.752,1.149-2.361s1.737-0.917,2.92-0.917c1.731,0,3.126,0.551,4.174,1.649l-0.881,1.082
	c-0.836-0.944-1.976-1.42-3.414-1.42c-0.708,0-1.29,0.179-1.745,0.527c-0.455,0.354-0.684,0.809-0.684,1.366
	c0,0.419,0.175,0.767,0.521,1.039c0.35,0.272,0.773,0.483,1.281,0.632s1.066,0.311,1.684,0.486c0.61,0.18,1.176,0.375,1.688,0.591
	c0.515,0.214,0.943,0.563,1.295,1.043s0.523,1.063,0.523,1.741c0,0.957-0.356,1.774-1.071,2.457
	c-0.716,0.682-1.81,1.021-3.283,1.021C382.297,251.257,380.788,250.629,379.682,249.372z"/>
<path display="none" fill="#222222" d="M394.299,251.041v-11.805h7.733v1.313h-6.265v3.793h6.136v1.313h-6.136v4.07h6.265v1.313
	h-7.733V251.041z"/>
<path display="none" fill="#222222" d="M414.798,251.041l4.762-11.805h1.823l4.744,11.805h-1.677l-1.046-2.618h-5.876l-1.045,2.618
	H414.798L414.798,251.041z M417.97,247.109h5.015l-2.518-6.369L417.97,247.109z"/>
<path display="none" fill="#222222" d="M429.208,240.551v-1.313h8.952v1.313h-3.75v10.49h-1.469v-10.49H429.208z"/>
<path display="none" fill="#222222" d="M442.831,240.551v-1.313h8.952v1.313h-3.75v10.49h-1.469v-10.49H442.831z"/>
<path display="none" fill="#222222" d="M457.941,249.521c-1.092-1.158-1.637-2.615-1.637-4.373s0.545-3.215,1.637-4.373
	c1.09-1.157,2.497-1.736,4.221-1.736c1.725,0,3.136,0.579,4.23,1.736c1.1,1.158,1.647,2.615,1.647,4.373s-0.55,3.215-1.647,4.373
	c-1.098,1.154-2.509,1.733-4.23,1.733C460.438,251.257,459.031,250.678,457.941,249.521z M457.829,245.146
	c0,1.396,0.395,2.543,1.185,3.441c0.79,0.902,1.84,1.354,3.148,1.354c1.298,0,2.349-0.449,3.153-1.354
	c0.804-0.898,1.206-2.049,1.206-3.441c0-1.396-0.4-2.541-1.202-3.442c-0.805-0.901-1.854-1.353-3.157-1.353
	c-1.309,0-2.358,0.445-3.148,1.344C458.224,242.592,457.829,243.742,457.829,245.146z"/>
<path display="none" fill="#222222" d="M473.864,251.041v-11.805h4.744c1.094,0,1.984,0.324,2.679,0.973
	c0.688,0.648,1.037,1.512,1.037,2.588c0,1.021-0.299,1.834-0.896,2.439c-0.597,0.604-1.327,0.943-2.188,1.015l3.188,4.79h-1.734
	l-2.989-4.666h-2.368v4.666H473.864L473.864,251.041z M475.333,245.063h3.094c0.697,0,1.271-0.213,1.711-0.641
	c0.443-0.427,0.665-0.968,0.665-1.625c0-0.674-0.222-1.217-0.665-1.629c-0.44-0.411-1.014-0.617-1.711-0.617h-3.094V245.063z"/>
<path display="none" fill="#222222" d="M488.179,251.041v-11.805h1.503l6.792,9.221v-9.221h1.473v11.805h-1.417l-6.879-9.419v9.419
	H488.179L488.179,251.041z"/>
<path display="none" fill="#222222" d="M504.239,251.041v-11.805h7.73v1.313h-6.265v3.793h6.136v1.313h-6.136v4.07h6.265v1.313
	h-7.73V251.041z"/>
<path display="none" fill="#222222" d="M516.618,239.236h1.72l3.664,5.488l3.664-5.488h1.72l-4.641,6.811v4.994h-1.469v-4.994
	L516.618,239.236z"/>
<path display="none" fill="#222222" d="M191.76,208.614l2.48-4.319c1.039,1,2.398,1.92,4.238,1.92c2.521,0,4.16-1.72,4.16-4.279
	V184.1h5.719v17.916c0,6.279-3.959,9.238-9.398,9.238C196.238,211.253,193.68,210.494,191.76,208.614z"/>
<path display="none" fill="#222222" d="M212.32,197.456c0-8.039,5.879-13.797,13.957-13.797c8.039,0,13.918,5.759,13.918,13.797
	s-5.879,13.798-13.918,13.798C218.199,211.253,212.32,205.494,212.32,197.456z M234.355,197.456c0-4.999-3.158-8.758-8.078-8.758
	c-4.959,0-8.119,3.759-8.119,8.758c0,4.959,3.16,8.759,8.119,8.759C231.197,206.214,234.355,202.415,234.355,197.456z"/>
<path display="none" fill="#222222" d="M262.596,210.773l-12.718-17.397v17.397h-5.679v-26.676h5.839l12.358,16.758v-16.758h5.679
	v26.676H262.596z"/>
<path display="none" fill="#222222" d="M281.239,208.614l2.479-4.319c1.04,1,2.399,1.92,4.239,1.92c2.521,0,4.159-1.72,4.159-4.279
	V184.1h5.719v17.916c0,6.279-3.959,9.238-9.397,9.238C285.718,211.253,283.159,210.494,281.239,208.614z"/>
<path display="none" fill="#222222" d="M301.119,207.975c0-1.761,1.479-3.24,3.238-3.24c1.761,0,3.24,1.479,3.24,3.24
	c0,1.758-1.479,3.238-3.24,3.238C302.598,211.213,301.119,209.732,301.119,207.975z"/>
<path display="none" fill="#222222" d="M345.633,210.773v-19.237l-7.52,19.237h-2.479l-7.519-19.237v19.237h-5.68v-26.676h7.957
	l6.479,16.678l6.479-16.678h7.998v26.676H345.633z"/>
<path display="none" fill="#222222" d="M354.971,201.251c0-5.892,4.432-9.865,10.18-9.865c4.177,0,6.604,2.259,7.949,4.661
	l-3.488,1.717c-0.801-1.545-2.518-2.771-4.461-2.771c-3.486,0-6.006,2.656-6.006,6.262s2.52,6.264,6.006,6.264
	c1.943,0,3.66-1.229,4.461-2.773l3.488,1.688c-1.345,2.373-3.772,4.689-7.949,4.689
	C359.402,211.117,354.971,207.113,354.971,201.251z"/>
<path display="none" fill="#222222" d="M399.481,210.773v-19.237l-7.521,19.237h-2.479l-7.521-19.237v19.237h-5.679v-26.676h7.959
	l6.479,16.678l6.479-16.678h7.999v26.676H399.481z"/>
<path display="none" fill="#222222" d="M410.485,200.096v-15.998h5.759v15.838c0,3.722,2.16,6.278,6.279,6.278
	c4.116,0,6.235-2.56,6.235-6.278v-15.838h5.8v15.998c0,6.598-3.92,11.157-12.035,11.157
	C414.404,211.253,410.485,206.693,410.485,200.096z"/>
<path display="none" fill="#222222" d="M439.604,210.773v-26.676h5.722v21.676h11.275v5H439.604L439.604,210.773z"/>
<path display="none" fill="#222222" d="M460.205,210.773v-26.676h5.719v21.676h11.278v5H460.205L460.205,210.773z"/>
<path display="none" fill="#222222" d="M481.045,210.773v-26.676h18.877v5h-13.198v5.598h12.918v5h-12.918v6.078h13.198v5H481.045
	L481.045,210.773z"/>
<path display="none" fill="#222222" d="M522.761,210.773l-12.718-17.397v17.397h-5.679v-26.676h5.839l12.355,16.758v-16.758h5.682
	v26.676H522.761z"/>
<g>
	<g>
		<path fill="#FFFFFF" d="M110.847,155.263c-1.708-1.452-2.642-2.878-2.803-4.275c-0.188-1.425-0.336-2.764-0.444-4.013
			c-0.161-1.237-0.269-2.811-0.322-4.72c-0.766-2.058-2.675-2.186-5.728-0.384c-3.066,1.789-5.21,3.477-6.434,5.063
			c-1.21,1.56-2.091,3.228-2.642,5.001c-0.376,1.157-0.564,2.597-0.564,4.316c0,1.237,0.423,2.359,1.271,3.368
			c1.156,1.479,3.005,2.219,5.546,2.219c1.062,0,2.306-0.532,3.731-1.594c0.713-0.524,1.688-1.404,2.924-2.642
			c0.632,0.819,1.439,1.546,2.42,2.178c1.318,0.955,2.608,1.432,3.872,1.432c0.672,0,1.149-0.094,1.432-0.282
			c0.242-0.188,0.39-0.282,0.444-0.282l0.343-1.814C113.556,157.905,112.541,156.714,110.847,155.263z M98.202,157.238
			c-0.497,0-0.995-0.222-1.492-0.665c-0.578-0.537-0.867-1.149-0.867-1.834c0-1.346,0.579-2.864,1.734-4.559
			c1.157-1.681,2.85-3.08,5.082-4.195C103.6,153.487,102.115,157.238,98.202,157.238z"/>
		<path fill="#FFFFFF" d="M61.013,141.387c-2.984,0.161-5.244,0.229-6.776,0.202c-2.729-0.136-4.094-0.833-4.094-2.098
			c0-1.184,0.901-2.527,2.702-4.033c2.192-1.828,4.753-2.743,7.684-2.743c0.524,0,1.069,0.552,1.634,1.654
			c0.524,1.169,1.048,1.755,1.573,1.755c0.686,0,1.055-0.081,1.109-0.242l0.081-0.282c0-0.282,0.067-0.625,0.201-1.029
			c0.081-0.362,0.121-0.874,0.121-1.532c0-0.592-0.423-1.358-1.271-2.299c-0.9-0.955-1.654-1.487-2.259-1.594
			c-5.015-0.632-9.042,0.438-12.08,3.207c-2.407,2.191-3.61,4.518-3.61,6.978c0,2.058,0.222,3.441,0.666,4.155
			c1.412,2.125,4.706,3.187,9.882,3.187c3.187,0,5.136,0.047,5.849,0.141c2.017,0.323,3.025,1.143,3.025,2.461
			c0,1.398-0.518,2.85-1.553,4.356c-1.506,2.299-3.724,3.448-6.655,3.448c-0.955,0-2.629-0.45-5.022-1.351
			c-2.379-0.915-3.993-1.372-4.84-1.372c-1.587,0-2.38,0.935-2.38,2.804c0,1.116,1.203,2.157,3.61,3.126
			c2.447,1.035,5.217,1.553,8.309,1.553c5.311,0,9.062-1.641,11.253-4.921c1.345-2.058,2.017-4.618,2.017-7.685
			c0-2.244-0.43-3.944-1.291-5.102C67.474,142.302,64.845,141.387,61.013,141.387z"/>
		<path fill="#FFFFFF" d="M96.992,140.359c1.156-0.525,1.734-1.29,1.734-2.3c0-0.685-0.027-1.055-0.081-1.108
			c-0.215,0.08-0.41,0.026-0.584-0.162c-2.044,0-6.34,0.652-12.887,1.957c0.081-4.625,0.121-8.458,0.121-11.496
			c0-0.766-0.094-1.352-0.282-1.754c-0.041-0.094-0.101-0.208-0.182-0.343c-0.107-0.148-0.242-0.311-0.403-0.483
			c-0.162,0.146-0.323,0.308-0.484,0.483c-1.6,1.787-2.723,4.954-3.368,9.499c-0.215,1.506-0.37,3.227-0.464,5.162
			c-4.384,0.915-7.213,1.506-8.491,1.775c-0.054,0.188-0.162,0.362-0.323,0.524v0.987c0,0.135,0.625,0.753,1.876,1.855
			c2.165-0.497,4.45-0.961,6.857-1.391c-0.027,0.511-0.04,1.041-0.04,1.593c0,0.416,0,0.841,0,1.271
			c0,0.135,0.249,2.614,0.746,7.441c0.578,4.732,1.237,7.1,1.977,7.1c1.479,0,2.218-1.52,2.218-4.559
			c0.054-3.993,0.107-7.744,0.162-11.253c0-0.82,0.026-1.627,0.081-2.42c1.882-0.296,4.167-0.666,6.856-1.109
			C94.384,141.28,96.038,140.855,96.992,140.359z"/>
		<path fill="#FFFFFF" d="M154.086,147.619c-0.027-1.197-0.982-2.729-2.864-4.597c-1.896-1.884-4.127-2.771-6.696-2.663
			c-2.528,0.08-4.813,1.136-6.857,3.167c-2.111,2.042-3.301,3.933-3.57,5.666c-0.255,1.775-0.255,3.254,0,4.438
			c0.269,1.143,0.867,2.797,1.795,4.961c0.928,2.165,3.805,3.247,8.632,3.247c1.008,0,2.474-0.396,4.396-1.189
			c1.936-0.794,2.904-1.399,2.904-1.815c0-0.188,0-0.349,0-0.484c-0.161-1.868-1.653-2.091-4.477-0.666
			c-0.403,0.082-0.961,0.169-1.674,0.263c-2.299,0.403-3.973,0.114-5.021-0.867c-1.035-0.968-1.224-1.774-0.565-2.42
			c8.511-1.398,12.975-2.373,13.392-2.924c0.402-0.604,0.55-0.906,0.444-0.908c0.027,0,0.04-0.014,0.04-0.04
			c0.055-0.135,0.081-0.255,0.081-0.363c0.081,0.081,0.142-0.101,0.182-0.544c0.026-0.054,0.08-0.094,0.161-0.121l-0.161-0.525
			C154.161,149.313,154.113,148.776,154.086,147.619z M144.487,150.039c-3.065,0.524-5.049,0.867-5.95,1.028
			c-0.201-0.9,0.249-2.184,1.352-3.852c1.062-1.721,2.77-2.58,5.123-2.58c2.326,0,4.027,1.068,5.103,3.206
			c0.162,0.349,0.376,0.786,0.646,1.311C149.145,149.313,147.054,149.609,144.487,150.039z"/>
		<path fill="#FFFFFF" d="M137.589,140.157l-12.201-1.411c-0.631-5.339-0.961-8.975-0.988-10.911
			c-0.027-1.52,0.047-2.413,0.222-2.682c0-0.014,0.007-0.027,0.021-0.042c-0.296,0-0.941-0.053-1.936-0.16
			c-0.027,0.066-0.054,0.135-0.081,0.202c-0.564,1.559-1.176,4.726-1.835,9.499c-0.202,1.506-0.356,3.037-0.464,4.598l-9.035,1.271
			c0.309,0.9,0.403,1.432,0.282,1.593c-0.026,0-0.04,0.33-0.04,0.988c0,0.134,0.061,0.201,0.181,0.201
			c3.254,0.604,6.098,0.693,8.531,0.263c-0.027,0.511-0.041,1.041-0.041,1.593c0,0.417,0,0.841,0,1.271
			c0,0.134,0.235,2.615,0.706,7.441c0.578,4.732,1.25,7.1,2.017,7.1c1.452,0,2.178-1.52,2.178-4.559
			c0.081-3.993,0.148-7.743,0.202-11.253c0-0.819,0.013-1.626,0.041-2.42c1.882-0.417,3.536-0.552,4.961-0.404
			c1.398,0.135,2.824-0.06,4.275-0.583C136.036,141.199,137.038,140.668,137.589,140.157z"/>
		<path fill="#FFFFFF" d="M175.908,137.637c0.053-6.736-0.303-10.488-1.069-11.254c-0.551-0.431-1.236-0.234-2.057,0.585
			c-0.928,0.794-1.365,2.776-1.311,5.95c0.026,3.146,0.202,5.875,0.524,8.188c-1.586-1.21-3.516-1.613-5.788-1.21
			c-2.299,0.362-4.148,1.533-5.546,3.509c-1.425,1.99-2.327,3.805-2.702,5.445c-0.363,1.627-0.612,2.999-0.747,4.113
			c-0.081,1.372-0.013,2.63,0.202,3.772c0.74,3.563,2.958,5.345,6.655,5.345c1.371,0,3.482-0.727,6.332-2.179
			c0.417-0.241,0.828-0.457,1.231-0.645c0,0.269,0.026,0.894,0.08,1.875c0.296,1.129,1.19,1.693,2.683,1.693
			c0.82,0,1.338-0.08,1.553-0.242l0.282-0.343c0.134,0.148,0.202-0.45,0.202-1.795C176.029,151.706,175.854,144.104,175.908,137.637
			z M171.713,153.63c-0.631,0.376-1.889,1.074-3.771,2.097c-1.869,0.981-3.12,1.318-3.751,1.008
			c-0.646-0.323-1.338-0.881-2.077-1.674c-0.712-0.766-1.015-1.915-0.908-3.448c0.081-1.533,0.612-3.233,1.593-5.102
			c0.955-1.91,2.286-2.918,3.993-3.025c1.721-0.121,3.099,0.833,4.134,2.864c0.363,0.739,0.679,1.37,0.948,1.896
			C171.767,150.302,171.713,152.097,171.713,153.63z"/>
		<path fill="#FFFFFF" d="M224.209,128.944c-0.135,4.101-0.27,9.74-0.403,16.921c-0.067,5.578-0.102,9.264-0.102,11.051
			c0,0.055,0,1.075,0,3.066c0.229,1.896,0.915,2.843,2.058,2.843c0.887,0,1.627-0.537,2.219-1.613c0.443-0.9,0.76-3.597,0.947-8.087
			c0.162-4.518,0-10.514-0.483-17.99C227.946,127.66,226.535,125.596,224.209,128.944z"/>
		<path fill="#FFFFFF" d="M252.302,149.192c-0.242-1.21-0.76-2.307-1.554-3.287c-0.819-0.995-1.303-1.56-1.452-1.694
			c-1.828-1.452-3.905-2.117-6.23-1.996c-2.556,0.107-4.854,1.169-6.898,3.187c-2.11,2.003-3.293,3.892-3.549,5.666
			c-0.27,1.762-0.27,3.241,0,4.438c0.256,1.155,0.847,2.817,1.774,4.981s3.805,3.247,8.632,3.247c1.008,0,2.487-0.41,4.437-1.23
			c0.767-0.309,1.378-0.584,1.835-0.827c0.687-0.39,1.029-0.705,1.029-0.947c0-0.739-0.094-1.177-0.282-1.312
			c-0.27-0.053-0.519-0.135-0.747-0.241c-0.053-0.027-0.107-0.054-0.161-0.082l-3.005,0.162c0.968,0.026,0.316,0.215-1.956,0.565
			c-2.3,0.39-3.973,0.1-5.021-0.868c-1.035-0.981-1.224-1.802-0.564-2.46c4.921-0.794,8.49-1.452,10.708-1.977
			c1.613-0.376,2.509-0.686,2.683-0.928c0.403-0.579,0.551-0.867,0.444-0.867c0.026-0.026,0.04-0.054,0.04-0.081
			c0.054-0.107,0.081-0.222,0.081-0.343c0.08,0.066,0.147-0.121,0.201-0.564c0.027-0.026,0.074-0.066,0.142-0.121l-0.142-0.504
			C252.691,151.027,252.545,150.39,252.302,149.192z M242.944,151.895c-3.038,0.524-5.002,0.881-5.89,1.067
			c-0.215-0.926,0.229-2.224,1.331-3.891c1.063-1.707,2.757-2.562,5.083-2.562c2.354,0,4.066,1.083,5.143,3.247
			c0.188,0.336,0.403,0.773,0.646,1.311C247.644,151.188,245.539,151.464,242.944,151.895z"/>
		<path fill="#FFFFFF" d="M219.105,154.314c-0.402-0.591-0.906-0.921-1.512-0.987c-0.295-0.054-0.612-0.054-0.947,0
			c-0.162,0.027-0.941,0.658-2.341,1.896c-1.344,1.29-3.34,2.151-5.989,2.58c-2.635,0.391-4.76-0.443-6.373-2.5
			c-1.64-2.058-2.528-3.482-2.662-4.275c-0.147-0.82-0.303-2.023-0.464-3.611c-0.161-1.613,0.483-3.636,1.936-6.069
			c1.426-2.446,3.685-4.376,6.776-5.788c3.093-1.398,5.218-1.58,6.374-0.545c1.169,1.063,2.098,2.333,2.782,3.812l0.666-0.282
			c0.026-0.026,0.107-0.094,0.242-0.202c0.134-0.134,0.315-0.31,0.544-0.523c0.404-0.417,0.223-1.587-0.544-3.509
			c-0.027-0.081-0.055-0.148-0.081-0.203c-0.901-2.016-2.574-3.286-5.021-3.811c-2.434-0.552-5.29,0.061-8.571,1.836
			c-3.268,1.761-5.842,4.174-7.724,7.24c-2.11,3.588-2.85,7.406-2.219,11.454c0,0.08,0.161,0.9,0.484,2.461
			c0.497,1.788,1.196,3.354,2.097,4.698c2.824,4.369,7.288,6.05,13.392,5.042c2.716-0.43,5.103-1.432,7.159-3.005
			c0.161-0.134,0.323-0.269,0.484-0.403c1.559-1.371,2.245-2.655,2.057-3.853C219.544,155.216,219.361,154.731,219.105,154.314z"/>
		<path fill="#FFFFFF" d="M298.849,129.751c-0.12,4.088-0.235,9.728-0.343,16.921c-0.108,5.565-0.161,9.249-0.161,11.052
			c0,0.054,0,1.067,0,3.045c0.215,1.896,0.9,2.844,2.057,2.844c0.9,0,1.641-0.538,2.219-1.613c0.444-0.901,0.786-3.503,1.029-7.805
			c0.269-4.33,0.147-10.219-0.363-17.668C302.788,129.024,301.31,126.766,298.849,129.751z"/>
		<path fill="#FFFFFF" d="M273.901,156.493c-1.587-1.371-2.406-2.602-2.461-3.69c-0.497-1.803-0.699-3.402-0.605-4.8
			c0.055-1.452-0.087-2.918-0.423-4.397c-0.793-2.057-2.709-2.171-5.748-0.342c-3.065,1.762-5.189,3.448-6.373,5.062
			c-1.224,1.561-2.124,3.214-2.702,4.962c-0.335,1.183-0.504,2.648-0.504,4.396c0,1.211,0.39,2.307,1.169,3.288
			c1.196,1.506,3.072,2.259,5.628,2.259c1.062,0,2.305-0.544,3.729-1.634c0.687-0.523,1.655-1.404,2.905-2.642
			c0.631,0.807,1.432,1.56,2.399,2.259c1.357,0.859,2.668,1.29,3.933,1.29c0.632,0,1.096-0.061,1.393-0.181
			c0.228-0.216,0.382-0.323,0.463-0.323l0.362-1.795C276.718,159.263,275.663,158.024,273.901,156.493z M263.717,158.913
			c-2.434,0.605-3.818,0.471-4.154-0.403c-0.377-0.901-0.564-1.693-0.564-2.38c0-1.371,0.396-2.77,1.189-4.194
			c0.766-1.425,2.984-3.18,6.655-5.264C267.166,154.187,266.123,158.268,263.717,158.913z"/>
		<path fill="#FFFFFF" d="M286.345,143.767c-1.505,3.228-2.527,6.132-3.065,8.713c-0.107-0.336-0.181-0.679-0.222-1.028
			c-0.9-3.778-1.896-6.42-2.984-7.925c-0.417,0.16-0.814,1.008-1.19,2.54c-0.309,1.291-0.464,2.454-0.464,3.489
			c0,0.054,0.195,2.298,0.585,6.735c0.659,4.356,1.755,6.534,3.288,6.534c0.739,0,1.256-0.12,1.553-0.362
			c0.054-0.055,0.094-0.08,0.12-0.08c0.161,0,0.344,0,0.546,0c0.161,0,0.35-0.713,0.563-2.139c0.256-2.03,0.612-3.758,1.069-5.184
			c1.761-5.337,5.257-8.994,10.486-10.971C291.253,140.595,287.823,140.486,286.345,143.767z"/>
		<path fill="#FFFFFF" d="M324.622,145.804c-0.174-1.102-0.315-2.05-0.423-2.844c-0.349-0.309-0.78-0.463-1.29-0.463
			c-0.767,0-1.479,0.833-2.139,2.5c-0.242,0.471-0.84,2.279-1.794,5.425c-1.601,5.285-3.483,7.926-5.647,7.926
			c-0.699,0-1.082-0.025-1.149-0.08l0.142-0.081c-1.022-3.589-1.533-6.097-1.533-7.521c1.008-3.551,1.533-5.977,1.573-7.281
			c0.026-1.317-0.552-2.063-1.734-2.238c-2.031,2.044-3.046,6.574-3.046,13.594c0,0.079,0.013,0.544,0.04,1.39
			c0.121,1.01,0.33,1.924,0.626,2.744c0.954,2.58,2.647,3.872,5.082,3.872c2.474,0,4.705-1.412,6.695-4.235
			c0.067,0.391,0.102,0.786,0.102,1.189c-0.148,0.578-0.209,2.191-0.182,4.841c0.054,2.554-0.479,5.418-1.593,8.591
			c-1.076,3.174-2.36,4.626-3.854,4.356c-1.479-0.27-2.533-1.271-3.166-3.005c-0.686-1.882-1.37-2.951-2.057-3.207
			c-0.31,0.148-0.626,0.343-0.948,0.586c-0.242,0.188-0.39,0.282-0.443,0.282c0,0.281-0.014,0.584-0.041,0.907
			c-0.067,0.322-0.101,0.786-0.101,1.392c0,0.928,0.402,2.118,1.209,3.569c0.781,1.453,2.085,2.521,3.913,3.207
			c0.968,0.377,2.084,0.638,3.348,0.786c0.995,0.122,1.903-0.141,2.723-0.786c2.192-1.734,3.766-6.226,4.72-13.472
			C325.026,157.812,325.35,150.496,324.622,145.804z"/>
	</g>
	<g>
		<path fill="#FFFFFF" d="M254.662,94.421c-0.095-0.107-0.175-0.222-0.242-0.343c-1.277-1.734-1.916-1.768-1.916-0.101
			c0-0.067,0.262,0.564,0.786,1.896c0.256,0.537,0.518,0.961,0.786,1.27c-1.56,0.659-2.602,1.338-3.125,2.036
			c0.228,0.378,0.705,0.687,1.432,0.929c0.713-0.147,1.653-0.599,2.823-1.352c0.497,1.209,0.961,2.199,1.391,2.965
			c0.082,0.161,0.161,0.31,0.243,0.443l0.726-0.383c0.107-0.081,0.162-0.155,0.162-0.222c0-0.026,0-0.418,0-1.17
			c0-0.699-0.256-1.553-0.767-2.561c4.639,0.685,6.943,0.301,6.916-1.15l-5.849-0.747c0.485-0.43,0.728-0.935,0.728-1.512
			c0-0.471-0.055-0.828-0.161-1.068l-0.041-0.243c-0.04,0-0.101,0-0.181,0c-0.297-0.215-0.754-0.094-1.372,0.363
			c-0.686,0.471-1.163,1.042-1.432,1.714c-0.121-0.054-0.229-0.087-0.323-0.101C255.031,94.831,254.837,94.609,254.662,94.421"/>
		<path fill="#FFFFFF" d="M270.735,26.052c-0.27-0.86-1.438-0.974-3.509-0.342c-2.111,0.645-3.26,1.042-3.449,1.19
			c-0.215,0.174-0.322,0.328-0.322,0.463c-0.188,0.188-0.31,0.356-0.363,0.504c-0.31,0.282-0.618,0.747-0.928,1.391
			c-0.363,0.82-0.545,1.688-0.545,2.603c0,0.765,0.135,1.284,0.404,1.552c0.161,0.108,0.402,0.269,0.726,0.483
			c1.305,1.117,3.213,1.178,5.728,0.183c0.524-0.35,1.082-0.753,1.674-1.21c0.43-0.35,0.646-0.625,0.646-0.827
			c0-0.067,0-0.114,0-0.142c-0.269-0.242-0.457-0.443-0.564-0.605c-2.528,1.157-4.356,1.499-5.485,1.029
			c-1.144-0.497-1.479-1.143-1.009-1.937c0.47-0.807,0.772-1.337,0.907-1.593c-0.014-0.027,0.659,0.047,2.017,0.222
			c1.398,0.161,2.636,0.323,3.711,0.484C270.896,28.037,271.019,26.887,270.735,26.052"/>
		<path fill="#FFFFFF" d="M279.669,58.522c0.027-0.094,0.055-0.194,0.081-0.303c0-1.384-0.518-1.707-1.553-0.967
			c-0.794,0.551-1.278,1.203-1.452,1.956c-0.176,0.122-0.356,0.249-0.545,0.384c-0.579-0.188-1.096-0.336-1.553-0.444
			c-0.82-0.538-1.459-0.847-1.917-0.928c0,0.081-0.06,0.168-0.182,0.262c0.067,0.229,0.102,0.491,0.102,0.787
			c0.524,0.483,1.184,1.082,1.977,1.794c-0.807,0.996-1.21,2.017-1.21,3.066c0,0.914,0.053,1.404,0.161,1.471
			c0.054,0.041,0.208,0.123,0.464,0.243c0.726-0.403,1.688-1.271,2.884-2.602c1.411,1.21,2.399,1.997,2.965,2.36
			c0.457-0.295,0.686-0.651,0.686-1.068c-0.457-0.619-0.921-1.17-1.392-1.654c-0.471-0.497,0.047-0.592,1.553-0.282
			c1.506,0.269,2.286,0,2.34-0.807c-0.578-0.295-1.909-0.74-3.993-1.332c0.391-0.698,0.585-1.277,0.585-1.735
			C279.669,58.657,279.669,58.59,279.669,58.522"/>
		<path fill="#FFFFFF" d="M216.484,85.285c1.492,1.479,3.933,2.11,7.321,1.895c3.374-0.215,5.29-0.322,5.747-0.322
			c0.498,0,1.036-0.014,1.614-0.041c0.214,0,0.449,0,0.705,0c0.551-0.013,3.718-0.162,9.499-0.444
			c5.769-0.296,10.823-0.794,15.166-1.492c4.343-0.699,6.037-1.076,5.083-1.13c-9.815-0.807-18.427-1.176-25.835-1.109
			c-0.148-0.014-0.289-0.021-0.424-0.021l0.021,0.021c-1.56,0.013-3.065,0.047-4.517,0.101
			C222.38,83.053,217.587,83.9,216.484,85.285"/>
		<path fill="#FFFFFF" d="M238.567,66.207c-0.255,0.094-0.49,0.39-0.705,0.887c0.094,0.068,0.175,0.148,0.242,0.243
			c0.026,0.027,0.041,0.054,0.041,0.081c0.563-0.053,1.633-0.067,3.206-0.04c0.377,0,0.767,0.013,1.169,0.04
			c1.722,0.39,2.582,0.8,2.582,1.231c0,0.43-0.356,1.029-1.068,1.794c-1.009,1.075-2.286,1.614-3.832,1.614
			c-0.161,0-0.31-0.014-0.444-0.041c-0.39-0.134-0.585-0.578-0.585-1.332c-0.026-0.618,0.223-0.927,0.747-0.927
			c0.928-0.068,1.424-0.209,1.491-0.425l-0.423-0.403c-0.242-0.188-0.538-0.328-0.888-0.423c-0.362-0.094-0.9-0.141-1.613-0.141
			c-0.282,0-0.504,0.013-0.665,0.041c-0.148,0.067-0.27,0.148-0.363,0.243c-0.094,0.51-0.161,0.96-0.202,1.351
			c-0.079,0.431-0.074,0.988,0.021,1.674c0.094,0.698,0.31,1.357,0.646,1.976c0.323,0.605,1.58,1.103,3.771,1.492
			c2.179,0.376,3.496-0.322,3.953-2.097c0.457-1.788,0.665-3.119,0.625-3.993c-0.054-0.861-0.147-1.419-0.282-1.674
			c-0.161-0.296-0.41-0.679-0.745-1.149C243.334,64.949,241.108,64.943,238.567,66.207"/>
		<path fill="#FFFFFF" d="M213.762,55.619c0,0.067,0,0.134,0,0.202c0.176,0.995,1.324,1.438,3.448,1.331
			c2.111-0.121,3.53-0.229,4.256-0.323c0.431-0.04,0.968-0.108,1.614-0.202c0.215-0.027,0.443-0.054,0.686-0.08
			c0.47-0.081,0.987-0.156,1.553-0.223c1.331-0.215,2.917-0.45,4.76-0.706c5.916-0.887,19.966-3.657,42.149-8.309
			c22.198-4.679,33.781-7.67,34.749-8.975c-6.764,0.443-12.403,1.083-16.92,1.916c-4.519,0.833-7.214,1.304-8.088,1.412
			c-0.887,0.093-2.925,0.403-6.11,0.927c-3.187,0.538-6.998,1.117-11.436,1.735c-4.423,0.592-9.949,1.459-16.578,2.601
			c-6.642,1.13-12.423,2.252-17.345,3.369c-3.064,0.698-5.074,1.168-6.029,1.411l-1.573,0.484c-0.201,0.055-0.423,0.114-0.665,0.181
			c-0.336,0.095-0.692,0.195-1.068,0.303c-0.215,0.068-0.423,0.121-0.626,0.162c-1.707,0.497-2.957,0.854-3.75,1.068l-0.303,0.081
			C214.669,54.482,213.762,55.027,213.762,55.619"/>
		<path fill="#FFFFFF" d="M235.825,26.033c-4.894,1.479-8.753,2.709-11.576,3.691c-0.416,0.134-0.813,0.262-1.19,0.382
			c-0.214,0.081-0.43,0.155-0.646,0.223c-0.631,0.214-2.903,1.129-6.815,2.742c-3.913,1.601-5.594,2.844-5.043,3.731
			c0.687,0.74,2.3,0.733,4.841-0.02c2.528-0.753,4.43-1.352,5.707-1.795c1.264-0.444,2.104-0.739,2.521-0.887
			c0.269-0.095,0.544-0.188,0.826-0.283c0.202-0.081,0.417-0.161,0.646-0.242c0.39-0.148,0.807-0.302,1.251-0.464
			c0.134-0.067,0.27-0.121,0.404-0.161c3.32-1.264,6.776-2.547,10.365-3.852c3.563-1.304,7.853-3.213,12.867-5.728
			c0.147-0.243-0.659-0.315-2.421-0.222C245.775,23.216,241.862,24.178,235.825,26.033"/>
		<path fill="#FFFFFF" d="M152.695,97.487c-1.963-1.439-3.105-2.65-3.429-3.63c-0.134-0.417-0.02-0.82,0.343-1.21
			c-4.693-0.27-10.924-0.047-18.695,0.665c3.482,10.542,7.549,20.584,12.201,30.13c0.403,0.888,1.136,1.52,2.199,1.896
			c3.522,1.196,6.555,0.442,9.095-2.261l0.021-0.02c2.729-2.891,2.79-5.908,0.182-9.055v0.02c-0.202-0.256-0.411-0.504-0.625-0.747
			c1.116-1.626,1.821-3.004,2.117-4.134c0.295-1.115,0.315-1.976,0.06-2.58c-1.841-2.394-3.644-3.623-5.404-3.69
			c1.129-1.305,1.748-2.125,1.855-2.461v0.04c0.336-1.009,0.363-2.009,0.08-3.004V97.487"/>
		<path fill="#FFFFFF" d="M157.091,45.938v-0.041c0.176-0.255,0.35-0.504,0.525-0.746C157.441,45.407,157.267,45.669,157.091,45.938
			"/>
		<g>
			<path fill="#FFFFFF" d="M214.205,82.219c0.068-7.434-0.531-14.816-1.794-22.144c-0.336-1.693-0.686-3.388-1.05-5.083
				c-0.362-1.707-0.732-3.281-1.109-4.719c-0.08-0.268-0.127-0.382-0.141-0.343c-1.17-3.832-2.729-7.482-4.68-10.951
				c-0.807-1.237-1.499-2.366-2.076-3.388h-0.021c-1.129-1.681-2.347-3.314-3.65-4.901c-1.521-1.855-3.228-3.516-5.123-4.981h-0.04
				c-6.306-4.773-13.034-5.735-20.188-2.885h-0.041c-2.111,0.848-4,2.091-5.667,3.731c-1.184,1.169-2.178,2.534-2.985,4.094
				c-0.295,0.282-2.057,3.476-5.284,9.58c-2.595,4.866-7.375,8.887-14.339,12.06c-0.457,0.215-0.928,0.423-1.412,0.625
				c-0.027,0.014-0.054,0.026-0.081,0.04c-0.013,0.013-0.027,0.027-0.04,0.04c-1.493,0.485-3.315,1.069-5.465,1.755
				c-7.395,2.353-12.981,5.143-16.759,8.37c-3.792,3.227-5.943,5.337-6.454,6.333c-3.388,6.507-2.81,12.557,1.734,18.151v0.04
				c2.084,2.541,4.827,3.979,8.229,4.315h0.02c0.727,0.067,1.493,0.094,2.299,0.081l2.542-0.283
				c7.771-0.713,14.002-0.934,18.695-0.666c0.175,0,0.35,0,0.524,0c0.592,0,1.197,0.013,1.815,0.041
				c2.999,0.121,5.99,0.511,8.975,1.169c5.163,1.157,9.566,3.705,13.21,7.644c6.816,7.395,15.132,10.01,24.947,7.846
				c4.881-1.022,8.544-3.704,10.992-8.047c2.419-4.316,3.844-8.847,4.275-13.593c0.013-1.412,0.066-2.723,0.161-3.933
				L214.205,82.219L214.205,82.219z M209.909,85.466c-0.134,1.735-0.362,3.375-0.685,4.921c-1.331,6.037-3.98,9.91-7.946,11.617
				c-1.492,0.632-3.16,0.963-5.001,0.987c-7.609,0.121-13.707-7.716-18.292-23.514c0,0.013,0,0.026,0,0.04
				c-0.189-0.672-0.37-1.337-0.545-1.996c-0.78-2.945-1.445-5.721-1.997-8.33c-0.43-2.259-0.827-4.578-1.189-6.958
				c-0.147-0.982-0.29-1.909-0.424-2.784c-0.012,0-0.012-0.006,0-0.02c-0.04-0.229-0.08-0.457-0.121-0.687
				c0.014,0,0.034,0.061,0.061,0.183c-0.027-0.148-0.047-0.283-0.061-0.403c-0.107-0.579-0.181-1.056-0.222-1.432
				c-0.242-1.909-0.37-3.368-0.383-4.377c-0.202-12.073,1.553-20.215,5.264-24.423c0.66-0.752,1.291-1.304,1.896-1.653
				c0.39-0.175,0.793-0.316,1.21-0.424c0.283-0.067,0.564-0.12,0.847-0.162c2.662-0.349,5.727,0.666,9.196,3.046
				c4.396,3.012,7.812,7.321,10.245,12.928c0.658,1.332,1.29,2.743,1.896,4.235c1.357,3.172,2.494,6.461,3.408,9.861
				c0.054,0.215,0.114,0.444,0.181,0.686h0.021c0.281,0.995,0.584,2.272,0.906,3.832c1.063,5.23,1.641,10.702,1.734,16.417
				c0.015,0.202,0.062,1.728,0.142,4.578c0,0.067,0,0.134,0,0.201h-0.02C210.098,82.953,210.058,84.163,209.909,85.466z"/>
		</g>
		<path fill="#FFFFFF" d="M190.085,58.2c-1.546-1.278-6.231-1.264-14.057,0.04h-0.02c-0.121,0.014-0.242,0.027-0.363,0.041
			c0.135,0.981,0.283,2.017,0.444,3.105c0.363,2.379,0.76,4.698,1.19,6.958c0.539,2.542,1.184,5.243,1.937,8.107
			c0.026,0.094,0.054,0.194,0.081,0.303c0.107-0.054,0.222-0.108,0.343-0.162c0.094-0.04,0.887-0.261,2.379-0.665
			c1.492-0.403,3.765-1.352,6.815-2.843c3.039-1.506,4.39-4.047,4.055-7.624C192.552,61.885,191.618,59.463,190.085,58.2"/>
		<path fill="#FFFFFF" d="M221.043,19.115l-0.142-1.149c-0.754,0.282-1.977,1.284-3.671,3.005c-1.331-0.834-3.342-0.895-6.03-0.181
			c1.411,1.088,2.642,1.99,3.69,2.702c-1.694,1.828-2.669,3.207-2.925,4.134c1.856-0.403,3.563-1.318,5.123-2.742
			c0.686,0.429,1.257,0.706,1.715,0.827l0.383-0.584c-0.027-0.82-0.154-1.533-0.383-2.138
			C219.825,21.75,220.571,20.46,221.043,19.115"/>
	</g>
</g>
</svg>
