<?xml version="1.0" encoding="utf-8"?>
<!-- Generator: Adobe Illustrator 15.0.2, SVG Export Plug-In  -->
<!DOCTYPE svg PUBLIC "-//W3C//DTD SVG 1.1//EN" "http://www.w3.org/Graphics/SVG/1.1/DTD/svg11.dtd" [
	<!ENTITY ns_flows "http://ns.adobe.com/Flows/1.0/">
]>
<svg version="1.1"
	 xmlns="http://www.w3.org/2000/svg" xmlns:xlink="http://www.w3.org/1999/xlink" xmlns:a="http://ns.adobe.com/AdobeSVGViewerExtensions/3.0/"
	 x="0px" y="0px" width="370px" height="200px" viewBox="175 116 370 200" enable-background="new 175 116 370 200"
	 xml:space="preserve">
<defs>
</defs>
<rect display="none" fill="#231F20" width="720" height="432"/>
<path display="none" fill="#222222" d="M229.517,257.695h-17.005c0-19.95,0-11.85,0-36.085c-4.083,0-8.033,0-12.05,0v46.862
	c9.507,0,19.415,0,29.055,0C229.517,264.456,229.517,261.712,229.517,257.695z"/>
<path display="none" fill="#222222" d="M265.948,257.828c-7.028,0-11.046,0-17.94,0c0-2.812,0-5.488,0-8.233h15.932
	c0-3.549,0-7.097,0-10.645h-15.932v-6.628c6.894,0,10.375,0,17.338,0c0-3.615,0-7.23,0-10.712c-10.979,0-18.411,0-29.256,0
	c0,15.532,0,31.198,0,46.862c10.845,0,18.879,0,29.858,0C265.948,264.925,265.948,261.31,265.948,257.828z"/>
<path display="none" fill="#222222" d="M313.411,268.473V221.61c-4.084,0-8.167,0-12.251,0v17.005h-14.46V221.61
	c-4.083,0-8.235,0-12.251,0v46.862c4.016,0,8.167,0,12.251,0v-18.812h14.46v18.812C305.243,268.473,309.327,268.473,313.411,268.473
	z"/>
<path display="none" fill="#222222" d="M369.262,253.691v-32.214h-4.285l-18.678,20.351l-18.343-20.351h-4.419v46.995
	c4.083,0,8.167,0,12.251,0v-20.887l9.908,10.443h1.339l9.974-10.443v20.887c2.191,0,4.382,0,6.572,0v-2.457L369.262,253.691z"/>
<path display="none" fill="#222222" d="M457.296,244.574l-23.698-23.163h-4.352v29.863l6.792,14.741v2.457c1.861,0,3.726,0,5.593,0
	v-23.028l23.632,23.098h4.284v-46.931c-4.083,0-8.168,0-12.251,0V244.574z"/>
<path display="none" fill="#222222" d="M479.675,221.411v47.062c4.083,0,8.234,0,12.384,0v-23.028l23.633,23.098h4.285v-46.931
	c-4.085,0-8.169,0-12.252,0v22.963l-23.699-23.163H479.675z"/>
<path display="none" fill="#222222" d="M402.525,182.659c10.553,0,19.108-8.556,19.108-19.109c0-10.552-8.556-19.107-19.108-19.107
	s-19.107,8.555-19.107,19.107C383.418,174.103,391.973,182.659,402.525,182.659z M402.526,166.416c-1.583,0-2.866-1.283-2.866-2.866
	s1.283-2.866,2.866-2.866s2.865,1.283,2.865,2.866S404.109,166.416,402.526,166.416z M415.859,164.628
	c2.743,1.583,3.682,5.088,2.098,7.831c-1.582,2.742-5.088,3.682-7.83,2.099c-2.741-1.583-3.681-5.089-2.099-7.831
	C409.611,163.985,413.117,163.045,415.859,164.628z M402.526,145.731c3.165,0,5.732,2.567,5.732,5.732
	c0,3.166-2.567,5.733-5.732,5.733c-3.167,0-5.732-2.567-5.732-5.733C396.794,148.298,399.359,145.731,402.526,145.731z
	 M387.095,172.459c-1.583-2.743-0.645-6.248,2.097-7.831c2.742-1.583,6.25-0.643,7.831,2.099c1.584,2.742,0.644,6.248-2.098,7.831
	C392.183,176.141,388.677,175.201,387.095,172.459z"/>
<path display="none" fill="#222222" d="M460.887,163.55c0-10.552-8.558-19.107-19.111-19.107c-10.552,0-19.106,8.555-19.106,19.107
	c0,10.553,8.555,19.109,19.106,19.109C452.329,182.659,460.887,174.103,460.887,163.55z M455.111,164.628
	c2.742,1.583,3.682,5.088,2.097,7.831c-1.582,2.742-5.088,3.682-7.829,2.099c-2.742-1.583-3.681-5.089-2.1-7.831
	C448.863,163.985,452.368,163.045,455.111,164.628z M434.176,174.558c-2.742,1.583-6.248,0.643-7.83-2.099
	c-1.583-2.743-0.644-6.248,2.097-7.831c2.743-1.583,6.25-0.643,7.831,2.099C437.856,169.469,436.919,172.975,434.176,174.558z
	 M436.044,151.463c0-3.165,2.566-5.732,5.731-5.732c3.168,0,5.734,2.567,5.734,5.732c0,3.166-2.566,5.733-5.734,5.733
	C438.61,157.197,436.044,154.629,436.044,151.463z M438.911,163.55c0-1.583,1.283-2.866,2.865-2.866
	c1.584,0,2.866,1.283,2.866,2.866s-1.282,2.866-2.866,2.866C440.194,166.416,438.911,165.133,438.911,163.55z"/>
<path display="none" fill="#222222" d="M390.121,202.428l6.637-14.383l-0.003-0.003c0.163-0.372,0.256-0.782,0.256-1.213
	c0-1.685-1.366-3.051-3.052-3.051c-0.02,0-0.038,0.006-0.061,0.006l-0.001-0.003H373h-0.792h-1.972l22.611-49.007h-18.98
	l-0.008,0.004c-1.203,0.019-2.23,0.734-2.711,1.761l-0.011,0.007l-30.397,65.882H390.121z"/>
<path display="none" fill="#222222" d="M429.246,251.274l-22.507-48.846h48.213l0.004-0.003c0.01,0,0.019,0.003,0.029,0.003
	c1.158,0,2.153-0.655,2.671-1.606l0.036-0.022l30.464-66.026h-92.547l-3.811,8.259h79.599h0.021h2.74l-17.928,38.857
	c-0.014,0.037-0.033,0.07-0.048,0.105l-0.012,0.024l-0.003,0.002c-0.47,1.01-1.472,1.713-2.648,1.757l-0.004,0.002h-0.022
	c-0.029,0-0.056,0.009-0.084,0.009s-0.055-0.009-0.085-0.009h-0.728h-49.134c-0.008,0-0.016-0.002-0.022-0.002
	c-0.011,0-0.019,0.002-0.025,0.002h-0.037l-0.007,0.004c-1.182,0.027-2.192,0.725-2.675,1.73l-0.014,0.009l-0.052,0.113
	c-0.001,0.001-0.002,0.003-0.002,0.004l-5.38,11.66l-2.669,5.776l-23.319,50.614l-5.68,12.324v2.457v0.001h17.007l19.21-43.278
	l0.013,0.027l0.013-0.027l19.207,43.278h17.007v-0.001v-2.457L429.246,251.274z"/>
<path display="none" fill="#222222" d="M326.611,195.523c0.451,0,0.875-0.103,1.258-0.277l0.015,0.009l16.985-7.745l14.355-31.201
	l-31.314-14.413c-0.396-0.187-0.832-0.3-1.299-0.3c-1.683,0-3.048,1.365-3.049,3.048h-0.001v0.001v47.874l0.005,0.003
	C323.594,194.184,324.944,195.523,326.611,195.523z"/>
<path display="none" fill="#222222" d="M200,285.372c0-5.195,3.91-8.7,8.978-8.7c3.683,0,5.826,1.992,7.012,4.11l-3.077,1.514
	c-0.706-1.362-2.22-2.446-3.935-2.446c-3.076,0-5.296,2.345-5.296,5.522s2.22,5.523,5.296,5.523c1.715,0,3.229-1.084,3.935-2.445
	l3.077,1.487c-1.186,2.093-3.33,4.137-7.012,4.137C203.91,294.074,200,290.544,200,285.372z"/>
<path display="none" fill="#222222" d="M219.591,285.372c0-5.069,3.708-8.7,8.802-8.7c5.069,0,8.777,3.631,8.777,8.7
	s-3.708,8.702-8.777,8.702C223.299,294.074,219.591,290.441,219.591,285.372z M233.488,285.372c0-3.152-1.993-5.522-5.095-5.522
	c-3.127,0-5.12,2.37-5.12,5.522c0,3.128,1.993,5.523,5.12,5.523C231.496,290.896,233.488,288.5,233.488,285.372z"/>
<path display="none" fill="#222222" d="M241.958,287.037v-10.088h3.63v9.986c0,2.347,1.363,3.96,3.96,3.96
	c2.598,0,3.934-1.613,3.934-3.96v-9.986h3.657v10.088c0,4.162-2.471,7.037-7.591,7.037
	C244.429,294.074,241.958,291.199,241.958,287.037z"/>
<path display="none" fill="#222222" d="M272.242,293.771l-3.304-5.977h-2.624v5.977h-3.581v-16.821h7.869
	c3.505,0,5.675,2.295,5.675,5.422c0,2.951-1.892,4.564-3.708,4.993l3.808,6.406H272.242z M272.596,282.346
	c0-1.388-1.085-2.244-2.498-2.244h-3.783v4.539h3.783C271.511,284.641,272.596,283.784,272.596,282.346z"/>
<path display="none" fill="#222222" d="M284.848,293.771v-13.669h-4.918v-3.152h13.417v3.152h-4.893v13.669H284.848z"/>
<path display="none" fill="#222222" d="M316.166,293.771l-3.304-5.977h-2.622v5.977h-3.582v-16.821h7.869
	c3.505,0,5.675,2.295,5.675,5.422c0,2.951-1.892,4.564-3.708,4.993l3.809,6.406H316.166z M316.519,282.346
	c0-1.388-1.084-2.244-2.497-2.244h-3.782v4.539h3.782C315.434,284.641,316.519,283.784,316.519,282.346z"/>
<path display="none" fill="#222222" d="M325.139,293.771v-16.821h11.905v3.152h-8.323v3.53h8.146v3.153h-8.146v3.833h8.323v3.152
	H325.139z"/>
<path display="none" fill="#222222" d="M342.108,293.771v-16.821h7.87c3.657,0,5.649,2.472,5.649,5.422
	c0,2.926-2.017,5.397-5.649,5.397h-4.288v6.002H342.108z M351.97,282.371c0-1.413-1.084-2.27-2.496-2.27h-3.784v4.514h3.784
	C350.886,284.615,351.97,283.759,351.97,282.371z"/>
<path display="none" fill="#222222" d="M359.33,285.372c0-5.069,3.707-8.7,8.802-8.7c5.07,0,8.777,3.631,8.777,8.7
	s-3.707,8.702-8.777,8.702C363.037,294.074,359.33,290.441,359.33,285.372z M373.227,285.372c0-3.152-1.992-5.522-5.095-5.522
	c-3.128,0-5.119,2.37-5.119,5.522c0,3.128,1.991,5.523,5.119,5.523C371.234,290.896,373.227,288.5,373.227,285.372z"/>
<path display="none" fill="#222222" d="M391.203,293.771l-3.304-5.977h-2.622v5.977h-3.582v-16.821h7.869
	c3.506,0,5.674,2.295,5.674,5.422c0,2.951-1.891,4.564-3.706,4.993l3.808,6.406H391.203z M391.557,282.346
	c0-1.388-1.084-2.244-2.497-2.244h-3.782v4.539h3.782C390.473,284.641,391.557,283.784,391.557,282.346z"/>
<path display="none" fill="#222222" d="M403.81,293.771v-13.669h-4.918v-3.152h13.417v3.152h-4.893v13.669H403.81z"/>
<path display="none" fill="#222222" d="M416.87,293.771v-16.821h3.581v16.821H416.87z"/>
<path display="none" fill="#222222" d="M437.649,293.771l-8.021-10.971v10.971h-3.582v-16.821h3.684l7.792,10.567v-10.567h3.583
	v16.821H437.649z"/>
<path display="none" fill="#222222" d="M445.891,285.372c0-5.321,4.035-8.7,8.979-8.7c3.48,0,5.675,1.765,6.937,3.757l-2.951,1.615
	c-0.781-1.186-2.22-2.194-3.985-2.194c-3.076,0-5.295,2.345-5.295,5.522s2.219,5.523,5.295,5.523c1.489,0,2.875-0.655,3.556-1.286
	v-2.018h-4.438v-3.127h8.02v6.457c-1.715,1.916-4.111,3.152-7.138,3.152C449.926,294.074,445.891,290.669,445.891,285.372z"/>
<path display="none" fill="#222222" d="M467.777,297.227l-1.387-1.136c0.808-0.428,1.74-1.487,1.941-2.369
	c-0.075,0.024-0.277,0.075-0.478,0.075c-0.96,0-1.716-0.757-1.716-1.815c0-1.11,0.908-2.019,1.992-2.019
	c1.186,0,2.244,0.933,2.244,2.572C470.375,294.426,469.341,296.116,467.777,297.227z"/>
<path display="none" fill="#222222" d="M479.527,293.771v-16.821h3.581v16.821H479.527z"/>
<path display="none" fill="#222222" d="M498.037,293.771l-8.021-10.971v10.971h-3.582v-16.821h3.683l7.793,10.567v-10.567h3.582
	v16.821H498.037z"/>
<path display="none" fill="#222222" d="M504.01,285.372c0-5.195,3.909-8.7,8.979-8.7c3.683,0,5.826,1.992,7.012,4.11l-3.078,1.514
	c-0.706-1.362-2.219-2.446-3.934-2.446c-3.078,0-5.296,2.345-5.296,5.522s2.218,5.523,5.296,5.523c1.715,0,3.228-1.084,3.934-2.445
	l3.078,1.487c-1.186,2.093-3.329,4.137-7.012,4.137C507.919,294.074,504.01,290.544,504.01,285.372z"/>
<path display="none" fill="#222222" d="M259.228,189.691c3.491-0.388,5.586-2.25,5.586-5.043V147.8c0-3.724,0-4.5-5.74-5.663v-1.939
	h6.051c6.982,0,8.688-0.311,8.688-0.311l0.388,0.311c0,0-2.56,2.948-2.56,9.387v14.429h28.858l0.775-0.776V147.8
	c0-3.724,0-4.5-5.74-5.663v-1.939h6.051c6.981,0,8.689-0.232,8.689-0.232l0.387,0.31c0,0-2.56,2.87-2.56,9.31v35.063
	c0,2.327-0.388,4.189-0.388,4.189l6.982,0.699l-0.311,2.171l-18.695,0.465v-2.482c3.413-0.388,5.585-2.172,5.585-4.811v-17.609
	h-28.858l-0.775,0.776v16.601c0,2.327-0.388,4.189-0.388,4.189l6.981,0.699l-0.31,2.171l-18.697,0.465V189.691z"/>
<path display="none" fill="#222222" d="M316.855,189.691c3.258-0.311,4.577-1.939,5.197-3.491l18.386-45.77l3.182-0.699
	l17.222,44.064c2.095,5.275,3.49,5.663,5.896,6.051l-0.312,2.095h-3.336c-2.868,0-11.791,0.232-11.791,0.232v-2.637
	c2.172-0.078,4.112-0.699,3.258-3.026l-4.732-12.412h-18.54l-1.009,0.776l-5.353,13.963l6.595,0.931l-0.311,2.172h-14.351V189.691z
	 M340.36,148.421l-8.611,22.419h16.833l-6.671-17.687C341.291,151.601,340.671,149.585,340.36,148.421z"/>
<path display="none" fill="#222222" d="M369.162,189.691c3.413-0.388,5.584-2.172,5.584-4.811V147.8c0-3.724-0.387-4.5-6.36-5.663
	v-1.939h17.998c13.963,0,19.238,5.74,19.238,12.489c0,7.292-6.517,12.257-10.24,14.197v1.009l11.171,16.368
	c3.336,4.81,4.889,4.965,6.905,5.12l0.854,0.078L414,191.941h-11.248l-0.312-0.233c0,0-1.628-3.878-4.809-8.533l-9.619-14.197
	h-5.664l-0.776,0.776v15.127c0,2.25-0.387,3.957-0.387,3.957l6.981,0.699l-0.311,2.171l-18.694,0.465V189.691z M388.09,165.953
	c4.654,0,10.008-3.724,10.008-11.249c0-5.896-3.336-11.481-12.878-11.481h-2.871l-0.776,0.776v21.954H388.09z"/>
<path display="none" fill="#222222" d="M425.848,189.691c3.49-0.388,5.585-2.25,5.585-5.043v-41.425h-7.68
	c-5.354,0-7.682,1.629-10.63,9.619h-2.637l2.405-13.111c0,0,2.017,0.466,5.197,0.466h36.306c3.182,0,5.585-0.466,5.585-0.466
	l-2.403,13.111h-2.639c0.388-7.99-2.172-9.619-8.223-9.619h-7.681l-0.776,0.776v40.649c0,2.327-0.388,4.189-0.388,4.189l7.759,0.699
	l-0.312,2.171l-19.47,0.465V189.691z"/>
<path display="none" fill="#222222" d="M234.892,223.004l-11.947,37.78l-3.026-0.932l-17.842-45.304
	c-1.319-3.336-4.578-4.266-4.578-4.266v-1.94h4.733c4.887,0,7.99-0.31,7.99-0.31l0.31,0.31c-0.853,1.862-1.318,4.888-0.465,7.138
	l11.172,29.944c0.542,1.474,1.085,3.49,1.474,4.965l10.24-32.271l-1.319-3.569c-1.318-3.336-4.577-4.266-4.577-4.266v-1.94h4.732
	c4.887,0,7.99-0.31,7.99-0.31l0.311,0.31c-0.853,1.862-1.319,4.888-0.466,7.138l10.938,30.099c0.465,1.397,1.009,3.258,1.396,4.733
	l10.55-33.281c1.164-3.646,0.31-5.586-3.724-6.749v-1.94h11.792l0.31,1.087c0,0-2.715,1.396-5.042,8.3l-13.653,43.056l-3.026-0.932
	L234.892,223.004z"/>
<path display="none" fill="#222222" d="M263.307,257.837c3.259-0.312,4.577-1.939,5.198-3.493l18.386-45.769l3.18-0.699
	l17.222,44.064c2.095,5.274,3.491,5.662,5.896,6.051l-0.311,2.095h-3.336c-2.87,0-11.791,0.233-11.791,0.233v-2.639
	c2.172-0.078,4.111-0.697,3.258-3.025l-4.731-12.412h-18.541l-1.009,0.775l-5.352,13.965l6.593,0.931l-0.31,2.172h-14.353V257.837z
	 M286.813,216.565l-8.611,22.42h16.835l-6.672-17.688C287.744,219.746,287.123,217.729,286.813,216.565z"/>
<path display="none" fill="#222222" d="M341.48,207.411c6.594,0,14.817,1.474,17.377,1.707l-2.328,11.869h-2.637
	c-0.077-8.534-6.826-10.628-12.955-10.628c-13.576,0-20.635,10.861-20.635,23.117c0,14.043,9.542,24.205,23.816,24.205
	c2.482,0,4.964-0.31,7.758-0.931v-11.248c0-3.725-0.312-4.655-7.137-5.662v-1.94h16.523l0.388,1.086c0,0-3.025,1.396-3.025,7.369
	v12.645c-5.042,0.776-11.947,2.018-17.61,2.018c-15.515,0-28.316-9.076-28.316-25.755
	C312.699,221.375,321.621,207.411,341.48,207.411z"/>
<path display="none" fill="#222222" d="M366.192,257.837c3.49-0.388,5.585-2.018,5.585-4.811v-34.909
	c0-5.353-1.242-6.905-6.361-7.835v-1.94h2.328c3.801,0,7.756-0.31,7.756-0.31s0.931,1.784,2.871,4.034l28.082,32.427
	c1.011,1.241,2.251,2.871,3.104,4.112v-32.272c0-3.414-0.079-5.198-6.362-5.818v-2.173h14.74l0.389,1.087
	c0,0-5.354,1.474-5.354,7.913v43.132h-2.018l-32.97-38.942c-0.931-1.087-2.018-2.562-2.794-3.725v35.22
	c0,2.328-0.387,4.188-0.387,4.188l6.981,0.466l-0.311,2.172l-15.281,0.467V257.837z"/>
<path display="none" fill="#222222" d="M423.707,257.837c3.492-0.388,5.586-2.018,5.586-4.811v-37.081c0-3.724-0.387-4.5-6.36-5.663
	v-1.94h31.961c3.181,0,5.584-0.31,5.584-0.31l-2.403,12.955h-2.639c0.389-7.99-2.171-9.62-8.378-9.62h-10.161l-0.777,0.776v20.171
	h14.352l0.622-4.423l2.87-0.465v13.653h-3.646v-5.741h-13.42l-0.777,0.776v16.601c0,2.328-0.387,4.345-0.387,4.345h12.179
	c6.671,0,7.603-1.475,11.482-9.619h2.637l-2.87,12.645h-24.205c-3.878,0-11.248,0.233-11.248,0.233V257.837z"/>
<path display="none" fill="#222222" d="M466.041,257.837c3.413-0.388,5.586-2.174,5.586-4.811v-37.081
	c0-3.724-0.388-4.5-6.362-5.663v-1.94h17.998c13.965,0,19.238,5.741,19.238,12.49c0,7.293-6.516,12.257-10.238,14.196v1.009
	l11.171,16.369c3.336,4.809,4.887,4.965,6.903,5.119l0.854,0.077l-0.311,2.483h-11.247l-0.312-0.233c0,0-1.629-3.879-4.811-8.533
	l-9.619-14.196h-5.662l-0.776,0.776v15.127c0,2.25-0.388,3.957-0.388,3.957l6.982,0.697l-0.311,2.172l-18.696,0.467V257.837z
	 M484.969,234.098c4.656,0,10.008-3.723,10.008-11.248c0-5.896-3.336-11.482-12.876-11.482h-2.871l-0.776,0.776v21.954H484.969z"/>
<path display="none" fill="#222222" d="M221.774,291.999v-13.81h-4.894v-1.166h11.091v1.166h-4.895v13.81H221.774z"/>
<path display="none" fill="#222222" d="M247.254,291.999l-4.198-6.197h-3.301v6.197h-1.28v-14.976h5.591
	c2.583,0,4.558,1.639,4.558,4.378c0,2.717-1.909,4.221-4.154,4.312l4.333,6.286H247.254z M247.276,281.401
	c0-1.887-1.325-3.212-3.323-3.212h-4.199v6.444h4.199C245.951,284.634,247.276,283.287,247.276,281.401z"/>
<path display="none" fill="#222222" d="M259.666,291.999v-14.976h1.279v14.976H259.666z"/>
<path display="none" fill="#222222" d="M283.372,291.999l-1.481-3.683h-7.925l-1.482,3.683h-1.481l6.129-14.976h1.594l6.13,14.976
	H283.372z M277.939,278.393l-3.547,8.756h7.072L277.939,278.393z"/>
<path display="none" fill="#222222" d="M294.595,291.999v-14.976h1.302v13.808h7.252v1.168H294.595z"/>
<path display="none" fill="#222222" d="M339.365,291.999l-1.482-3.683h-7.926l-1.482,3.683h-1.481l6.129-14.976h1.595l6.129,14.976
	H339.365z M333.931,278.393l-3.548,8.756h7.073L333.931,278.393z"/>
<path display="none" fill="#222222" d="M353.168,291.999v-13.81h-4.895v-1.166h11.092v1.166h-4.895v13.81H353.168z"/>
<path display="none" fill="#222222" d="M373.687,291.999v-13.81h-4.894v-1.166h11.09v1.166h-4.895v13.81H373.687z"/>
<path display="none" fill="#222222" d="M389.176,284.522c0-4.379,2.872-7.746,7.272-7.746c4.378,0,7.275,3.367,7.275,7.746
	c0,4.378-2.897,7.746-7.275,7.746C392.048,292.269,389.176,288.9,389.176,284.522z M402.375,284.522
	c0-3.795-2.334-6.578-5.927-6.578c-3.614,0-5.927,2.783-5.927,6.578c0,3.771,2.313,6.577,5.927,6.577
	C400.041,291.1,402.375,288.293,402.375,284.522z"/>
<path display="none" fill="#222222" d="M423.521,291.999l-4.198-6.197h-3.301v6.197h-1.279v-14.976h5.591
	c2.582,0,4.558,1.639,4.558,4.378c0,2.717-1.91,4.221-4.153,4.312l4.332,6.286H423.521z M423.544,281.401
	c0-1.887-1.324-3.212-3.322-3.212h-4.199v6.444h4.199C422.22,284.634,423.544,283.287,423.544,281.401z"/>
<path display="none" fill="#222222" d="M446.643,291.999l-9.43-12.865v12.865h-1.278v-14.976h1.301l9.384,12.686v-12.686h1.281
	v14.976H446.643z"/>
<path display="none" fill="#222222" d="M459.48,291.999v-14.976h9.498v1.166h-8.218v5.547h8.061v1.168h-8.061v5.927h8.218v1.168
	H459.48z"/>
<path display="none" fill="#222222" d="M484.422,291.999v-6.398l-5.949-8.577h1.549l5.051,7.364l5.053-7.364h1.548l-5.948,8.577
	v6.398H484.422z"/>
<path display="none" fill="#222222" d="M500.449,289.888l0.83-0.966c0.965,1.101,2.537,2.178,4.692,2.178
	c3.055,0,3.929-1.706,3.929-2.985c0-4.399-8.979-2.109-8.979-7.342c0-2.447,2.199-3.996,4.915-3.996
	c2.224,0,3.931,0.785,5.076,2.109l-0.855,0.944c-1.077-1.302-2.604-1.886-4.287-1.886c-1.998,0-3.503,1.146-3.503,2.76
	c0,3.84,8.982,1.729,8.982,7.32c0,1.931-1.281,4.244-5.322,4.244C503.456,292.269,501.594,291.257,500.449,289.888z"/>
<path display="none" fill="#222222" d="M503.693,243.231c0.666-0.073,0.991-0.384,0.991-0.917v-7.073c0-0.71,0-0.858-1.095-1.08
	v-0.37h1.153c1.333,0,1.657-0.059,1.657-0.059l0.075,0.059c0,0-0.489,0.562-0.489,1.791v6.688c0,0.443-0.073,0.813-0.073,0.813
	h2.471c1.271,0,1.51-0.458,2.25-2.132h0.503l-0.607,2.708h-4.765c-0.739,0-2.071,0.046-2.071,0.046V243.231z"/>
<path display="none" fill="#222222" d="M512.038,243.231c0.665-0.073,0.991-0.384,0.991-0.917v-7.073c0-0.71,0-0.858-1.096-1.08
	v-0.37h1.154c1.332,0,1.658-0.059,1.658-0.059l0.074,0.059c0,0-0.489,0.562-0.489,1.791v6.688c0,0.443-0.073,0.813-0.073,0.813
	h2.471c1.273,0,1.51-0.458,2.249-2.132h0.504l-0.608,2.708h-4.764c-0.74,0-2.071,0.046-2.071,0.046V243.231z"/>
<path display="none" fill="#222222" d="M520.354,243.231c0.65-0.073,1.064-0.414,1.064-0.917v-7.073c0-0.71-0.073-0.858-1.212-1.08
	v-0.37h3.669c1.701,0,3.625,0.548,3.625,2.723c0,2.382-2.233,3.166-3.832,3.004v-0.415c1.716-0.044,2.383-1.109,2.383-2.277
	c0-1.776-1.393-2.457-2.959-2.457h-0.224l-0.146,0.148v7.798c0,0.429-0.075,0.754-0.075,0.754l1.406,0.134l-0.059,0.414l-3.641,0.09
	V243.231z"/>
<rect display="none" fill="#231F20" width="720" height="432"/>
<path display="none" fill="#A4CD3C" d="M178.702,215.285h-0.138c-7.809,0-14.224-6.276-14.224-14.084v-0.138h14.224v-9.62
	c0-12.411,8.367-21.754,20.775-21.754h2.667c-14.353-5.18-48.502-0.48-48.502-0.48h0.021c-2.047,8.62-5.272,30.879-1.427,46.007
	c3.844,15.131,12.28,23.564,26.6,28.774c0.002,0,0.003,0,0.003,0V215.285z"/>
<path display="none" fill="#A4CD3C" d="M228.656,198.478c-2.71-10.671-7.708-18.007-15.442-23.234
	c-1.797,5.23-6.582,8.709-12.481,9.365c-3.903,0.418-6.833,3.207-6.833,7.109v9.345h18.406v0.138
	c0,7.808-6.272,14.084-14.081,14.084H193.9v31.054c15.355,0.623,33.349-1.855,33.349-1.855l-0.021,0.004
	C229.277,235.866,232.5,213.607,228.656,198.478z"/>
<path display="none" fill="#FFFFFF" d="M263.185,210.634c-4.988,0-9.08-4.001-9.08-8.987v-0.088h9.08v-6.14
	c0-7.927,5.333-13.889,13.258-13.889h9.346v0.539c0,4.981-3.651,8.454-8.46,8.988c-2.489,0.267-4.354,2.044-4.354,4.54v5.962h11.747
	v0.088c0,4.986-4.004,8.987-8.992,8.987h-2.755v27.145c0,4.979-3.919,8.99-8.896,8.99h-0.805v-36.135H263.185z"/>
<path display="none" fill="#FFFFFF" d="M287.652,246.051v-56.238c0-4.986,4.007-8.988,8.991-8.988h0.805v65.227H287.652z"/>
<path display="none" fill="#FFFFFF" d="M324.054,246.945c-12.812,0-21.006-10.319-21.006-23.135
	c0-12.823,9.442-23.146,22.254-23.146c12.816,0,22.251,10.417,22.251,23.232c0,2.493-1.955,4.09-4.458,4.09h-29.539
	c1.336,5.521,5.243,9.531,11.028,9.531c5.341,0,7.924-0.717,10.771-0.717c3.92,0,7.211,2.494,8.546,6.138
	C339.63,245.251,331.71,246.945,324.054,246.945z M313.556,219.804h23.317c-1.603-5.515-5.699-9.974-11.571-9.974
	C319.337,209.83,314.974,214.192,313.556,219.804z"/>
<path display="none" fill="#FFFFFF" d="M400.771,246.051v-56.238c0-4.986,4.004-8.988,8.986-8.988h0.801v65.227H400.771z"/>
<path display="none" fill="#FFFFFF" d="M437.17,246.945c-12.813,0-20.998-10.319-20.998-23.135c0-12.823,9.432-23.146,22.248-23.146
	s22.248,10.417,22.248,23.232c0,2.493-1.956,4.09-4.442,4.09h-29.557c1.341,5.521,5.258,9.531,11.041,9.531
	c5.341,0,7.921-0.717,10.766-0.717c3.913,0,7.21,2.494,8.547,6.138C452.747,245.251,444.83,246.945,437.17,246.945z
	 M426.669,219.804h23.324c-1.605-5.515-5.696-9.974-11.573-9.974C432.459,209.83,428.093,214.192,426.669,219.804z"/>
<path display="none" fill="#FFFFFF" d="M468.502,261.101c1.156-3.83,3.917-6.142,7.653-6.142c3.652,0,5.156,0.623,10.772,0.623
	c4.979,0,9.522-3.826,9.522-8.995v-2.04c-2.938,0.977-6.678,1.951-10.504,1.951c-11.929,0-21.716-9.872-21.716-22.688
	c0-12.823,10.052-23.146,22.871-23.146c4.453,0,8.37,0.271,11.479,1.245c4.272,1.339,7.656,4.012,7.656,9.699v34.268
	c0,10.684-7.565,18.867-18.161,18.867C480.25,264.744,473.043,262.793,468.502,261.101z M496.45,235.73v-25.096
	c0,0-4.362-0.886-9.076-0.886c-7.215,0-13.002,6.579-13.002,14.063c0,7.481,5.7,13.708,12.103,13.708
	C491.468,237.519,496.45,235.73,496.45,235.73z"/>
<path display="none" fill="#FFFFFF" d="M551.98,219.533v15.935c0,5.696-3.381,8.278-7.652,9.706
	c-3.116,1.06-8.012,1.771-15.752,1.771c-10.772,0-16.639-6.23-16.639-14.06c0-7.83,6.319-14.068,15.925-14.068h14.331
	c0-5.161-4.54-8.988-9.526-8.988c-5.605,0-7.116,0.629-10.762,0.629c-3.743,0-6.504-2.311-7.663-6.138
	c4.54-1.692,11.751-3.655,19.585-3.655C544.415,200.665,551.98,208.857,551.98,219.533z M542.193,227.016h-13.526
	c-4.449,0-6.591,2.575-6.591,5.247c0,2.669,2.229,5.7,7.928,5.7c6.232,0,9.603-0.803,12.189-1.432V227.016z"/>
<path display="none" fill="#FFFFFF" d="M391.782,203.155c-1.779-1.778-4-2.313-5.959-2.313c-2.583,0-4.983,0.892-7.031,3.558
	l-7.109,9.173l5.729,7.208L391.782,203.155z"/>
<path display="none" fill="#FFFFFF" d="M377.404,225.242l-6.123,7.7l8.312,10.359c1.688,2.042,4.272,3.468,6.943,3.468
	c2.398,0,4.803-0.981,6.314-2.494L377.404,225.242z"/>
<polygon display="none" fill="#FFFFFF" points="369.913,215.859 360.812,204.4 369.895,215.883 "/>
<polygon display="none" fill="#FFFFFF" points="359.388,243.389 369.477,230.699 369.452,230.659 "/>
<path display="none" fill="#FFFFFF" d="M369.895,215.883l-9.083-11.483c-1.688-2.13-4.449-3.558-7.118-3.558
	c-2.4,0-4.63,0.981-6.141,2.498l16.014,20.022l-17.082,21.186c1.781,1.6,4.094,2.223,6.144,2.223c2.405,0,4.713-0.719,6.76-3.381
	l10.064-12.729l0.024,0.04l6.116-7.698l-5.68-7.142L369.895,215.883z"/>
<path display="none" fill="#222222" d="M185.645,201.755c-5.848,0-10.645-4.692-10.645-10.537v-0.103h10.645v-7.199
	c0-9.294,6.253-16.284,15.544-16.284h10.957v0.633c0,5.839-4.28,9.911-9.919,10.537c-2.917,0.313-5.104,2.396-5.104,5.322v6.991
	h13.772v0.103c0,5.845-4.694,10.537-10.542,10.537h-3.23v31.826c0,5.837-4.595,10.539-10.431,10.539h-0.944v-42.365H185.645z"/>
<path display="none" fill="#222222" d="M214.33,243.278v-65.934c0-5.846,4.698-10.539,10.542-10.539h0.943v76.473H214.33z"/>
<path display="none" fill="#222222" d="M257.008,244.327c-15.021,0-24.627-12.099-24.627-27.123
	c0-15.035,11.07-27.137,26.091-27.137c15.026,0,26.087,12.213,26.087,27.239c0,2.923-2.292,4.795-5.227,4.795h-34.632
	c1.566,6.474,6.147,11.175,12.93,11.175c6.262,0,9.29-0.841,12.627-0.841c4.596,0,8.455,2.925,10.019,7.195
	C275.269,242.34,265.984,244.327,257.008,244.327z M244.699,212.506h27.338c-1.879-6.466-6.682-11.693-13.566-11.693
	C251.478,200.813,246.362,205.927,244.699,212.506z"/>
<path display="none" fill="#222222" d="M346.952,243.278v-65.934c0-5.846,4.694-10.539,10.535-10.539h0.939v76.473H346.952z"/>
<path display="none" fill="#222222" d="M389.627,244.327c-15.021,0-24.619-12.099-24.619-27.123
	c0-15.035,11.058-27.137,26.084-27.137s26.084,12.213,26.084,27.239c0,2.923-2.295,4.795-5.21,4.795h-34.651
	c1.572,6.474,6.163,11.175,12.943,11.175c6.264,0,9.288-0.841,12.622-0.841c4.59,0,8.454,2.925,10.021,7.195
	C407.888,242.34,398.607,244.327,389.627,244.327z M377.314,212.506h27.345c-1.883-6.466-6.678-11.693-13.567-11.693
	C384.103,200.813,378.983,205.927,377.314,212.506z"/>
<path display="none" fill="#222222" d="M426.359,260.923c1.356-4.491,4.592-7.201,8.973-7.201c4.281,0,6.045,0.731,12.631,0.731
	c5.836,0,11.162-4.486,11.162-10.547v-2.391c-3.443,1.145-7.828,2.287-12.314,2.287c-13.983,0-25.458-11.574-25.458-26.599
	c0-15.035,11.783-27.137,26.813-27.137c5.222,0,9.813,0.318,13.457,1.459c5.011,1.569,8.977,4.704,8.977,11.372v40.176
	c0,12.525-8.868,22.12-21.291,22.12C440.134,265.194,431.685,262.907,426.359,260.923z M459.125,231.179v-29.423
	c0,0-5.112-1.039-10.64-1.039c-8.459,0-15.244,7.712-15.244,16.487c0,8.771,6.684,16.071,14.19,16.071
	C453.285,233.275,459.125,231.179,459.125,231.179z"/>
<path display="none" fill="#222222" d="M524.23,212.189v18.682c0,6.678-3.964,9.705-8.971,11.379
	c-3.655,1.242-9.394,2.077-18.469,2.077c-12.63,0-19.507-7.305-19.507-16.484s7.407-16.494,18.669-16.494h16.804
	c0-6.051-5.324-10.537-11.17-10.537c-6.572,0-8.343,0.737-12.617,0.737c-4.388,0-7.626-2.71-8.983-7.197
	c5.321-1.984,13.776-4.286,22.96-4.286C515.36,190.067,524.23,199.672,524.23,212.189z M512.757,220.961h-15.859
	c-5.217,0-7.727,3.02-7.727,6.152c0,3.129,2.613,6.683,9.295,6.683c7.307,0,11.256-0.941,14.291-1.679V220.961z"/>
<path display="none" fill="#222222" d="M533.517,243.278v-65.934c0-5.846,4.698-10.539,10.54-10.539H545v76.473H533.517z"/>
<path display="none" fill="#222222" d="M336.413,192.987c-2.086-2.084-4.689-2.712-6.986-2.712c-3.028,0-5.842,1.046-8.243,4.171
	l-8.334,10.754l6.716,8.451L336.413,192.987z"/>
<path display="none" fill="#222222" d="M319.556,218.882l-7.178,9.028l9.744,12.145c1.98,2.395,5.009,4.065,8.14,4.065
	c2.812,0,5.631-1.149,7.403-2.924L319.556,218.882z"/>
<polygon display="none" fill="#222222" points="310.774,207.881 300.103,194.446 310.751,207.909 "/>
<polygon display="none" fill="#222222" points="298.434,240.157 310.262,225.279 310.233,225.233 "/>
<path display="none" fill="#222222" d="M310.751,207.909l-10.648-13.462c-1.979-2.497-5.216-4.171-8.346-4.171
	c-2.813,0-5.428,1.15-7.199,2.928l18.774,23.474l-20.027,24.839c2.089,1.875,4.8,2.604,7.203,2.604c2.82,0,5.525-0.842,7.925-3.963
	l11.8-14.924l0.028,0.046l7.17-9.025l-6.658-8.373L310.751,207.909z"/>
<path fill="#222222" d="M175,182.363v67.273h370v-67.273H175z M541.637,246.273H178.364v-60.547h363.272V246.273z"/>
<path fill="#222222" d="M210.027,234.293c-10.333,0-18.208-6.424-18.208-18.209c0-11.06,7.931-18.377,18.32-18.377
	c10.389,0,18.265,6.367,18.265,18.152C228.403,226.919,220.416,234.293,210.027,234.293z M210.027,204.857
	c-5.921,0-9.272,4.468-9.272,11.002c0,6.704,3.463,11.284,9.439,11.284c5.865,0,9.272-4.525,9.272-11.06
	C219.466,209.38,215.948,204.857,210.027,204.857z"/>
<path fill="#222222" d="M241.691,233.454h-8.881v-34.908c0,0,14.355,0,14.02,0c9.272,0,14.131,4.3,14.131,11.059
	c0,4.691-2.457,8.266-7.149,10.054l8.937,13.796h-9.998l-6.982-11.728l-4.078,0.334V233.454z M245.993,215.357
	c3.798-0.279,5.864-1.843,5.864-5.194c0-3.072-2.122-4.581-6.59-4.581c-0.167,0-3.743,0-3.743,0v9.887L245.993,215.357z"/>
<path fill="#222222" d="M265.872,233.454v-34.908h25.527v7.148h-16.813v6.703h13.517v7.094h-13.517v6.813h16.813v7.149H265.872z"/>
<path fill="#222222" d="M312.732,234.293c-11.17,0-18.768-6.647-18.768-18.153c0-11.45,7.373-18.433,18.824-18.433
	c4.468,0,9.774,1.006,13.125,3.017l-2.793,7.429c-3.295-1.899-6.703-2.905-10.053-2.905c-6.256,0-10.278,4.189-10.278,10.669
	c0,6.982,3.52,11.115,10.167,11.115c2.01,0,4.133-0.447,5.585-1.061v-5.141h-8.602v-7.036h16.645v17.26
	C322.786,233.119,317.815,234.293,312.732,234.293z"/>
<path fill="#222222" d="M348.363,234.293c-10.333,0-18.209-6.424-18.209-18.209c0-11.06,7.933-18.377,18.321-18.377
	c10.389,0,18.264,6.367,18.264,18.152C366.739,226.919,358.753,234.293,348.363,234.293z M348.363,204.857
	c-5.92,0-9.271,4.468-9.271,11.002c0,6.704,3.462,11.284,9.438,11.284c5.865,0,9.271-4.525,9.271-11.06
	C357.802,209.38,354.285,204.857,348.363,204.857z"/>
<path fill="none" d="M407.715,205.582c-0.168,0-3.743,0-3.743,0v9.887l4.468-0.111c3.799-0.279,5.865-1.843,5.865-5.194
	C414.305,207.091,412.183,205.582,407.715,205.582z"/>
<path fill="#459A41" d="M416.26,219.658c4.692-1.788,7.149-5.362,7.149-10.054c0-6.759-4.86-11.059-14.132-11.059
	c0.149,0-2.587,0-5.679,0h-8.321c-0.006,0-0.019,0-0.019,0v22.647v7.832v4.762h8.34h0.541v-4.762v-6.965l4.077-0.334l6.981,11.728
	h9.999L416.26,219.658z M408.439,215.357l-4.468,0.111v-9.887c0,0,3.575,0,3.743,0c4.468,0,6.59,1.509,6.59,4.581
	C414.305,213.515,412.238,215.078,408.439,215.357z"/>
<path fill="#459A41" d="M443.123,234.293c-9.104,0-15.36-4.47-15.36-14.299v-21.448h8.825v20.274c0,5.25,2.122,7.987,6.759,7.987
	c4.188,0,6.367-2.233,6.367-7.652c0,0.112,0-20.609,0-20.609h8.825c0,0,0,20.499,0,20.666
	C458.539,229.32,452.506,234.293,443.123,234.293z"/>
<path fill="#459A41" d="M488.249,198.546h8.322v35.244h-9.439l-14.69-22.957v22.621h-8.321v-34.908h9.606l14.522,22.676V198.546z"/>
<path fill="#459A41" d="M519.356,223.679c0-2.345-2.514-3.127-7.149-4.411c-5.084-1.397-11.227-3.743-11.227-10.725
	c0-6.479,4.747-10.779,13.405-10.779c5.474,0,9.719,1.229,13.069,3.071l-1.731,7.317c-3.463-1.844-7.819-3.072-11.282-3.072
	c-3.072,0-4.58,1.062-4.58,2.96c0,2.291,3.183,3.184,7.373,4.357c5.361,1.452,10.947,3.91,10.947,10.557
	s-5.139,11.339-14.299,11.339c-5.194,0-10.221-1.341-13.461-3.185l1.676-7.373c3.463,1.844,7.652,3.239,11.953,3.239
	C517.178,226.975,519.356,225.803,519.356,223.679z"/>
<polygon fill="#222222" points="395.259,231.792 395.259,229.025 395.259,221.193 380.755,198.546 371.147,198.546 371.147,233.454 
	379.47,233.454 379.47,210.833 394.159,233.79 395.257,233.79 395.257,231.792 "/>
<path display="none" fill-rule="evenodd" clip-rule="evenodd" fill="#010101" d="M410.543,122.094
	c-3.911-6.403-8.255-11.297-13.034-14.681c-1.51-1.052-2.961-1.864-4.355-2.436c-2.128-0.915-4.151-1.383-6.072-1.406
	c-0.937-0.023-1.852,0.057-2.744,0.24c-0.182,0.045-0.376,0.08-0.583,0.103c-2.104,0.549-4.024,1.738-5.763,3.567
	c-5.876,6.105-8.814,18.031-8.814,35.774c0,1.464,0.16,3.602,0.48,6.414c0.457-0.435,1.738-0.766,3.842-0.995
	c3.43-0.343,9.352-0.754,17.768-1.234l-0.274-0.034l10.393-0.206c3.453,2.264,5.603,5.248,6.448,8.952
	c0.229,1.235,0.343,4.22,0.343,8.952c0,0.092-0.114,1.601-0.343,4.527c-0.457,3.042-1.27,5.02-2.436,5.935
	c-1.189,0.983-3.808,1.795-7.854,2.436c-4.186,0.982-6.482,1.543-6.894,1.681c-0.389,0.137-5.089,1.018-14.099,2.641
	c-0.183,0-0.376,0-0.583,0c0,0.092,0.023,0.172,0.068,0.24c6.724,23.394,15.995,35.09,27.818,35.09
	c10.61,0,17.425-6.071,20.442-18.214c0.55-2.265,0.961-4.665,1.235-7.203c0.709,0,1.463-0.012,2.265-0.034c0.32,0,0.663,0,1.028,0
	c0.777-0.023,1.589-0.058,2.435-0.104c-0.617,6.746-2.641,13.184-6.07,19.312c-3.499,6.197-8.712,10.016-15.642,11.457
	c-13.948,3.087-25.771-0.63-35.467-11.148c-5.189-5.602-11.455-9.227-18.797-10.873c-7.202-1.601-14.485-2.092-21.849-1.475
	c0.344,0.457,0.721,0.938,1.133,1.44c1.896,2.286,3.178,4.859,3.841,7.718v-0.069c0.435,1.578,0.389,3.168-0.137,4.769v-0.068
	c-0.16,0.525-0.354,1.04-0.584,1.543c1.167,0.549,2.219,1.292,3.156,2.229h0.068c1.212,1.28,2.092,2.768,2.642,4.459l0.034,0.034
	c0.457,1.532,0.412,3.156-0.138,4.871c-0.823,2.492-1.829,4.882-3.019,7.169c0.343,0.411,0.686,0.812,1.029,1.2h-0.034
	c3.453,4.162,3.944,8.187,1.475,12.073c-0.48,0.731-1.063,1.464-1.749,2.195l-0.035,0.069c-4.023,4.253-8.814,5.431-14.371,3.532
	c-1.669-0.594-2.824-1.589-3.465-2.984c-0.479-0.938-0.938-1.874-1.372-2.813c-6.744-14.245-12.358-28.995-16.84-44.247
	c-1.145,0.023-2.242-0.012-3.294-0.103c-4.848-0.48-8.758-2.527-11.73-6.14v-0.035c-6.448-7.957-7.261-16.566-2.437-25.828
	c0.709-1.418,1.647-2.63,2.813-3.636c9.673-8.666,20.912-14.748,33.717-18.247c8.575-2.378,16.499-6.117,23.771-11.217
	c0.938-0.686,1.715-1.497,2.333-2.435v0.068c4.321-6.563,8.22-13.491,11.697-20.785c1.211-2.607,2.776-4.859,4.698-6.757
	c2.378-2.332,5.064-4.104,8.061-5.316h0.068c10.177-4.047,19.745-2.675,28.709,4.116h0.035c2.698,2.081,5.133,4.437,7.306,7.066
	c1.853,2.264,3.579,4.584,5.179,6.963c-0.595,0.206-1.155,0.389-1.68,0.549c-0.32,0.114-0.63,0.217-0.926,0.309
	C412.498,121.385,411.549,121.728,410.543,122.094z M431.467,186.508c-0.984,0.046-1.773,0.08-2.368,0.104
	c-0.411,0.046-0.72,0.08-0.926,0.103h-0.068c-0.274,0.046-0.857,0.114-1.75,0.206c-0.113,0-0.239,0-0.376,0h-0.139
	c0-0.092,0-0.194,0-0.309c-0.091-4.186-0.136-6.426-0.136-6.724c0-8.392-0.755-16.44-2.265-24.146
	c0.595-0.046,1.35-0.137,2.265-0.274c0.319-0.046,0.65-0.092,0.993-0.138c0.663-0.113,1.395-0.217,2.196-0.308
	C430.699,165.447,431.558,175.943,431.467,186.508z M427.693,148.47l-2.229,0.686c-0.298,0.069-0.617,0.148-0.961,0.24
	c-0.479,0.138-0.983,0.286-1.509,0.446c-0.297,0.091-0.595,0.171-0.892,0.239c-1.373-5.373-3.145-10.563-5.317-15.571
	c-1.074-2.676-2.218-5.168-3.43-7.477c0.572-0.183,1.155-0.377,1.75-0.583c0.389-0.138,0.777-0.275,1.166-0.412
	c0.297-0.115,0.605-0.229,0.925-0.343c0.55-0.206,1.145-0.423,1.784-0.652c4.024,7.18,6.906,14.932,8.645,23.255
	C427.625,148.344,427.647,148.401,427.693,148.47z M374.013,151.008c-1.76,0.32-2.802,0.549-3.121,0.686
	c-0.503,0.229-0.813,0.366-0.926,0.412c0.229,1.578,0.469,3.293,0.721,5.146c0.503,3.498,1.074,6.916,1.715,10.255
	c0.937,4.711,1.988,9.215,3.155,13.515c3.682-1.281,6.563-2.115,8.644-2.504c2.081-0.366,5.614-1.121,10.599-2.265
	c4.939-1.12,8.05-2.274,9.33-3.464c1.555-1.486,2.332-4.048,2.332-7.684c0-4.275-0.114-6.894-0.343-7.854
	c-0.617-2.425-2.069-4.711-4.356-6.86c-0.525-0.48-1.063-0.961-1.611-1.44c-10.817,0.205-18.442,0.686-22.879,1.44
	C375.991,150.642,374.904,150.848,374.013,151.008z M395.827,156.873c-0.32,0.801-0.674,1.498-1.063,2.093
	c-0.663,1.098-0.823,2.207-0.48,3.326c0.32,1.121,0.584,2.104,0.789,2.95c0.138,0.823,1.463,1.897,3.979,3.224
	c0,0.32-0.893,0.48-2.676,0.48s-2.87-1.086-3.259-3.259c-0.479-2.149-0.721-3.51-0.721-4.081c0-0.526,0.194-1.727,0.584-3.602
	c0.046-0.32,0.125-0.641,0.24-0.96c0.548-1.258,1.635-1.955,3.259-2.093C396.273,155.615,396.057,156.256,395.827,156.873z
	 M366.158,115.851c-1.144,1.898-2.697,5.74-4.665,11.524c-1.715,4.916-3.67,8.678-5.865,11.284
	c-3.155,3.819-7.764,6.803-13.823,8.953c-4.527,1.532-8.117,2.687-10.77,3.464c-0.252,0.48-1.167,2.584-2.744,6.312
	c-0.572,1.761-0.973,3.03-1.201,3.808c-0.114,0.389-0.263,1.006-0.446,1.852c-0.091,0.389-0.205,0.834-0.343,1.338
	c-0.137,0.64-0.308,1.349-0.515,2.126c-0.663,2.79-0.812,5.18-0.445,7.169c0.251,2.035,0.514,3.579,0.789,4.631
	c0.434,2.035,0.982,4.081,1.646,6.14c0.961,3.133,3.133,6.242,6.517,9.329c2.172-0.137,4.493-0.205,6.964-0.205
	c10.427,0,18.453,1.349,24.078,4.048c3.521,1.623,7.066,4.584,10.633,8.883c3.683,4.391,7.044,7.329,10.084,8.815
	c2.448,1.304,5.455,2.299,9.021,2.984c-9.193-4.619-16.419-16.567-21.678-35.844c-1.258-4.597-2.343-9.41-3.259-14.44
	c-0.708-3.865-1.349-7.866-1.921-12.005c-0.731-8.141-1.098-12.279-1.098-12.417c0-2.813,0.104-5.545,0.31-8.197
	c0.046-0.961,0.125-1.898,0.24-2.813c0.366-3.956,0.948-7.763,1.748-11.421c1.235-5.603,2.905-10.13,5.009-13.583
	C370.926,109.78,368.17,112.535,366.158,115.851z M324.072,164.041c1.28-4.664,2.847-8.597,4.698-11.799
	c-6.517,2.401-11.799,4.482-15.847,6.243c-6.859,2.927-11.96,5.396-15.297,7.408c-0.047,0.023-0.115,0.046-0.206,0.068
	c-1.853,1.098-3.305,2.39-4.356,3.876l-1.406,2.778c-0.137,0.344-0.229,0.697-0.275,1.063c-0.754,3.133-1.131,6.151-1.131,9.056
	c0,2.813,0.125,4.733,0.377,5.762c0.045,0.115,0.091,0.252,0.137,0.412c0.229,0.938,0.594,1.897,1.099,2.881
	c0.32,0.641,0.674,1.235,1.063,1.784l0.138,0.205c0.273,0.298,0.537,0.584,0.789,0.858c0.435,0.389,0.892,0.742,1.371,1.063
	l4.288,1.27c0.183,0,0.366,0,0.548,0c10.771,0,18.466-0.537,23.085-1.612c2.63-0.686,5.705-1.188,9.227-1.509
	c-4.344-3.453-6.894-6.403-7.648-8.85c-0.549-1.761-0.961-3.796-1.235-6.105c-0.137-0.961-0.206-1.943-0.206-2.95
	c-0.228-3.384,0.022-7.1,0.755-11.147c0.022-0.183,0.057-0.389,0.103-0.617C324.209,163.858,324.186,163.813,324.072,164.041z
	 M332.132,212.131c0.961-1.761,1.44-2.87,1.44-3.327c0-0.549-1.188-1.933-3.566-4.15c-2.378-2.173-3.614-3.808-3.705-4.905
	c-0.068-1.075,0.091-1.863,0.48-2.366c-1.052,0.16-2.08,0.343-3.087,0.548c-1.715,0.366-3.545,0.687-5.488,0.961
	c-2.447,0.274-5.02,0.457-7.718,0.549c-0.389,0-0.811,0-1.269,0c-0.068,0-0.114,0-0.137,0c0.389,0.252,0.857,0.972,1.405,2.161
	c0.571,1.029,1.178,2.355,1.818,3.979c0.526,1.235,1.041,2.664,1.543,4.288c0.435,1.166,0.88,2.446,1.339,3.841
	c0.731,2.378,1.737,5.718,3.018,10.017c0.48,1.577,1.007,3.292,1.578,5.145c3.087,10.039,5.751,15.996,7.992,17.87
	c0.502,0.412,0.983,0.618,1.44,0.618c1.601,0,3.019-0.206,4.253-0.618c1.464-0.525,2.664-1.337,3.602-2.435
	c0.823-1.052,1.35-2.149,1.578-3.293c0.365-1.235,0.068-2.184-0.892-2.847c-1.213-0.687-2.013-1.213-2.401-1.578
	c-0.343-0.389-0.469-0.96-0.377-1.716c0-0.777,0.034-1.188,0.103-1.234c0.046-0.091,0.538-1.417,1.475-3.979
	c0.093-0.32,0.206-0.651,0.344-0.994c1.166-3.202,1.749-5.134,1.749-5.797c0-1.602-1.314-2.768-3.944-3.499
	c-1.327-0.389-2.218-0.743-2.676-1.063c-0.846-0.571-1.269-1.383-1.269-2.436c0-0.595,0.319-1.577,0.96-2.949
	C331.857,212.668,331.995,212.405,332.132,212.131z"/>
<path display="none" fill-rule="evenodd" clip-rule="evenodd" fill="#4A75AA" d="M509.637,105.972
	c0.411,1.189,0.239,2.824-0.516,4.905c-1.531-0.229-3.291-0.457-5.281-0.686c-1.921-0.251-2.87-0.366-2.847-0.343
	c-0.183,0.366-0.618,1.132-1.304,2.298c-0.664,1.12-0.183,2.035,1.44,2.744c1.601,0.664,4.196,0.172,7.786-1.475
	c0.16,0.229,0.435,0.514,0.823,0.857c0,0.046,0,0.114,0,0.206c0,0.297-0.308,0.686-0.926,1.167c-0.847,0.663-1.635,1.246-2.368,1.75
	c-3.589,1.395-6.31,1.303-8.162-0.275c-0.458-0.297-0.801-0.526-1.028-0.686c-0.389-0.389-0.585-1.121-0.585-2.196
	c0-1.303,0.265-2.538,0.79-3.704c0.435-0.915,0.88-1.578,1.338-1.989c0.068-0.206,0.24-0.446,0.515-0.721
	c0-0.183,0.149-0.4,0.444-0.651c0.275-0.206,1.911-0.766,4.906-1.681C507.613,104.577,509.271,104.737,509.637,105.972z
	 M499.449,152.688c3.613-1.807,6.77-1.807,9.467,0c0.48,0.686,0.836,1.234,1.063,1.646c0.206,0.365,0.343,1.154,0.411,2.366
	c0.069,1.258-0.389,3.007-1.372,5.248c-0.982,2.195-3.04,3.007-6.175,2.436c-3.154-0.595-4.777-1.155-4.87-1.682
	c-0.113-0.502-0.239-1.257-0.376-2.263c-0.138-0.983-0.148-1.772-0.035-2.367c0.068-0.549,0.172-1.188,0.309-1.921
	c0.138-0.137,0.31-0.251,0.515-0.343c0.229-0.046,0.538-0.068,0.927-0.068c1.029,0,1.794,0.068,2.298,0.206
	c0.502,0.137,0.926,0.331,1.269,0.583l0.618,0.583c-0.114,0.32-0.824,0.525-2.127,0.617c-0.755,0-1.108,0.435-1.063,1.304
	c0,1.074,0.274,1.703,0.823,1.887c0.183,0.045,0.39,0.068,0.617,0.068c2.219,0,4.037-0.767,5.454-2.298
	c1.029-1.098,1.544-1.944,1.544-2.539c0-0.617-1.224-1.2-3.671-1.749c-0.571-0.046-1.131-0.068-1.681-0.068
	c-2.24-0.046-3.761-0.022-4.563,0.068c0-0.046-0.011-0.091-0.033-0.137c-0.115-0.114-0.241-0.229-0.378-0.344
	C498.74,153.215,499.083,152.803,499.449,152.688z M450.606,159.377l0.273,0.721c-1.669,0.96-2.732,1.978-3.189,3.052
	c-0.526,1.212-0.365,2.458,0.479,3.739c0.961,0.892,2.116,1.098,3.465,0.617c1.35-0.503,2.104-1.029,2.264-1.578
	c0.16-0.595,0-1.086-0.479-1.475c-0.595-0.274-0.972-0.537-1.133-0.789l0.479-0.721c1.67,0.069,2.698,0.526,3.087,1.372
	c0.139,0.298,0.206,1.018,0.206,2.161c0,1.098-0.09,1.829-0.273,2.195c-0.205,0.343-0.903,0.801-2.092,1.372
	c-3.293,1.258-5.432,1.395-6.415,0.411c-1.053-1.097-1.771-2.24-2.16-3.43c-0.274-0.823-0.413-1.486-0.413-1.989
	c0-2.195,0.139-3.532,0.413-4.013C445.827,159.88,447.656,159.331,450.606,159.377z M401.762,150.391
	c2.287,2.149,3.739,4.436,4.356,6.86c0.229,0.96,0.343,3.578,0.343,7.854c0,3.636-0.777,6.197-2.332,7.684
	c-1.28,1.189-4.391,2.344-9.33,3.464c-4.984,1.144-8.518,1.898-10.599,2.265c-2.081,0.389-4.962,1.223-8.644,2.504
	c-1.167-4.3-2.219-8.804-3.155-13.515c-0.641-3.339-1.212-6.757-1.715-10.255c-0.252-1.853-0.492-3.567-0.721-5.146
	c0.113-0.046,0.423-0.183,0.926-0.412c0.319-0.137,1.361-0.365,3.121-0.686c-0.251,4.162,2.311,6.448,7.684,6.86l11.525-0.823
	c-0.115,0.319-0.194,0.64-0.24,0.96c-0.39,1.875-0.584,3.075-0.584,3.602c0,0.571,0.241,1.932,0.721,4.081
	c0.389,2.173,1.476,3.259,3.259,3.259s2.676-0.16,2.676-0.48c-2.517-1.326-3.842-2.4-3.979-3.224
	c-0.205-0.847-0.469-1.829-0.789-2.95c-0.343-1.119-0.183-2.229,0.48-3.326c0.389-0.595,0.742-1.292,1.063-2.093l0.79-0.034
	C399.658,155.764,401.373,153.614,401.762,150.391z M290.766,188.909c0.778-8.644,3.602-14.292,8.473-16.944
	c11.89-4.459,20.066-6.666,24.524-6.62l0.31-1.304c0.113-0.229,0.137-0.183,0.067,0.138c-0.046,0.229-0.08,0.435-0.103,0.617
	c-0.732,4.048-0.982,7.764-0.755,11.147c0,1.007,0.069,1.989,0.206,2.95c0.274,2.31,0.687,4.345,1.235,6.105
	c0.755,2.446,3.305,5.396,7.648,8.85c-3.521,0.32-6.597,0.823-9.227,1.509c-4.619,1.075-12.313,1.612-23.085,1.612
	c-0.182,0-0.365,0-0.548,0l-4.288-1.27c-0.479-0.32-0.937-0.674-1.371-1.063c-0.252-0.274-0.516-0.561-0.789-0.858l-0.138-0.205
	c-0.389-0.549-0.742-1.144-1.063-1.784C291.359,190.807,290.994,189.847,290.766,188.909z M332.132,212.131
	c-0.137,0.274-0.274,0.537-0.411,0.789c-0.641,1.372-0.96,2.354-0.96,2.949c0,1.053,0.423,1.864,1.269,2.436
	c0.458,0.32,1.349,0.675,2.676,1.063c2.63,0.731,3.944,1.897,3.944,3.499c0,0.663-0.583,2.595-1.749,5.797
	c-0.138,0.343-0.251,0.674-0.344,0.994c-0.937,2.562-1.429,3.888-1.475,3.979c-0.068,0.046-0.103,0.457-0.103,1.234
	c-0.092,0.756,0.034,1.327,0.377,1.716c0.389,0.365,1.188,0.892,2.401,1.578c0.96,0.663,1.257,1.611,0.892,2.847
	c-0.229,1.144-0.755,2.241-1.578,3.293c-0.938,1.098-2.138,1.909-3.602,2.435c-1.234,0.412-2.652,0.618-4.253,0.618
	c-0.457,0-0.938-0.206-1.44-0.618c-2.241-1.874-4.905-7.831-7.992-17.87c-0.571-1.853-1.098-3.567-1.578-5.145
	c-1.28-4.299-2.286-7.639-3.018-10.017c-0.459-1.395-0.904-2.675-1.339-3.841c-0.502-1.624-1.017-3.053-1.543-4.288
	c-0.641-1.623-1.247-2.949-1.818-3.979c-0.548-1.189-1.017-1.909-1.405-2.161c0.022,0,0.068,0,0.137,0c0.458,0,0.88,0,1.269,0
	c2.698-0.092,5.271-0.274,7.718-0.549c1.943-0.274,3.773-0.595,5.488-0.961c1.007-0.205,2.035-0.388,3.087-0.548
	c-0.39,0.503-0.549,1.291-0.48,2.366c0.091,1.098,1.327,2.732,3.705,4.905c2.378,2.218,3.566,3.602,3.566,4.15
	C333.572,209.261,333.093,210.37,332.132,212.131z"/>
<path display="none" fill-rule="evenodd" clip-rule="evenodd" fill="#F6ED1E" d="M427.693,148.47
	c1.35-0.344,4.207-1.018,8.575-2.023c6.996-1.578,15.218-3.168,24.661-4.769c9.422-1.623,17.276-2.858,23.564-3.704
	c6.312-0.892,11.731-1.715,16.259-2.47s7.42-1.2,8.679-1.338c1.256-0.137,5.099-0.8,11.523-1.988
	c6.426-1.189,14.441-2.104,24.045-2.744c-1.371,1.875-17.836,6.128-49.393,12.759c-31.556,6.632-51.53,10.576-59.922,11.834
	c-2.63,0.365-4.895,0.697-6.792,0.995c-0.802,0.091-1.533,0.194-2.196,0.308c-0.343,0.046-0.674,0.092-0.993,0.138
	c-0.915,0.138-1.67,0.229-2.265,0.274c-1.052,0.138-1.761,0.229-2.127,0.274c-1.143,0.022-2.526,0.137-4.149,0.343l-4.322-0.549
	c0-0.091-0.068-0.229-0.206-0.411c-0.114-0.16-0.172-0.618-0.172-1.372c0-0.847,1.293-1.624,3.877-2.333l0.445-0.103
	c1.12-0.32,2.894-0.823,5.317-1.51c0.297-0.068,0.595-0.148,0.892-0.239c0.525-0.16,1.029-0.309,1.509-0.446
	c0.344-0.092,0.663-0.171,0.961-0.24L427.693,148.47z M413.355,127.033c-2.607,0.891-5.19,1.692-7.753,2.401
	c-4.641,1.28-8.151,1.418-10.529,0.411c-0.777-0.137-1.234-0.399-1.372-0.789c6.151-2.766,11.765-5.087,16.842-6.962
	c1.006-0.366,1.955-0.709,2.848-1.029c0.296-0.091,0.605-0.194,0.926-0.309c0.524-0.16,1.085-0.343,1.68-0.549
	c4.025-1.395,9.514-3.145,16.465-5.248c8.575-2.63,14.131-3.991,16.67-4.082c2.515-0.137,3.67-0.034,3.464,0.309
	c-7.134,3.567-13.239,6.277-18.315,8.129c-5.101,1.853-10.006,3.682-14.715,5.488c-0.206,0.069-0.4,0.149-0.584,0.24
	c-0.64,0.229-1.234,0.446-1.784,0.652c-0.319,0.114-0.628,0.229-0.925,0.343c-0.389,0.137-0.777,0.274-1.166,0.412
	C414.511,126.655,413.928,126.85,413.355,127.033z M431.467,186.508c1.165-0.046,2.687-0.091,4.562-0.137
	c4.437-0.092,10.919-0.023,19.448,0.206c0-0.138,2.32-0.092,6.963,0.137c4.87,0.229,8.095,0.503,9.673,0.823
	c-2.905,1.144-5.042,1.715-6.414,1.715c-1.372-0.022-7.192,0.492-17.46,1.544c-6.517,0.595-12.177,1.028-16.979,1.303
	c-0.846,0.046-1.657,0.08-2.435,0.104c-0.365,0-0.708,0-1.028,0c-0.802,0.022-1.556,0.034-2.265,0.034c-0.663,0-1.304,0-1.922,0
	c-6.127,0-9.74,0.092-10.838,0.274l-8.438-0.926c-0.113-0.069-0.171-0.492-0.171-1.27s0.058-1.166,0.171-1.166
	c0.068,0.045,0.138,0.172,0.206,0.377c1.281-1.189,5.362-1.921,12.245-2.195c4.094-0.183,7.112-0.32,9.055-0.411h0.139
	c0.137,0,0.263,0,0.376,0c0.893-0.092,1.476-0.16,1.75-0.206h0.068c0.206-0.022,0.515-0.057,0.926-0.103
	C429.693,186.588,430.482,186.554,431.467,186.508z"/>
<path display="none" fill-rule="evenodd" clip-rule="evenodd" fill="#CB4646" d="M532.515,141.232c0,0.091,0,0.183,0,0.274
	c0,0.663-0.273,1.486-0.823,2.47c2.974,0.846,4.87,1.475,5.694,1.887c-0.093,1.166-1.2,1.555-3.328,1.166
	c-2.148-0.435-2.892-0.298-2.229,0.411c0.687,0.686,1.35,1.464,1.989,2.333c0,0.595-0.32,1.097-0.96,1.509
	c-0.8-0.503-2.205-1.612-4.218-3.327c-1.716,1.875-3.087,3.099-4.116,3.67c-0.365-0.16-0.584-0.274-0.652-0.343
	c-0.16-0.092-0.24-0.789-0.24-2.092c0-1.487,0.572-2.938,1.715-4.356c-1.12-1.007-2.046-1.853-2.778-2.539
	c0-0.411-0.057-0.788-0.172-1.131c0.184-0.114,0.274-0.241,0.274-0.378c0.641,0.137,1.544,0.583,2.711,1.338
	c0.663,0.16,1.405,0.366,2.229,0.617c0.25-0.183,0.503-0.366,0.755-0.549c0.251-1.052,0.938-1.978,2.058-2.778
	c1.486-1.052,2.229-0.595,2.229,1.372C532.606,140.946,532.562,141.095,532.515,141.232z M440.968,94.756l0.206,1.646
	c-0.663,1.898-1.728,3.728-3.19,5.488c0.32,0.869,0.503,1.886,0.548,3.053l-0.548,0.823c-0.641-0.183-1.452-0.571-2.436-1.166
	c-2.218,2.012-4.642,3.304-7.271,3.876c0.365-1.303,1.749-3.258,4.15-5.865c-1.486-1.006-3.235-2.287-5.248-3.842
	c3.818-1.006,6.677-0.926,8.575,0.24C438.155,96.563,439.893,95.145,440.968,94.756z M492.314,175.12
	c0.366-0.96,1.041-1.771,2.024-2.435c0.868-0.641,1.521-0.813,1.955-0.515c0.113,0,0.194,0,0.239,0l0.068,0.343
	c0.161,0.343,0.24,0.846,0.24,1.509c0,0.823-0.343,1.544-1.029,2.161l8.302,1.063c0.046,2.058-3.235,2.606-9.845,1.646
	c0.732,1.418,1.099,2.63,1.099,3.636c0,1.075,0,1.624,0,1.646c0,0.092-0.081,0.206-0.241,0.343l-1.029,0.515
	c-0.686-1.144-1.451-2.755-2.298-4.836c-1.67,1.074-3.019,1.715-4.047,1.921c-1.029-0.344-1.704-0.778-2.023-1.304
	c0.754-1.007,2.241-1.978,4.458-2.916c-0.388-0.434-0.766-1.028-1.132-1.783c-0.731-1.897-1.097-2.802-1.097-2.71
	c0-2.378,0.902-2.332,2.709,0.138c0.093,0.183,0.206,0.343,0.343,0.479c0.252,0.274,0.526,0.595,0.824,0.961
	C491.972,175.006,492.132,175.052,492.314,175.12z"/>
<path display="none" fill-rule="evenodd" clip-rule="evenodd" fill="#FFFFFF" d="M413.355,127.033
	c1.212,2.309,2.355,4.801,3.43,7.477c2.173,5.008,3.944,10.198,5.317,15.571c-2.424,0.687-4.197,1.189-5.317,1.51l-0.445,0.103
	c-2.584,0.709-3.877,1.486-3.877,2.333c0,0.754,0.058,1.212,0.172,1.372c0.138,0.183,0.206,0.32,0.206,0.411l4.322,0.549
	c1.623-0.206,3.007-0.32,4.149-0.343c0.366-0.046,1.075-0.137,2.127-0.274c1.51,7.706,2.265,15.755,2.265,24.146
	c0,0.298,0.045,2.538,0.136,6.724c0,0.114,0,0.217,0,0.309c-1.942,0.091-4.961,0.229-9.055,0.411
	c-6.883,0.274-10.964,1.006-12.245,2.195c-0.068-0.205-0.138-0.332-0.206-0.377c-0.113,0-0.171,0.389-0.171,1.166
	s0.058,1.2,0.171,1.27l8.438,0.926c1.098-0.183,4.711-0.274,10.838-0.274c0.618,0,1.259,0,1.922,0
	c-0.274,2.538-0.686,4.938-1.235,7.203c-3.018,12.143-9.832,18.214-20.442,18.214c-11.823,0-21.095-11.696-27.818-35.09
	c-0.045-0.068-0.068-0.148-0.068-0.24c0.207,0,0.4,0,0.583,0c9.01-1.623,13.71-2.504,14.099-2.641
	c0.411-0.138,2.708-0.698,6.894-1.681c4.047-0.641,6.665-1.452,7.854-2.436c1.166-0.915,1.979-2.893,2.436-5.935
	c0.229-2.927,0.343-4.436,0.343-4.527c0-4.732-0.114-7.717-0.343-8.952c-0.846-3.704-2.995-6.688-6.448-8.952l-10.393,0.206
	l0.274,0.034c-8.416,0.48-14.338,0.892-17.768,1.234c-2.104,0.229-3.385,0.561-3.842,0.995c-0.32-2.813-0.48-4.95-0.48-6.414
	c0-17.744,2.938-29.669,8.814-35.774c1.738-1.83,3.659-3.019,5.763-3.567c0.207-0.022,0.401-0.057,0.583-0.103
	c0.893-0.183,1.808-0.263,2.744-0.24c1.921,0.023,3.944,0.492,6.072,1.406c1.395,0.572,2.846,1.383,4.355,2.436
	c4.779,3.384,9.123,8.277,13.034,14.681c-5.077,1.875-10.69,4.196-16.842,6.962c0.138,0.39,0.595,0.652,1.372,0.789
	c2.378,1.007,5.889,0.869,10.529-0.411C408.165,128.725,410.748,127.924,413.355,127.033z M366.158,115.851
	c2.012-3.316,4.768-6.071,8.267-8.266c-2.104,3.453-3.773,7.98-5.009,13.583c-0.8,3.659-1.382,7.465-1.748,11.421
	c-0.115,0.914-0.194,1.852-0.24,2.813c-0.206,2.652-0.31,5.385-0.31,8.197c0,0.138,0.366,4.276,1.098,12.417
	c0.572,4.139,1.213,8.14,1.921,12.005c0.916,5.03,2.001,9.844,3.259,14.44c5.259,19.276,12.484,31.225,21.678,35.844
	c-3.566-0.686-6.573-1.681-9.021-2.984c-3.04-1.486-6.401-4.425-10.084-8.815c-3.566-4.299-7.111-7.26-10.633-8.883
	c-5.625-2.699-13.651-4.048-24.078-4.048c-2.471,0-4.792,0.068-6.964,0.205c-3.384-3.087-5.556-6.196-6.517-9.329
	c-0.664-2.059-1.213-4.104-1.646-6.14c-0.275-1.052-0.538-2.596-0.789-4.631c-0.366-1.989-0.218-4.379,0.445-7.169
	c0.207-0.777,0.378-1.486,0.515-2.126c0.138-0.504,0.252-0.949,0.343-1.338c0.184-0.846,0.332-1.463,0.446-1.852
	c0.229-0.777,0.629-2.047,1.201-3.808c1.577-3.728,2.492-5.831,2.744-6.312c2.652-0.777,6.242-1.932,10.77-3.464
	c6.06-2.15,10.668-5.134,13.823-8.953c2.195-2.606,4.15-6.368,5.865-11.284C363.461,121.59,365.015,117.749,366.158,115.851z"/>
<path display="none" fill-rule="evenodd" clip-rule="evenodd" fill="#7397C3" d="M401.762,150.391
	c-0.389,3.224-2.104,5.373-5.145,6.448l-0.79,0.034c0.229-0.617,0.446-1.258,0.653-1.921c-1.624,0.138-2.711,0.835-3.259,2.093
	l-11.525,0.823c-5.373-0.412-7.935-2.698-7.684-6.86c0.892-0.16,1.979-0.366,3.259-0.617c4.437-0.755,12.062-1.235,22.879-1.44
	C400.699,149.43,401.236,149.91,401.762,150.391z M290.766,188.909c-0.046-0.16-0.092-0.297-0.137-0.412
	c-0.252-1.028-0.377-2.949-0.377-5.762c0-2.904,0.377-5.923,1.131-9.056c0.047-0.366,0.139-0.72,0.275-1.063l1.406-2.778
	c1.052-1.486,2.504-2.778,4.356-3.876c0.091-0.022,0.159-0.045,0.206-0.068c3.337-2.013,8.438-4.481,15.297-7.408
	c4.048-1.761,9.33-3.842,15.847-6.243c-1.852,3.202-3.418,7.135-4.698,11.799l-0.31,1.304c-4.458-0.046-12.635,2.161-24.524,6.62
	C294.367,174.617,291.544,180.266,290.766,188.909z"/>
<path display="none" fill="#010101" d="M543.806,285.491c-0.469-0.418-1.042-0.629-1.721-0.629c-1.018,0.017-1.947,1.13-2.787,3.344
	c-0.323,0.63-1.082,3.037-2.278,7.222c-2.019,7.011-4.458,10.534-7.317,10.565c-0.921,0.017-1.422-0.017-1.503-0.097l0.17-0.098
	c-1.777-3.65-2.496-6.962-2.158-9.935c0.163-2.666,0.284-4.669,0.363-6.01c0.114-2.375-0.128-4.564-0.727-6.567
	c-2.665,2.746-3.941,8.757-3.828,18.029c0,0.113,0.033,0.727,0.098,1.842c0.161,1.324,0.452,2.529,0.872,3.61
	c1.309,3.409,3.57,5.09,6.786,5.041c3.246-0.032,6.169-1.931,8.771-5.695c0.097,0.501,0.145,1.018,0.145,1.552
	c-0.192,0.774-0.241,2.915-0.145,6.422c0.097,3.376-0.557,7.164-1.963,11.365c-1.391,4.199-3.07,6.147-5.041,5.84
	c-1.954-0.34-3.36-1.648-4.216-3.926c-0.953-2.488-1.882-3.894-2.787-4.217c-0.405,0.211-0.815,0.469-1.236,0.775
	c-0.308,0.259-0.492,0.389-0.557,0.389c0,0.371-0.025,0.767-0.072,1.187c-0.083,0.453-0.113,1.074-0.098,1.866
	c0.015,1.228,0.558,2.795,1.624,4.701s2.812,3.296,5.234,4.168c1.309,0.485,2.795,0.816,4.459,0.993
	c1.308,0.13,3.125-0.597,5.452-2.181c2.31-1.599,3.894-9.483,4.749-23.651C544.921,297.213,544.822,288.577,543.806,285.491z"/>
<path display="none" fill="#010101" d="M493.788,287.456c-1.938,4.297-3.238,8.157-3.901,11.583
	c-0.146-0.453-0.259-0.912-0.339-1.382c-1.245-4.976-2.602-8.441-4.071-10.396c-0.533,0.209-1.035,1.332-1.502,3.368
	c-0.404,1.696-0.599,3.231-0.583,4.604c0,0.082,0.291,3.054,0.873,8.919c0.953,5.751,2.439,8.611,4.459,8.578
	c0.985-0.016,1.672-0.187,2.059-0.509c0.065-0.065,0.122-0.097,0.17-0.097c0.211-0.017,0.445-0.024,0.703-0.024
	c0.227,0,0.469-0.945,0.728-2.836c0.29-2.682,0.727-4.968,1.309-6.858c2.245-7.091,6.8-11.986,13.668-14.685
	C500.218,283.182,495.693,283.093,493.788,287.456z"/>
<path display="none" fill="#010101" d="M510.072,269.838c-0.08,5.412-0.137,12.875-0.169,22.391
	c-0.065,7.351-0.081,12.222-0.049,14.613c0,0.063,0.017,1.396,0.049,3.999c0.339,2.52,1.268,3.764,2.787,3.731
	c1.193-0.017,2.164-0.735,2.907-2.157c0.565-1.195,0.97-4.637,1.213-10.322c0.289-5.736,0.039-13.523-0.753-23.362
	C515.283,268.828,513.288,265.864,510.072,269.838z"/>
<path display="none" fill="#010101" d="M477.553,305.412c-2.133-1.794-3.249-3.409-3.345-4.847c-0.679-2.391-0.97-4.508-0.873-6.349
	c0.064-1.907-0.137-3.83-0.605-5.768c-1.082-2.715-3.627-2.844-7.634-0.388c-4.006,2.391-6.777,4.66-8.313,6.809
	c-1.599,2.068-2.762,4.265-3.489,6.591c-0.452,1.568-0.662,3.507-0.63,5.817c0.032,1.6,0.573,3.045,1.624,4.337
	c1.599,1.971,4.087,2.933,7.464,2.884c1.421-0.017,3.053-0.759,4.896-2.229c0.92-0.695,2.188-1.873,3.804-3.538
	c0.856,1.05,1.931,2.035,3.224,2.957c1.81,1.132,3.546,1.681,5.211,1.647c0.84-0.016,1.461-0.104,1.865-0.267
	c0.291-0.274,0.485-0.412,0.581-0.412l0.437-2.424C481.3,309.022,479.895,307.415,477.553,305.412z M464.103,308.756
	c-3.2,0.856-5.025,0.703-5.477-0.46c-0.517-1.179-0.784-2.223-0.8-3.127c-0.017-1.809,0.484-3.667,1.502-5.573
	c1.001-1.906,3.91-4.266,8.724-7.076C468.586,302.455,467.27,307.868,464.103,308.756z"/>
<path display="none" fill="#010101" d="M448.884,294.87c-0.339-1.6-1.034-3.037-2.084-4.313c-1.114-1.308-1.769-2.043-1.963-2.205
	c-2.44-1.89-5.194-2.738-8.263-2.544c-3.394,0.194-6.423,1.64-9.089,4.337c-2.745,2.683-4.272,5.202-4.578,7.562
	c-0.34,2.311-0.324,4.257,0.048,5.84c0.371,1.535,1.187,3.724,2.447,6.567c1.261,2.843,5.081,4.225,11.462,4.144
	c1.325-0.017,3.271-0.582,5.841-1.696c1.002-0.436,1.802-0.808,2.398-1.114c0.905-0.517,1.358-0.938,1.358-1.26
	c-0.018-0.985-0.146-1.568-0.39-1.746c-0.371-0.081-0.702-0.186-0.993-0.314c-0.081-0.032-0.161-0.065-0.242-0.097l-3.974,0.267
	c1.309,0.017,0.46,0.274-2.545,0.774c-3.037,0.55-5.259,0.194-6.664-1.065c-1.39-1.276-1.648-2.359-0.775-3.247
	c6.495-1.13,11.204-2.052,14.128-2.763c2.1-0.534,3.271-0.97,3.514-1.309c0.518-0.76,0.702-1.139,0.558-1.139
	c0.048-0.05,0.071-0.089,0.071-0.122c0.066-0.128,0.099-0.274,0.099-0.436c0.096,0.097,0.177-0.153,0.241-0.751
	c0.017-0.031,0.082-0.081,0.194-0.146l-0.194-0.654C449.425,297.311,449.223,296.453,448.884,294.87z M436.549,298.626
	c-4.006,0.712-6.59,1.204-7.755,1.479c-0.306-1.212,0.259-2.932,1.697-5.161c1.389-2.278,3.611-3.433,6.663-3.466
	c3.135-0.048,5.421,1.357,6.859,4.217c0.258,0.438,0.549,1.018,0.873,1.745C442.753,297.616,439.974,298.013,436.549,298.626z"/>
<path display="none" fill="#010101" d="M405.07,302.189c-0.516-0.76-1.18-1.188-1.986-1.285c-0.404-0.08-0.815-0.073-1.236,0.024
	c-0.227,0.049-1.253,0.903-3.078,2.569c-1.761,1.712-4.394,2.875-7.9,3.488c-3.473,0.565-6.292-0.5-8.457-3.197
	c-2.196-2.683-3.393-4.549-3.587-5.599c-0.21-1.1-0.437-2.697-0.678-4.799c-0.227-2.132,0.589-4.814,2.448-8.045
	c1.858-3.247,4.821-5.841,8.892-7.779c4.057-1.874,6.859-2.14,8.409-0.799c1.568,1.39,2.813,3.062,3.733,5.017l0.896-0.413
	c0.032-0.032,0.138-0.121,0.314-0.266c0.162-0.178,0.396-0.403,0.704-0.679c0.516-0.582,0.25-2.134-0.801-4.652
	c-0.017-0.114-0.049-0.203-0.097-0.267c-1.212-2.651-3.449-4.307-6.712-4.969c-3.216-0.678-6.973,0.186-11.269,2.594
	c-4.298,2.375-7.667,5.604-10.106,9.692c-2.73,4.782-3.643,9.839-2.737,15.17c0,0.098,0.225,1.181,0.678,3.248
	c0.694,2.342,1.632,4.401,2.812,6.18c3.828,5.734,9.757,7.883,17.787,6.445c3.602-0.613,6.745-1.971,9.427-4.071
	c0.226-0.193,0.444-0.388,0.653-0.581c2.037-1.826,2.924-3.522,2.666-5.089C405.685,303.385,405.426,302.737,405.07,302.189z"/>
<path display="none" fill="#010101" d="M411.419,270.104c-0.111,5.412-0.193,12.867-0.241,22.366
	c-0.018,7.368,0,12.238,0.048,14.612c0,0.081,0.009,1.431,0.024,4.048c0.323,2.504,1.244,3.748,2.763,3.731
	c1.179-0.016,2.148-0.734,2.907-2.156c0.566-1.196,0.938-4.766,1.115-10.711c0.162-5.978-0.137-13.909-0.896-23.797
	C416.33,268.327,414.425,265.63,411.419,270.104z"/>
<path display="none" fill="#010101" d="M347.711,281.785c-0.048-8.918-0.582-13.879-1.6-14.88c-0.728-0.565-1.624-0.298-2.688,0.8
	c-1.229,1.066-1.786,3.699-1.674,7.9c0.098,4.152,0.379,7.763,0.848,10.832c-2.133-1.583-4.692-2.084-7.681-1.503
	c-3.037,0.502-5.462,2.077-7.271,4.726c-1.858,2.649-3.022,5.057-3.489,7.222c-0.452,2.164-0.76,3.981-0.92,5.452
	c-0.082,1.81,0.022,3.474,0.313,4.992c1.05,4.701,4.022,7.012,8.918,6.931c1.811,0,4.581-0.984,8.313-2.957
	c0.564-0.338,1.106-0.629,1.622-0.872c0.018,0.339,0.073,1.163,0.171,2.473c0.403,1.485,1.583,2.221,3.538,2.205
	c1.082-0.017,1.769-0.138,2.06-0.364l0.363-0.461c0.178,0.195,0.251-0.597,0.219-2.374
	C348.091,300.372,347.743,290.331,347.711,281.785z M342.451,302.989c-0.855,0.517-2.512,1.461-4.967,2.834
	c-2.457,1.325-4.104,1.786-4.944,1.382c-0.871-0.421-1.802-1.146-2.787-2.182c-0.952-0.984-1.372-2.487-1.26-4.506
	c0.081-2.052,0.752-4.322,2.012-6.811c1.244-2.536,2.998-3.886,5.259-4.047c2.278-0.193,4.111,1.05,5.501,3.731
	c0.484,0.954,0.921,1.777,1.309,2.473C342.46,298.578,342.42,300.953,342.451,302.989z"/>
<path display="none" fill="#010101" d="M296.312,286.631c0.308-0.193,0.565-0.388,0.776-0.581c-0.259-0.081-0.525-0.161-0.801-0.242
	c-0.113-0.049-0.234-0.081-0.363-0.097c-4.217-1.18-9.41-1.535-15.58-1.066c-0.26-15.85-1.608-20.921-4.047-15.219
	c-0.469,2.31-0.963,5.518-1.479,9.621c-0.274,1.97-0.46,3.99-0.558,6.059l-10.372,1.599c-1.745,2.406,1.705,3.779,10.349,4.119
	c-0.033,0.679-0.04,1.382-0.025,2.108c0.016,0.549,0.025,1.115,0.025,1.696c0,0.162,0.339,3.426,1.018,9.79
	c0.855,6.253,1.793,9.37,2.811,9.354c1.922,0,2.852-2.011,2.787-6.034c0.049-5.283,0.08-10.25,0.098-14.903
	c-0.018-1.099-0.018-2.165,0-3.198c0.92,0.193,2.696,0.193,5.33,0c2.617-0.228,4.902-0.712,6.858-1.455
	c1.034-0.404,1.898-0.799,2.593-1.187C295.941,286.882,296.133,286.761,296.312,286.631z"/>
<path display="none" fill="#010101" d="M319.043,295.016c-0.048-1.583-1.342-3.586-3.877-6.01
	c-2.537-2.472-6.745-3.021-12.626-1.647c-5.913,1.389-8.87,6.971-8.87,16.745c0.323,5.203,2.748,8.126,7.271,8.771
	c5.104,0.711,8.934,0.525,11.484-0.557c2.554-1.083,3.821-1.898,3.806-2.448c0-0.258,0-0.468,0-0.63
	c-0.258-2.488-2.236-2.754-5.938-0.8c-0.549,0.098-1.292,0.219-2.229,0.364c-3.021,0.565-5.225,0.21-6.615-1.066
	c-1.404-1.26-1.671-2.318-0.799-3.175c11.211-2.003,17.092-3.369,17.641-4.095c0.532-0.807,0.718-1.21,0.558-1.212
	c0.049,0,0.072-0.025,0.072-0.072c0.064-0.162,0.098-0.315,0.098-0.461c0.113,0.113,0.194-0.13,0.242-0.728
	c0.032-0.08,0.104-0.137,0.219-0.169l-0.243-0.702C319.14,297.254,319.074,296.551,319.043,295.016z M306.368,298.385
	c-4.039,0.742-6.655,1.228-7.851,1.454c-0.275-1.196,0.299-2.9,1.72-5.114c1.39-2.293,3.644-3.457,6.762-3.489
	c3.068-0.049,5.331,1.324,6.786,4.119c0.21,0.47,0.5,1.051,0.87,1.746C312.507,297.342,309.745,297.77,306.368,298.385z"/>
<path display="none" fill="#010101" d="M245.689,283.263c-0.017-0.889-0.057-1.373-0.123-1.454c-0.289,0.13-0.557,0.065-0.797-0.194
	c-2.682,0.033-8.338,0.97-16.965,2.812c0.017-6.122,0-11.195-0.048-15.218c-0.017-1.002-0.153-1.769-0.411-2.303
	c-0.066-0.129-0.146-0.282-0.242-0.46c-0.146-0.194-0.324-0.413-0.535-0.654c-0.209,0.226-0.418,0.452-0.629,0.679
	c-2.085,2.391-3.514,6.599-4.289,12.625c-0.276,1.972-0.452,4.241-0.533,6.81c-5.783,1.276-9.517,2.108-11.197,2.495
	c-0.08,0.26-0.217,0.485-0.411,0.679v1.334c0.017,0.177,0.857,0.977,2.521,2.398c2.843-0.695,5.856-1.341,9.039-1.938
	c-0.033,0.679-0.04,1.382-0.024,2.108c0,0.549,0,1.107,0,1.672c0,0.178,0.371,3.45,1.114,9.814c0.856,6.269,1.77,9.395,2.738,9.378
	c1.955-0.033,2.9-2.051,2.836-6.059c0-5.282,0.016-10.25,0.047-14.902c-0.016-1.082,0.01-2.149,0.074-3.2
	c2.488-0.419,5.493-0.952,9.014-1.598c3.118-0.485,5.309-1.067,6.568-1.746C244.97,285.629,245.722,284.604,245.689,283.263z"/>
<path display="none" fill="#010101" d="M261.998,305.848c-2.294-1.906-3.555-3.788-3.781-5.646
	c-0.273-1.858-0.492-3.611-0.653-5.259c-0.226-1.648-0.388-3.731-0.485-6.252c-1.05-2.715-3.586-2.844-7.609-0.389
	c-4.006,2.392-6.809,4.654-8.408,6.786c-1.566,2.067-2.715,4.282-3.441,6.64c-0.452,1.519-0.67,3.416-0.654,5.695
	c0.017,1.646,0.598,3.126,1.744,4.435c1.551,1.938,4.008,2.891,7.368,2.858c1.405-0.016,3.036-0.742,4.896-2.181
	c0.953-0.695,2.229-1.865,3.828-3.514c0.855,1.066,1.931,2.019,3.223,2.859c1.777,1.228,3.49,1.825,5.137,1.793
	c0.905,0,1.535-0.128,1.892-0.388c0.339-0.258,0.541-0.387,0.605-0.387l0.411-2.399C265.6,309.289,264.243,307.738,261.998,305.848z
	 M245.301,308.635c-0.645,0.017-1.308-0.259-1.986-0.824c-0.775-0.711-1.164-1.526-1.164-2.447
	c-0.031-1.777,0.711-3.789,2.229-6.034c1.488-2.245,3.709-4.12,6.665-5.622C252.386,303.611,250.471,308.587,245.301,308.635z"/>
<path display="none" fill="#010101" d="M195.865,287.697c-3.925,0.258-6.898,0.389-8.917,0.389c-3.62-0.146-5.443-1.06-5.477-2.739
	c-0.016-1.551,1.155-3.336,3.514-5.356c2.876-2.455,6.252-3.706,10.13-3.755c0.678-0.017,1.397,0.702,2.156,2.157
	c0.728,1.534,1.438,2.294,2.133,2.277c0.92,0,1.413-0.105,1.478-0.315l0.072-0.388c0-0.371,0.082-0.823,0.243-1.357
	c0.114-0.484,0.162-1.154,0.146-2.011c0-0.792-0.573-1.802-1.721-3.029c-1.195-1.26-2.197-1.946-3.004-2.06
	c-6.64-0.743-11.938,0.735-15.897,4.435c-3.15,2.925-4.701,6.019-4.652,9.281c0.033,2.714,0.348,4.54,0.946,5.478
	c1.906,2.777,6.268,4.127,13.085,4.046c4.217-0.049,6.793-0.017,7.731,0.098c2.682,0.387,4.031,1.462,4.046,3.223
	c0.016,1.825-0.647,3.748-1.987,5.767c-1.955,3.069-4.863,4.621-8.724,4.653c-1.244,0.016-3.475-0.549-6.689-1.696
	c-3.135-1.18-5.266-1.76-6.397-1.745c-2.085,0.033-3.112,1.285-3.078,3.757c0.016,1.471,1.615,2.827,4.798,4.07
	c3.231,1.326,6.89,1.963,10.977,1.915c7.028-0.097,11.973-2.326,14.831-6.688c1.73-2.73,2.569-6.131,2.52-10.201
	c-0.032-2.957-0.63-5.193-1.793-6.714C204.428,288.797,200.939,287.634,195.865,287.697z"/>
<rect x="175" y="223.659" display="none" fill="#E4BA00" width="370" height="2.467"/>
<path display="none" fill="#222222" d="M194.354,249.546c-1.16-1.141-1.74-2.606-1.74-4.398c0-1.791,0.58-3.258,1.74-4.398
	c1.161-1.141,2.603-1.711,4.325-1.711c1.901,0,3.394,0.781,4.477,2.342l-1.219,0.691c-0.34-0.519-0.802-0.935-1.387-1.248
	c-0.585-0.314-1.208-0.472-1.871-0.472c-1.308,0-2.392,0.448-3.253,1.344c-0.861,0.896-1.292,2.047-1.292,3.452
	c0,1.395,0.434,2.542,1.301,3.443c0.866,0.902,1.948,1.353,3.244,1.353c0.663,0,1.285-0.159,1.867-0.479
	c0.581-0.319,1.045-0.732,1.391-1.24l1.235,0.675c-1.141,1.572-2.638,2.358-4.493,2.358
	C196.957,251.257,195.516,250.687,194.354,249.546z"/>
<path display="none" fill="#222222" d="M208.597,251.041v-11.804h4.744c1.095,0,1.987,0.324,2.679,0.972
	c0.691,0.648,1.037,1.511,1.037,2.588c0,1.021-0.298,1.834-0.895,2.439c-0.597,0.606-1.326,0.944-2.19,1.015l3.188,4.79h-1.737
	l-2.989-4.666h-2.368v4.666H208.597z M210.065,245.062h3.094c0.697,0,1.268-0.213,1.711-0.64s0.665-0.968,0.665-1.625
	c0-0.674-0.222-1.217-0.665-1.629c-0.443-0.411-1.014-0.617-1.711-0.617h-3.094V245.062z"/>
<path display="none" fill="#222222" d="M222.912,251.041v-11.804h1.469v11.804H222.912z"/>
<path display="none" fill="#222222" d="M230.677,251.041v-11.804h2.1l3.681,9.099l3.664-9.099h2.108v11.804h-1.469v-9.929
	l-4.001,9.929h-0.597l-4.018-9.929v9.929H230.677z"/>
<path display="none" fill="#222222" d="M248.526,251.041v-11.804h1.469v11.804H248.526z"/>
<path display="none" fill="#222222" d="M256.291,251.041v-11.804h1.503l6.792,9.22v-9.22h1.469v11.804h-1.417l-6.878-9.419v9.419
	H256.291z"/>
<path display="none" fill="#222222" d="M271.124,251.041l4.762-11.804h1.823l4.744,11.804h-1.677l-1.046-2.618h-5.876l-1.046,2.618
	H271.124z M274.295,247.109h5.013l-2.515-6.369L274.295,247.109z"/>
<path display="none" fill="#222222" d="M287.332,251.041v-11.804h1.469v10.49h5.487v1.313H287.332z"/>
<path display="none" fill="#222222" d="M307.908,251.041v-11.804h4.035c1.804,0,3.263,0.561,4.377,1.681
	c1.115,1.12,1.672,2.53,1.672,4.229c0,1.711-0.555,3.121-1.663,4.23c-1.109,1.108-2.57,1.663-4.386,1.663H307.908z M309.377,249.728
	h2.566c1.395,0,2.498-0.437,3.31-1.31c0.813-0.872,1.219-1.963,1.219-3.271c0-1.319-0.401-2.415-1.205-3.288
	c-0.804-0.872-1.911-1.309-3.323-1.309h-2.566V249.728z"/>
<path display="none" fill="#222222" d="M323.83,251.041v-11.804h7.734v1.313h-6.266v3.793h6.136v1.313h-6.136v4.07h6.266v1.313
	H323.83z"/>
<path display="none" fill="#222222" d="M337.437,251.041v-11.804h7.734v1.313h-6.266v3.793h6.136v1.313h-6.136v5.384H337.437z"/>
<path display="none" fill="#222222" d="M350.724,251.041v-11.804h7.734v1.313h-6.266v3.793h6.136v1.313h-6.136v4.07h6.266v1.313
	H350.724z"/>
<path display="none" fill="#222222" d="M364.33,251.041v-11.804h1.503l6.792,9.22v-9.22h1.47v11.804h-1.417l-6.879-9.419v9.419
	H364.33z"/>
<path display="none" fill="#222222" d="M379.682,249.372l0.882-1.134c0.979,1.137,2.212,1.705,3.698,1.705
	c0.956,0,1.659-0.205,2.108-0.616c0.449-0.412,0.674-0.891,0.674-1.438c0-0.552-0.239-0.992-0.718-1.319
	c-0.479-0.328-1.062-0.588-1.746-0.778c-0.686-0.19-1.372-0.382-2.061-0.573c-0.688-0.191-1.271-0.526-1.749-1.004
	s-0.717-1.11-0.717-1.897c0-0.964,0.383-1.752,1.149-2.362c0.766-0.611,1.739-0.917,2.92-0.917c1.734,0,3.126,0.551,4.174,1.651
	l-0.881,1.082c-0.836-0.946-1.974-1.42-3.414-1.42c-0.708,0-1.29,0.177-1.745,0.528c-0.455,0.353-0.683,0.808-0.683,1.366
	c0,0.419,0.174,0.766,0.521,1.039s0.773,0.484,1.281,0.632s1.068,0.31,1.681,0.487c0.613,0.179,1.176,0.375,1.689,0.59
	c0.515,0.214,0.945,0.562,1.295,1.043c0.35,0.48,0.524,1.062,0.524,1.742c0,0.957-0.357,1.776-1.072,2.457
	c-0.714,0.681-1.809,1.021-3.283,1.021C382.297,251.257,380.788,250.629,379.682,249.372z"/>
<path display="none" fill="#222222" d="M394.299,251.041v-11.804h7.733v1.313h-6.265v3.793h6.136v1.313h-6.136v4.07h6.265v1.313
	H394.299z"/>
<path display="none" fill="#222222" d="M414.798,251.041l4.762-11.804h1.823l4.744,11.804h-1.677l-1.046-2.618h-5.876l-1.045,2.618
	H414.798z M417.97,247.109h5.012l-2.515-6.369L417.97,247.109z"/>
<path display="none" fill="#222222" d="M429.208,240.551v-1.313h8.952v1.313h-3.75v10.49h-1.469v-10.49H429.208z"/>
<path display="none" fill="#222222" d="M442.831,240.551v-1.313h8.952v1.313h-3.75v10.49h-1.469v-10.49H442.831z"/>
<path display="none" fill="#222222" d="M457.941,249.521c-1.089-1.158-1.634-2.615-1.634-4.373c0-1.757,0.545-3.214,1.634-4.372
	c1.09-1.158,2.497-1.737,4.221-1.737c1.725,0,3.136,0.579,4.233,1.737s1.647,2.615,1.647,4.372c0,1.758-0.55,3.215-1.647,4.373
	c-1.098,1.157-2.509,1.736-4.233,1.736C460.438,251.257,459.031,250.678,457.941,249.521z M457.829,245.147
	c0,1.395,0.395,2.542,1.185,3.443c0.79,0.902,1.84,1.353,3.148,1.353c1.298,0,2.349-0.45,3.153-1.353
	c0.804-0.901,1.206-2.049,1.206-3.443c0-1.394-0.4-2.542-1.202-3.443s-1.854-1.353-3.157-1.353c-1.309,0-2.358,0.448-3.148,1.344
	C458.224,242.592,457.829,243.742,457.829,245.147z"/>
<path display="none" fill="#222222" d="M473.864,251.041v-11.804h4.744c1.094,0,1.987,0.324,2.679,0.972
	c0.691,0.648,1.037,1.511,1.037,2.588c0,1.021-0.299,1.834-0.895,2.439c-0.597,0.606-1.327,0.944-2.19,1.015l3.188,4.79h-1.737
	l-2.989-4.666h-2.368v4.666H473.864z M475.333,245.062h3.094c0.697,0,1.268-0.213,1.711-0.64s0.665-0.968,0.665-1.625
	c0-0.674-0.222-1.217-0.665-1.629c-0.443-0.411-1.014-0.617-1.711-0.617h-3.094V245.062z"/>
<path display="none" fill="#222222" d="M488.179,251.041v-11.804h1.503l6.792,9.22v-9.22h1.47v11.804h-1.417l-6.879-9.419v9.419
	H488.179z"/>
<path display="none" fill="#222222" d="M504.239,251.041v-11.804h7.733v1.313h-6.265v3.793h6.136v1.313h-6.136v4.07h6.265v1.313
	H504.239z"/>
<path display="none" fill="#222222" d="M516.618,239.237h1.72l3.664,5.487l3.664-5.487h1.72l-4.641,6.81v4.994h-1.469v-4.994
	L516.618,239.237z"/>
<path display="none" fill="#222222" d="M191.76,208.614l2.48-4.319c1.04,1,2.399,1.92,4.239,1.92c2.52,0,4.159-1.72,4.159-4.279
	v-17.837h5.719v17.917c0,6.279-3.959,9.238-9.398,9.238C196.239,211.253,193.68,210.494,191.76,208.614z"/>
<path display="none" fill="#222222" d="M212.32,197.456c0-8.039,5.879-13.797,13.958-13.797c8.039,0,13.917,5.759,13.917,13.797
	s-5.879,13.798-13.917,13.798C218.199,211.253,212.32,205.494,212.32,197.456z M234.356,197.456c0-4.999-3.159-8.758-8.079-8.758
	c-4.959,0-8.119,3.759-8.119,8.758c0,4.959,3.16,8.759,8.119,8.759C231.197,206.214,234.356,202.415,234.356,197.456z"/>
<path display="none" fill="#222222" d="M262.596,210.773l-12.718-17.397v17.397h-5.679v-26.675h5.839l12.358,16.757v-16.757h5.679
	v26.675H262.596z"/>
<path display="none" fill="#222222" d="M281.239,208.614l2.48-4.319c1.04,1,2.399,1.92,4.239,1.92c2.52,0,4.159-1.72,4.159-4.279
	v-17.837h5.719v17.917c0,6.279-3.959,9.238-9.398,9.238C285.718,211.253,283.159,210.494,281.239,208.614z"/>
<path display="none" fill="#222222" d="M301.119,207.974c0-1.76,1.479-3.24,3.239-3.24s3.239,1.48,3.239,3.24
	c0,1.759-1.479,3.239-3.239,3.239S301.119,209.733,301.119,207.974z"/>
<path display="none" fill="#222222" d="M345.633,210.773v-19.237l-7.519,19.237h-2.479l-7.519-19.237v19.237h-5.679v-26.675h7.958
	l6.479,16.677l6.479-16.677h7.999v26.675H345.633z"/>
<path display="none" fill="#222222" d="M354.97,201.251c0-5.891,4.432-9.865,10.18-9.865c4.175,0,6.605,2.259,7.949,4.661
	l-3.488,1.716c-0.801-1.544-2.517-2.773-4.461-2.773c-3.488,0-6.005,2.659-6.005,6.262s2.517,6.262,6.005,6.262
	c1.944,0,3.66-1.229,4.461-2.774l3.488,1.687c-1.344,2.374-3.774,4.69-7.949,4.69C359.402,211.117,354.97,207.113,354.97,201.251z"
	/>
<path display="none" fill="#222222" d="M399.481,210.773v-19.237l-7.519,19.237h-2.48l-7.519-19.237v19.237h-5.679v-26.675h7.959
	l6.479,16.677l6.479-16.677h7.999v26.675H399.481z"/>
<path display="none" fill="#222222" d="M410.485,200.095v-15.997h5.759v15.837c0,3.72,2.16,6.279,6.279,6.279
	s6.238-2.56,6.238-6.279v-15.837h5.8v15.997c0,6.599-3.92,11.158-12.038,11.158C414.404,211.253,410.485,206.694,410.485,200.095z"
	/>
<path display="none" fill="#222222" d="M439.604,210.773v-26.675h5.719v21.676h11.278v4.999H439.604z"/>
<path display="none" fill="#222222" d="M460.205,210.773v-26.675h5.719v21.676h11.278v4.999H460.205z"/>
<path display="none" fill="#222222" d="M481.045,210.773v-26.675h18.877v4.999h-13.198v5.599h12.918v4.999h-12.918v6.079h13.198
	v4.999H481.045z"/>
<path display="none" fill="#222222" d="M522.761,210.773l-12.718-17.397v17.397h-5.679v-26.675h5.839l12.358,16.757v-16.757h5.679
	v26.675H522.761z"/>
</svg>
