<svg xmlns="http://www.w3.org/2000/svg" width="1000" height="183.214"><defs><clipPath id="a"><path d="M0 0h600v800H0V0z"/></clipPath></defs><g clip-path="url(#a)" transform="matrix(9.3445 0 0 -9.3445 -4270.795 7163.052)"><path d="M482.928 760.496c-.54 0-.89-.37-.89-.943v-7.916c0-.573.35-.943.89-.943.541 0 .89.37.89.943v7.916c0 .573-.349.943-.89.943M482.928 763.663a1.067 1.067 0 0 1 0-2.132 1.067 1.067 0 0 1 0 2.132M489.41 758.426c-1.302.459-2.426.855-2.426 2.008 0 .977.77 1.66 1.872 1.66.895 0 1.332-.28 1.683-.506.253-.163.472-.303.78-.303.44 0 .784.352.784.802 0 .929-1.683 1.576-3.194 1.576-2.279 0-3.81-1.724-3.81-3.335 0-2.296 1.81-2.92 3.407-3.47 1.362-.47 2.538-.875 2.538-2.16 0-1.433-1.008-2.434-2.452-2.434-.972 0-1.62.38-2.096.658-.296.173-.529.309-.754.309-.458 0-.767-.364-.767-.907 0-.974 1.861-1.63 3.6-1.63 2.992 0 4.355 2.113 4.355 4.075 0 2.416-1.87 3.075-3.52 3.657M496.877 760.39h-.517v1.908c0 .573-.35.943-.89.943-.541 0-.891-.37-.891-.943v-1.907h-.517c-.565 0-.89-.286-.89-.785 0-.498.325-.784.89-.784h.517v-7.185c0-.572.35-.943.89-.943s.89.37.89.943v7.185h.518c.566 0 .89.286.89.784 0 .499-.324.785-.89.785M502.136 760.496c-2.779 0-4.233-2.466-4.233-4.9 0-2.437 1.454-4.902 4.233-4.902s4.232 2.465 4.232 4.901c0 2.435-1.453 4.901-4.232 4.901m0-8.233c-1.81 0-2.452 1.795-2.452 3.332s.642 3.332 2.452 3.332 2.452-1.795 2.452-3.332-.642-3.332-2.452-3.332M511.528 758.927c.576 0 .892-.152 1.172-.286.22-.106.428-.206.711-.206.448 0 .75.396.75.767 0 .762-1.084 1.294-2.633 1.294-2.996 0-4.338-2.46-4.338-4.9 0-2.44 1.342-4.902 4.338-4.902 1.675 0 2.58.685 2.58 1.33 0 .466-.28.767-.715.767-.226 0-.404-.093-.61-.2-.28-.146-.63-.328-1.255-.328-1.767 0-2.557 1.674-2.557 3.332 0 1.66.79 3.332 2.557 3.332M517.895 756.236l3.414 2.697c.3.23.433.463.433.761 0 .472-.316.802-.767.802-.266 0-.57-.16-.954-.502l-3.187-2.672v6.347c0 .573-.35.943-.891.943s-.89-.37-.89-.943v-12.032c0-.573.349-.943.89-.943.54 0 .89.37.89.943v3.44l3.708-3.874c.388-.389.573-.509.979-.509.416 0 .767.335.767.732 0 .351-.102.571-.404.874l-3.988 3.936zM527.377 760.496c-1.11 0-1.922-.352-2.418-1.046v.103c0 .573-.35.943-.89.943s-.89-.37-.89-.943v-11.61c0-.573.35-.943.89-.943s.89.37.89.943v3.842a3.205 3.205 0 0 1 2.418-1.09c2.698 0 4.109 2.464 4.109 4.9 0 2.435-1.411 4.901-4.11 4.901m-.122-1.569c1.81 0 2.452-1.795 2.452-3.332s-.642-3.332-2.452-3.332-2.453 1.795-2.453 3.332.643 3.332 2.453 3.332M536.822 760.496c-.992 0-1.871-.379-2.505-1.072v4.246c0 .572-.35.943-.89.943-.541 0-.89-.37-.89-.943v-12.033c0-.573.349-.943.89-.943.54 0 .89.37.89.943v5.102c0 1.511 1.029 2.188 2.048 2.188 1.019 0 2.048-.677 2.048-2.188v-5.102c0-.573.349-.943.889-.943s.89.37.89.943v5.19c0 2.534-1.692 3.67-3.37 3.67M545.476 760.496c-2.779 0-4.232-2.466-4.232-4.9 0-2.437 1.453-4.902 4.232-4.902 2.78 0 4.232 2.465 4.232 4.901 0 2.435-1.453 4.901-4.232 4.901m0-8.233c-1.81 0-2.452 1.795-2.452 3.332s.642 3.332 2.452 3.332 2.452-1.795 2.452-3.332-.642-3.332-2.452-3.332M553.461 760.39h-.517v1.908c0 .573-.35.943-.89.943s-.89-.37-.89-.943v-1.907h-.518c-.565 0-.89-.286-.89-.785 0-.498.325-.784.89-.784h.518v-7.185c0-.572.35-.943.89-.943s.89.37.89.943v7.185h.517c.566 0 .891.286.891.784 0 .499-.325.785-.89.785M558.545 760.496c-2.779 0-4.233-2.466-4.233-4.9 0-2.437 1.454-4.902 4.233-4.902 2.78 0 4.232 2.465 4.232 4.901 0 2.435-1.453 4.901-4.232 4.901m0-8.233c-1.81 0-2.453 1.795-2.453 3.332s.642 3.332 2.453 3.332c1.81 0 2.452-1.795 2.452-3.332s-.642-3.332-2.452-3.332M561.271 762.62a1.364 1.364 0 1 0 2.729-.002 1.364 1.364 0 0 0-2.729.003m2.42 0c0 .595-.483 1.078-1.055 1.078a1.073 1.073 0 0 1-1.055-1.078c0-.596.482-1.078 1.055-1.078.572 0 1.055.482 1.055 1.078m-1.368-.132v-.54c0-.075-.042-.12-.124-.12-.083 0-.125.045-.125.12v1.354c0 .057.027.08.087.08h.498c.376 0 .568-.111.568-.45 0-.293-.173-.407-.388-.433l.336-.512a.235.235 0 0 0 .038-.095c0-.042-.077-.063-.14-.063-.076 0-.113.02-.15.082l-.359.577h-.24zm.287.225c.191 0 .37.016.37.238 0 .188-.185.203-.348.203h-.309v-.441h.287zM472.56 766.212a.556.556 0 0 1-.045.04 1.206 1.206 0 0 1-1.189.16l-13.092-4.91c-.64-.24-1.142-.938-1.142-1.589v-6.925c0-.54.301-.87.335-.905l2.64-2.567c-.144.132-.222.328-.222.561v6.833c0 .55.427 1.14.974 1.345l13.85 5.193c.283.106.561.088.761-.052a.59.59 0 0 0 .096-.083l-2.967 2.9zm-10-5.735c-.056-.424-.634-.735-1.337-.735s-1.283.318-1.338.742l.001.518c0 .042.034.077.076.077a.078.078 0 0 0 .08-.077c0-.356.54-.657 1.181-.657.634 0 1.164.287 1.182.64a.077.077 0 0 0 .078.073.079.079 0 0 0 .075-.077s-.004-.51.001-.504"/><path d="M471.8 758.736l2.542.947c.156.059.286.238.286.393v1.567c0 .06-.02.107-.057.134-.043.029-.107.032-.176.006l-2.54-.948c-.156-.058-.287-.238-.287-.392v-1.568c0-.06.02-.107.057-.133.043-.03.107-.032.176-.006M472.362 755.826c-.503.4-1.232.485-2.053.241-1.727-.512-3.216-2.297-3.32-3.976-.046-.715.178-1.305.628-1.664.503-.4 1.231-.486 2.052-.243 1.726.514 3.217 2.3 3.322 3.977.044.716-.179 1.306-.629 1.665"/></g></svg>