<svg xmlns="http://www.w3.org/2000/svg" width="200" height="200" viewBox="0 0 200 200"><path fill="none" d="M30.314 59.647c0-.456.369-.836.824-.836a.848.848 0 0 1-.001-.001.833.833 0 0 0-.823.837c-.001-.001-.012 5.587-.012 5.619.13 1.001.544 1.943 1.168 2.812-.624-.868-1.038-1.81-1.167-2.811l.011-5.62zM44.819 66.775c6.879 0 12.629-3.114 12.824-6.933a.833.833 0 0 1 .847-.803.859.859 0 0 1-.002-.001.833.833 0 0 0-.847.803c-.194 3.819-5.945 6.933-12.822 6.934-5.216-.001-9.821-1.838-11.798-4.385 1.976 2.548 6.582 4.385 11.798 4.385z"/><path d="M189.632 51.247c-.467-.315-1.161-.348-1.909-.065l-27.559 10.285c-1.691.629-3.114 2.583-3.114 4.253v17.013c0 .64.218 1.161.619 1.442.468.326 1.161.348 1.909.065l27.568-10.274c1.692-.64 3.104-2.583 3.104-4.264V52.7c0-.65-.206-1.16-.618-1.453zM165.67 115.807c-5.457-4.341-13.365-5.264-22.273-2.615-18.736 5.555-34.893 24.92-36.031 43.138-.487 7.758 1.941 14.159 6.824 18.054 5.457 4.34 13.355 5.273 22.264 2.637 18.727-5.576 34.902-24.941 36.043-43.147.476-7.772-1.944-14.174-6.827-18.067zM59.303 59.875a.82.82 0 0 0-.002-.001s-.043 5.544.011 5.468c-.595 4.6-6.867 7.975-14.494 7.975-5.967 0-11.103-2.117-13.349-5.239 2.245 3.123 7.381 5.24 13.35 5.24 7.627 0 13.898-3.375 14.495-7.975-.054.075-.011-5.468-.011-5.468zM33.021 62.39c-.659-.849-1.025-1.777-1.025-2.743a.81.81 0 0 0-.001-.001c-.001.966.366 1.894 1.026 2.744z"/><path d="M167.811 3.12a6.157 6.157 0 0 0-.478-.423C163.578-.146 158.988-.764 154.434.95L12.39 54.232C5.446 56.825 0 64.398 0 71.462v75.134c0 5.858 3.266 9.438 3.635 9.818.043.031 28.643 27.85 28.643 27.85-1.563-1.431-2.409-3.558-2.409-6.086v-74.134c0-5.957 4.633-12.359 10.567-14.594l150.255-56.342c3.08-1.15 6.098-.955 8.268.564.391.26.727.575 1.041.9L167.811 3.12zM44.82 73.318c-5.968 0-11.105-2.117-13.35-5.24-.625-.869-1.039-1.811-1.168-2.812l.011-5.62c0-.456.369-.836.824-.836.279 0 .512.137.668.335a.81.81 0 0 1 .19.502c0 .965.367 1.894 1.025 2.743 1.977 2.547 6.582 4.384 11.797 4.384 6.878 0 12.629-3.114 12.824-6.933a.833.833 0 0 1 .847-.803.865.865 0 0 1 .574.26.824.824 0 0 1 .241.577s-.043 5.543.012 5.468c-.597 4.6-6.868 7.975-14.495 7.975z"/></svg>