<svg xmlns="http://www.w3.org/2000/svg" width="200" height="200" viewBox="0 -7.868 200 200"><path fill="#231F20" d="M199.904 45.639c-.893 19.476-14.49 46.144-40.789 79.989-27.193 35.355-50.199 53.034-69.021 53.034-11.654 0-21.523-10.762-29.581-32.298L44.371 87.149C38.387 65.626 31.97 54.852 25.106 54.852c-1.496 0-6.733 3.149-15.696 9.423L0 52.148A2531.878 2531.878 0 0 0 29.188 26.11C42.351 14.732 52.233 8.748 58.821 8.144c15.565-1.496 25.146 9.147 28.741 31.931 3.885 24.581 6.575 39.87 8.084 45.854 4.488 20.395 9.424 30.578 14.817 30.578 4.187 0 10.474-6.614 18.86-19.843 8.373-13.229 12.861-23.295 13.465-30.211 1.193-11.418-3.295-17.14-13.465-17.14-4.791 0-9.726 1.103-14.805 3.281 9.83-32.206 28.611-47.85 56.328-46.957 20.552.604 30.238 13.938 29.058 40.002z"/></svg>