<svg xmlns="http://www.w3.org/2000/svg" width="200" height="200" viewBox="0 0 200 200"><path fill="#231F20" d="M61.993 67.211c-13.742 0-24.922 11.179-24.922 24.92 0 13.74 11.18 24.92 24.922 24.92 13.741 0 24.92-11.18 24.92-24.92.001-13.74-11.179-24.92-24.92-24.92m0 44.525c-10.811 0-19.606-8.795-19.606-19.604 0-10.811 8.795-19.606 19.606-19.606s19.605 8.795 19.605 19.606c0 10.809-8.794 19.604-19.605 19.604m53.933-44.525c-13.742 0-24.922 11.179-24.922 24.92 0 13.74 11.18 24.92 24.922 24.92 13.74 0 24.92-11.18 24.92-24.92 0-13.74-11.18-24.92-24.92-24.92m0 44.525c-10.813 0-19.606-8.795-19.606-19.604 0-10.811 8.795-19.606 19.606-19.606s19.604 8.795 19.604 19.606c-.001 10.809-8.796 19.604-19.604 19.604M19.16 82.157c-4.801-.689-9.482.587-13.295 3.523V72.472h22.381c.778 0 1.335-.14 1.335-2.437 0-2.241-.903-2.33-1.499-2.33H3.3c-1.439 0-2.201 1.164-2.201 2.455v21.676c0 1.137.72 1.522 2.062 1.788 1.174.232 1.855.096 2.369-.473l.054-.083c2.361-3.403 7.499-6.7 12.381-6.103 5.829.713 10.522 5.363 11.164 11.055.409 3.632-.699 7.125-3.119 9.832a12.595 12.595 0 0 1-9.382 4.209c-5.293 0-9.919-3.403-11.846-8.342-.285-.729-.767-1.271-2.852-.514-1.916.697-2.027 1.502-1.763 2.232 2.508 6.905 9.123 11.547 16.46 11.547 4.969 0 9.725-2.131 13.047-5.846 3.367-3.765 4.896-8.613 4.333-13.661-.883-7.896-6.997-14.197-14.847-15.32m138.716-14.698c-6.7.51-11.948 6.402-11.948 13.416v22.177c0 1.283.977 1.548 2.442 1.548 1.465 0 2.442-.265 2.442-1.548V80.823c0-4.37 3.18-8.121 7.236-8.542a8.087 8.087 0 0 1 6.311 2.062 8.196 8.196 0 0 1 2.69 6.079c0 .665-.325 2.83-1.812 4.839-1.123 1.519-3.252 3.327-7.025 3.327h-.072c-.968 0-1.793.045-1.953 2.34-.106 1.543-.099 2.234 1.235 2.42 2.379.329 4.804-.135 7.208-1.384 4.104-2.136 6.854-6.182 7.178-10.561.28-3.803-1.092-7.513-3.765-10.179a13.008 13.008 0 0 0-10.167-3.765m32.662 12.988l9.041-9.042c.328-.328 1.097-1.098-.459-2.7-.667-.688-1.274-1.038-1.808-1.042h-.011c-.458 0-.767.246-1.008.487l-9.063 9.063-9.047-9.104c-.731-.732-1.588-.56-2.691.542-1.123 1.129-1.307 1.996-.578 2.728l9.049 9.103-8.861 8.863-.063.063c-.216.209-.541.524-.546 1.039-.004.531.35 1.155 1.051 1.857.592.593 1.152.893 1.668.893.581-.001.951-.373 1.161-.582l8.896-8.896 9.098 9.098c.113.114.436.378.949.378h.019c.575-.007 1.181-.341 1.801-.992 1.021-1.072 1.19-1.965.507-2.654l-9.105-9.102z"/><path fill="none" d="M0 67.211h200v49.84H0z"/></svg>