<?xml version="1.0" encoding="utf-8"?>
<!-- Generator: Adobe Illustrator 26.0.3, SVG Export Plug-In . SVG Version: 6.00 Build 0)  -->
<svg version="1.1" id="Layer_1" xmlns="http://www.w3.org/2000/svg" xmlns:xlink="http://www.w3.org/1999/xlink" x="0px" y="0px"
	 viewBox="0 0 24 24" style="enable-background:new 0 0 24 24;" xml:space="preserve">
<style type="text/css">
	.st0{fill:#231F20;}
	.st1{display:none;fill:#231F20;}
	.st2{display:none;fill:none;}
	.st3{display:none;}
</style>
<path class="st0" d="M20,8.3c-0.1,1.6-1.2,3.7-3.3,6.4c-2.2,2.8-4,4.2-5.5,4.2c-0.9,0-1.7-0.9-2.4-2.6c-0.4-1.6-0.9-3.2-1.3-4.7
	C7.1,9.9,6.6,9,6,9C5.9,9,5.5,9.3,4.8,9.8L4,8.8c0.8-0.7,1.6-1.4,2.3-2.1c1.1-0.9,1.8-1.4,2.4-1.4C10,5.2,10.7,6,11,7.8
	c0.3,2,0.5,3.2,0.6,3.7c0.4,1.6,0.8,2.4,1.2,2.4c0.3,0,0.8-0.5,1.5-1.6c0.7-1.1,1-1.9,1.1-2.4c0.1-0.9-0.3-1.4-1.1-1.4
	c-0.4,0-0.8,0.1-1.2,0.3c0.8-2.6,2.3-3.8,4.5-3.8C19.3,5.1,20.1,6.2,20,8.3z"/>
<path class="st1" d="M62,75.1c-13.7,0-24.9,11.2-24.9,24.9c0,13.7,11.2,24.9,24.9,24.9c13.7,0,24.9-11.2,24.9-24.9
	C86.9,86.3,75.7,75.1,62,75.1 M62,119.6c-10.8,0-19.6-8.8-19.6-19.6c0-10.8,8.8-19.6,19.6-19.6s19.6,8.8,19.6,19.6
	C81.6,110.8,72.8,119.6,62,119.6 M115.9,75.1C102.2,75.1,91,86.3,91,100c0,13.7,11.2,24.9,24.9,24.9c13.7,0,24.9-11.2,24.9-24.9
	S129.7,75.1,115.9,75.1 M115.9,119.6c-10.8,0-19.6-8.8-19.6-19.6c0-10.8,8.8-19.6,19.6-19.6c10.8,0,19.6,8.8,19.6,19.6
	C135.5,110.8,126.7,119.6,115.9,119.6 M19.2,90c-4.8-0.7-9.5,0.6-13.3,3.5V80.3h22.4c0.8,0,1.3-0.1,1.3-2.4c0-2.2-0.9-2.3-1.5-2.3
	H3.3c-1.4,0-2.2,1.2-2.2,2.5v21.7c0,1.1,0.7,1.5,2.1,1.8c1.2,0.2,1.9,0.1,2.4-0.5l0.1-0.1c2.4-3.4,7.5-6.7,12.4-6.1
	c5.8,0.7,10.5,5.4,11.2,11.1c0.4,3.6-0.7,7.1-3.1,9.8c-2.4,2.7-5.8,4.2-9.4,4.2c-5.3,0-9.9-3.4-11.8-8.3c-0.3-0.7-0.8-1.3-2.9-0.5
	c-1.9,0.7-2,1.5-1.8,2.2c2.5,6.9,9.1,11.5,16.5,11.5c5,0,9.7-2.1,13-5.8c3.4-3.8,4.9-8.6,4.3-13.7C33.1,97.4,27,91.1,19.2,90
	 M157.9,75.3c-6.7,0.5-11.9,6.4-11.9,13.4v22.2c0,1.3,1,1.5,2.4,1.5s2.4-0.3,2.4-1.5V88.7c0-4.4,3.2-8.1,7.2-8.5
	c2.3-0.2,4.6,0.5,6.3,2.1c1.7,1.5,2.7,3.8,2.7,6.1c0,0.7-0.3,2.8-1.8,4.8c-1.1,1.5-3.3,3.3-7,3.3c0,0,0,0-0.1,0c-1,0-1.8,0-2,2.3
	c-0.1,1.5-0.1,2.2,1.2,2.4c2.4,0.3,4.8-0.1,7.2-1.4c4.1-2.1,6.9-6.2,7.2-10.6c0.3-3.8-1.1-7.5-3.8-10.2
	C165.4,76.4,161.7,75,157.9,75.3 M190.5,88.3l9-9c0.3-0.3,1.1-1.1-0.5-2.7c-0.7-0.7-1.3-1-1.8-1h0c-0.5,0-0.8,0.2-1,0.5l-9.1,9.1
	l-9-9.1c-0.7-0.7-1.6-0.6-2.7,0.5c-1.1,1.1-1.3,2-0.6,2.7l9,9.1l-8.9,8.9l-0.1,0.1c-0.2,0.2-0.5,0.5-0.5,1c0,0.5,0.4,1.2,1.1,1.9
	c0.6,0.6,1.2,0.9,1.7,0.9l0,0c0.6,0,1-0.4,1.2-0.6l8.9-8.9l9.1,9.1c0.1,0.1,0.4,0.4,0.9,0.4h0c0.6,0,1.2-0.3,1.8-1
	c1-1.1,1.2-2,0.5-2.7L190.5,88.3z"/>
<rect id="SVGID_1_" y="75.1" class="st2" width="200" height="49.8"/>
<path class="st2" d="M59.3,67.7c0-0.4-0.4-0.8-0.8-0.8c-0.5,0-0.8,0.3-0.8,0.8c-0.2,3.8-5.9,6.9-12.8,6.9c-7,0-12.8-3.3-12.8-7.1
	c0-0.5-0.4-0.8-0.9-0.8c-0.5,0-0.8,0.4-0.8,0.8c0,0,0,5.6,0,5.6c0.6,4.6,6.9,8.1,14.5,8.1c7.6,0,13.9-3.4,14.5-8
	C59.3,73.3,59.3,67.7,59.3,67.7z"/>
<path class="st3" d="M167.8,11c-0.2-0.2-0.3-0.3-0.5-0.4c-3.8-2.8-8.3-3.5-12.9-1.7l-142,53.3C5.4,64.7,0,72.3,0,79.3v75.1
	c0,5.9,3.3,9.4,3.6,9.8c0,0,28.6,27.9,28.6,27.9c-1.6-1.4-2.4-3.6-2.4-6.1v-74.1c0-6,4.6-12.4,10.6-14.6L190.7,41
	c3.1-1.1,6.1-1,8.3,0.6c0.4,0.3,0.7,0.6,1,0.9L167.8,11z M44.8,81.2c-7.6,0-13.9-3.5-14.5-8.1c0,0,0-5.6,0-5.6
	c0-0.5,0.4-0.8,0.8-0.8c0.5,0,0.9,0.4,0.9,0.8c0,3.9,5.9,7.1,12.8,7.1c6.9,0,12.6-3.1,12.8-6.9c0-0.5,0.4-0.8,0.8-0.8
	c0.4,0,0.8,0.4,0.8,0.8c0,0,0,5.5,0,5.5C58.7,77.8,52.4,81.2,44.8,81.2z"/>
<path class="st3" d="M189.6,59.1c-0.5-0.3-1.2-0.3-1.9-0.1l-27.6,10.3c-1.7,0.6-3.1,2.6-3.1,4.3v17c0,0.6,0.2,1.2,0.6,1.4
	c0.5,0.3,1.2,0.3,1.9,0.1l27.6-10.3c1.7-0.6,3.1-2.6,3.1-4.3v-17C190.2,59.9,190,59.4,189.6,59.1z"/>
<path class="st3" d="M165.7,123.7c-5.5-4.3-13.4-5.3-22.3-2.6c-18.7,5.6-34.9,24.9-36,43.1c-0.5,7.8,1.9,14.2,6.8,18.1
	c5.5,4.3,13.4,5.3,22.3,2.6c18.7-5.6,34.9-24.9,36-43.1C173,134,170.6,127.6,165.7,123.7z"/>
</svg>
