<?xml version="1.0" encoding="utf-8"?>
<!-- Generator: Adobe Illustrator 26.0.3, SVG Export Plug-In . SVG Version: 6.00 Build 0)  -->
<svg version="1.1" id="Layer_1" xmlns="http://www.w3.org/2000/svg" xmlns:xlink="http://www.w3.org/1999/xlink" x="0px" y="0px"
	 viewBox="0 0 24 24" style="enable-background:new 0 0 24 24;" xml:space="preserve">
<style type="text/css">
	.st0{fill:none;}
</style>
<g>
	<path class="st0" d="M6.4,9.4C6.4,9.4,6.5,9.3,6.4,9.4c0.1-0.1,0.1-0.1,0.1,0C6.5,9.3,6.5,9.3,6.4,9.4C6.5,9.3,6.4,9.4,6.4,9.4
		c0,0,0,0.4,0,0.4c0,0.1,0,0.2,0.1,0.2c0-0.1-0.1-0.1-0.1-0.2C6.4,9.8,6.4,9.4,6.4,9.4z"/>
	<path class="st0" d="M7.6,10c0.6,0,1-0.2,1-0.6c0,0,0-0.1,0.1-0.1c0,0,0,0,0,0c0,0,0,0,0,0c0,0-0.1,0-0.1,0.1
		C8.6,9.7,8.1,10,7.6,10c-0.4,0-0.8-0.1-0.9-0.4C6.8,9.8,7.2,10,7.6,10z"/>
	<path d="M19.2,8.7c0,0-0.1,0-0.2,0l-2.2,0.8c-0.1,0.1-0.2,0.2-0.2,0.3v1.4c0,0.1,0,0.1,0,0.1c0,0,0.1,0,0.2,0l2.2-0.8
		c0.1-0.1,0.2-0.2,0.2-0.3V8.8C19.2,8.8,19.2,8.8,19.2,8.7z"/>
	<path d="M17.3,13.9c-0.4-0.3-1.1-0.4-1.8-0.2c-1.5,0.4-2.8,2-2.9,3.5c0,0.6,0.2,1.1,0.5,1.4c0.4,0.3,1.1,0.4,1.8,0.2
		c1.5-0.4,2.8-2,2.9-3.5C17.8,14.7,17.6,14.2,17.3,13.9z"/>
	<path d="M8.7,9.4C8.7,9.4,8.7,9.4,8.7,9.4C8.7,9.4,8.7,9.4,8.7,9.4c0,0,0,0.4,0,0.4c0,0.4-0.5,0.6-1.2,0.6c-0.5,0-0.9-0.2-1.1-0.4
		c0.2,0.2,0.6,0.4,1.1,0.4c0.6,0,1.1-0.3,1.2-0.6C8.7,9.9,8.7,9.4,8.7,9.4z"/>
	<path d="M6.6,9.6C6.6,9.6,6.6,9.5,6.6,9.4c0,0,0,0,0,0c0,0,0,0,0,0C6.6,9.5,6.6,9.6,6.6,9.6z"/>
	<path d="M17.4,4.9C17.4,4.9,17.4,4.9,17.4,4.9c-0.3-0.3-0.7-0.3-1.1-0.2L5,9c-0.6,0.2-1,0.8-1,1.4v6c0,0.5,0.3,0.8,0.3,0.8
		c0,0,2.3,2.2,2.3,2.2c-0.1-0.1-0.2-0.3-0.2-0.5V13c0-0.5,0.4-1,0.8-1.2l12-4.5c0.2-0.1,0.5-0.1,0.7,0c0,0,0.1,0,0.1,0.1L17.4,4.9z
		 M7.6,10.5c-0.5,0-0.9-0.2-1.1-0.4c0-0.1-0.1-0.1-0.1-0.2c0,0,0-0.4,0-0.4c0,0,0-0.1,0.1-0.1c0,0,0,0,0.1,0c0,0,0,0,0,0
		c0,0.1,0,0.2,0.1,0.2C6.8,9.8,7.2,10,7.6,10c0.6,0,1-0.2,1-0.6c0,0,0-0.1,0.1-0.1c0,0,0,0,0,0c0,0,0,0,0,0c0,0,0,0.4,0,0.4
		C8.7,10.2,8.2,10.5,7.6,10.5z"/>
</g>
</svg>
