<?xml version="1.0" encoding="utf-8"?>
<!-- Generator: Adobe Illustrator 26.0.3, SVG Export Plug-In . SVG Version: 6.00 Build 0)  -->
<svg version="1.1" id="Layer_1" xmlns="http://www.w3.org/2000/svg" xmlns:xlink="http://www.w3.org/1999/xlink" x="0px" y="0px"
	 viewBox="0 0 24 24" style="enable-background:new 0 0 24 24;" xml:space="preserve">
<style type="text/css">
	.st0{fill-rule:evenodd;clip-rule:evenodd;fill:#181616;}
</style>
<path class="st0" d="M12,4.2c-4.4,0-8,3.6-8,8c0,3.5,2.3,6.5,5.5,7.6c0.4,0.1,0.5-0.2,0.5-0.4c0-0.2,0-0.7,0-1.4
	C7.8,18.5,7.3,17,7.3,17c-0.4-0.9-0.9-1.2-0.9-1.2c-0.7-0.5,0.1-0.5,0.1-0.5c0.8,0.1,1.2,0.8,1.2,0.8c0.7,1.2,1.9,0.9,2.3,0.7
	c0.1-0.5,0.3-0.9,0.5-1.1c-1.8-0.2-3.6-0.9-3.6-4c0-0.9,0.3-1.6,0.8-2.1c-0.1-0.2-0.4-1,0.1-2.1c0,0,0.7-0.2,2.2,0.8
	c0.6-0.2,1.3-0.3,2-0.3c0.7,0,1.4,0.1,2,0.3c1.5-1,2.2-0.8,2.2-0.8c0.4,1.1,0.2,1.9,0.1,2.1c0.5,0.6,0.8,1.3,0.8,2.1
	c0,3.1-1.9,3.7-3.7,3.9c0.3,0.2,0.5,0.7,0.5,1.5c0,1,0,2,0,2.2c0,0.2,0.1,0.5,0.5,0.4c3.2-1.1,5.5-4.1,5.5-7.6
	C20,7.8,16.4,4.2,12,4.2z"/>
</svg>
