<?xml version="1.0" encoding="utf-8"?>
<!-- Generator: Adobe Illustrator 15.0.2, SVG Export Plug-In . SVG Version: 6.00 Build 0)  -->
<!DOCTYPE svg PUBLIC "-//W3C//DTD SVG 1.1//EN" "http://www.w3.org/Graphics/SVG/1.1/DTD/svg11.dtd">
<svg version="1.1" id="Layer_1" xmlns="http://www.w3.org/2000/svg" xmlns:xlink="http://www.w3.org/1999/xlink" x="0px" y="0px"
	 width="370px" height="200px" viewBox="0 0 370 200" enable-background="new 0 0 370 200" xml:space="preserve">
<rect display="none" fill="#231F20" width="720" height="432"/>
<g>
	<path fill="#FFFFFF" d="M54.517,141.695H37.511c0-19.95,0-11.85,0-36.086c-4.082,0-8.033,0-12.05,0v46.863
		c9.507,0,19.415,0,29.056,0C54.517,148.456,54.517,145.712,54.517,141.695z"/>
	<path fill="#FFFFFF" d="M90.948,141.828c-7.028,0-11.046,0-17.94,0c0-2.813,0-5.488,0-8.232h15.932c0-3.55,0-7.098,0-10.646H73.007
		v-6.628c6.895,0,10.375,0,17.338,0c0-3.615,0-7.23,0-10.713c-10.979,0-18.41,0-29.256,0c0,15.533,0,31.199,0,46.863
		c10.846,0,18.879,0,29.858,0C90.948,148.925,90.948,145.311,90.948,141.828z"/>
	<path fill="#FFFFFF" d="M138.411,152.473v-46.863c-4.084,0-8.167,0-12.251,0v17.006H111.7v-17.006c-4.083,0-8.235,0-12.251,0
		v46.863c4.016,0,8.167,0,12.251,0V133.66h14.46v18.813C130.243,152.473,134.327,152.473,138.411,152.473z"/>
	<path fill="#FFFFFF" d="M194.262,137.691v-32.215h-4.285l-18.678,20.352l-18.343-20.352h-4.419v46.996c4.083,0,8.167,0,12.251,0
		v-20.888l9.907,10.442h1.34l9.974-10.442v20.888c2.191,0,4.382,0,6.572,0v-2.457L194.262,137.691z"/>
	<path fill="#FFFFFF" d="M282.295,128.574l-23.697-23.163h-4.352v29.862l6.791,14.742v2.457c1.861,0,3.727,0,5.594,0v-23.029
		l23.631,23.099h4.285v-46.931c-4.084,0-8.168,0-12.252,0V128.574L282.295,128.574z"/>
	<path fill="#FFFFFF" d="M304.674,105.411v47.062c4.084,0,8.234,0,12.385,0v-23.027l23.633,23.098h4.285v-46.932
		c-4.086,0-8.17,0-12.252,0v22.964l-23.699-23.163L304.674,105.411L304.674,105.411z"/>
	<path fill="#FFFFFF" d="M227.525,66.659c10.553,0,19.107-8.556,19.107-19.109c0-10.552-8.557-19.106-19.107-19.106
		c-10.553,0-19.107,8.555-19.107,19.106C208.418,58.104,216.973,66.659,227.525,66.659z M227.525,50.416
		c-1.582,0-2.865-1.283-2.865-2.866s1.283-2.866,2.865-2.866c1.584,0,2.865,1.283,2.865,2.866S229.109,50.416,227.525,50.416z
		 M240.859,48.628c2.742,1.583,3.682,5.088,2.098,7.831c-1.582,2.742-5.088,3.682-7.83,2.1c-2.742-1.584-3.682-5.09-2.1-7.832
		C234.611,47.984,238.117,47.045,240.859,48.628z M227.525,29.73c3.166,0,5.732,2.567,5.732,5.732c0,3.166-2.566,5.732-5.732,5.732
		s-5.732-2.566-5.732-5.732C221.793,32.298,224.359,29.73,227.525,29.73z M212.096,56.459c-1.584-2.743-0.646-6.248,2.096-7.831
		s6.25-0.644,7.832,2.099c1.584,2.742,0.643,6.248-2.1,7.832C217.184,60.141,213.676,59.201,212.096,56.459z"/>
	<path fill="#FFFFFF" d="M285.887,47.55c0-10.552-8.559-19.106-19.111-19.106S247.67,36.998,247.67,47.55
		c0,10.554,8.555,19.109,19.105,19.109C277.328,66.659,285.887,58.104,285.887,47.55z M280.111,48.628
		c2.74,1.583,3.682,5.088,2.096,7.831c-1.582,2.742-5.088,3.682-7.828,2.1c-2.742-1.584-3.682-5.09-2.1-7.832
		C273.863,47.984,277.367,47.045,280.111,48.628z M259.176,58.559c-2.742,1.582-6.248,0.643-7.83-2.1
		c-1.584-2.743-0.645-6.248,2.098-7.831s6.25-0.644,7.83,2.099C262.855,53.469,261.918,56.975,259.176,58.559z M261.043,35.463
		c0-3.165,2.566-5.732,5.732-5.732c3.168,0,5.732,2.567,5.732,5.732c0,3.166-2.564,5.732-5.732,5.732
		C263.609,41.197,261.043,38.629,261.043,35.463z M263.91,47.55c0-1.583,1.283-2.866,2.865-2.866c1.584,0,2.865,1.283,2.865,2.866
		s-1.281,2.866-2.865,2.866C265.193,50.416,263.91,49.133,263.91,47.55z"/>
	<path fill="#FFFFFF" d="M215.121,86.428l6.637-14.383l-0.004-0.003c0.164-0.372,0.256-0.782,0.256-1.213
		c0-1.685-1.365-3.052-3.051-3.052c-0.02,0-0.039,0.007-0.061,0.007l-0.002-0.003H198h-0.793h-1.971l22.611-49.008h-18.98
		l-0.008,0.004c-1.203,0.02-2.23,0.734-2.711,1.762l-0.012,0.007L165.74,86.428H215.121z"/>
	<path fill="#FFFFFF" d="M254.246,135.273l-22.508-48.846h48.213l0.004-0.003c0.01,0,0.02,0.003,0.029,0.003
		c1.158,0,2.152-0.654,2.672-1.605l0.035-0.022l30.465-66.026h-92.547l-3.813,8.26h79.6h0.021h2.74L281.23,65.891
		c-0.016,0.036-0.033,0.069-0.049,0.104l-0.012,0.024l-0.004,0.002c-0.469,1.01-1.471,1.713-2.648,1.756l-0.004,0.002h-0.021
		c-0.029,0-0.057,0.01-0.084,0.01s-0.055-0.01-0.084-0.01h-0.729h-49.135c-0.008,0-0.016-0.002-0.021-0.002
		c-0.012,0-0.02,0.002-0.025,0.002h-0.037l-0.006,0.005c-1.182,0.026-2.193,0.725-2.676,1.729l-0.014,0.01l-0.053,0.112
		c0,0.001-0.002,0.003-0.002,0.005L220.248,81.3l-2.67,5.776l-23.318,50.613l-5.68,12.324v2.457v0.002h17.006l19.211-43.279
		l0.012,0.027l0.014-0.027l19.207,43.279h17.008v-0.002v-2.457L254.246,135.273z"/>
	<path fill="#FFFFFF" d="M151.611,79.523c0.451,0,0.875-0.104,1.258-0.277l0.015,0.009l16.985-7.745l14.355-31.201L152.91,25.896
		c-0.396-0.188-0.832-0.301-1.299-0.301c-1.684,0-3.049,1.365-3.049,3.049h-0.002l0,0V76.52l0.006,0.002
		C148.593,78.184,149.943,79.523,151.611,79.523z"/>
	<path fill="#FFFFFF" d="M25,169.372c0-5.195,3.91-8.7,8.979-8.7c3.683,0,5.826,1.992,7.012,4.11l-3.077,1.514
		c-0.706-1.362-2.22-2.446-3.935-2.446c-3.076,0-5.297,2.346-5.297,5.522s2.221,5.522,5.297,5.522c1.715,0,3.229-1.084,3.935-2.444
		l3.077,1.487c-1.186,2.092-3.33,4.137-7.012,4.137C28.91,178.074,25,174.544,25,169.372z"/>
	<path fill="#FFFFFF" d="M44.59,169.372c0-5.069,3.708-8.7,8.802-8.7c5.069,0,8.777,3.631,8.777,8.7s-3.708,8.702-8.777,8.702
		C48.298,178.074,44.59,174.441,44.59,169.372z M58.488,169.372c0-3.151-1.993-5.522-5.096-5.522c-3.127,0-5.119,2.371-5.119,5.522
		c0,3.128,1.992,5.522,5.119,5.522C56.496,174.896,58.488,172.5,58.488,169.372z"/>
	<path fill="#FFFFFF" d="M66.958,171.037v-10.088h3.63v9.986c0,2.346,1.363,3.959,3.96,3.959c2.599,0,3.935-1.613,3.935-3.959
		v-9.986h3.656v10.088c0,4.162-2.471,7.037-7.591,7.037C69.429,178.074,66.958,175.199,66.958,171.037z"/>
	<path fill="#FFFFFF" d="M97.242,177.771l-3.305-5.978h-2.623v5.978h-3.582V160.95h7.869c3.506,0,5.676,2.295,5.676,5.422
		c0,2.951-1.893,4.563-3.709,4.993l3.809,6.406H97.242L97.242,177.771z M97.595,166.346c0-1.388-1.084-2.244-2.498-2.244h-3.783
		v4.539h3.783C96.51,168.641,97.595,167.784,97.595,166.346z"/>
	<path fill="#FFFFFF" d="M109.847,177.771v-13.67h-4.918v-3.151h13.418v3.151h-4.894v13.67H109.847z"/>
	<path fill="#FFFFFF" d="M141.166,177.771l-3.305-5.978h-2.621v5.978h-3.582V160.95h7.869c3.505,0,5.675,2.295,5.675,5.422
		c0,2.951-1.892,4.563-3.708,4.993l3.809,6.406H141.166L141.166,177.771z M141.519,166.346c0-1.388-1.084-2.244-2.498-2.244h-3.781
		v4.539h3.781C140.433,168.641,141.519,167.784,141.519,166.346z"/>
	<path fill="#FFFFFF" d="M150.138,177.771V160.95h11.905v3.151h-8.323v3.53h8.146v3.153h-8.146v3.833h8.323v3.151h-11.905V177.771z"
		/>
	<path fill="#FFFFFF" d="M167.107,177.771V160.95h7.871c3.656,0,5.648,2.472,5.648,5.422c0,2.926-2.018,5.397-5.648,5.397h-4.289
		v6.002H167.107L167.107,177.771z M176.97,166.371c0-1.413-1.085-2.27-2.496-2.27h-3.785v4.514h3.785
		C175.885,168.615,176.97,167.759,176.97,166.371z"/>
	<path fill="#FFFFFF" d="M184.33,169.372c0-5.069,3.708-8.7,8.801-8.7c5.07,0,8.777,3.631,8.777,8.7s-3.707,8.702-8.777,8.702
		C188.037,178.074,184.33,174.441,184.33,169.372z M198.227,169.372c0-3.151-1.992-5.522-5.096-5.522
		c-3.127,0-5.117,2.371-5.117,5.522c0,3.128,1.99,5.522,5.117,5.522C196.234,174.896,198.227,172.5,198.227,169.372z"/>
	<path fill="#FFFFFF" d="M216.203,177.771l-3.305-5.978h-2.621v5.978h-3.582V160.95h7.869c3.506,0,5.674,2.295,5.674,5.422
		c0,2.951-1.891,4.563-3.707,4.993l3.809,6.406H216.203L216.203,177.771z M216.557,166.346c0-1.388-1.084-2.244-2.496-2.244h-3.783
		v4.539h3.783C215.473,168.641,216.557,167.784,216.557,166.346z"/>
	<path fill="#FFFFFF" d="M228.809,177.771v-13.67h-4.918v-3.151h13.418v3.151h-4.893v13.67H228.809z"/>
	<path fill="#FFFFFF" d="M241.869,177.771V160.95h3.582v16.821H241.869z"/>
	<path fill="#FFFFFF" d="M262.648,177.771l-8.021-10.972v10.972h-3.582V160.95h3.686l7.791,10.567V160.95h3.584v16.821H262.648z"/>
	<path fill="#FFFFFF" d="M270.891,169.372c0-5.321,4.035-8.7,8.979-8.7c3.48,0,5.676,1.766,6.938,3.758l-2.951,1.614
		c-0.781-1.187-2.221-2.194-3.984-2.194c-3.076,0-5.295,2.346-5.295,5.522s2.219,5.522,5.295,5.522c1.488,0,2.875-0.654,3.555-1.285
		v-2.019h-4.438v-3.127h8.02v6.457c-1.715,1.916-4.109,3.151-7.137,3.151C274.926,178.074,270.891,174.669,270.891,169.372z"/>
	<path fill="#FFFFFF" d="M292.777,181.227l-1.389-1.136c0.809-0.428,1.74-1.487,1.941-2.368c-0.074,0.023-0.277,0.074-0.477,0.074
		c-0.961,0-1.717-0.757-1.717-1.814c0-1.11,0.908-2.02,1.992-2.02c1.186,0,2.244,0.934,2.244,2.572
		C295.375,178.426,294.34,180.116,292.777,181.227z"/>
	<path fill="#FFFFFF" d="M304.527,177.771V160.95h3.58v16.821H304.527z"/>
	<path fill="#FFFFFF" d="M323.037,177.771l-8.021-10.972v10.972h-3.582V160.95h3.684l7.793,10.567V160.95h3.582v16.821H323.037z"/>
	<path fill="#FFFFFF" d="M329.01,169.372c0-5.195,3.908-8.7,8.979-8.7c3.684,0,5.826,1.992,7.012,4.11l-3.078,1.514
		c-0.705-1.362-2.219-2.446-3.934-2.446c-3.078,0-5.295,2.346-5.295,5.522s2.217,5.522,5.295,5.522c1.715,0,3.229-1.084,3.934-2.444
		l3.078,1.487c-1.186,2.092-3.328,4.137-7.012,4.137C332.918,178.074,329.01,174.544,329.01,169.372z"/>
</g>
<path display="none" fill="#222222" d="M259.229,189.691c3.49-0.389,5.586-2.25,5.586-5.043V147.8c0-3.724,0-4.5-5.74-5.663v-1.938
	h6.051c6.982,0,8.688-0.312,8.688-0.312l0.389,0.312c0,0-2.561,2.948-2.561,9.387v14.429h28.858l0.774-0.775V147.8
	c0-3.724,0-4.5-5.739-5.663v-1.938h6.051c6.981,0,8.688-0.232,8.688-0.232l0.388,0.31c0,0-2.56,2.871-2.56,9.311v35.063
	c0,2.328-0.389,4.189-0.389,4.189l6.982,0.699l-0.312,2.171l-18.694,0.465v-2.481c3.412-0.389,5.584-2.172,5.584-4.812v-17.608
	h-28.857l-0.775,0.775v16.602c0,2.326-0.388,4.188-0.388,4.188l6.981,0.699l-0.311,2.171l-18.697,0.465v-2.48H259.229z"/>
<path display="none" fill="#222222" d="M316.855,189.691c3.258-0.312,4.576-1.939,5.196-3.491l18.386-45.771l3.183-0.699
	l17.222,44.064c2.096,5.275,3.49,5.663,5.896,6.051l-0.313,2.096h-3.336c-2.867,0-11.791,0.231-11.791,0.231v-2.637
	c2.172-0.078,4.112-0.699,3.258-3.026l-4.731-12.412h-18.54l-1.01,0.776l-5.353,13.963l6.595,0.931l-0.311,2.172h-14.352V189.691
	L316.855,189.691z M340.359,148.421l-8.61,22.419h16.833l-6.671-17.688C341.291,151.602,340.671,149.585,340.359,148.421z"/>
<path display="none" fill="#222222" d="M369.162,189.691c3.413-0.389,5.584-2.172,5.584-4.812V147.8c0-3.724-0.387-4.5-6.359-5.663
	v-1.938h17.997c13.963,0,19.238,5.739,19.238,12.489c0,7.291-6.517,12.256-10.24,14.196v1.009l11.171,16.369
	c3.336,4.809,4.89,4.965,6.905,5.119l0.854,0.078L414,191.941h-11.248l-0.312-0.233c0,0-1.628-3.878-4.81-8.533l-9.619-14.196
	h-5.664l-0.775,0.775v15.127c0,2.25-0.387,3.957-0.387,3.957l6.98,0.699l-0.311,2.171l-18.694,0.465L369.162,189.691
	L369.162,189.691z M388.09,165.953c4.654,0,10.008-3.725,10.008-11.249c0-5.896-3.336-11.481-12.877-11.481h-2.871l-0.776,0.776
	v21.954H388.09z"/>
<path display="none" fill="#222222" d="M425.848,189.691c3.49-0.389,5.585-2.25,5.585-5.043v-41.426h-7.68
	c-5.354,0-7.682,1.629-10.63,9.619h-2.637l2.404-13.111c0,0,2.018,0.467,5.197,0.467h36.306c3.183,0,5.585-0.467,5.585-0.467
	l-2.402,13.111h-2.64c0.389-7.99-2.172-9.619-8.223-9.619h-7.681l-0.776,0.776v40.649c0,2.326-0.388,4.188-0.388,4.188l7.759,0.699
	l-0.312,2.171l-19.471,0.465v-2.48H425.848z"/>
<path display="none" fill="#222222" d="M234.893,223.004l-11.947,37.78l-3.026-0.933l-17.842-45.304
	c-1.319-3.336-4.578-4.266-4.578-4.266v-1.94h4.733c4.887,0,7.99-0.31,7.99-0.31l0.31,0.31c-0.853,1.862-1.318,4.889-0.466,7.139
	l11.172,29.943c0.543,1.475,1.086,3.49,1.475,4.965l10.24-32.271l-1.319-3.569c-1.317-3.336-4.577-4.266-4.577-4.266v-1.94h4.732
	c4.887,0,7.99-0.31,7.99-0.31l0.311,0.31c-0.854,1.862-1.318,4.888-0.466,7.138l10.938,30.1c0.465,1.396,1.008,3.258,1.396,4.732
	l10.55-33.28c1.164-3.646,0.311-5.587-3.724-6.749v-1.94h11.792l0.31,1.087c0,0-2.715,1.396-5.042,8.301l-13.652,43.056
	l-3.026-0.933L234.893,223.004z"/>
<path display="none" fill="#222222" d="M263.307,257.837c3.26-0.312,4.577-1.938,5.198-3.493l18.386-45.769l3.18-0.699
	l17.223,44.063c2.096,5.274,3.491,5.662,5.896,6.052l-0.312,2.095h-3.336c-2.87,0-11.791,0.232-11.791,0.232v-2.639
	c2.172-0.078,4.11-0.697,3.258-3.025l-4.731-12.411h-18.541l-1.008,0.774l-5.353,13.965l6.593,0.932l-0.31,2.172h-14.353V257.837
	L263.307,257.837z M286.813,216.564l-8.61,22.42h16.835l-6.672-17.688C287.744,219.746,287.123,217.729,286.813,216.564z"/>
<path display="none" fill="#222222" d="M341.48,207.411c6.594,0,14.816,1.474,17.377,1.707l-2.328,11.868h-2.637
	c-0.078-8.533-6.826-10.627-12.955-10.627c-13.576,0-20.635,10.861-20.635,23.117c0,14.043,9.541,24.205,23.815,24.205
	c2.481,0,4.964-0.311,7.758-0.932v-11.248c0-3.725-0.312-4.654-7.137-5.662V237.9h16.522l0.389,1.086c0,0-3.025,1.396-3.025,7.369
	V259c-5.042,0.775-11.947,2.018-17.609,2.018c-15.516,0-28.316-9.076-28.316-25.754C312.699,221.375,321.621,207.411,341.48,207.411
	z"/>
<path display="none" fill="#222222" d="M366.191,257.837c3.49-0.388,5.586-2.019,5.586-4.812v-34.908
	c0-5.354-1.242-6.905-6.361-7.835v-1.94h2.328c3.801,0,7.756-0.31,7.756-0.31s0.932,1.784,2.871,4.034l28.082,32.427
	c1.011,1.241,2.251,2.871,3.104,4.112v-32.272c0-3.414-0.079-5.198-6.361-5.817v-2.174h14.739l0.39,1.088
	c0,0-5.354,1.473-5.354,7.912v43.133h-2.018l-32.97-38.942c-0.932-1.087-2.019-2.562-2.795-3.726v35.221
	c0,2.328-0.387,4.188-0.387,4.188l6.981,0.467l-0.312,2.172l-15.281,0.467v-2.483H366.191z"/>
<path display="none" fill="#222222" d="M423.707,257.837c3.492-0.388,5.586-2.019,5.586-4.812v-37.08c0-3.725-0.387-4.5-6.36-5.663
	v-1.94h31.961c3.182,0,5.585-0.31,5.585-0.31l-2.403,12.954h-2.64c0.39-7.989-2.171-9.619-8.378-9.619h-10.16l-0.777,0.775v20.172
	h14.352l0.622-4.424l2.87-0.465v13.653h-3.646v-5.741h-13.42l-0.777,0.776v16.601c0,2.328-0.387,4.346-0.387,4.346h12.179
	c6.671,0,7.603-1.476,11.481-9.619h2.638l-2.87,12.645h-24.205c-3.878,0-11.248,0.232-11.248,0.232v-2.481H423.707z"/>
<path display="none" fill="#222222" d="M466.041,257.837c3.413-0.388,5.586-2.174,5.586-4.812v-37.08c0-3.725-0.388-4.5-6.362-5.663
	v-1.94h17.998c13.965,0,19.238,5.741,19.238,12.49c0,7.293-6.516,12.257-10.238,14.195v1.01l11.171,16.369
	c3.336,4.809,4.888,4.965,6.903,5.119l0.854,0.076l-0.312,2.483h-11.247l-0.312-0.233c0,0-1.629-3.879-4.812-8.533l-9.619-14.195
	h-5.662l-0.775,0.775v15.127c0,2.25-0.388,3.957-0.388,3.957l6.981,0.697l-0.311,2.172l-18.696,0.467L466.041,257.837
	L466.041,257.837z M484.969,234.098c4.656,0,10.008-3.723,10.008-11.248c0-5.896-3.336-11.481-12.876-11.481h-2.87l-0.776,0.776
	v21.953H484.969z"/>
<path display="none" fill="#222222" d="M221.773,291.999v-13.81h-4.894v-1.166h11.091v1.166h-4.895v13.81H221.773z"/>
<path display="none" fill="#222222" d="M247.254,291.999l-4.197-6.197h-3.302v6.197h-1.28v-14.976h5.592
	c2.582,0,4.558,1.639,4.558,4.377c0,2.718-1.909,4.222-4.153,4.313l4.332,6.286H247.254z M247.275,281.4
	c0-1.887-1.324-3.211-3.322-3.211h-4.199v6.443h4.199C245.951,284.634,247.275,283.287,247.275,281.4z"/>
<path display="none" fill="#222222" d="M259.666,291.999v-14.976h1.279v14.976H259.666z"/>
<path display="none" fill="#222222" d="M283.372,291.999l-1.481-3.683h-7.925l-1.481,3.683h-1.481l6.129-14.976h1.595l6.129,14.976
	H283.372z M277.939,278.393l-3.547,8.756h7.071L277.939,278.393z"/>
<path display="none" fill="#222222" d="M294.596,291.999v-14.976h1.301v13.808h7.252v1.168H294.596z"/>
<path display="none" fill="#222222" d="M339.365,291.999l-1.482-3.683h-7.926l-1.482,3.683h-1.48l6.129-14.976h1.595l6.13,14.976
	H339.365z M333.932,278.393l-3.549,8.756h7.073L333.932,278.393z"/>
<path display="none" fill="#222222" d="M353.168,291.999v-13.81h-4.895v-1.166h11.092v1.166h-4.895v13.81H353.168z"/>
<path display="none" fill="#222222" d="M373.688,291.999v-13.81h-4.895v-1.166h11.09v1.166h-4.895v13.81H373.688z"/>
<path display="none" fill="#222222" d="M389.176,284.521c0-4.379,2.872-7.746,7.272-7.746c4.378,0,7.274,3.367,7.274,7.746
	s-2.896,7.746-7.274,7.746C392.048,292.27,389.176,288.9,389.176,284.521z M402.375,284.521c0-3.795-2.334-6.578-5.927-6.578
	c-3.614,0-5.927,2.783-5.927,6.578c0,3.771,2.313,6.578,5.927,6.578C400.041,291.1,402.375,288.293,402.375,284.521z"/>
<path display="none" fill="#222222" d="M423.521,291.999l-4.198-6.197h-3.301v6.197h-1.279v-14.976h5.591
	c2.582,0,4.558,1.639,4.558,4.377c0,2.718-1.909,4.222-4.152,4.313l4.332,6.286H423.521z M423.544,281.4
	c0-1.887-1.324-3.211-3.322-3.211h-4.198v6.443h4.198C422.22,284.634,423.544,283.287,423.544,281.4z"/>
<path display="none" fill="#222222" d="M446.643,291.999l-9.43-12.865v12.865h-1.278v-14.976h1.302l9.384,12.686v-12.686h1.281
	v14.976H446.643z"/>
<path display="none" fill="#222222" d="M459.48,291.999v-14.976h9.497v1.166h-8.218v5.547h8.062v1.168h-8.062v5.927h8.218v1.168
	H459.48L459.48,291.999z"/>
<path display="none" fill="#222222" d="M484.422,291.999v-6.397l-5.949-8.578h1.55l5.051,7.365l5.053-7.365h1.548l-5.948,8.578
	v6.397H484.422z"/>
<path display="none" fill="#222222" d="M500.449,289.889l0.83-0.967c0.965,1.102,2.537,2.178,4.691,2.178
	c3.056,0,3.93-1.705,3.93-2.984c0-4.399-8.979-2.109-8.979-7.342c0-2.447,2.199-3.996,4.915-3.996c2.224,0,3.931,0.785,5.076,2.109
	l-0.855,0.943c-1.076-1.303-2.604-1.887-4.287-1.887c-1.998,0-3.503,1.146-3.503,2.761c0,3.84,8.982,1.729,8.982,7.319
	c0,1.932-1.281,4.244-5.322,4.244C503.456,292.27,501.594,291.257,500.449,289.889z"/>
<path display="none" fill="#222222" d="M503.693,243.23c0.666-0.072,0.99-0.383,0.99-0.916v-7.073c0-0.71,0-0.858-1.095-1.08v-0.37
	h1.153c1.333,0,1.657-0.059,1.657-0.059l0.074,0.059c0,0-0.488,0.563-0.488,1.791v6.688c0,0.443-0.073,0.813-0.073,0.813h2.471
	c1.271,0,1.51-0.458,2.25-2.132h0.503l-0.606,2.708h-4.766c-0.738,0-2.07,0.046-2.07,0.046V243.23z"/>
<path display="none" fill="#222222" d="M512.038,243.23c0.665-0.072,0.991-0.383,0.991-0.916v-7.073c0-0.71,0-0.858-1.097-1.08
	v-0.37h1.154c1.332,0,1.658-0.059,1.658-0.059l0.074,0.059c0,0-0.489,0.563-0.489,1.791v6.688c0,0.443-0.073,0.813-0.073,0.813
	h2.472c1.272,0,1.51-0.458,2.248-2.132h0.505l-0.608,2.708h-4.764c-0.74,0-2.071,0.046-2.071,0.046V243.23L512.038,243.23z"/>
<path display="none" fill="#222222" d="M520.354,243.23c0.65-0.072,1.064-0.414,1.064-0.916v-7.073c0-0.71-0.073-0.858-1.212-1.08
	v-0.37h3.669c1.701,0,3.625,0.548,3.625,2.723c0,2.383-2.232,3.166-3.832,3.004v-0.414c1.716-0.045,2.383-1.109,2.383-2.277
	c0-1.776-1.393-2.457-2.959-2.457h-0.224l-0.146,0.148v7.797c0,0.43-0.074,0.754-0.074,0.754l1.405,0.135l-0.059,0.414l-3.641,0.09
	V243.23L520.354,243.23z"/>
<rect display="none" fill="#231F20" width="720" height="432"/>
<path display="none" fill="#A4CD3C" d="M178.702,215.285h-0.138c-7.809,0-14.224-6.276-14.224-14.084v-0.139h14.224v-9.619
	c0-12.411,8.368-21.754,20.775-21.754h2.667c-14.354-5.181-48.502-0.48-48.502-0.48h0.021c-2.047,8.62-5.272,30.879-1.427,46.007
	c3.844,15.132,12.28,23.564,26.6,28.774c0.002,0,0.003,0,0.003,0L178.702,215.285L178.702,215.285z"/>
<path display="none" fill="#A4CD3C" d="M228.656,198.479c-2.711-10.672-7.708-18.008-15.442-23.234
	c-1.797,5.23-6.582,8.709-12.481,9.365c-3.902,0.418-6.832,3.207-6.832,7.108v9.345h18.406v0.139
	c0,7.808-6.272,14.084-14.082,14.084H193.9v31.054c15.354,0.623,33.349-1.854,33.349-1.854l-0.021,0.004
	C229.277,235.866,232.5,213.607,228.656,198.479z"/>
<path display="none" fill="#FFFFFF" d="M263.186,210.634c-4.988,0-9.08-4.001-9.08-8.987v-0.088h9.08v-6.14
	c0-7.927,5.332-13.89,13.258-13.89h9.346v0.539c0,4.981-3.65,8.455-8.46,8.988c-2.489,0.268-4.354,2.045-4.354,4.541v5.961h11.748
	v0.088c0,4.986-4.005,8.987-8.992,8.987h-2.756v27.146c0,4.979-3.918,8.99-8.896,8.99h-0.806v-36.136H263.186L263.186,210.634z"/>
<path display="none" fill="#FFFFFF" d="M287.652,246.051v-56.238c0-4.985,4.007-8.987,8.99-8.987h0.806v65.227L287.652,246.051
	L287.652,246.051z"/>
<path display="none" fill="#FFFFFF" d="M324.055,246.945c-12.813,0-21.007-10.319-21.007-23.135
	c0-12.824,9.442-23.146,22.254-23.146c12.816,0,22.251,10.417,22.251,23.232c0,2.492-1.955,4.09-4.458,4.09h-29.538
	c1.336,5.521,5.242,9.531,11.027,9.531c5.341,0,7.924-0.718,10.771-0.718c3.92,0,7.211,2.494,8.545,6.138
	C339.63,245.251,331.71,246.945,324.055,246.945z M313.557,219.805h23.316c-1.604-5.516-5.699-9.975-11.571-9.975
	C319.337,209.83,314.975,214.191,313.557,219.805z"/>
<path display="none" fill="#FFFFFF" d="M400.771,246.051v-56.238c0-4.985,4.004-8.987,8.985-8.987h0.801v65.227L400.771,246.051
	L400.771,246.051z"/>
<path display="none" fill="#FFFFFF" d="M437.17,246.945c-12.813,0-20.998-10.319-20.998-23.135c0-12.824,9.433-23.146,22.248-23.146
	c12.816,0,22.248,10.417,22.248,23.232c0,2.492-1.956,4.09-4.442,4.09h-29.557c1.341,5.521,5.258,9.531,11.041,9.531
	c5.341,0,7.921-0.718,10.766-0.718c3.913,0,7.21,2.494,8.548,6.138C452.747,245.251,444.83,246.945,437.17,246.945z
	 M426.669,219.805h23.324c-1.605-5.516-5.696-9.975-11.573-9.975C432.459,209.83,428.093,214.191,426.669,219.805z"/>
<path display="none" fill="#FFFFFF" d="M468.502,261.102c1.156-3.83,3.917-6.143,7.653-6.143c3.651,0,5.155,0.623,10.771,0.623
	c4.979,0,9.522-3.826,9.522-8.995v-2.04c-2.938,0.977-6.678,1.951-10.504,1.951c-11.93,0-21.716-9.872-21.716-22.688
	c0-12.824,10.052-23.146,22.87-23.146c4.453,0,8.37,0.271,11.479,1.245c4.271,1.339,7.656,4.012,7.656,9.698v34.269
	c0,10.685-7.565,18.867-18.161,18.867C480.25,264.744,473.043,262.793,468.502,261.102z M496.45,235.73v-25.097
	c0,0-4.362-0.886-9.076-0.886c-7.215,0-13.002,6.579-13.002,14.063c0,7.481,5.7,13.709,12.103,13.709
	C491.468,237.52,496.45,235.73,496.45,235.73z"/>
<path display="none" fill="#FFFFFF" d="M551.98,219.533v15.935c0,5.696-3.382,8.278-7.652,9.706
	c-3.116,1.061-8.012,1.771-15.752,1.771c-10.772,0-16.639-6.23-16.639-14.061s6.318-14.068,15.925-14.068h14.331
	c0-5.16-4.54-8.987-9.526-8.987c-5.604,0-7.116,0.629-10.762,0.629c-3.743,0-6.504-2.312-7.663-6.138
	c4.54-1.692,11.751-3.655,19.585-3.655C544.415,200.665,551.98,208.857,551.98,219.533z M542.193,227.016h-13.526
	c-4.449,0-6.591,2.575-6.591,5.248c0,2.668,2.229,5.699,7.928,5.699c6.232,0,9.604-0.803,12.189-1.432V227.016z"/>
<path display="none" fill="#FFFFFF" d="M391.782,203.154c-1.779-1.777-4-2.313-5.959-2.313c-2.583,0-4.983,0.893-7.031,3.559
	l-7.108,9.173l5.729,7.208L391.782,203.154z"/>
<path display="none" fill="#FFFFFF" d="M377.404,225.242l-6.123,7.699l8.312,10.359c1.688,2.042,4.272,3.469,6.943,3.469
	c2.397,0,4.803-0.981,6.313-2.494L377.404,225.242z"/>
<polygon display="none" fill="#FFFFFF" points="369.913,215.859 360.813,204.4 369.895,215.883 "/>
<polygon display="none" fill="#FFFFFF" points="359.389,243.389 369.477,230.699 369.452,230.659 "/>
<path display="none" fill="#FFFFFF" d="M369.895,215.883l-9.082-11.482c-1.688-2.131-4.449-3.559-7.119-3.559
	c-2.399,0-4.629,0.981-6.141,2.498l16.014,20.021l-17.082,21.187c1.781,1.601,4.095,2.224,6.145,2.224
	c2.405,0,4.713-0.72,6.76-3.381l10.064-12.729l0.023,0.04l6.116-7.698l-5.68-7.142L369.895,215.883z"/>
<path display="none" fill="#222222" d="M185.645,201.755c-5.848,0-10.645-4.692-10.645-10.537v-0.103h10.645v-7.199
	c0-9.294,6.254-16.284,15.545-16.284h10.957v0.634c0,5.838-4.28,9.91-9.92,10.536c-2.916,0.313-5.104,2.396-5.104,5.322v6.991
	h13.771v0.103c0,5.845-4.693,10.537-10.541,10.537h-3.23v31.826c0,5.837-4.596,10.539-10.432,10.539h-0.943v-42.365H185.645z"/>
<path display="none" fill="#222222" d="M214.33,243.277v-65.934c0-5.846,4.697-10.539,10.542-10.539h0.942v76.473H214.33
	L214.33,243.277z"/>
<path display="none" fill="#222222" d="M257.008,244.327c-15.021,0-24.627-12.099-24.627-27.123
	c0-15.035,11.07-27.138,26.092-27.138c15.025,0,26.086,12.213,26.086,27.24c0,2.922-2.291,4.795-5.227,4.795H244.7
	c1.565,6.474,6.147,11.174,12.93,11.174c6.263,0,9.29-0.84,12.627-0.84c4.597,0,8.455,2.924,10.019,7.194
	C275.27,242.34,265.984,244.327,257.008,244.327z M244.699,212.506h27.338c-1.879-6.466-6.682-11.693-13.566-11.693
	C251.479,200.813,246.361,205.927,244.699,212.506z"/>
<path display="none" fill="#222222" d="M346.952,243.277v-65.934c0-5.846,4.694-10.539,10.534-10.539h0.939v76.473H346.952
	L346.952,243.277z"/>
<path display="none" fill="#222222" d="M389.627,244.327c-15.021,0-24.619-12.099-24.619-27.123
	c0-15.035,11.059-27.138,26.084-27.138c15.026,0,26.084,12.213,26.084,27.24c0,2.922-2.295,4.795-5.21,4.795h-34.651
	c1.572,6.474,6.164,11.174,12.943,11.174c6.265,0,9.288-0.84,12.622-0.84c4.59,0,8.454,2.924,10.021,7.194
	C407.888,242.34,398.607,244.327,389.627,244.327z M377.314,212.506h27.345c-1.883-6.466-6.678-11.693-13.567-11.693
	C384.104,200.813,378.982,205.927,377.314,212.506z"/>
<path display="none" fill="#222222" d="M426.359,260.923c1.355-4.491,4.592-7.2,8.973-7.2c4.281,0,6.045,0.73,12.631,0.73
	c5.836,0,11.162-4.486,11.162-10.547v-2.391c-3.443,1.145-7.828,2.286-12.314,2.286c-13.982,0-25.458-11.573-25.458-26.599
	c0-15.035,11.783-27.137,26.813-27.137c5.222,0,9.813,0.317,13.457,1.459c5.011,1.568,8.977,4.703,8.977,11.371v40.177
	c0,12.524-8.867,22.12-21.291,22.12C440.134,265.193,431.685,262.907,426.359,260.923z M459.125,231.18v-29.424
	c0,0-5.112-1.039-10.64-1.039c-8.459,0-15.244,7.713-15.244,16.487c0,8.771,6.684,16.071,14.189,16.071
	C453.285,233.275,459.125,231.18,459.125,231.18z"/>
<path display="none" fill="#222222" d="M524.23,212.189v18.682c0,6.678-3.965,9.705-8.972,11.379
	c-3.655,1.242-9.394,2.077-18.469,2.077c-12.63,0-19.507-7.306-19.507-16.484s7.407-16.493,18.669-16.493h16.804
	c0-6.052-5.324-10.537-11.17-10.537c-6.572,0-8.343,0.736-12.617,0.736c-4.388,0-7.626-2.71-8.982-7.197
	c5.32-1.983,13.775-4.285,22.96-4.285C515.36,190.066,524.23,199.672,524.23,212.189z M512.757,220.961h-15.858
	c-5.218,0-7.728,3.02-7.728,6.152c0,3.129,2.613,6.683,9.295,6.683c7.308,0,11.256-0.94,14.291-1.679V220.961z"/>
<path display="none" fill="#222222" d="M533.517,243.277v-65.934c0-5.846,4.698-10.539,10.54-10.539H545v76.473H533.517
	L533.517,243.277z"/>
<path display="none" fill="#222222" d="M336.413,192.986c-2.086-2.084-4.688-2.711-6.986-2.711c-3.028,0-5.842,1.045-8.243,4.17
	L312.85,205.2l6.717,8.45L336.413,192.986z"/>
<path display="none" fill="#222222" d="M319.557,218.882l-7.179,9.028l9.744,12.145c1.979,2.396,5.009,4.065,8.14,4.065
	c2.813,0,5.631-1.149,7.403-2.925L319.557,218.882z"/>
<polygon display="none" fill="#222222" points="310.773,207.881 300.104,194.445 310.751,207.909 "/>
<polygon display="none" fill="#222222" points="298.434,240.157 310.262,225.279 310.232,225.232 "/>
<path display="none" fill="#222222" d="M310.751,207.909l-10.647-13.462c-1.979-2.497-5.217-4.172-8.347-4.172
	c-2.813,0-5.428,1.15-7.198,2.929l18.773,23.474l-20.027,24.84c2.09,1.875,4.801,2.604,7.203,2.604c2.82,0,5.525-0.842,7.926-3.963
	l11.799-14.924l0.028,0.045l7.171-9.024l-6.658-8.373L310.751,207.909z"/>
<path display="none" fill="#222222" d="M175,182.363v67.273h370v-67.273H175z M541.637,246.273H178.364v-60.547h363.272
	L541.637,246.273L541.637,246.273z"/>
<path display="none" fill="#222222" d="M210.027,234.293c-10.334,0-18.209-6.424-18.209-18.209c0-11.061,7.932-18.377,18.32-18.377
	s18.266,6.367,18.266,18.152C228.402,226.919,220.416,234.293,210.027,234.293z M210.027,204.857c-5.922,0-9.272,4.468-9.272,11.002
	c0,6.703,3.463,11.283,9.438,11.283c5.865,0,9.272-4.524,9.272-11.06C219.466,209.38,215.948,204.857,210.027,204.857z"/>
<path display="none" fill="#222222" d="M241.691,233.454h-8.881v-34.908c0,0,14.354,0,14.02,0c9.271,0,14.131,4.3,14.131,11.06
	c0,4.69-2.457,8.266-7.148,10.054l8.937,13.796h-9.998l-6.981-11.729l-4.078,0.334V233.454z M245.993,215.357
	c3.798-0.279,5.864-1.844,5.864-5.194c0-3.072-2.123-4.581-6.59-4.581c-0.168,0-3.744,0-3.744,0v9.887L245.993,215.357z"/>
<path display="none" fill="#222222" d="M265.872,233.454v-34.908h25.526v7.147h-16.813v6.703h13.518v7.095h-13.518v6.813h16.813
	v7.148L265.872,233.454L265.872,233.454z"/>
<path display="none" fill="#222222" d="M312.732,234.293c-11.17,0-18.769-6.646-18.769-18.152c0-11.451,7.373-18.434,18.824-18.434
	c4.468,0,9.774,1.006,13.125,3.018l-2.793,7.428c-3.295-1.898-6.703-2.904-10.054-2.904c-6.256,0-10.277,4.189-10.277,10.669
	c0,6.981,3.52,11.115,10.167,11.115c2.01,0,4.133-0.447,5.585-1.062v-5.141h-8.602v-7.036h16.645v17.261
	C322.786,233.119,317.814,234.293,312.732,234.293z"/>
<path display="none" fill="#222222" d="M348.363,234.293c-10.334,0-18.209-6.424-18.209-18.209c0-11.061,7.933-18.377,18.32-18.377
	c10.389,0,18.264,6.367,18.264,18.152C366.739,226.919,358.753,234.293,348.363,234.293z M348.363,204.857
	c-5.92,0-9.271,4.468-9.271,11.002c0,6.703,3.463,11.283,9.438,11.283c5.865,0,9.271-4.524,9.271-11.06
	C357.802,209.38,354.285,204.857,348.363,204.857z"/>
<path display="none" fill="none" d="M407.715,205.582c-0.168,0-3.743,0-3.743,0v9.887l4.469-0.111
	c3.799-0.278,5.864-1.842,5.864-5.193C414.305,207.091,412.183,205.582,407.715,205.582z"/>
<path display="none" fill="#459A41" d="M416.26,219.658c4.692-1.788,7.149-5.362,7.149-10.055c0-6.758-4.86-11.059-14.132-11.059
	c0.148,0-2.587,0-5.68,0h-8.32c-0.006,0-0.02,0-0.02,0v22.646v7.832v4.763h8.34h0.541v-4.763v-6.965l4.077-0.334l6.981,11.729h9.999
	L416.26,219.658z M408.439,215.357l-4.469,0.11v-9.887c0,0,3.575,0,3.743,0c4.468,0,6.59,1.509,6.59,4.581
	C414.305,213.516,412.238,215.078,408.439,215.357z"/>
<path display="none" fill="#459A41" d="M443.123,234.293c-9.104,0-15.36-4.47-15.36-14.299v-21.448h8.825v20.274
	c0,5.25,2.122,7.986,6.759,7.986c4.188,0,6.367-2.232,6.367-7.651c0,0.112,0-20.609,0-20.609h8.825c0,0,0,20.499,0,20.666
	C458.539,229.32,452.506,234.293,443.123,234.293z"/>
<path display="none" fill="#459A41" d="M488.249,198.546h8.322v35.244h-9.439l-14.689-22.957v22.621h-8.321v-34.908h9.605
	l14.522,22.677V198.546L488.249,198.546z"/>
<path display="none" fill="#459A41" d="M519.356,223.68c0-2.346-2.515-3.128-7.149-4.412c-5.084-1.396-11.227-3.742-11.227-10.725
	c0-6.479,4.746-10.779,13.404-10.779c5.475,0,9.72,1.229,13.069,3.071l-1.731,7.317c-3.463-1.844-7.818-3.072-11.281-3.072
	c-3.072,0-4.58,1.063-4.58,2.96c0,2.291,3.183,3.185,7.373,4.356c5.36,1.453,10.947,3.91,10.947,10.558s-5.14,11.339-14.3,11.339
	c-5.193,0-10.221-1.341-13.461-3.186l1.676-7.373c3.464,1.845,7.652,3.24,11.953,3.24
	C517.178,226.975,519.356,225.803,519.356,223.68z"/>
<polygon display="none" fill="#222222" points="395.259,231.792 395.259,229.025 395.259,221.193 380.755,198.546 371.146,198.546 
	371.146,233.454 379.471,233.454 379.471,210.833 394.159,233.79 395.257,233.79 395.257,231.792 "/>
<linearGradient id="SVGID_1_" gradientUnits="userSpaceOnUse" x1="381.0273" y1="-24.5044" x2="391.2588" y2="-24.5044" gradientTransform="matrix(1 0 0 -1 4 195)">
	<stop  offset="0" style="stop-color:#FFFFFF;stop-opacity:0"/>
	<stop  offset="1" style="stop-color:#0A1A21;stop-opacity:0.8"/>
</linearGradient>
<polygon display="none" fill="url(#SVGID_1_)" points="385.027,205.219 386.925,222.482 394.12,233.79 395.257,233.79 
	395.257,231.792 395.259,231.792 395.259,229.025 395.259,221.154 "/>
<linearGradient id="SVGID_2_" gradientUnits="userSpaceOnUse" x1="406.2266" y1="-3.5449" x2="406.2266" y2="-38.7861" gradientTransform="matrix(1 0 0 -1 4 195)">
	<stop  offset="0.3333" style="stop-color:#231F20;stop-opacity:0"/>
	<stop  offset="1" style="stop-color:#231F20;stop-opacity:0.35"/>
</linearGradient>
<path display="none" fill="url(#SVGID_2_)" d="M416.26,219.658c4.692-1.788,7.149-5.362,7.149-10.055
	c0-6.758-4.86-11.059-14.132-11.059c0.148,0-2.587,0-5.68,0h-8.32c-0.006,0-0.02,0-0.02,0v22.646v7.832v4.763h8.34h0.541v-4.763
	v-6.965l4.077-0.334l6.981,11.729h9.999L416.26,219.658z M408.439,215.357l-4.469,0.11v-9.887c0,0,3.575,0,3.743,0
	c4.468,0,6.59,1.509,6.59,4.581C414.305,213.516,412.238,215.078,408.439,215.357z"/>
<linearGradient id="SVGID_3_" gradientUnits="userSpaceOnUse" x1="439.1504" y1="-3.5459" x2="439.1504" y2="-39.293" gradientTransform="matrix(1 0 0 -1 4 195)">
	<stop  offset="0.3333" style="stop-color:#231F20;stop-opacity:0"/>
	<stop  offset="1" style="stop-color:#231F20;stop-opacity:0.35"/>
</linearGradient>
<path display="none" fill="url(#SVGID_3_)" d="M443.123,234.293c-9.104,0-15.36-4.47-15.36-14.299v-21.448h8.825v20.274
	c0,5.25,2.122,7.986,6.759,7.986c4.188,0,6.367-2.232,6.367-7.651c0,0.112,0-20.609,0-20.609h8.825c0,0,0,20.499,0,20.666
	C458.539,229.32,452.506,234.293,443.123,234.293z"/>
<linearGradient id="SVGID_4_" gradientUnits="userSpaceOnUse" x1="476.3457" y1="-3.5459" x2="476.3457" y2="-38.79" gradientTransform="matrix(1 0 0 -1 4 195)">
	<stop  offset="0.3333" style="stop-color:#231F20;stop-opacity:0"/>
	<stop  offset="1" style="stop-color:#231F20;stop-opacity:0.35"/>
</linearGradient>
<path display="none" fill="url(#SVGID_4_)" d="M488.249,198.546h8.322v35.244h-9.439l-14.689-22.957v22.621h-8.321v-34.908h9.605
	l14.522,22.677V198.546L488.249,198.546z"/>
<linearGradient id="SVGID_5_" gradientUnits="userSpaceOnUse" x1="510.3008" y1="-2.7637" x2="510.3008" y2="-39.293" gradientTransform="matrix(1 0 0 -1 4 195)">
	<stop  offset="0.3333" style="stop-color:#231F20;stop-opacity:0"/>
	<stop  offset="1" style="stop-color:#231F20;stop-opacity:0.35"/>
</linearGradient>
<path display="none" fill="url(#SVGID_5_)" d="M519.356,223.68c0-2.346-2.515-3.128-7.149-4.412
	c-5.084-1.396-11.227-3.742-11.227-10.725c0-6.479,4.746-10.779,13.404-10.779c5.475,0,9.72,1.229,13.069,3.071l-1.731,7.317
	c-3.463-1.844-7.818-3.072-11.281-3.072c-3.072,0-4.58,1.063-4.58,2.96c0,2.291,3.183,3.185,7.373,4.356
	c5.36,1.453,10.947,3.91,10.947,10.558s-5.14,11.339-14.3,11.339c-5.193,0-10.221-1.341-13.461-3.186l1.676-7.373
	c3.464,1.845,7.652,3.24,11.953,3.24C517.178,226.975,519.356,225.803,519.356,223.68z"/>
<path display="none" fill="#010101" d="M410.543,122.094c-3.911-6.402-8.255-11.297-13.034-14.681
	c-1.51-1.052-2.961-1.864-4.354-2.437c-2.129-0.914-4.151-1.383-6.072-1.406c-0.938-0.022-1.852,0.058-2.744,0.24
	c-0.182,0.045-0.376,0.08-0.583,0.104c-2.104,0.549-4.024,1.738-5.763,3.566c-5.876,6.105-8.814,18.031-8.814,35.774
	c0,1.464,0.16,3.603,0.48,6.414c0.457-0.435,1.738-0.767,3.842-0.995c3.43-0.343,9.352-0.754,17.768-1.234l-0.273-0.033
	l10.393-0.206c3.453,2.264,5.604,5.248,6.448,8.952c0.229,1.234,0.343,4.22,0.343,8.951c0,0.092-0.113,1.602-0.343,4.527
	c-0.457,3.042-1.27,5.02-2.436,5.936c-1.189,0.982-3.809,1.795-7.854,2.436c-4.186,0.982-6.482,1.543-6.895,1.682
	c-0.389,0.137-5.088,1.018-14.098,2.641c-0.184,0-0.377,0-0.584,0c0,0.092,0.023,0.172,0.068,0.24
	c6.725,23.394,15.995,35.09,27.818,35.09c10.609,0,17.425-6.071,20.441-18.215c0.55-2.265,0.961-4.664,1.235-7.203
	c0.709,0,1.463-0.012,2.265-0.033c0.32,0,0.663,0,1.028,0c0.776-0.023,1.589-0.059,2.435-0.104
	c-0.617,6.746-2.641,13.184-6.069,19.312c-3.499,6.196-8.713,10.016-15.643,11.457c-13.948,3.087-25.771-0.63-35.467-11.147
	c-5.188-5.603-11.455-9.228-18.797-10.873c-7.202-1.602-14.485-2.093-21.849-1.476c0.344,0.457,0.721,0.938,1.133,1.44
	c1.896,2.285,3.178,4.858,3.841,7.718v-0.069c0.435,1.578,0.389,3.168-0.138,4.77v-0.068c-0.16,0.525-0.354,1.04-0.584,1.543
	c1.168,0.549,2.22,1.292,3.156,2.229h0.068c1.212,1.28,2.092,2.769,2.643,4.459l0.033,0.034c0.457,1.532,0.412,3.156-0.138,4.871
	c-0.823,2.492-1.829,4.882-3.019,7.169c0.342,0.411,0.686,0.813,1.028,1.2h-0.034c3.453,4.162,3.944,8.187,1.475,12.073
	c-0.479,0.73-1.063,1.464-1.748,2.195l-0.035,0.068c-4.023,4.253-8.814,5.432-14.371,3.532c-1.669-0.595-2.824-1.589-3.465-2.983
	c-0.479-0.938-0.938-1.875-1.372-2.813c-6.744-14.245-12.358-28.995-16.841-44.247c-1.145,0.023-2.241-0.012-3.293-0.104
	c-4.849-0.479-8.758-2.526-11.73-6.14v-0.035c-6.447-7.957-7.261-16.565-2.438-25.827c0.709-1.419,1.647-2.631,2.813-3.637
	c9.673-8.666,20.912-14.748,33.717-18.247c8.575-2.378,16.499-6.116,23.771-11.217c0.938-0.687,1.715-1.497,2.333-2.435v0.067
	c4.32-6.563,8.22-13.491,11.697-20.785c1.211-2.606,2.775-4.858,4.697-6.757c2.379-2.332,5.064-4.104,8.061-5.316h0.068
	c10.178-4.046,19.745-2.674,28.709,4.117h0.035c2.698,2.08,5.133,4.437,7.307,7.065c1.853,2.264,3.578,4.584,5.179,6.963
	c-0.595,0.206-1.155,0.39-1.681,0.549c-0.319,0.114-0.63,0.218-0.926,0.31C412.498,121.385,411.549,121.729,410.543,122.094z
	 M431.467,186.508c-0.983,0.047-1.772,0.08-2.368,0.104c-0.411,0.047-0.72,0.08-0.926,0.104h-0.067
	c-0.274,0.046-0.857,0.114-1.75,0.206c-0.113,0-0.239,0-0.377,0h-0.139c0-0.092,0-0.194,0-0.31
	c-0.091-4.186-0.136-6.426-0.136-6.723c0-8.393-0.755-16.44-2.265-24.146c0.595-0.047,1.35-0.137,2.265-0.274
	c0.319-0.046,0.649-0.092,0.993-0.138c0.663-0.113,1.395-0.217,2.195-0.309C430.699,165.447,431.558,175.943,431.467,186.508z
	 M427.693,148.471l-2.229,0.686c-0.298,0.068-0.617,0.148-0.961,0.24c-0.479,0.138-0.983,0.285-1.509,0.445
	c-0.297,0.092-0.595,0.172-0.893,0.239c-1.373-5.373-3.145-10.563-5.316-15.571c-1.074-2.676-2.218-5.168-3.43-7.477
	c0.571-0.184,1.154-0.377,1.75-0.583c0.389-0.138,0.776-0.275,1.166-0.412c0.297-0.115,0.604-0.229,0.925-0.343
	c0.55-0.206,1.145-0.424,1.784-0.652c4.023,7.18,6.905,14.932,8.645,23.255C427.625,148.344,427.647,148.4,427.693,148.471z
	 M374.014,151.008c-1.761,0.32-2.803,0.549-3.121,0.686c-0.504,0.229-0.813,0.367-0.927,0.412c0.229,1.578,0.47,3.293,0.722,5.146
	c0.502,3.498,1.074,6.916,1.715,10.255c0.937,4.711,1.988,9.216,3.154,13.515c3.683-1.28,6.563-2.114,8.645-2.504
	c2.081-0.365,5.613-1.121,10.599-2.265c4.939-1.12,8.05-2.274,9.33-3.464c1.555-1.486,2.332-4.048,2.332-7.684
	c0-4.275-0.114-6.895-0.343-7.854c-0.617-2.425-2.069-4.711-4.356-6.86c-0.524-0.479-1.063-0.961-1.61-1.439
	c-10.817,0.205-18.442,0.686-22.879,1.439C375.991,150.643,374.904,150.848,374.014,151.008z M395.827,156.873
	c-0.32,0.801-0.675,1.498-1.063,2.093c-0.662,1.099-0.822,2.207-0.479,3.326c0.319,1.121,0.584,2.104,0.789,2.95
	c0.138,0.822,1.463,1.896,3.979,3.224c0,0.32-0.893,0.479-2.676,0.479s-2.87-1.086-3.259-3.258
	c-0.479-2.149-0.721-3.511-0.721-4.082c0-0.525,0.193-1.727,0.584-3.602c0.045-0.32,0.125-0.641,0.24-0.96
	c0.547-1.258,1.635-1.955,3.258-2.093C396.273,155.615,396.057,156.256,395.827,156.873z M366.158,115.852
	c-1.145,1.897-2.697,5.739-4.665,11.523c-1.716,4.916-3.671,8.678-5.865,11.284c-3.155,3.819-7.765,6.803-13.823,8.952
	c-4.527,1.533-8.117,2.688-10.77,3.465c-0.252,0.48-1.167,2.584-2.744,6.313c-0.572,1.76-0.973,3.029-1.201,3.807
	c-0.113,0.39-0.263,1.007-0.445,1.853c-0.092,0.39-0.205,0.834-0.344,1.338c-0.137,0.64-0.308,1.349-0.515,2.126
	c-0.663,2.79-0.812,5.18-0.445,7.17c0.251,2.034,0.515,3.578,0.789,4.631c0.435,2.035,0.981,4.08,1.646,6.14
	c0.961,3.133,3.134,6.241,6.518,9.329c2.172-0.137,4.493-0.205,6.964-0.205c10.427,0,18.453,1.349,24.078,4.048
	c3.521,1.623,7.065,4.584,10.633,8.883c3.683,4.392,7.044,7.329,10.084,8.815c2.448,1.304,5.455,2.299,9.021,2.984
	c-9.193-4.619-16.419-16.567-21.679-35.845c-1.258-4.597-2.343-9.41-3.259-14.44c-0.708-3.864-1.349-7.865-1.921-12.004
	c-0.73-8.142-1.098-12.279-1.098-12.418c0-2.813,0.104-5.545,0.31-8.197c0.046-0.961,0.125-1.897,0.24-2.813
	c0.366-3.956,0.948-7.763,1.748-11.421c1.235-5.603,2.905-10.13,5.009-13.583C370.926,109.779,368.17,112.535,366.158,115.852z
	 M324.072,164.041c1.279-4.664,2.847-8.598,4.697-11.799c-6.517,2.4-11.799,4.482-15.847,6.242
	c-6.858,2.928-11.96,5.396-15.297,7.408c-0.047,0.023-0.115,0.047-0.206,0.068c-1.854,1.098-3.305,2.391-4.355,3.876l-1.406,2.778
	c-0.137,0.344-0.229,0.697-0.275,1.063c-0.754,3.133-1.131,6.151-1.131,9.057c0,2.813,0.125,4.732,0.377,5.762
	c0.045,0.115,0.092,0.252,0.137,0.412c0.229,0.938,0.594,1.896,1.1,2.881c0.32,0.641,0.674,1.234,1.063,1.784l0.139,0.204
	c0.272,0.299,0.537,0.584,0.789,0.858c0.435,0.39,0.892,0.742,1.371,1.063l4.287,1.27c0.184,0,0.366,0,0.549,0
	c10.771,0,18.465-0.537,23.084-1.611c2.631-0.687,5.705-1.188,9.228-1.51c-4.345-3.453-6.894-6.402-7.647-8.85
	c-0.55-1.762-0.961-3.796-1.235-6.105c-0.138-0.961-0.206-1.942-0.206-2.949c-0.229-3.385,0.021-7.101,0.755-11.147
	c0.022-0.183,0.058-0.389,0.103-0.616C324.209,163.857,324.186,163.813,324.072,164.041z M332.132,212.131
	c0.961-1.761,1.44-2.87,1.44-3.326c0-0.55-1.188-1.934-3.566-4.15c-2.378-2.174-3.613-3.809-3.705-4.905
	c-0.068-1.075,0.092-1.863,0.48-2.366c-1.053,0.16-2.08,0.344-3.088,0.549c-1.715,0.365-3.545,0.687-5.487,0.961
	c-2.447,0.273-5.021,0.457-7.718,0.549c-0.389,0-0.812,0-1.27,0c-0.068,0-0.113,0-0.137,0c0.389,0.252,0.857,0.972,1.404,2.16
	c0.572,1.029,1.179,2.355,1.818,3.979c0.526,1.235,1.041,2.664,1.543,4.288c0.436,1.166,0.881,2.445,1.34,3.841
	c0.73,2.378,1.736,5.718,3.018,10.017c0.48,1.578,1.007,3.293,1.578,5.146c3.087,10.039,5.751,15.996,7.992,17.87
	c0.502,0.412,0.982,0.617,1.439,0.617c1.602,0,3.02-0.205,4.253-0.617c1.464-0.525,2.664-1.338,3.603-2.436
	c0.822-1.052,1.35-2.148,1.578-3.293c0.365-1.234,0.067-2.184-0.893-2.847c-1.213-0.687-2.013-1.213-2.4-1.578
	c-0.344-0.389-0.47-0.96-0.377-1.716c0-0.777,0.033-1.188,0.103-1.234c0.046-0.091,0.538-1.416,1.476-3.979
	c0.092-0.32,0.205-0.651,0.344-0.994c1.166-3.202,1.748-5.134,1.748-5.797c0-1.602-1.313-2.768-3.943-3.499
	c-1.327-0.39-2.219-0.743-2.676-1.063c-0.846-0.57-1.27-1.383-1.27-2.436c0-0.596,0.319-1.577,0.96-2.949
	C331.857,212.668,331.995,212.404,332.132,212.131z"/>
<path display="none" fill="#4A75AA" d="M509.637,105.973c0.411,1.188,0.239,2.823-0.516,4.904c-1.531-0.229-3.291-0.457-5.281-0.686
	c-1.921-0.252-2.87-0.366-2.847-0.344c-0.184,0.366-0.618,1.133-1.304,2.299c-0.664,1.119-0.184,2.035,1.439,2.744
	c1.602,0.664,4.196,0.172,7.786-1.476c0.16,0.229,0.435,0.515,0.823,0.856c0,0.047,0,0.114,0,0.207c0,0.297-0.309,0.686-0.926,1.166
	c-0.848,0.664-1.636,1.246-2.368,1.75c-3.589,1.396-6.311,1.304-8.162-0.274c-0.458-0.297-0.801-0.526-1.028-0.687
	c-0.389-0.389-0.585-1.121-0.585-2.195c0-1.303,0.265-2.538,0.79-3.704c0.436-0.915,0.88-1.578,1.338-1.989
	c0.068-0.206,0.24-0.445,0.516-0.721c0-0.184,0.148-0.4,0.443-0.651c0.275-0.206,1.911-0.766,4.906-1.681
	C507.613,104.577,509.271,104.736,509.637,105.973z M499.449,152.688c3.613-1.807,6.77-1.807,9.467,0
	c0.48,0.687,0.836,1.234,1.063,1.646c0.206,0.365,0.344,1.154,0.411,2.366c0.069,1.258-0.389,3.007-1.372,5.248
	c-0.981,2.194-3.04,3.007-6.175,2.436c-3.153-0.595-4.776-1.155-4.87-1.682c-0.112-0.502-0.238-1.257-0.376-2.263
	c-0.138-0.983-0.147-1.772-0.034-2.367c0.067-0.549,0.172-1.188,0.309-1.922c0.138-0.137,0.31-0.25,0.515-0.342
	c0.229-0.047,0.538-0.068,0.928-0.068c1.028,0,1.794,0.068,2.298,0.205c0.502,0.138,0.926,0.332,1.269,0.584l0.618,0.582
	c-0.114,0.32-0.824,0.525-2.127,0.617c-0.755,0-1.108,0.436-1.063,1.305c0,1.074,0.274,1.703,0.823,1.887
	c0.184,0.045,0.391,0.068,0.617,0.068c2.219,0,4.037-0.768,5.454-2.299c1.029-1.098,1.544-1.943,1.544-2.539
	c0-0.616-1.224-1.199-3.671-1.748c-0.571-0.047-1.131-0.068-1.681-0.068c-2.24-0.046-3.762-0.021-4.563,0.068
	c0-0.047-0.011-0.092-0.033-0.137c-0.114-0.115-0.241-0.229-0.378-0.345C498.74,153.215,499.083,152.803,499.449,152.688z
	 M450.606,159.377l0.272,0.721c-1.669,0.961-2.731,1.979-3.188,3.053c-0.526,1.211-0.365,2.457,0.479,3.738
	c0.961,0.893,2.116,1.098,3.465,0.617c1.351-0.503,2.104-1.029,2.265-1.578c0.159-0.595,0-1.086-0.479-1.475
	c-0.595-0.273-0.972-0.537-1.133-0.789l0.479-0.721c1.67,0.068,2.698,0.525,3.087,1.371c0.14,0.299,0.206,1.019,0.206,2.162
	c0,1.098-0.09,1.828-0.272,2.194c-0.205,0.343-0.903,0.802-2.092,1.372c-3.293,1.258-5.433,1.395-6.415,0.411
	c-1.054-1.097-1.771-2.24-2.16-3.431c-0.274-0.822-0.413-1.485-0.413-1.988c0-2.195,0.139-3.532,0.413-4.014
	C445.827,159.88,447.656,159.331,450.606,159.377z M401.762,150.391c2.287,2.149,3.739,4.437,4.356,6.86
	c0.229,0.96,0.343,3.578,0.343,7.854c0,3.636-0.777,6.196-2.332,7.684c-1.28,1.189-4.391,2.344-9.33,3.464
	c-4.984,1.144-8.518,1.897-10.599,2.265c-2.081,0.39-4.962,1.224-8.644,2.504c-1.168-4.299-2.22-8.804-3.156-13.515
	c-0.641-3.339-1.211-6.757-1.715-10.255c-0.252-1.854-0.492-3.566-0.721-5.146c0.113-0.045,0.424-0.183,0.926-0.412
	c0.319-0.137,1.361-0.364,3.121-0.686c-0.251,4.162,2.311,6.448,7.684,6.86l11.525-0.823c-0.115,0.319-0.193,0.641-0.24,0.96
	c-0.39,1.875-0.584,3.075-0.584,3.603c0,0.57,0.241,1.932,0.722,4.08c0.389,2.174,1.476,3.26,3.259,3.26s2.676-0.16,2.676-0.48
	c-2.517-1.326-3.842-2.4-3.979-3.224c-0.205-0.847-0.469-1.829-0.789-2.95c-0.344-1.119-0.184-2.229,0.48-3.326
	c0.389-0.595,0.741-1.292,1.063-2.093l0.79-0.034C399.658,155.764,401.373,153.614,401.762,150.391z M290.766,188.909
	c0.778-8.644,3.603-14.292,8.473-16.944c11.891-4.459,20.066-6.666,24.525-6.619l0.309-1.305c0.113-0.229,0.138-0.184,0.068,0.139
	c-0.047,0.229-0.08,0.435-0.104,0.616c-0.732,4.048-0.982,7.765-0.756,11.147c0,1.007,0.07,1.988,0.207,2.949
	c0.273,2.311,0.687,4.346,1.234,6.105c0.756,2.445,3.305,5.396,7.648,8.85c-3.521,0.32-6.598,0.823-9.227,1.51
	c-4.619,1.074-12.313,1.611-23.086,1.611c-0.182,0-0.365,0-0.548,0l-4.288-1.27c-0.479-0.32-0.937-0.674-1.371-1.063
	c-0.252-0.274-0.516-0.561-0.789-0.858l-0.138-0.204c-0.389-0.55-0.741-1.144-1.063-1.784
	C291.359,190.807,290.994,189.848,290.766,188.909z M332.132,212.131c-0.137,0.273-0.274,0.537-0.411,0.789
	c-0.641,1.372-0.96,2.354-0.96,2.949c0,1.053,0.423,1.863,1.269,2.436c0.459,0.32,1.35,0.676,2.677,1.063
	c2.63,0.731,3.944,1.897,3.944,3.499c0,0.662-0.584,2.595-1.75,5.797c-0.137,0.343-0.25,0.674-0.344,0.994
	c-0.937,2.563-1.429,3.888-1.475,3.979c-0.068,0.047-0.104,0.457-0.104,1.234c-0.092,0.756,0.035,1.327,0.377,1.716
	c0.39,0.365,1.188,0.892,2.401,1.578c0.96,0.663,1.257,1.61,0.892,2.847c-0.229,1.145-0.754,2.241-1.578,3.293
	c-0.938,1.098-2.137,1.909-3.602,2.436c-1.234,0.412-2.652,0.617-4.253,0.617c-0.457,0-0.938-0.205-1.44-0.617
	c-2.24-1.874-4.904-7.831-7.991-17.87c-0.571-1.853-1.099-3.567-1.578-5.146c-1.28-4.299-2.286-7.639-3.019-10.017
	c-0.459-1.396-0.903-2.675-1.338-3.841c-0.502-1.624-1.018-3.053-1.543-4.288c-0.642-1.623-1.248-2.949-1.818-3.979
	c-0.549-1.188-1.018-1.908-1.405-2.16c0.022,0,0.067,0,0.138,0c0.457,0,0.879,0,1.269,0c2.698-0.092,5.271-0.274,7.718-0.549
	c1.943-0.274,3.773-0.596,5.488-0.961c1.007-0.205,2.035-0.389,3.087-0.549c-0.39,0.503-0.55,1.291-0.479,2.366
	c0.09,1.099,1.326,2.731,3.704,4.905c2.378,2.218,3.566,3.602,3.566,4.149C333.572,209.261,333.093,210.37,332.132,212.131z"/>
<path display="none" fill="#F6ED1E" d="M427.693,148.471c1.35-0.345,4.207-1.019,8.574-2.023c6.996-1.578,15.219-3.168,24.661-4.77
	c9.422-1.623,17.276-2.857,23.564-3.703c6.312-0.893,11.73-1.716,16.259-2.471s7.42-1.199,8.679-1.338
	c1.257-0.137,5.1-0.8,11.523-1.988c6.426-1.188,14.44-2.104,24.045-2.744c-1.371,1.875-17.836,6.129-49.394,12.76
	c-31.556,6.632-51.529,10.576-59.922,11.834c-2.63,0.365-4.895,0.697-6.792,0.994c-0.802,0.092-1.532,0.194-2.195,0.309
	c-0.344,0.046-0.675,0.092-0.993,0.138c-0.915,0.138-1.67,0.229-2.266,0.274c-1.052,0.138-1.761,0.229-2.127,0.273
	c-1.143,0.022-2.525,0.137-4.148,0.344l-4.322-0.549c0-0.092-0.068-0.229-0.206-0.412c-0.114-0.159-0.172-0.617-0.172-1.371
	c0-0.848,1.293-1.625,3.877-2.334l0.445-0.103c1.12-0.319,2.894-0.823,5.316-1.51c0.298-0.067,0.596-0.147,0.893-0.239
	c0.524-0.16,1.028-0.309,1.509-0.445c0.344-0.092,0.663-0.172,0.961-0.24L427.693,148.471z M413.355,127.033
	c-2.607,0.891-5.19,1.691-7.754,2.4c-4.641,1.28-8.15,1.418-10.528,0.411c-0.777-0.137-1.234-0.399-1.372-0.788
	c6.15-2.767,11.765-5.088,16.842-6.963c1.006-0.365,1.955-0.709,2.848-1.029c0.297-0.09,0.605-0.193,0.927-0.309
	c0.523-0.16,1.085-0.343,1.68-0.549c4.025-1.395,9.514-3.145,16.465-5.248c8.575-2.63,14.131-3.991,16.67-4.082
	c2.516-0.137,3.67-0.034,3.464,0.309c-7.134,3.567-13.238,6.277-18.314,8.129c-5.102,1.854-10.006,3.683-14.715,5.488
	c-0.206,0.069-0.4,0.149-0.584,0.24c-0.641,0.229-1.234,0.445-1.784,0.652c-0.319,0.113-0.628,0.229-0.925,0.343
	c-0.39,0.137-0.777,0.274-1.166,0.412C414.511,126.654,413.928,126.85,413.355,127.033z M431.467,186.508
	c1.165-0.046,2.688-0.091,4.563-0.137c4.437-0.092,10.919-0.023,19.447,0.206c0-0.138,2.32-0.093,6.964,0.137
	c4.869,0.229,8.095,0.503,9.673,0.823c-2.905,1.145-5.042,1.715-6.414,1.715c-1.372-0.021-7.192,0.492-17.46,1.544
	c-6.518,0.595-12.177,1.028-16.979,1.304c-0.846,0.045-1.656,0.08-2.435,0.104c-0.365,0-0.708,0-1.028,0
	c-0.802,0.021-1.556,0.033-2.265,0.033c-0.663,0-1.304,0-1.922,0c-6.127,0-9.74,0.093-10.838,0.274l-8.438-0.926
	c-0.113-0.069-0.171-0.492-0.171-1.271c0-0.777,0.058-1.166,0.171-1.166c0.068,0.045,0.138,0.172,0.206,0.377
	c1.281-1.188,5.362-1.92,12.245-2.194c4.094-0.183,7.112-0.32,9.055-0.411h0.139c0.138,0,0.264,0,0.377,0
	c0.893-0.092,1.476-0.16,1.75-0.206h0.067c0.206-0.022,0.516-0.057,0.926-0.103C429.693,186.588,430.482,186.555,431.467,186.508z"
	/>
<path display="none" fill="#CB4646" d="M532.515,141.232c0,0.091,0,0.183,0,0.273c0,0.663-0.272,1.486-0.822,2.471
	c2.974,0.846,4.87,1.475,5.693,1.887c-0.093,1.166-1.2,1.555-3.328,1.166c-2.147-0.436-2.892-0.299-2.229,0.41
	c0.687,0.687,1.35,1.465,1.989,2.334c0,0.595-0.32,1.097-0.96,1.509c-0.801-0.503-2.205-1.612-4.219-3.327
	c-1.716,1.875-3.087,3.1-4.116,3.67c-0.364-0.16-0.584-0.273-0.651-0.343c-0.16-0.093-0.24-0.789-0.24-2.093
	c0-1.486,0.572-2.938,1.715-4.355c-1.12-1.007-2.046-1.854-2.777-2.539c0-0.411-0.058-0.788-0.173-1.131
	c0.185-0.114,0.274-0.241,0.274-0.378c0.641,0.137,1.544,0.583,2.711,1.338c0.663,0.16,1.405,0.366,2.229,0.617
	c0.25-0.183,0.503-0.366,0.755-0.55c0.251-1.051,0.938-1.978,2.058-2.777c1.486-1.053,2.229-0.596,2.229,1.372
	C532.606,140.945,532.563,141.096,532.515,141.232z M440.968,94.756l0.206,1.646c-0.663,1.898-1.728,3.728-3.189,5.489
	c0.319,0.868,0.503,1.885,0.548,3.053l-0.548,0.822c-0.642-0.183-1.452-0.57-2.437-1.166c-2.218,2.012-4.642,3.305-7.271,3.877
	c0.364-1.304,1.749-3.259,4.149-5.865c-1.485-1.006-3.234-2.287-5.248-3.842c3.818-1.006,6.678-0.926,8.575,0.24
	C438.155,96.563,439.893,95.145,440.968,94.756z M492.314,175.12c0.365-0.96,1.041-1.771,2.023-2.435
	c0.868-0.642,1.521-0.813,1.955-0.516c0.113,0,0.194,0,0.239,0l0.067,0.344c0.161,0.342,0.24,0.846,0.24,1.508
	c0,0.824-0.343,1.545-1.029,2.162l8.303,1.063c0.046,2.059-3.235,2.605-9.846,1.646c0.732,1.418,1.1,2.629,1.1,3.635
	c0,1.076,0,1.625,0,1.646c0,0.092-0.081,0.206-0.241,0.344l-1.029,0.515c-0.686-1.144-1.45-2.755-2.298-4.837
	c-1.67,1.074-3.019,1.716-4.047,1.922c-1.029-0.344-1.704-0.778-2.023-1.305c0.755-1.006,2.241-1.978,4.458-2.916
	c-0.388-0.434-0.766-1.027-1.132-1.782c-0.73-1.897-1.097-2.802-1.097-2.71c0-2.379,0.902-2.332,2.709,0.138
	c0.093,0.183,0.206,0.343,0.343,0.479c0.252,0.273,0.526,0.595,0.824,0.961C491.972,175.006,492.132,175.052,492.314,175.12z"/>
<path display="none" fill="#FFFFFF" d="M413.355,127.033c1.212,2.309,2.354,4.801,3.43,7.477c2.173,5.008,3.943,10.198,5.316,15.571
	c-2.424,0.687-4.196,1.188-5.316,1.51l-0.445,0.103c-2.584,0.709-3.877,1.486-3.877,2.334c0,0.754,0.059,1.211,0.172,1.371
	c0.139,0.184,0.206,0.32,0.206,0.412l4.322,0.549c1.623-0.207,3.007-0.32,4.148-0.344c0.366-0.046,1.075-0.137,2.128-0.273
	c1.51,7.705,2.265,15.755,2.265,24.146c0,0.298,0.045,2.538,0.136,6.724c0,0.115,0,0.218,0,0.31
	c-1.941,0.091-4.961,0.229-9.055,0.411c-6.883,0.273-10.964,1.006-12.245,2.195c-0.068-0.205-0.138-0.332-0.206-0.377
	c-0.113,0-0.171,0.389-0.171,1.166c0,0.776,0.058,1.199,0.171,1.27l8.438,0.926c1.099-0.183,4.712-0.273,10.839-0.273
	c0.617,0,1.259,0,1.922,0c-0.274,2.537-0.687,4.938-1.235,7.203c-3.018,12.143-9.832,18.213-20.441,18.213
	c-11.823,0-21.096-11.695-27.818-35.09c-0.045-0.067-0.068-0.147-0.068-0.239c0.207,0,0.4,0,0.584,0
	c9.01-1.623,13.709-2.505,14.098-2.642c0.412-0.138,2.709-0.697,6.895-1.681c4.047-0.642,6.665-1.452,7.854-2.437
	c1.166-0.914,1.979-2.893,2.436-5.935c0.229-2.927,0.343-4.437,0.343-4.526c0-4.732-0.113-7.717-0.343-8.953
	c-0.846-3.703-2.995-6.688-6.448-8.951l-10.393,0.206l0.273,0.034c-8.416,0.479-14.338,0.892-17.768,1.233
	c-2.104,0.229-3.385,0.562-3.842,0.995c-0.32-2.813-0.48-4.95-0.48-6.414c0-17.744,2.938-29.669,8.814-35.773
	c1.738-1.83,3.658-3.02,5.763-3.567c0.207-0.022,0.401-0.058,0.583-0.103c0.893-0.184,1.809-0.264,2.744-0.24
	c1.921,0.022,3.943,0.492,6.072,1.406c1.395,0.571,2.846,1.383,4.354,2.436c4.779,3.384,9.123,8.277,13.034,14.681
	c-5.077,1.875-10.69,4.196-16.842,6.962c0.138,0.391,0.595,0.652,1.372,0.789c2.378,1.008,5.889,0.869,10.528-0.41
	C408.165,128.725,410.748,127.924,413.355,127.033z M366.158,115.852c2.012-3.316,4.768-6.072,8.267-8.267
	c-2.104,3.453-3.772,7.979-5.009,13.583c-0.8,3.659-1.382,7.465-1.748,11.421c-0.115,0.914-0.193,1.853-0.24,2.813
	c-0.205,2.652-0.31,5.385-0.31,8.197c0,0.137,0.366,4.275,1.098,12.416c0.572,4.14,1.214,8.141,1.921,12.006
	c0.916,5.029,2.002,9.844,3.26,14.439c5.258,19.275,12.483,31.225,21.678,35.844c-3.566-0.686-6.573-1.681-9.021-2.983
	c-3.039-1.486-6.4-4.425-10.084-8.815c-3.566-4.299-7.111-7.26-10.633-8.883c-5.625-2.699-13.65-4.048-24.078-4.048
	c-2.471,0-4.792,0.067-6.964,0.205c-3.384-3.087-5.556-6.196-6.517-9.329c-0.664-2.059-1.213-4.104-1.646-6.141
	c-0.275-1.052-0.538-2.596-0.789-4.631c-0.365-1.988-0.218-4.379,0.445-7.168c0.207-0.777,0.378-1.486,0.516-2.127
	c0.137-0.504,0.252-0.949,0.342-1.338c0.185-0.846,0.332-1.463,0.446-1.852c0.229-0.777,0.63-2.047,1.201-3.809
	c1.577-3.728,2.492-5.83,2.744-6.312c2.651-0.777,6.241-1.933,10.771-3.464c6.06-2.15,10.668-5.135,13.822-8.953
	c2.195-2.606,4.15-6.368,5.865-11.284C363.461,121.59,365.016,117.749,366.158,115.852z"/>
<path display="none" fill="#7397C3" d="M401.762,150.391c-0.389,3.225-2.104,5.373-5.145,6.448l-0.79,0.034
	c0.229-0.617,0.446-1.258,0.653-1.921c-1.625,0.138-2.711,0.835-3.26,2.093l-11.525,0.823c-5.372-0.412-7.934-2.698-7.684-6.86
	c0.893-0.16,1.979-0.365,3.26-0.617c4.437-0.755,12.062-1.234,22.879-1.439C400.699,149.43,401.236,149.91,401.762,150.391z
	 M290.766,188.909c-0.045-0.16-0.092-0.298-0.137-0.412c-0.252-1.028-0.377-2.949-0.377-5.763c0-2.903,0.377-5.922,1.131-9.055
	c0.047-0.367,0.139-0.721,0.275-1.063l1.406-2.778c1.052-1.486,2.504-2.777,4.355-3.876c0.091-0.022,0.159-0.045,0.206-0.067
	c3.337-2.014,8.438-4.481,15.297-7.408c4.048-1.762,9.33-3.842,15.847-6.243c-1.852,3.202-3.418,7.135-4.697,11.799l-0.311,1.304
	c-4.458-0.046-12.635,2.161-24.523,6.62C294.367,174.617,291.544,180.266,290.766,188.909z"/>
<path display="none" fill="#010101" d="M543.806,285.491c-0.469-0.418-1.042-0.63-1.721-0.63c-1.018,0.018-1.947,1.131-2.787,3.345
	c-0.323,0.63-1.082,3.037-2.278,7.222c-2.019,7.012-4.457,10.534-7.316,10.565c-0.921,0.017-1.422-0.017-1.503-0.097l0.17-0.099
	c-1.777-3.649-2.496-6.962-2.158-9.935c0.163-2.666,0.284-4.67,0.363-6.01c0.114-2.375-0.128-4.564-0.728-6.567
	c-2.665,2.746-3.94,8.757-3.828,18.028c0,0.113,0.033,0.728,0.099,1.843c0.161,1.323,0.452,2.528,0.872,3.609
	c1.309,3.409,3.569,5.091,6.786,5.041c3.245-0.031,6.169-1.931,8.771-5.694c0.097,0.501,0.146,1.018,0.146,1.552
	c-0.192,0.774-0.241,2.915-0.146,6.422c0.097,3.376-0.557,7.164-1.963,11.365c-1.391,4.199-3.07,6.146-5.041,5.84
	c-1.954-0.34-3.36-1.648-4.216-3.926c-0.953-2.488-1.882-3.895-2.787-4.217c-0.405,0.211-0.815,0.469-1.236,0.774
	c-0.308,0.259-0.492,0.389-0.557,0.389c0,0.371-0.025,0.768-0.072,1.188c-0.083,0.453-0.113,1.074-0.098,1.866
	c0.015,1.228,0.558,2.795,1.624,4.701c1.065,1.905,2.812,3.296,5.233,4.168c1.31,0.484,2.795,0.815,4.459,0.992
	c1.309,0.131,3.125-0.597,5.452-2.181c2.311-1.599,3.895-9.482,4.749-23.651C544.921,297.213,544.822,288.577,543.806,285.491z"/>
<path display="none" fill="#010101" d="M493.788,287.456c-1.938,4.297-3.238,8.157-3.901,11.583
	c-0.146-0.453-0.259-0.912-0.339-1.382c-1.245-4.976-2.602-8.441-4.071-10.396c-0.532,0.209-1.034,1.331-1.502,3.367
	c-0.403,1.696-0.599,3.23-0.583,4.604c0,0.082,0.291,3.055,0.873,8.92c0.953,5.751,2.439,8.61,4.459,8.578
	c0.985-0.017,1.672-0.188,2.06-0.51c0.064-0.064,0.122-0.097,0.17-0.097c0.211-0.017,0.445-0.024,0.703-0.024
	c0.227,0,0.469-0.944,0.728-2.836c0.29-2.682,0.728-4.968,1.31-6.857c2.244-7.092,6.8-11.986,13.668-14.686
	C500.218,283.182,495.693,283.093,493.788,287.456z"/>
<path display="none" fill="#010101" d="M510.072,269.838c-0.08,5.412-0.138,12.875-0.169,22.391
	c-0.065,7.352-0.081,12.223-0.05,14.613c0,0.063,0.018,1.396,0.05,3.999c0.339,2.521,1.268,3.765,2.787,3.731
	c1.192-0.018,2.163-0.735,2.906-2.157c0.565-1.195,0.971-4.637,1.213-10.322c0.289-5.735,0.039-13.522-0.753-23.362
	C515.283,268.828,513.288,265.864,510.072,269.838z"/>
<path display="none" fill="#010101" d="M477.553,305.412c-2.133-1.794-3.249-3.409-3.345-4.848c-0.679-2.391-0.97-4.508-0.873-6.349
	c0.064-1.907-0.137-3.829-0.604-5.768c-1.082-2.716-3.628-2.845-7.635-0.388c-4.006,2.391-6.776,4.66-8.313,6.809
	c-1.6,2.068-2.762,4.265-3.489,6.591c-0.452,1.567-0.662,3.507-0.63,5.817c0.032,1.6,0.573,3.045,1.624,4.337
	c1.599,1.971,4.087,2.933,7.464,2.884c1.421-0.017,3.053-0.759,4.896-2.229c0.92-0.694,2.188-1.872,3.804-3.537
	c0.855,1.05,1.931,2.034,3.224,2.956c1.811,1.133,3.546,1.682,5.211,1.647c0.84-0.016,1.461-0.104,1.865-0.267
	c0.291-0.274,0.485-0.412,0.581-0.412l0.437-2.424C481.3,309.022,479.895,307.415,477.553,305.412z M464.103,308.756
	c-3.199,0.856-5.024,0.703-5.477-0.46c-0.517-1.179-0.784-2.223-0.8-3.127c-0.018-1.81,0.483-3.667,1.502-5.573
	c1.001-1.906,3.91-4.266,8.724-7.076C468.586,302.455,467.27,307.868,464.103,308.756z"/>
<path display="none" fill="#010101" d="M448.884,294.87c-0.339-1.601-1.034-3.037-2.084-4.313c-1.114-1.308-1.769-2.043-1.963-2.205
	c-2.44-1.89-5.194-2.737-8.263-2.543c-3.395,0.193-6.423,1.64-9.089,4.336c-2.745,2.684-4.272,5.203-4.578,7.563
	c-0.34,2.311-0.324,4.257,0.048,5.84c0.371,1.535,1.187,3.725,2.447,6.567s5.081,4.225,11.462,4.144
	c1.325-0.017,3.271-0.582,5.841-1.695c1.002-0.437,1.802-0.809,2.397-1.114c0.905-0.518,1.358-0.938,1.358-1.261
	c-0.018-0.984-0.146-1.567-0.39-1.745c-0.371-0.081-0.702-0.187-0.993-0.314c-0.081-0.032-0.161-0.065-0.242-0.097l-3.974,0.267
	c1.309,0.018,0.46,0.274-2.545,0.774c-3.037,0.55-5.26,0.193-6.664-1.065c-1.391-1.275-1.648-2.358-0.775-3.247
	c6.495-1.13,11.204-2.052,14.128-2.763c2.1-0.534,3.271-0.97,3.514-1.31c0.519-0.76,0.702-1.139,0.559-1.139
	c0.048-0.05,0.071-0.089,0.071-0.122c0.065-0.128,0.099-0.274,0.099-0.436c0.096,0.097,0.177-0.153,0.241-0.751
	c0.017-0.031,0.082-0.081,0.193-0.146l-0.193-0.654C449.425,297.311,449.223,296.453,448.884,294.87z M436.549,298.626
	c-4.006,0.712-6.59,1.204-7.755,1.479c-0.306-1.213,0.259-2.933,1.697-5.162c1.389-2.277,3.61-3.433,6.663-3.465
	c3.135-0.049,5.421,1.356,6.858,4.217c0.259,0.438,0.55,1.018,0.873,1.744C442.753,297.616,439.974,298.014,436.549,298.626z"/>
<path display="none" fill="#010101" d="M405.07,302.189c-0.517-0.76-1.181-1.188-1.986-1.285c-0.404-0.08-0.815-0.073-1.236,0.023
	c-0.227,0.049-1.253,0.903-3.078,2.569c-1.761,1.712-4.394,2.875-7.899,3.488c-3.474,0.564-6.292-0.5-8.457-3.197
	c-2.196-2.683-3.394-4.55-3.587-5.599c-0.21-1.101-0.438-2.697-0.678-4.799c-0.228-2.133,0.588-4.814,2.447-8.046
	c1.858-3.247,4.821-5.841,8.893-7.778c4.057-1.875,6.858-2.141,8.409-0.799c1.567,1.39,2.813,3.062,3.732,5.017l0.896-0.413
	c0.031-0.032,0.138-0.121,0.313-0.266c0.162-0.179,0.396-0.403,0.704-0.68c0.516-0.582,0.25-2.134-0.801-4.652
	c-0.018-0.113-0.049-0.203-0.097-0.267c-1.213-2.651-3.449-4.307-6.713-4.969c-3.216-0.679-6.973,0.187-11.269,2.594
	c-4.298,2.375-7.667,5.604-10.106,9.692c-2.729,4.781-3.643,9.839-2.736,15.17c0,0.098,0.225,1.181,0.678,3.248
	c0.693,2.342,1.632,4.4,2.813,6.18c3.828,5.734,9.756,7.883,17.787,6.445c3.602-0.613,6.744-1.972,9.427-4.071
	c0.226-0.193,0.443-0.388,0.652-0.581c2.037-1.826,2.925-3.521,2.666-5.089C405.685,303.385,405.426,302.736,405.07,302.189z"/>
<path display="none" fill="#010101" d="M411.419,270.104c-0.111,5.412-0.193,12.867-0.241,22.367
	c-0.018,7.367,0,12.237,0.048,14.611c0,0.081,0.01,1.431,0.024,4.048c0.323,2.504,1.244,3.748,2.763,3.731
	c1.18-0.017,2.148-0.734,2.907-2.156c0.566-1.196,0.938-4.766,1.115-10.711c0.162-5.979-0.137-13.909-0.896-23.797
	C416.33,268.327,414.425,265.63,411.419,270.104z"/>
<path display="none" fill="#010101" d="M347.711,281.785c-0.048-8.918-0.582-13.879-1.6-14.881
	c-0.729-0.564-1.625-0.297-2.688,0.801c-1.229,1.066-1.786,3.699-1.674,7.9c0.099,4.151,0.379,7.763,0.849,10.832
	c-2.134-1.584-4.693-2.084-7.682-1.504c-3.037,0.502-5.462,2.077-7.271,4.727c-1.857,2.648-3.021,5.057-3.488,7.222
	c-0.452,2.164-0.76,3.981-0.92,5.452c-0.082,1.811,0.021,3.475,0.313,4.992c1.051,4.701,4.021,7.012,8.918,6.931
	c1.811,0,4.581-0.983,8.313-2.957c0.564-0.338,1.106-0.629,1.623-0.872c0.018,0.339,0.072,1.163,0.17,2.474
	c0.404,1.484,1.584,2.221,3.539,2.205c1.082-0.018,1.769-0.139,2.06-0.364l0.363-0.461c0.178,0.194,0.251-0.598,0.219-2.374
	C348.091,300.372,347.743,290.331,347.711,281.785z M342.451,302.989c-0.855,0.517-2.512,1.461-4.967,2.834
	c-2.457,1.325-4.104,1.786-4.944,1.382c-0.871-0.421-1.802-1.146-2.787-2.182c-0.952-0.984-1.372-2.487-1.26-4.506
	c0.081-2.053,0.752-4.322,2.012-6.812c1.244-2.536,2.998-3.886,5.259-4.047c2.278-0.193,4.111,1.05,5.502,3.731
	c0.483,0.953,0.92,1.776,1.309,2.473C342.46,298.578,342.42,300.953,342.451,302.989z"/>
<path display="none" fill="#010101" d="M296.313,286.631c0.308-0.193,0.564-0.388,0.775-0.581c-0.259-0.081-0.525-0.161-0.801-0.241
	c-0.113-0.05-0.234-0.082-0.363-0.098c-4.217-1.18-9.41-1.535-15.58-1.066c-0.26-15.85-1.607-20.92-4.047-15.219
	c-0.469,2.311-0.963,5.518-1.479,9.621c-0.274,1.971-0.461,3.99-0.559,6.059l-10.371,1.6c-1.746,2.406,1.704,3.779,10.348,4.119
	c-0.032,0.679-0.039,1.382-0.024,2.107c0.017,0.549,0.024,1.115,0.024,1.696c0,0.162,0.34,3.427,1.019,9.79
	c0.854,6.253,1.793,9.37,2.812,9.354c1.922,0,2.852-2.012,2.787-6.034c0.049-5.283,0.08-10.25,0.098-14.903
	c-0.018-1.099-0.018-2.165,0-3.198c0.92,0.193,2.695,0.193,5.33,0c2.617-0.228,4.902-0.712,6.857-1.455
	c1.034-0.404,1.898-0.799,2.594-1.187C295.941,286.882,296.133,286.761,296.313,286.631z"/>
<path display="none" fill="#010101" d="M319.043,295.016c-0.048-1.582-1.342-3.586-3.877-6.01
	c-2.537-2.472-6.745-3.021-12.626-1.646c-5.913,1.389-8.87,6.971-8.87,16.744c0.323,5.203,2.748,8.127,7.271,8.771
	c5.104,0.711,8.934,0.525,11.483-0.557c2.554-1.083,3.821-1.898,3.806-2.448c0-0.258,0-0.468,0-0.63
	c-0.258-2.488-2.235-2.754-5.938-0.8c-0.549,0.098-1.292,0.219-2.229,0.363c-3.021,0.565-5.226,0.21-6.615-1.065
	c-1.404-1.261-1.672-2.318-0.799-3.176c11.211-2.002,17.092-3.369,17.641-4.095c0.532-0.807,0.718-1.21,0.559-1.212
	c0.049,0,0.071-0.025,0.071-0.072c0.063-0.162,0.099-0.314,0.099-0.461c0.112,0.113,0.193-0.13,0.241-0.728
	c0.032-0.08,0.104-0.138,0.22-0.169l-0.244-0.702C319.141,297.254,319.074,296.551,319.043,295.016z M306.368,298.385
	c-4.039,0.742-6.655,1.229-7.851,1.454c-0.275-1.196,0.299-2.899,1.719-5.114c1.391-2.293,3.645-3.457,6.763-3.488
	c3.067-0.049,5.331,1.324,6.786,4.119c0.21,0.47,0.5,1.051,0.869,1.746C312.507,297.342,309.745,297.77,306.368,298.385z"/>
<path display="none" fill="#010101" d="M245.689,283.264c-0.018-0.89-0.058-1.373-0.123-1.455c-0.289,0.131-0.558,0.065-0.797-0.193
	c-2.683,0.033-8.338,0.97-16.965,2.812c0.016-6.122,0-11.194-0.049-15.218c-0.018-1.002-0.152-1.77-0.41-2.303
	c-0.066-0.129-0.146-0.282-0.242-0.461c-0.146-0.193-0.324-0.412-0.535-0.653c-0.209,0.226-0.418,0.452-0.629,0.679
	c-2.086,2.391-3.515,6.6-4.289,12.625c-0.276,1.973-0.452,4.241-0.533,6.811c-5.783,1.275-9.518,2.107-11.197,2.494
	c-0.08,0.261-0.217,0.485-0.411,0.68v1.334c0.017,0.177,0.857,0.977,2.521,2.398c2.844-0.695,5.856-1.342,9.039-1.938
	c-0.032,0.679-0.039,1.382-0.023,2.108c0,0.549,0,1.106,0,1.672c0,0.178,0.371,3.449,1.114,9.813
	c0.856,6.27,1.771,9.396,2.737,9.378c1.955-0.032,2.9-2.051,2.836-6.059c0-5.282,0.017-10.25,0.047-14.902
	c-0.016-1.082,0.011-2.148,0.074-3.199c2.488-0.42,5.494-0.953,9.015-1.599c3.118-0.485,5.309-1.067,6.567-1.746
	C244.971,285.629,245.723,284.604,245.689,283.264z"/>
<path display="none" fill="#010101" d="M261.998,305.848c-2.294-1.906-3.555-3.787-3.781-5.646
	c-0.273-1.858-0.492-3.611-0.652-5.259c-0.227-1.648-0.389-3.731-0.485-6.252c-1.05-2.715-3.586-2.844-7.608-0.39
	c-4.007,2.392-6.81,4.654-8.408,6.786c-1.566,2.066-2.715,4.282-3.441,6.641c-0.452,1.519-0.67,3.416-0.654,5.694
	c0.018,1.646,0.598,3.126,1.744,4.436c1.551,1.938,4.008,2.891,7.368,2.857c1.405-0.016,3.036-0.742,4.896-2.181
	c0.953-0.695,2.229-1.865,3.828-3.514c0.855,1.065,1.932,2.019,3.223,2.858c1.777,1.229,3.49,1.825,5.138,1.793
	c0.905,0,1.534-0.128,1.892-0.388c0.34-0.258,0.541-0.387,0.605-0.387l0.41-2.399C265.6,309.289,264.243,307.738,261.998,305.848z
	 M245.301,308.635c-0.645,0.018-1.308-0.259-1.986-0.824c-0.774-0.711-1.164-1.525-1.164-2.446c-0.03-1.777,0.711-3.789,2.229-6.034
	c1.488-2.245,3.709-4.12,6.665-5.622C252.386,303.611,250.471,308.587,245.301,308.635z"/>
<path display="none" fill="#010101" d="M195.865,287.697c-3.926,0.258-6.898,0.389-8.917,0.389c-3.62-0.146-5.443-1.061-5.477-2.738
	c-0.016-1.552,1.155-3.337,3.514-5.356c2.876-2.455,6.251-3.706,10.13-3.755c0.678-0.018,1.396,0.701,2.156,2.156
	c0.728,1.534,1.438,2.295,2.133,2.277c0.92,0,1.412-0.105,1.478-0.314l0.072-0.389c0-0.371,0.082-0.822,0.243-1.357
	c0.113-0.483,0.162-1.153,0.146-2.01c0-0.793-0.573-1.803-1.721-3.029c-1.195-1.26-2.197-1.946-3.004-2.061
	c-6.64-0.742-11.938,0.735-15.897,4.436c-3.15,2.925-4.701,6.019-4.652,9.281c0.033,2.713,0.348,4.539,0.946,5.478
	c1.906,2.776,6.268,4.127,13.084,4.046c4.217-0.049,6.793-0.018,7.731,0.098c2.683,0.387,4.03,1.463,4.046,3.223
	c0.016,1.826-0.646,3.748-1.986,5.768c-1.955,3.069-4.863,4.621-8.725,4.653c-1.244,0.016-3.475-0.549-6.689-1.696
	c-3.135-1.18-5.266-1.76-6.397-1.745c-2.085,0.033-3.112,1.285-3.078,3.757c0.016,1.472,1.615,2.827,4.798,4.07
	c3.231,1.326,6.89,1.963,10.978,1.915c7.027-0.097,11.973-2.326,14.83-6.688c1.73-2.73,2.57-6.132,2.521-10.202
	c-0.032-2.956-0.63-5.192-1.793-6.713C204.428,288.797,200.939,287.634,195.865,287.697z"/>
<rect x="175" y="223.659" display="none" fill="#E4BA00" width="370" height="2.467"/>
<path display="none" fill="#222222" d="M194.354,249.546c-1.16-1.142-1.74-2.606-1.74-4.397s0.58-3.258,1.74-4.398
	c1.162-1.141,2.604-1.711,4.326-1.711c1.9,0,3.394,0.781,4.477,2.342l-1.219,0.691c-0.34-0.52-0.803-0.936-1.388-1.248
	c-0.585-0.314-1.208-0.473-1.87-0.473c-1.309,0-2.393,0.448-3.254,1.344c-0.861,0.896-1.292,2.048-1.292,3.453
	c0,1.395,0.435,2.541,1.302,3.442c0.865,0.902,1.947,1.353,3.244,1.353c0.662,0,1.284-0.158,1.866-0.479
	c0.581-0.318,1.045-0.732,1.392-1.24l1.234,0.676c-1.141,1.572-2.638,2.357-4.492,2.357
	C196.957,251.257,195.516,250.688,194.354,249.546z"/>
<path display="none" fill="#222222" d="M208.598,251.041v-11.805h4.743c1.095,0,1.987,0.324,2.679,0.973s1.037,1.512,1.037,2.588
	c0,1.021-0.298,1.834-0.895,2.439c-0.598,0.605-1.326,0.943-2.189,1.015l3.188,4.79h-1.737l-2.989-4.666h-2.367v4.666H208.598
	L208.598,251.041z M210.064,245.063h3.095c0.696,0,1.268-0.213,1.711-0.641c0.442-0.427,0.665-0.968,0.665-1.625
	c0-0.674-0.223-1.217-0.665-1.629c-0.443-0.411-1.015-0.617-1.711-0.617h-3.095V245.063z"/>
<path display="none" fill="#222222" d="M222.912,251.041v-11.805h1.469v11.805H222.912z"/>
<path display="none" fill="#222222" d="M230.677,251.041v-11.805h2.101l3.681,9.1l3.664-9.1h2.108v11.805h-1.469v-9.93l-4.002,9.93
	h-0.597l-4.019-9.93v9.93H230.677z"/>
<path display="none" fill="#222222" d="M248.525,251.041v-11.805h1.47v11.805H248.525z"/>
<path display="none" fill="#222222" d="M256.291,251.041v-11.805h1.503l6.792,9.221v-9.221h1.469v11.805h-1.416l-6.879-9.419v9.419
	H256.291z"/>
<path display="none" fill="#222222" d="M271.124,251.041l4.762-11.805h1.823l4.744,11.805h-1.678l-1.045-2.618h-5.877l-1.045,2.618
	H271.124z M274.295,247.109h5.014l-2.516-6.369L274.295,247.109z"/>
<path display="none" fill="#222222" d="M287.332,251.041v-11.805h1.469v10.49h5.487v1.313L287.332,251.041L287.332,251.041z"/>
<path display="none" fill="#222222" d="M307.908,251.041v-11.805h4.035c1.804,0,3.263,0.562,4.377,1.682
	c1.115,1.12,1.672,2.53,1.672,4.229c0,1.711-0.555,3.121-1.663,4.23c-1.108,1.107-2.57,1.663-4.386,1.663L307.908,251.041
	L307.908,251.041z M309.377,249.729h2.566c1.395,0,2.498-0.438,3.31-1.311c0.813-0.872,1.22-1.963,1.22-3.271
	c0-1.318-0.402-2.414-1.205-3.287c-0.805-0.873-1.912-1.31-3.324-1.31h-2.565L309.377,249.729L309.377,249.729z"/>
<path display="none" fill="#222222" d="M323.83,251.041v-11.805h7.734v1.313h-6.267v3.793h6.136v1.313h-6.136v4.07h6.267v1.313
	h-7.734V251.041z"/>
<path display="none" fill="#222222" d="M337.438,251.041v-11.805h7.733v1.313h-6.266v3.793h6.136v1.313h-6.136v5.384
	L337.438,251.041L337.438,251.041z"/>
<path display="none" fill="#222222" d="M350.725,251.041v-11.805h7.733v1.313h-6.267v3.793h6.137v1.313h-6.137v4.07h6.267v1.313
	h-7.733V251.041z"/>
<path display="none" fill="#222222" d="M364.33,251.041v-11.805h1.503l6.792,9.221v-9.221h1.47v11.805h-1.417l-6.879-9.419v9.419
	H364.33z"/>
<path display="none" fill="#222222" d="M379.682,249.372l0.883-1.134c0.979,1.137,2.211,1.705,3.697,1.705
	c0.956,0,1.659-0.205,2.108-0.616c0.448-0.412,0.674-0.892,0.674-1.438c0-0.552-0.239-0.992-0.718-1.318
	c-0.479-0.328-1.063-0.588-1.746-0.778c-0.686-0.19-1.372-0.382-2.061-0.573s-1.271-0.525-1.75-1.004
	c-0.478-0.479-0.717-1.109-0.717-1.896c0-0.965,0.383-1.752,1.149-2.362c0.766-0.61,1.739-0.917,2.92-0.917
	c1.733,0,3.126,0.551,4.174,1.65l-0.881,1.082c-0.836-0.945-1.974-1.42-3.414-1.42c-0.708,0-1.29,0.178-1.745,0.528
	c-0.455,0.353-0.683,0.808-0.683,1.366c0,0.419,0.174,0.766,0.521,1.039c0.348,0.273,0.773,0.484,1.281,0.632
	s1.068,0.31,1.682,0.487c0.612,0.179,1.176,0.375,1.688,0.59c0.515,0.214,0.944,0.563,1.295,1.043s0.524,1.063,0.524,1.742
	c0,0.957-0.357,1.775-1.072,2.457c-0.715,0.681-1.809,1.021-3.283,1.021C382.297,251.257,380.788,250.629,379.682,249.372z"/>
<path display="none" fill="#222222" d="M394.299,251.041v-11.805h7.733v1.313h-6.265v3.793h6.136v1.313h-6.136v4.07h6.265v1.313
	h-7.733V251.041z"/>
<path display="none" fill="#222222" d="M414.798,251.041l4.762-11.805h1.823l4.744,11.805h-1.677l-1.046-2.618h-5.876l-1.045,2.618
	H414.798z M417.97,247.109h5.013l-2.516-6.369L417.97,247.109z"/>
<path display="none" fill="#222222" d="M429.208,240.551v-1.313h8.952v1.313h-3.75v10.49h-1.469v-10.49H429.208z"/>
<path display="none" fill="#222222" d="M442.831,240.551v-1.313h8.952v1.313h-3.75v10.49h-1.469v-10.49H442.831z"/>
<path display="none" fill="#222222" d="M457.941,249.521c-1.09-1.158-1.635-2.615-1.635-4.373s0.545-3.215,1.635-4.373
	c1.09-1.157,2.497-1.736,4.221-1.736c1.725,0,3.136,0.579,4.232,1.736c1.098,1.158,1.647,2.615,1.647,4.373s-0.55,3.215-1.647,4.373
	c-1.098,1.156-2.509,1.735-4.232,1.735C460.438,251.257,459.031,250.678,457.941,249.521z M457.829,245.146
	c0,1.396,0.395,2.543,1.185,3.443c0.79,0.902,1.84,1.354,3.148,1.354c1.298,0,2.349-0.45,3.153-1.354
	c0.804-0.9,1.206-2.049,1.206-3.443c0-1.394-0.4-2.541-1.202-3.442c-0.803-0.901-1.854-1.353-3.157-1.353
	c-1.309,0-2.358,0.447-3.148,1.344S457.829,243.742,457.829,245.146z"/>
<path display="none" fill="#222222" d="M473.864,251.041v-11.805h4.744c1.094,0,1.986,0.324,2.679,0.973
	c0.69,0.648,1.037,1.512,1.037,2.588c0,1.021-0.299,1.834-0.896,2.439s-1.327,0.943-2.189,1.015l3.188,4.79h-1.736l-2.989-4.666
	h-2.368v4.666H473.864L473.864,251.041z M475.333,245.063h3.094c0.697,0,1.269-0.213,1.711-0.641
	c0.443-0.427,0.665-0.968,0.665-1.625c0-0.674-0.222-1.217-0.665-1.629c-0.442-0.411-1.014-0.617-1.711-0.617h-3.094V245.063z"/>
<path display="none" fill="#222222" d="M488.179,251.041v-11.805h1.503l6.792,9.221v-9.221h1.471v11.805h-1.417l-6.879-9.419v9.419
	H488.179z"/>
<path display="none" fill="#222222" d="M504.239,251.041v-11.805h7.732v1.313h-6.265v3.793h6.136v1.313h-6.136v4.07h6.265v1.313
	h-7.732V251.041z"/>
<path display="none" fill="#222222" d="M516.618,239.236h1.72l3.664,5.488l3.664-5.488h1.72l-4.641,6.811v4.994h-1.469v-4.994
	L516.618,239.236z"/>
<path display="none" fill="#222222" d="M191.76,208.614l2.48-4.319c1.039,1,2.398,1.92,4.238,1.92c2.521,0,4.16-1.72,4.16-4.279
	V184.1h5.719v17.916c0,6.279-3.959,9.238-9.398,9.238C196.238,211.253,193.68,210.494,191.76,208.614z"/>
<path display="none" fill="#222222" d="M212.32,197.456c0-8.039,5.879-13.797,13.957-13.797c8.039,0,13.918,5.759,13.918,13.797
	s-5.879,13.798-13.918,13.798C218.199,211.253,212.32,205.494,212.32,197.456z M234.355,197.456c0-4.999-3.158-8.758-8.078-8.758
	c-4.959,0-8.119,3.759-8.119,8.758c0,4.959,3.16,8.759,8.119,8.759C231.197,206.214,234.355,202.415,234.355,197.456z"/>
<path display="none" fill="#222222" d="M262.596,210.773l-12.718-17.397v17.397h-5.679v-26.676h5.839l12.358,16.758v-16.758h5.679
	v26.676H262.596z"/>
<path display="none" fill="#222222" d="M281.239,208.614l2.479-4.319c1.04,1,2.399,1.92,4.239,1.92c2.521,0,4.159-1.72,4.159-4.279
	V184.1h5.719v17.916c0,6.279-3.959,9.238-9.398,9.238C285.718,211.253,283.159,210.494,281.239,208.614z"/>
<path display="none" fill="#222222" d="M301.119,207.975c0-1.761,1.479-3.24,3.238-3.24c1.761,0,3.24,1.479,3.24,3.24
	c0,1.758-1.479,3.238-3.24,3.238C302.598,211.213,301.119,209.732,301.119,207.975z"/>
<path display="none" fill="#222222" d="M345.633,210.773v-19.237l-7.52,19.237h-2.479l-7.519-19.237v19.237h-5.679v-26.676h7.957
	l6.479,16.678l6.479-16.678h7.998v26.676H345.633z"/>
<path display="none" fill="#222222" d="M354.971,201.251c0-5.892,4.432-9.865,10.18-9.865c4.175,0,6.604,2.259,7.949,4.661
	l-3.488,1.717c-0.801-1.545-2.518-2.773-4.461-2.773c-3.488,0-6.006,2.658-6.006,6.262s2.518,6.262,6.006,6.262
	c1.943,0,3.66-1.229,4.461-2.773l3.488,1.687c-1.345,2.374-3.774,4.69-7.949,4.69C359.402,211.117,354.971,207.113,354.971,201.251z
	"/>
<path display="none" fill="#222222" d="M399.481,210.773v-19.237l-7.52,19.237h-2.479l-7.52-19.237v19.237h-5.679v-26.676h7.959
	l6.479,16.678l6.479-16.678h7.999v26.676H399.481z"/>
<path display="none" fill="#222222" d="M410.485,200.096v-15.998h5.759v15.838c0,3.72,2.16,6.278,6.279,6.278
	c4.118,0,6.237-2.56,6.237-6.278v-15.838h5.8v15.998c0,6.598-3.92,11.157-12.037,11.157
	C414.404,211.253,410.485,206.693,410.485,200.096z"/>
<path display="none" fill="#222222" d="M439.604,210.773v-26.676h5.72v21.676h11.277v5H439.604L439.604,210.773z"/>
<path display="none" fill="#222222" d="M460.205,210.773v-26.676h5.719v21.676h11.278v5H460.205L460.205,210.773z"/>
<path display="none" fill="#222222" d="M481.045,210.773v-26.676h18.877v5h-13.198v5.598h12.918v5h-12.918v6.078h13.198v5H481.045
	L481.045,210.773z"/>
<path display="none" fill="#222222" d="M522.761,210.773l-12.718-17.397v17.397h-5.679v-26.676h5.839l12.357,16.758v-16.758h5.68
	v26.676H522.761z"/>
</svg>
