<?xml version="1.0" encoding="utf-8"?>
<!-- Generator: Adobe Illustrator 15.0.2, SVG Export Plug-In  -->
<!DOCTYPE svg PUBLIC "-//W3C//DTD SVG 1.1//EN" "http://www.w3.org/Graphics/SVG/1.1/DTD/svg11.dtd" [
	<!ENTITY ns_flows "http://ns.adobe.com/Flows/1.0/">
]>
<svg version="1.1"
	 xmlns="http://www.w3.org/2000/svg" xmlns:xlink="http://www.w3.org/1999/xlink" xmlns:a="http://ns.adobe.com/AdobeSVGViewerExtensions/3.0/"
	 x="0px" y="0px" width="370px" height="200px" viewBox="175 116 370 200" enable-background="new 175 116 370 200"
	 xml:space="preserve">
<defs>
</defs>
<rect display="none" fill="#231F20" width="720" height="432"/>
<path display="none" fill="#222222" d="M229.517,257.695h-17.005c0-19.95,0-11.85,0-36.085c-4.083,0-8.033,0-12.05,0v46.862
	c9.507,0,19.415,0,29.055,0C229.517,264.456,229.517,261.712,229.517,257.695z"/>
<path display="none" fill="#222222" d="M265.948,257.828c-7.028,0-11.046,0-17.94,0c0-2.812,0-5.488,0-8.233h15.932
	c0-3.549,0-7.097,0-10.645h-15.932v-6.628c6.894,0,10.375,0,17.338,0c0-3.615,0-7.23,0-10.712c-10.979,0-18.411,0-29.256,0
	c0,15.532,0,31.198,0,46.862c10.845,0,18.879,0,29.858,0C265.948,264.925,265.948,261.31,265.948,257.828z"/>
<path display="none" fill="#222222" d="M313.411,268.473V221.61c-4.084,0-8.167,0-12.251,0v17.005h-14.46V221.61
	c-4.083,0-8.235,0-12.251,0v46.862c4.016,0,8.167,0,12.251,0v-18.812h14.46v18.812C305.243,268.473,309.327,268.473,313.411,268.473
	z"/>
<path display="none" fill="#222222" d="M369.262,253.691v-32.214h-4.285l-18.678,20.351l-18.343-20.351h-4.419v46.995
	c4.083,0,8.167,0,12.251,0v-20.887l9.908,10.443h1.339l9.974-10.443v20.887c2.191,0,4.382,0,6.572,0v-2.457L369.262,253.691z"/>
<path display="none" fill="#222222" d="M457.296,244.574l-23.698-23.163h-4.352v29.863l6.792,14.741v2.457c1.861,0,3.726,0,5.593,0
	v-23.028l23.632,23.098h4.284v-46.931c-4.083,0-8.168,0-12.251,0V244.574z"/>
<path display="none" fill="#222222" d="M479.675,221.411v47.062c4.083,0,8.234,0,12.384,0v-23.028l23.633,23.098h4.285v-46.931
	c-4.085,0-8.169,0-12.252,0v22.963l-23.699-23.163H479.675z"/>
<path display="none" fill="#222222" d="M402.525,182.659c10.553,0,19.108-8.556,19.108-19.109c0-10.552-8.556-19.107-19.108-19.107
	s-19.107,8.555-19.107,19.107C383.418,174.103,391.973,182.659,402.525,182.659z M402.526,166.416c-1.583,0-2.866-1.283-2.866-2.866
	s1.283-2.866,2.866-2.866s2.865,1.283,2.865,2.866S404.109,166.416,402.526,166.416z M415.859,164.628
	c2.743,1.583,3.682,5.088,2.098,7.831c-1.582,2.742-5.088,3.682-7.83,2.099c-2.741-1.583-3.681-5.089-2.099-7.831
	C409.611,163.985,413.117,163.045,415.859,164.628z M402.526,145.731c3.165,0,5.732,2.567,5.732,5.732
	c0,3.166-2.567,5.733-5.732,5.733c-3.167,0-5.732-2.567-5.732-5.733C396.794,148.298,399.359,145.731,402.526,145.731z
	 M387.095,172.459c-1.583-2.743-0.645-6.248,2.097-7.831c2.742-1.583,6.25-0.643,7.831,2.099c1.584,2.742,0.644,6.248-2.098,7.831
	C392.183,176.141,388.677,175.201,387.095,172.459z"/>
<path display="none" fill="#222222" d="M460.887,163.55c0-10.552-8.558-19.107-19.111-19.107c-10.552,0-19.106,8.555-19.106,19.107
	c0,10.553,8.555,19.109,19.106,19.109C452.329,182.659,460.887,174.103,460.887,163.55z M455.111,164.628
	c2.742,1.583,3.682,5.088,2.097,7.831c-1.582,2.742-5.088,3.682-7.829,2.099c-2.742-1.583-3.681-5.089-2.1-7.831
	C448.863,163.985,452.368,163.045,455.111,164.628z M434.176,174.558c-2.742,1.583-6.248,0.643-7.83-2.099
	c-1.583-2.743-0.644-6.248,2.097-7.831c2.743-1.583,6.25-0.643,7.831,2.099C437.856,169.469,436.919,172.975,434.176,174.558z
	 M436.044,151.463c0-3.165,2.566-5.732,5.731-5.732c3.168,0,5.734,2.567,5.734,5.732c0,3.166-2.566,5.733-5.734,5.733
	C438.61,157.197,436.044,154.629,436.044,151.463z M438.911,163.55c0-1.583,1.283-2.866,2.865-2.866
	c1.584,0,2.866,1.283,2.866,2.866s-1.282,2.866-2.866,2.866C440.194,166.416,438.911,165.133,438.911,163.55z"/>
<path display="none" fill="#222222" d="M390.121,202.428l6.637-14.383l-0.003-0.003c0.163-0.372,0.256-0.782,0.256-1.213
	c0-1.685-1.366-3.051-3.052-3.051c-0.02,0-0.038,0.006-0.061,0.006l-0.001-0.003H373h-0.792h-1.972l22.611-49.007h-18.98
	l-0.008,0.004c-1.203,0.019-2.23,0.734-2.711,1.761l-0.011,0.007l-30.397,65.882H390.121z"/>
<path display="none" fill="#222222" d="M429.246,251.274l-22.507-48.846h48.213l0.004-0.003c0.01,0,0.019,0.003,0.029,0.003
	c1.158,0,2.153-0.655,2.671-1.606l0.036-0.022l30.464-66.026h-92.547l-3.811,8.259h79.599h0.021h2.74l-17.928,38.857
	c-0.014,0.037-0.033,0.07-0.048,0.105l-0.012,0.024l-0.003,0.002c-0.47,1.01-1.472,1.713-2.648,1.757l-0.004,0.002h-0.022
	c-0.029,0-0.056,0.009-0.084,0.009s-0.055-0.009-0.085-0.009h-0.728h-49.134c-0.008,0-0.016-0.002-0.022-0.002
	c-0.011,0-0.019,0.002-0.025,0.002h-0.037l-0.007,0.004c-1.182,0.027-2.192,0.725-2.675,1.73l-0.014,0.009l-0.052,0.113
	c-0.001,0.001-0.002,0.003-0.002,0.004l-5.38,11.66l-2.669,5.776l-23.319,50.614l-5.68,12.324v2.457v0.001h17.007l19.21-43.278
	l0.013,0.027l0.013-0.027l19.207,43.278h17.007v-0.001v-2.457L429.246,251.274z"/>
<path display="none" fill="#222222" d="M326.611,195.523c0.451,0,0.875-0.103,1.258-0.277l0.015,0.009l16.985-7.745l14.355-31.201
	l-31.314-14.413c-0.396-0.187-0.832-0.3-1.299-0.3c-1.683,0-3.048,1.365-3.049,3.048h-0.001v0.001v47.874l0.005,0.003
	C323.594,194.184,324.944,195.523,326.611,195.523z"/>
<path display="none" fill="#222222" d="M200,285.372c0-5.195,3.91-8.7,8.978-8.7c3.683,0,5.826,1.992,7.012,4.11l-3.077,1.514
	c-0.706-1.362-2.22-2.446-3.935-2.446c-3.076,0-5.296,2.345-5.296,5.522s2.22,5.523,5.296,5.523c1.715,0,3.229-1.084,3.935-2.445
	l3.077,1.487c-1.186,2.093-3.33,4.137-7.012,4.137C203.91,294.074,200,290.544,200,285.372z"/>
<path display="none" fill="#222222" d="M219.591,285.372c0-5.069,3.708-8.7,8.802-8.7c5.069,0,8.777,3.631,8.777,8.7
	s-3.708,8.702-8.777,8.702C223.299,294.074,219.591,290.441,219.591,285.372z M233.488,285.372c0-3.152-1.993-5.522-5.095-5.522
	c-3.127,0-5.12,2.37-5.12,5.522c0,3.128,1.993,5.523,5.12,5.523C231.496,290.896,233.488,288.5,233.488,285.372z"/>
<path display="none" fill="#222222" d="M241.958,287.037v-10.088h3.63v9.986c0,2.347,1.363,3.96,3.96,3.96
	c2.598,0,3.934-1.613,3.934-3.96v-9.986h3.657v10.088c0,4.162-2.471,7.037-7.591,7.037
	C244.429,294.074,241.958,291.199,241.958,287.037z"/>
<path display="none" fill="#222222" d="M272.242,293.771l-3.304-5.977h-2.624v5.977h-3.581v-16.821h7.869
	c3.505,0,5.675,2.295,5.675,5.422c0,2.951-1.892,4.564-3.708,4.993l3.808,6.406H272.242z M272.596,282.346
	c0-1.388-1.085-2.244-2.498-2.244h-3.783v4.539h3.783C271.511,284.641,272.596,283.784,272.596,282.346z"/>
<path display="none" fill="#222222" d="M284.848,293.771v-13.669h-4.918v-3.152h13.417v3.152h-4.893v13.669H284.848z"/>
<path display="none" fill="#222222" d="M316.166,293.771l-3.304-5.977h-2.622v5.977h-3.582v-16.821h7.869
	c3.505,0,5.675,2.295,5.675,5.422c0,2.951-1.892,4.564-3.708,4.993l3.809,6.406H316.166z M316.519,282.346
	c0-1.388-1.084-2.244-2.497-2.244h-3.782v4.539h3.782C315.434,284.641,316.519,283.784,316.519,282.346z"/>
<path display="none" fill="#222222" d="M325.139,293.771v-16.821h11.905v3.152h-8.323v3.53h8.146v3.153h-8.146v3.833h8.323v3.152
	H325.139z"/>
<path display="none" fill="#222222" d="M342.108,293.771v-16.821h7.87c3.657,0,5.649,2.472,5.649,5.422
	c0,2.926-2.017,5.397-5.649,5.397h-4.288v6.002H342.108z M351.97,282.371c0-1.413-1.084-2.27-2.496-2.27h-3.784v4.514h3.784
	C350.886,284.615,351.97,283.759,351.97,282.371z"/>
<path display="none" fill="#222222" d="M359.33,285.372c0-5.069,3.707-8.7,8.802-8.7c5.07,0,8.777,3.631,8.777,8.7
	s-3.707,8.702-8.777,8.702C363.037,294.074,359.33,290.441,359.33,285.372z M373.227,285.372c0-3.152-1.992-5.522-5.095-5.522
	c-3.128,0-5.119,2.37-5.119,5.522c0,3.128,1.991,5.523,5.119,5.523C371.234,290.896,373.227,288.5,373.227,285.372z"/>
<path display="none" fill="#222222" d="M391.203,293.771l-3.304-5.977h-2.622v5.977h-3.582v-16.821h7.869
	c3.506,0,5.674,2.295,5.674,5.422c0,2.951-1.891,4.564-3.706,4.993l3.808,6.406H391.203z M391.557,282.346
	c0-1.388-1.084-2.244-2.497-2.244h-3.782v4.539h3.782C390.473,284.641,391.557,283.784,391.557,282.346z"/>
<path display="none" fill="#222222" d="M403.81,293.771v-13.669h-4.918v-3.152h13.417v3.152h-4.893v13.669H403.81z"/>
<path display="none" fill="#222222" d="M416.87,293.771v-16.821h3.581v16.821H416.87z"/>
<path display="none" fill="#222222" d="M437.649,293.771l-8.021-10.971v10.971h-3.582v-16.821h3.684l7.792,10.567v-10.567h3.583
	v16.821H437.649z"/>
<path display="none" fill="#222222" d="M445.891,285.372c0-5.321,4.035-8.7,8.979-8.7c3.48,0,5.675,1.765,6.937,3.757l-2.951,1.615
	c-0.781-1.186-2.22-2.194-3.985-2.194c-3.076,0-5.295,2.345-5.295,5.522s2.219,5.523,5.295,5.523c1.489,0,2.875-0.655,3.556-1.286
	v-2.018h-4.438v-3.127h8.02v6.457c-1.715,1.916-4.111,3.152-7.138,3.152C449.926,294.074,445.891,290.669,445.891,285.372z"/>
<path display="none" fill="#222222" d="M467.777,297.227l-1.387-1.136c0.808-0.428,1.74-1.487,1.941-2.369
	c-0.075,0.024-0.277,0.075-0.478,0.075c-0.96,0-1.716-0.757-1.716-1.815c0-1.11,0.908-2.019,1.992-2.019
	c1.186,0,2.244,0.933,2.244,2.572C470.375,294.426,469.341,296.116,467.777,297.227z"/>
<path display="none" fill="#222222" d="M479.527,293.771v-16.821h3.581v16.821H479.527z"/>
<path display="none" fill="#222222" d="M498.037,293.771l-8.021-10.971v10.971h-3.582v-16.821h3.683l7.793,10.567v-10.567h3.582
	v16.821H498.037z"/>
<path display="none" fill="#222222" d="M504.01,285.372c0-5.195,3.909-8.7,8.979-8.7c3.683,0,5.826,1.992,7.012,4.11l-3.078,1.514
	c-0.706-1.362-2.219-2.446-3.934-2.446c-3.078,0-5.296,2.345-5.296,5.522s2.218,5.523,5.296,5.523c1.715,0,3.228-1.084,3.934-2.445
	l3.078,1.487c-1.186,2.093-3.329,4.137-7.012,4.137C507.919,294.074,504.01,290.544,504.01,285.372z"/>
<path display="none" fill="#222222" d="M259.228,189.691c3.491-0.388,5.586-2.25,5.586-5.043V147.8c0-3.724,0-4.5-5.74-5.663v-1.939
	h6.051c6.982,0,8.688-0.311,8.688-0.311l0.388,0.311c0,0-2.56,2.948-2.56,9.387v14.429h28.858l0.775-0.776V147.8
	c0-3.724,0-4.5-5.74-5.663v-1.939h6.051c6.981,0,8.689-0.232,8.689-0.232l0.387,0.31c0,0-2.56,2.87-2.56,9.31v35.063
	c0,2.327-0.388,4.189-0.388,4.189l6.982,0.699l-0.311,2.171l-18.695,0.465v-2.482c3.413-0.388,5.585-2.172,5.585-4.811v-17.609
	h-28.858l-0.775,0.776v16.601c0,2.327-0.388,4.189-0.388,4.189l6.981,0.699l-0.31,2.171l-18.697,0.465V189.691z"/>
<path display="none" fill="#222222" d="M316.855,189.691c3.258-0.311,4.577-1.939,5.197-3.491l18.386-45.77l3.182-0.699
	l17.222,44.064c2.095,5.275,3.49,5.663,5.896,6.051l-0.312,2.095h-3.336c-2.868,0-11.791,0.232-11.791,0.232v-2.637
	c2.172-0.078,4.112-0.699,3.258-3.026l-4.732-12.412h-18.54l-1.009,0.776l-5.353,13.963l6.595,0.931l-0.311,2.172h-14.351V189.691z
	 M340.36,148.421l-8.611,22.419h16.833l-6.671-17.687C341.291,151.601,340.671,149.585,340.36,148.421z"/>
<path display="none" fill="#222222" d="M369.162,189.691c3.413-0.388,5.584-2.172,5.584-4.811V147.8c0-3.724-0.387-4.5-6.36-5.663
	v-1.939h17.998c13.963,0,19.238,5.74,19.238,12.489c0,7.292-6.517,12.257-10.24,14.197v1.009l11.171,16.368
	c3.336,4.81,4.889,4.965,6.905,5.12l0.854,0.078L414,191.941h-11.248l-0.312-0.233c0,0-1.628-3.878-4.809-8.533l-9.619-14.197
	h-5.664l-0.776,0.776v15.127c0,2.25-0.387,3.957-0.387,3.957l6.981,0.699l-0.311,2.171l-18.694,0.465V189.691z M388.09,165.953
	c4.654,0,10.008-3.724,10.008-11.249c0-5.896-3.336-11.481-12.878-11.481h-2.871l-0.776,0.776v21.954H388.09z"/>
<path display="none" fill="#222222" d="M425.848,189.691c3.49-0.388,5.585-2.25,5.585-5.043v-41.425h-7.68
	c-5.354,0-7.682,1.629-10.63,9.619h-2.637l2.405-13.111c0,0,2.017,0.466,5.197,0.466h36.306c3.182,0,5.585-0.466,5.585-0.466
	l-2.403,13.111h-2.639c0.388-7.99-2.172-9.619-8.223-9.619h-7.681l-0.776,0.776v40.649c0,2.327-0.388,4.189-0.388,4.189l7.759,0.699
	l-0.312,2.171l-19.47,0.465V189.691z"/>
<path display="none" fill="#222222" d="M234.892,223.004l-11.947,37.78l-3.026-0.932l-17.842-45.304
	c-1.319-3.336-4.578-4.266-4.578-4.266v-1.94h4.733c4.887,0,7.99-0.31,7.99-0.31l0.31,0.31c-0.853,1.862-1.318,4.888-0.465,7.138
	l11.172,29.944c0.542,1.474,1.085,3.49,1.474,4.965l10.24-32.271l-1.319-3.569c-1.318-3.336-4.577-4.266-4.577-4.266v-1.94h4.732
	c4.887,0,7.99-0.31,7.99-0.31l0.311,0.31c-0.853,1.862-1.319,4.888-0.466,7.138l10.938,30.099c0.465,1.397,1.009,3.258,1.396,4.733
	l10.55-33.281c1.164-3.646,0.31-5.586-3.724-6.749v-1.94h11.792l0.31,1.087c0,0-2.715,1.396-5.042,8.3l-13.653,43.056l-3.026-0.932
	L234.892,223.004z"/>
<path display="none" fill="#222222" d="M263.307,257.837c3.259-0.312,4.577-1.939,5.198-3.493l18.386-45.769l3.18-0.699
	l17.222,44.064c2.095,5.274,3.491,5.662,5.896,6.051l-0.311,2.095h-3.336c-2.87,0-11.791,0.233-11.791,0.233v-2.639
	c2.172-0.078,4.111-0.697,3.258-3.025l-4.731-12.412h-18.541l-1.009,0.775l-5.352,13.965l6.593,0.931l-0.31,2.172h-14.353V257.837z
	 M286.813,216.565l-8.611,22.42h16.835l-6.672-17.688C287.744,219.746,287.123,217.729,286.813,216.565z"/>
<path display="none" fill="#222222" d="M341.48,207.411c6.594,0,14.817,1.474,17.377,1.707l-2.328,11.869h-2.637
	c-0.077-8.534-6.826-10.628-12.955-10.628c-13.576,0-20.635,10.861-20.635,23.117c0,14.043,9.542,24.205,23.816,24.205
	c2.482,0,4.964-0.31,7.758-0.931v-11.248c0-3.725-0.312-4.655-7.137-5.662v-1.94h16.523l0.388,1.086c0,0-3.025,1.396-3.025,7.369
	v12.645c-5.042,0.776-11.947,2.018-17.61,2.018c-15.515,0-28.316-9.076-28.316-25.755
	C312.699,221.375,321.621,207.411,341.48,207.411z"/>
<path display="none" fill="#222222" d="M366.192,257.837c3.49-0.388,5.585-2.018,5.585-4.811v-34.909
	c0-5.353-1.242-6.905-6.361-7.835v-1.94h2.328c3.801,0,7.756-0.31,7.756-0.31s0.931,1.784,2.871,4.034l28.082,32.427
	c1.011,1.241,2.251,2.871,3.104,4.112v-32.272c0-3.414-0.079-5.198-6.362-5.818v-2.173h14.74l0.389,1.087
	c0,0-5.354,1.474-5.354,7.913v43.132h-2.018l-32.97-38.942c-0.931-1.087-2.018-2.562-2.794-3.725v35.22
	c0,2.328-0.387,4.188-0.387,4.188l6.981,0.466l-0.311,2.172l-15.281,0.467V257.837z"/>
<path display="none" fill="#222222" d="M423.707,257.837c3.492-0.388,5.586-2.018,5.586-4.811v-37.081c0-3.724-0.387-4.5-6.36-5.663
	v-1.94h31.961c3.181,0,5.584-0.31,5.584-0.31l-2.403,12.955h-2.639c0.389-7.99-2.171-9.62-8.378-9.62h-10.161l-0.777,0.776v20.171
	h14.352l0.622-4.423l2.87-0.465v13.653h-3.646v-5.741h-13.42l-0.777,0.776v16.601c0,2.328-0.387,4.345-0.387,4.345h12.179
	c6.671,0,7.603-1.475,11.482-9.619h2.637l-2.87,12.645h-24.205c-3.878,0-11.248,0.233-11.248,0.233V257.837z"/>
<path display="none" fill="#222222" d="M466.041,257.837c3.413-0.388,5.586-2.174,5.586-4.811v-37.081
	c0-3.724-0.388-4.5-6.362-5.663v-1.94h17.998c13.965,0,19.238,5.741,19.238,12.49c0,7.293-6.516,12.257-10.238,14.196v1.009
	l11.171,16.369c3.336,4.809,4.887,4.965,6.903,5.119l0.854,0.077l-0.311,2.483h-11.247l-0.312-0.233c0,0-1.629-3.879-4.811-8.533
	l-9.619-14.196h-5.662l-0.776,0.776v15.127c0,2.25-0.388,3.957-0.388,3.957l6.982,0.697l-0.311,2.172l-18.696,0.467V257.837z
	 M484.969,234.098c4.656,0,10.008-3.723,10.008-11.248c0-5.896-3.336-11.482-12.876-11.482h-2.871l-0.776,0.776v21.954H484.969z"/>
<path display="none" fill="#222222" d="M221.774,291.999v-13.81h-4.894v-1.166h11.091v1.166h-4.895v13.81H221.774z"/>
<path display="none" fill="#222222" d="M247.254,291.999l-4.198-6.197h-3.301v6.197h-1.28v-14.976h5.591
	c2.583,0,4.558,1.639,4.558,4.378c0,2.717-1.909,4.221-4.154,4.312l4.333,6.286H247.254z M247.276,281.401
	c0-1.887-1.325-3.212-3.323-3.212h-4.199v6.444h4.199C245.951,284.634,247.276,283.287,247.276,281.401z"/>
<path display="none" fill="#222222" d="M259.666,291.999v-14.976h1.279v14.976H259.666z"/>
<path display="none" fill="#222222" d="M283.372,291.999l-1.481-3.683h-7.925l-1.482,3.683h-1.481l6.129-14.976h1.594l6.13,14.976
	H283.372z M277.939,278.393l-3.547,8.756h7.072L277.939,278.393z"/>
<path display="none" fill="#222222" d="M294.595,291.999v-14.976h1.302v13.808h7.252v1.168H294.595z"/>
<path display="none" fill="#222222" d="M339.365,291.999l-1.482-3.683h-7.926l-1.482,3.683h-1.481l6.129-14.976h1.595l6.129,14.976
	H339.365z M333.931,278.393l-3.548,8.756h7.073L333.931,278.393z"/>
<path display="none" fill="#222222" d="M353.168,291.999v-13.81h-4.895v-1.166h11.092v1.166h-4.895v13.81H353.168z"/>
<path display="none" fill="#222222" d="M373.687,291.999v-13.81h-4.894v-1.166h11.09v1.166h-4.895v13.81H373.687z"/>
<path display="none" fill="#222222" d="M389.176,284.522c0-4.379,2.872-7.746,7.272-7.746c4.378,0,7.275,3.367,7.275,7.746
	c0,4.378-2.897,7.746-7.275,7.746C392.048,292.269,389.176,288.9,389.176,284.522z M402.375,284.522
	c0-3.795-2.334-6.578-5.927-6.578c-3.614,0-5.927,2.783-5.927,6.578c0,3.771,2.313,6.577,5.927,6.577
	C400.041,291.1,402.375,288.293,402.375,284.522z"/>
<path display="none" fill="#222222" d="M423.521,291.999l-4.198-6.197h-3.301v6.197h-1.279v-14.976h5.591
	c2.582,0,4.558,1.639,4.558,4.378c0,2.717-1.91,4.221-4.153,4.312l4.332,6.286H423.521z M423.544,281.401
	c0-1.887-1.324-3.212-3.322-3.212h-4.199v6.444h4.199C422.22,284.634,423.544,283.287,423.544,281.401z"/>
<path display="none" fill="#222222" d="M446.643,291.999l-9.43-12.865v12.865h-1.278v-14.976h1.301l9.384,12.686v-12.686h1.281
	v14.976H446.643z"/>
<path display="none" fill="#222222" d="M459.48,291.999v-14.976h9.498v1.166h-8.218v5.547h8.061v1.168h-8.061v5.927h8.218v1.168
	H459.48z"/>
<path display="none" fill="#222222" d="M484.422,291.999v-6.398l-5.949-8.577h1.549l5.051,7.364l5.053-7.364h1.548l-5.948,8.577
	v6.398H484.422z"/>
<path display="none" fill="#222222" d="M500.449,289.888l0.83-0.966c0.965,1.101,2.537,2.178,4.692,2.178
	c3.055,0,3.929-1.706,3.929-2.985c0-4.399-8.979-2.109-8.979-7.342c0-2.447,2.199-3.996,4.915-3.996
	c2.224,0,3.931,0.785,5.076,2.109l-0.855,0.944c-1.077-1.302-2.604-1.886-4.287-1.886c-1.998,0-3.503,1.146-3.503,2.76
	c0,3.84,8.982,1.729,8.982,7.32c0,1.931-1.281,4.244-5.322,4.244C503.456,292.269,501.594,291.257,500.449,289.888z"/>
<path display="none" fill="#222222" d="M503.693,243.231c0.666-0.073,0.991-0.384,0.991-0.917v-7.073c0-0.71,0-0.858-1.095-1.08
	v-0.37h1.153c1.333,0,1.657-0.059,1.657-0.059l0.075,0.059c0,0-0.489,0.562-0.489,1.791v6.688c0,0.443-0.073,0.813-0.073,0.813
	h2.471c1.271,0,1.51-0.458,2.25-2.132h0.503l-0.607,2.708h-4.765c-0.739,0-2.071,0.046-2.071,0.046V243.231z"/>
<path display="none" fill="#222222" d="M512.038,243.231c0.665-0.073,0.991-0.384,0.991-0.917v-7.073c0-0.71,0-0.858-1.096-1.08
	v-0.37h1.154c1.332,0,1.658-0.059,1.658-0.059l0.074,0.059c0,0-0.489,0.562-0.489,1.791v6.688c0,0.443-0.073,0.813-0.073,0.813
	h2.471c1.273,0,1.51-0.458,2.249-2.132h0.504l-0.608,2.708h-4.764c-0.74,0-2.071,0.046-2.071,0.046V243.231z"/>
<path display="none" fill="#222222" d="M520.354,243.231c0.65-0.073,1.064-0.414,1.064-0.917v-7.073c0-0.71-0.073-0.858-1.212-1.08
	v-0.37h3.669c1.701,0,3.625,0.548,3.625,2.723c0,2.382-2.233,3.166-3.832,3.004v-0.415c1.716-0.044,2.383-1.109,2.383-2.277
	c0-1.776-1.393-2.457-2.959-2.457h-0.224l-0.146,0.148v7.798c0,0.429-0.075,0.754-0.075,0.754l1.406,0.134l-0.059,0.414l-3.641,0.09
	V243.231z"/>
<rect display="none" fill="#231F20" width="720" height="432"/>
<path display="none" fill="#A4CD3C" d="M178.702,215.285h-0.138c-7.809,0-14.224-6.276-14.224-14.084v-0.138h14.224v-9.62
	c0-12.411,8.367-21.754,20.775-21.754h2.667c-14.353-5.18-48.502-0.48-48.502-0.48h0.021c-2.047,8.62-5.272,30.879-1.427,46.007
	c3.844,15.131,12.28,23.564,26.6,28.774c0.002,0,0.003,0,0.003,0V215.285z"/>
<path display="none" fill="#A4CD3C" d="M228.656,198.478c-2.71-10.671-7.708-18.007-15.442-23.234
	c-1.797,5.23-6.582,8.709-12.481,9.365c-3.903,0.418-6.833,3.207-6.833,7.109v9.345h18.406v0.138
	c0,7.808-6.272,14.084-14.081,14.084H193.9v31.054c15.355,0.623,33.349-1.855,33.349-1.855l-0.021,0.004
	C229.277,235.866,232.5,213.607,228.656,198.478z"/>
<path display="none" fill="#FFFFFF" d="M263.185,210.634c-4.988,0-9.08-4.001-9.08-8.987v-0.088h9.08v-6.14
	c0-7.927,5.333-13.889,13.258-13.889h9.346v0.539c0,4.981-3.651,8.454-8.46,8.988c-2.489,0.267-4.354,2.044-4.354,4.54v5.962h11.747
	v0.088c0,4.986-4.004,8.987-8.992,8.987h-2.755v27.145c0,4.979-3.919,8.99-8.896,8.99h-0.805v-36.135H263.185z"/>
<path display="none" fill="#FFFFFF" d="M287.652,246.051v-56.238c0-4.986,4.007-8.988,8.991-8.988h0.805v65.227H287.652z"/>
<path display="none" fill="#FFFFFF" d="M324.054,246.945c-12.812,0-21.006-10.319-21.006-23.135
	c0-12.823,9.442-23.146,22.254-23.146c12.816,0,22.251,10.417,22.251,23.232c0,2.493-1.955,4.09-4.458,4.09h-29.539
	c1.336,5.521,5.243,9.531,11.028,9.531c5.341,0,7.924-0.717,10.771-0.717c3.92,0,7.211,2.494,8.546,6.138
	C339.63,245.251,331.71,246.945,324.054,246.945z M313.556,219.804h23.317c-1.603-5.515-5.699-9.974-11.571-9.974
	C319.337,209.83,314.974,214.192,313.556,219.804z"/>
<path display="none" fill="#FFFFFF" d="M400.771,246.051v-56.238c0-4.986,4.004-8.988,8.986-8.988h0.801v65.227H400.771z"/>
<path display="none" fill="#FFFFFF" d="M437.17,246.945c-12.813,0-20.998-10.319-20.998-23.135c0-12.823,9.432-23.146,22.248-23.146
	s22.248,10.417,22.248,23.232c0,2.493-1.956,4.09-4.442,4.09h-29.557c1.341,5.521,5.258,9.531,11.041,9.531
	c5.341,0,7.921-0.717,10.766-0.717c3.913,0,7.21,2.494,8.547,6.138C452.747,245.251,444.83,246.945,437.17,246.945z
	 M426.669,219.804h23.324c-1.605-5.515-5.696-9.974-11.573-9.974C432.459,209.83,428.093,214.192,426.669,219.804z"/>
<path display="none" fill="#FFFFFF" d="M468.502,261.101c1.156-3.83,3.917-6.142,7.653-6.142c3.652,0,5.156,0.623,10.772,0.623
	c4.979,0,9.522-3.826,9.522-8.995v-2.04c-2.938,0.977-6.678,1.951-10.504,1.951c-11.929,0-21.716-9.872-21.716-22.688
	c0-12.823,10.052-23.146,22.871-23.146c4.453,0,8.37,0.271,11.479,1.245c4.272,1.339,7.656,4.012,7.656,9.699v34.268
	c0,10.684-7.565,18.867-18.161,18.867C480.25,264.744,473.043,262.793,468.502,261.101z M496.45,235.73v-25.096
	c0,0-4.362-0.886-9.076-0.886c-7.215,0-13.002,6.579-13.002,14.063c0,7.481,5.7,13.708,12.103,13.708
	C491.468,237.519,496.45,235.73,496.45,235.73z"/>
<path display="none" fill="#FFFFFF" d="M551.98,219.533v15.935c0,5.696-3.381,8.278-7.652,9.706
	c-3.116,1.06-8.012,1.771-15.752,1.771c-10.772,0-16.639-6.23-16.639-14.06c0-7.83,6.319-14.068,15.925-14.068h14.331
	c0-5.161-4.54-8.988-9.526-8.988c-5.605,0-7.116,0.629-10.762,0.629c-3.743,0-6.504-2.311-7.663-6.138
	c4.54-1.692,11.751-3.655,19.585-3.655C544.415,200.665,551.98,208.857,551.98,219.533z M542.193,227.016h-13.526
	c-4.449,0-6.591,2.575-6.591,5.247c0,2.669,2.229,5.7,7.928,5.7c6.232,0,9.603-0.803,12.189-1.432V227.016z"/>
<path display="none" fill="#FFFFFF" d="M391.782,203.155c-1.779-1.778-4-2.313-5.959-2.313c-2.583,0-4.983,0.892-7.031,3.558
	l-7.109,9.173l5.729,7.208L391.782,203.155z"/>
<path display="none" fill="#FFFFFF" d="M377.404,225.242l-6.123,7.7l8.312,10.359c1.688,2.042,4.272,3.468,6.943,3.468
	c2.398,0,4.803-0.981,6.314-2.494L377.404,225.242z"/>
<polygon display="none" fill="#FFFFFF" points="369.913,215.859 360.812,204.4 369.895,215.883 "/>
<polygon display="none" fill="#FFFFFF" points="359.388,243.389 369.477,230.699 369.452,230.659 "/>
<path display="none" fill="#FFFFFF" d="M369.895,215.883l-9.083-11.483c-1.688-2.13-4.449-3.558-7.118-3.558
	c-2.4,0-4.63,0.981-6.141,2.498l16.014,20.022l-17.082,21.186c1.781,1.6,4.094,2.223,6.144,2.223c2.405,0,4.713-0.719,6.76-3.381
	l10.064-12.729l0.024,0.04l6.116-7.698l-5.68-7.142L369.895,215.883z"/>
<path display="none" fill="#222222" d="M185.645,201.755c-5.848,0-10.645-4.692-10.645-10.537v-0.103h10.645v-7.199
	c0-9.294,6.253-16.284,15.544-16.284h10.957v0.633c0,5.839-4.28,9.911-9.919,10.537c-2.917,0.313-5.104,2.396-5.104,5.322v6.991
	h13.772v0.103c0,5.845-4.694,10.537-10.542,10.537h-3.23v31.826c0,5.837-4.595,10.539-10.431,10.539h-0.944v-42.365H185.645z"/>
<path display="none" fill="#222222" d="M214.33,243.278v-65.934c0-5.846,4.698-10.539,10.542-10.539h0.943v76.473H214.33z"/>
<path display="none" fill="#222222" d="M257.008,244.327c-15.021,0-24.627-12.099-24.627-27.123
	c0-15.035,11.07-27.137,26.091-27.137c15.026,0,26.087,12.213,26.087,27.239c0,2.923-2.292,4.795-5.227,4.795h-34.632
	c1.566,6.474,6.147,11.175,12.93,11.175c6.262,0,9.29-0.841,12.627-0.841c4.596,0,8.455,2.925,10.019,7.195
	C275.269,242.34,265.984,244.327,257.008,244.327z M244.699,212.506h27.338c-1.879-6.466-6.682-11.693-13.566-11.693
	C251.478,200.813,246.362,205.927,244.699,212.506z"/>
<path display="none" fill="#222222" d="M346.952,243.278v-65.934c0-5.846,4.694-10.539,10.535-10.539h0.939v76.473H346.952z"/>
<path display="none" fill="#222222" d="M389.627,244.327c-15.021,0-24.619-12.099-24.619-27.123
	c0-15.035,11.058-27.137,26.084-27.137s26.084,12.213,26.084,27.239c0,2.923-2.295,4.795-5.21,4.795h-34.651
	c1.572,6.474,6.163,11.175,12.943,11.175c6.264,0,9.288-0.841,12.622-0.841c4.59,0,8.454,2.925,10.021,7.195
	C407.888,242.34,398.607,244.327,389.627,244.327z M377.314,212.506h27.345c-1.883-6.466-6.678-11.693-13.567-11.693
	C384.103,200.813,378.983,205.927,377.314,212.506z"/>
<path display="none" fill="#222222" d="M426.359,260.923c1.356-4.491,4.592-7.201,8.973-7.201c4.281,0,6.045,0.731,12.631,0.731
	c5.836,0,11.162-4.486,11.162-10.547v-2.391c-3.443,1.145-7.828,2.287-12.314,2.287c-13.983,0-25.458-11.574-25.458-26.599
	c0-15.035,11.783-27.137,26.813-27.137c5.222,0,9.813,0.318,13.457,1.459c5.011,1.569,8.977,4.704,8.977,11.372v40.176
	c0,12.525-8.868,22.12-21.291,22.12C440.134,265.194,431.685,262.907,426.359,260.923z M459.125,231.179v-29.423
	c0,0-5.112-1.039-10.64-1.039c-8.459,0-15.244,7.712-15.244,16.487c0,8.771,6.684,16.071,14.19,16.071
	C453.285,233.275,459.125,231.179,459.125,231.179z"/>
<path display="none" fill="#222222" d="M524.23,212.189v18.682c0,6.678-3.964,9.705-8.971,11.379
	c-3.655,1.242-9.394,2.077-18.469,2.077c-12.63,0-19.507-7.305-19.507-16.484s7.407-16.494,18.669-16.494h16.804
	c0-6.051-5.324-10.537-11.17-10.537c-6.572,0-8.343,0.737-12.617,0.737c-4.388,0-7.626-2.71-8.983-7.197
	c5.321-1.984,13.776-4.286,22.96-4.286C515.36,190.067,524.23,199.672,524.23,212.189z M512.757,220.961h-15.859
	c-5.217,0-7.727,3.02-7.727,6.152c0,3.129,2.613,6.683,9.295,6.683c7.307,0,11.256-0.941,14.291-1.679V220.961z"/>
<path display="none" fill="#222222" d="M533.517,243.278v-65.934c0-5.846,4.698-10.539,10.54-10.539H545v76.473H533.517z"/>
<path display="none" fill="#222222" d="M336.413,192.987c-2.086-2.084-4.689-2.712-6.986-2.712c-3.028,0-5.842,1.046-8.243,4.171
	l-8.334,10.754l6.716,8.451L336.413,192.987z"/>
<path display="none" fill="#222222" d="M319.556,218.882l-7.178,9.028l9.744,12.145c1.98,2.395,5.009,4.065,8.14,4.065
	c2.812,0,5.631-1.149,7.403-2.924L319.556,218.882z"/>
<polygon display="none" fill="#222222" points="310.774,207.881 300.103,194.446 310.751,207.909 "/>
<polygon display="none" fill="#222222" points="298.434,240.157 310.262,225.279 310.233,225.233 "/>
<path display="none" fill="#222222" d="M310.751,207.909l-10.648-13.462c-1.979-2.497-5.216-4.171-8.346-4.171
	c-2.813,0-5.428,1.15-7.199,2.928l18.774,23.474l-20.027,24.839c2.089,1.875,4.8,2.604,7.203,2.604c2.82,0,5.525-0.842,7.925-3.963
	l11.8-14.924l0.028,0.046l7.17-9.025l-6.658-8.373L310.751,207.909z"/>
<path display="none" fill="#222222" d="M175,182.363v67.273h370v-67.273H175z M541.637,246.273H178.364v-60.547h363.272V246.273z"/>
<path display="none" fill="#222222" d="M210.027,234.293c-10.333,0-18.208-6.424-18.208-18.209c0-11.06,7.931-18.377,18.32-18.377
	c10.389,0,18.265,6.367,18.265,18.152C228.403,226.919,220.416,234.293,210.027,234.293z M210.027,204.857
	c-5.921,0-9.272,4.468-9.272,11.002c0,6.704,3.463,11.284,9.439,11.284c5.865,0,9.272-4.525,9.272-11.06
	C219.466,209.38,215.948,204.857,210.027,204.857z"/>
<path display="none" fill="#222222" d="M241.691,233.454h-8.881v-34.908c0,0,14.355,0,14.02,0c9.272,0,14.131,4.3,14.131,11.059
	c0,4.691-2.457,8.266-7.149,10.054l8.937,13.796h-9.998l-6.982-11.728l-4.078,0.334V233.454z M245.993,215.357
	c3.798-0.279,5.864-1.843,5.864-5.194c0-3.072-2.122-4.581-6.59-4.581c-0.167,0-3.743,0-3.743,0v9.887L245.993,215.357z"/>
<path display="none" fill="#222222" d="M265.872,233.454v-34.908h25.527v7.148h-16.813v6.703h13.517v7.094h-13.517v6.813h16.813
	v7.149H265.872z"/>
<path display="none" fill="#222222" d="M312.732,234.293c-11.17,0-18.768-6.647-18.768-18.153c0-11.45,7.373-18.433,18.824-18.433
	c4.468,0,9.774,1.006,13.125,3.017l-2.793,7.429c-3.295-1.899-6.703-2.905-10.053-2.905c-6.256,0-10.278,4.189-10.278,10.669
	c0,6.982,3.52,11.115,10.167,11.115c2.01,0,4.133-0.447,5.585-1.061v-5.141h-8.602v-7.036h16.645v17.26
	C322.786,233.119,317.815,234.293,312.732,234.293z"/>
<path display="none" fill="#222222" d="M348.363,234.293c-10.333,0-18.209-6.424-18.209-18.209c0-11.06,7.933-18.377,18.321-18.377
	c10.389,0,18.264,6.367,18.264,18.152C366.739,226.919,358.753,234.293,348.363,234.293z M348.363,204.857
	c-5.92,0-9.271,4.468-9.271,11.002c0,6.704,3.462,11.284,9.438,11.284c5.865,0,9.271-4.525,9.271-11.06
	C357.802,209.38,354.285,204.857,348.363,204.857z"/>
<path display="none" fill="none" d="M407.715,205.582c-0.168,0-3.743,0-3.743,0v9.887l4.468-0.111
	c3.799-0.279,5.865-1.843,5.865-5.194C414.305,207.091,412.183,205.582,407.715,205.582z"/>
<path display="none" fill="#459A41" d="M416.26,219.658c4.692-1.788,7.149-5.362,7.149-10.054c0-6.759-4.86-11.059-14.132-11.059
	c0.149,0-2.587,0-5.679,0h-8.321c-0.006,0-0.019,0-0.019,0v22.647v7.832v4.762h8.34h0.541v-4.762v-6.965l4.077-0.334l6.981,11.728
	h9.999L416.26,219.658z M408.439,215.357l-4.468,0.111v-9.887c0,0,3.575,0,3.743,0c4.468,0,6.59,1.509,6.59,4.581
	C414.305,213.515,412.238,215.078,408.439,215.357z"/>
<path display="none" fill="#459A41" d="M443.123,234.293c-9.104,0-15.36-4.47-15.36-14.299v-21.448h8.825v20.274
	c0,5.25,2.122,7.987,6.759,7.987c4.188,0,6.367-2.233,6.367-7.652c0,0.112,0-20.609,0-20.609h8.825c0,0,0,20.499,0,20.666
	C458.539,229.32,452.506,234.293,443.123,234.293z"/>
<path display="none" fill="#459A41" d="M488.249,198.546h8.322v35.244h-9.439l-14.69-22.957v22.621h-8.321v-34.908h9.606
	l14.522,22.676V198.546z"/>
<path display="none" fill="#459A41" d="M519.356,223.679c0-2.345-2.514-3.127-7.149-4.411c-5.084-1.397-11.227-3.743-11.227-10.725
	c0-6.479,4.747-10.779,13.405-10.779c5.474,0,9.719,1.229,13.069,3.071l-1.731,7.317c-3.463-1.844-7.819-3.072-11.282-3.072
	c-3.072,0-4.58,1.062-4.58,2.96c0,2.291,3.183,3.184,7.373,4.357c5.361,1.452,10.947,3.91,10.947,10.557
	s-5.139,11.339-14.299,11.339c-5.194,0-10.221-1.341-13.461-3.185l1.676-7.373c3.463,1.844,7.652,3.239,11.953,3.239
	C517.178,226.975,519.356,225.803,519.356,223.679z"/>
<polygon display="none" fill="#222222" points="395.259,231.792 395.259,229.025 395.259,221.193 380.755,198.546 371.147,198.546 
	371.147,233.454 379.47,233.454 379.47,210.833 394.159,233.79 395.257,233.79 395.257,231.792 "/>
<path fill-rule="evenodd" clip-rule="evenodd" fill="#010101" d="M397.519,146.293c-2.903-4.753-6.128-8.386-9.676-10.897
	c-1.12-0.781-2.197-1.383-3.233-1.808c-1.578-0.679-3.08-1.026-4.507-1.044c-0.695-0.017-1.374,0.043-2.036,0.178
	c-0.136,0.034-0.279,0.059-0.434,0.077c-1.562,0.407-2.988,1.29-4.277,2.647c-4.362,4.533-6.544,13.385-6.544,26.556
	c0,1.086,0.119,2.674,0.356,4.762c0.34-0.323,1.292-0.569,2.853-0.739c2.546-0.254,6.941-0.56,13.189-0.917l-0.204-0.025
	l7.714-0.153c2.563,1.681,4.16,3.896,4.787,6.646c0.169,0.917,0.255,3.132,0.255,6.645c0,0.068-0.086,1.188-0.255,3.361
	c-0.34,2.257-0.943,3.726-1.809,4.405c-0.882,0.73-2.826,1.333-5.83,1.808c-3.107,0.729-4.813,1.146-5.117,1.248
	c-0.288,0.101-3.777,0.755-10.465,1.96c-0.136,0-0.279,0-0.434,0c0,0.068,0.018,0.127,0.052,0.179
	c4.99,17.365,11.872,26.046,20.649,26.046c7.876,0,12.935-4.505,15.175-13.52c0.406-1.681,0.713-3.463,0.916-5.346
	c0.527,0,1.086-0.009,1.682-0.026c0.237,0,0.492,0,0.764,0c0.577-0.017,1.179-0.042,1.807-0.076
	c-0.459,5.007-1.96,9.786-4.507,14.335c-2.597,4.6-6.466,7.434-11.609,8.504c-10.355,2.292-19.131-0.468-26.328-8.275
	c-3.852-4.159-8.503-6.849-13.953-8.071c-5.346-1.188-10.753-1.553-16.218-1.095c0.255,0.34,0.535,0.696,0.841,1.069
	c1.407,1.697,2.359,3.607,2.851,5.729v-0.051c0.323,1.171,0.288,2.351-0.102,3.54v-0.051c-0.119,0.39-0.263,0.772-0.434,1.146
	c0.867,0.407,1.647,0.958,2.343,1.654h0.051c0.899,0.95,1.552,2.054,1.96,3.311l0.025,0.024c0.339,1.137,0.306,2.344-0.103,3.615
	c-0.611,1.851-1.357,3.625-2.24,5.322c0.254,0.306,0.509,0.602,0.764,0.892h-0.025c2.563,3.089,2.928,6.076,1.095,8.961
	c-0.357,0.544-0.789,1.086-1.299,1.63l-0.026,0.052c-2.986,3.156-6.543,4.031-10.667,2.622c-1.239-0.441-2.097-1.18-2.572-2.216
	c-0.355-0.695-0.696-1.391-1.019-2.088c-5.006-10.574-9.174-21.523-12.5-32.843c-0.849,0.017-1.664-0.009-2.445-0.077
	c-3.599-0.356-6.5-1.876-8.707-4.558v-0.026c-4.787-5.907-5.39-12.298-1.809-19.172c0.526-1.053,1.223-1.953,2.088-2.699
	c7.18-6.433,15.523-10.948,25.028-13.545c6.366-1.765,12.248-4.541,17.646-8.326c0.696-0.509,1.272-1.111,1.731-1.807v0.05
	c3.208-4.871,6.102-10.014,8.683-15.429c0.898-1.935,2.062-3.607,3.488-5.017c1.765-1.73,3.759-3.046,5.983-3.946h0.05
	c7.555-3.004,14.657-1.985,21.311,3.056h0.026c2.003,1.545,3.811,3.293,5.423,5.246c1.376,1.68,2.657,3.403,3.844,5.168
	c-0.44,0.153-0.856,0.289-1.245,0.407c-0.238,0.085-0.469,0.161-0.688,0.229C398.97,145.767,398.266,146.022,397.519,146.293z
	 M413.05,194.108c-0.731,0.034-1.316,0.06-1.758,0.077c-0.305,0.034-0.534,0.06-0.688,0.076h-0.05
	c-0.205,0.034-0.637,0.084-1.3,0.153c-0.083,0-0.177,0-0.278,0h-0.104c0-0.068,0-0.144,0-0.229c-0.067-3.107-0.101-4.77-0.101-4.991
	c0-6.229-0.56-12.204-1.681-17.924c0.44-0.034,1.001-0.102,1.681-0.204c0.237-0.034,0.482-0.068,0.737-0.102
	c0.492-0.084,1.035-0.161,1.631-0.229C412.48,178.475,413.118,186.267,413.05,194.108z M410.249,165.873l-1.655,0.509
	c-0.222,0.051-0.459,0.11-0.714,0.178c-0.355,0.103-0.729,0.213-1.118,0.332c-0.222,0.067-0.442,0.127-0.663,0.177
	c-1.019-3.988-2.333-7.841-3.946-11.559c-0.798-1.986-1.647-3.836-2.547-5.55c0.425-0.136,0.858-0.28,1.3-0.433
	c0.288-0.102,0.577-0.204,0.865-0.306c0.22-0.085,0.45-0.17,0.686-0.254c0.409-0.153,0.852-0.314,1.326-0.484
	c2.986,5.33,5.126,11.083,6.417,17.262C410.199,165.779,410.216,165.821,410.249,165.873z M370.402,167.757
	c-1.307,0.237-2.08,0.407-2.317,0.508c-0.373,0.17-0.604,0.272-0.687,0.306c0.169,1.171,0.347,2.444,0.533,3.819
	c0.374,2.597,0.798,5.134,1.274,7.612c0.695,3.497,1.477,6.84,2.342,10.032c2.733-0.951,4.871-1.57,6.416-1.858
	c1.544-0.272,4.167-0.832,7.867-1.681c3.667-0.832,5.976-1.688,6.926-2.571c1.155-1.104,1.731-3.005,1.731-5.704
	c0-3.174-0.084-5.118-0.255-5.83c-0.458-1.8-1.536-3.497-3.233-5.092c-0.39-0.357-0.788-0.713-1.196-1.069
	c-8.029,0.152-13.689,0.509-16.982,1.069C371.87,167.485,371.063,167.638,370.402,167.757z M386.595,172.11
	c-0.237,0.595-0.5,1.112-0.789,1.554c-0.492,0.815-0.611,1.639-0.356,2.469c0.237,0.832,0.434,1.562,0.586,2.19
	c0.103,0.611,1.086,1.409,2.953,2.393c0,0.238-0.662,0.356-1.984,0.356c-1.324,0-2.132-0.806-2.42-2.419
	c-0.356-1.596-0.535-2.605-0.535-3.029c0-0.391,0.144-1.282,0.434-2.673c0.034-0.238,0.093-0.476,0.179-0.713
	c0.406-0.934,1.213-1.451,2.418-1.553C386.926,171.177,386.765,171.652,386.595,172.11z M364.571,141.659
	c-0.849,1.409-2.003,4.261-3.463,8.555c-1.273,3.649-2.724,6.442-4.354,8.376c-2.342,2.835-5.763,5.049-10.261,6.646
	c-3.36,1.138-6.025,1.995-7.994,2.571c-0.187,0.356-0.866,1.918-2.037,4.685c-0.425,1.307-0.722,2.25-0.892,2.826
	c-0.085,0.289-0.195,0.747-0.332,1.375c-0.067,0.289-0.152,0.619-0.254,0.993c-0.102,0.475-0.229,1.001-0.382,1.578
	c-0.492,2.071-0.603,3.845-0.331,5.322c0.187,1.511,0.381,2.657,0.586,3.437c0.322,1.511,0.729,3.03,1.222,4.558
	c0.713,2.326,2.325,4.633,4.837,6.925c1.611-0.102,3.334-0.152,5.169-0.152c7.74,0,13.698,1.001,17.873,3.005
	c2.614,1.205,5.246,3.402,7.893,6.593c2.733,3.259,5.229,5.44,7.485,6.544c1.817,0.968,4.05,1.706,6.697,2.214
	c-6.824-3.428-12.188-12.296-16.091-26.605c-0.935-3.412-1.739-6.985-2.42-10.72c-0.524-2.869-1.001-5.839-1.426-8.911
	c-0.543-6.043-0.814-9.115-0.814-9.218c0-2.087,0.076-4.116,0.23-6.085c0.033-0.713,0.092-1.409,0.177-2.087
	c0.271-2.937,0.705-5.762,1.298-8.478c0.917-4.159,2.156-7.52,3.718-10.083C368.11,137.153,366.064,139.198,364.571,141.659z
	 M333.331,177.431c0.95-3.462,2.113-6.381,3.488-8.758c-4.837,1.783-8.758,3.327-11.763,4.634
	c-5.092,2.172-8.878,4.005-11.355,5.499c-0.035,0.018-0.085,0.034-0.153,0.051c-1.375,0.815-2.453,1.774-3.234,2.877l-1.044,2.063
	c-0.101,0.255-0.17,0.517-0.205,0.789c-0.56,2.325-0.839,4.566-0.839,6.722c0,2.087,0.093,3.513,0.28,4.277
	c0.034,0.085,0.067,0.187,0.102,0.306c0.17,0.695,0.44,1.408,0.816,2.138c0.238,0.476,0.5,0.917,0.788,1.325l0.103,0.152
	c0.203,0.221,0.398,0.434,0.586,0.637c0.322,0.289,0.662,0.551,1.018,0.789l3.183,0.942c0.135,0,0.271,0,0.407,0
	c7.996,0,13.707-0.398,17.136-1.197c1.952-0.509,4.234-0.882,6.849-1.12c-3.225-2.563-5.117-4.753-5.678-6.569
	c-0.407-1.307-0.713-2.817-0.917-4.532c-0.102-0.713-0.153-1.442-0.153-2.189c-0.169-2.512,0.017-5.271,0.561-8.275
	c0.017-0.136,0.042-0.289,0.076-0.458C333.432,177.295,333.415,177.262,333.331,177.431z M339.313,213.128
	c0.714-1.307,1.07-2.131,1.07-2.47c0-0.407-0.882-1.435-2.648-3.081c-1.765-1.613-2.683-2.827-2.75-3.642
	c-0.051-0.798,0.067-1.383,0.356-1.756c-0.781,0.119-1.544,0.254-2.292,0.406c-1.272,0.272-2.631,0.51-4.074,0.714
	c-1.816,0.204-3.726,0.339-5.729,0.407c-0.289,0-0.602,0-0.942,0c-0.051,0-0.085,0-0.102,0c0.289,0.188,0.636,0.722,1.043,1.605
	c0.424,0.764,0.874,1.748,1.35,2.953c0.391,0.917,0.773,1.978,1.145,3.183c0.323,0.865,0.653,1.815,0.994,2.851
	c0.544,1.765,1.29,4.245,2.24,7.435c0.356,1.17,0.748,2.443,1.172,3.818c2.291,7.451,4.269,11.874,5.933,13.265
	c0.373,0.307,0.729,0.46,1.069,0.46c1.188,0,2.241-0.153,3.157-0.46c1.087-0.391,1.978-0.992,2.674-1.807
	c0.611-0.781,1.002-1.596,1.171-2.444c0.271-0.917,0.051-1.621-0.662-2.113c-0.9-0.51-1.494-0.9-1.783-1.172
	c-0.255-0.288-0.348-0.713-0.28-1.274c0-0.576,0.025-0.881,0.077-0.915c0.034-0.067,0.399-1.052,1.095-2.953
	c0.069-0.238,0.153-0.484,0.255-0.738c0.866-2.377,1.298-3.811,1.298-4.303c0-1.188-0.976-2.055-2.928-2.598
	c-0.985-0.289-1.646-0.551-1.986-0.79c-0.628-0.423-0.942-1.025-0.942-1.807c0-0.441,0.237-1.171,0.713-2.189
	C339.109,213.527,339.211,213.332,339.313,213.128z"/>
<path fill-rule="evenodd" clip-rule="evenodd" fill="#4A75AA" d="M471.076,134.326c0.306,0.883,0.177,2.096-0.383,3.641
	c-1.137-0.17-2.442-0.339-3.92-0.509c-1.427-0.187-2.131-0.271-2.113-0.254c-0.136,0.271-0.459,0.84-0.968,1.706
	c-0.493,0.832-0.136,1.511,1.069,2.037c1.188,0.493,3.114,0.127,5.779-1.095c0.119,0.169,0.322,0.382,0.611,0.637
	c0,0.034,0,0.084,0,0.152c0,0.221-0.229,0.509-0.687,0.866c-0.63,0.492-1.214,0.925-1.759,1.299
	c-2.663,1.035-4.684,0.967-6.059-0.204c-0.34-0.221-0.594-0.39-0.764-0.509c-0.288-0.289-0.434-0.832-0.434-1.63
	c0-0.967,0.195-1.884,0.586-2.75c0.322-0.679,0.653-1.171,0.993-1.477c0.052-0.153,0.179-0.331,0.382-0.535
	c0-0.136,0.111-0.297,0.33-0.484c0.204-0.153,1.419-0.568,3.642-1.248C469.574,133.291,470.804,133.41,471.076,134.326z
	 M463.514,169.004c2.683-1.342,5.024-1.342,7.027,0c0.356,0.508,0.621,0.916,0.789,1.222c0.154,0.271,0.255,0.857,0.306,1.756
	c0.052,0.934-0.288,2.232-1.019,3.896c-0.729,1.63-2.257,2.232-4.584,1.808c-2.341-0.441-3.546-0.857-3.615-1.248
	c-0.083-0.373-0.177-0.933-0.279-1.68c-0.102-0.73-0.109-1.315-0.025-1.757c0.051-0.407,0.128-0.882,0.229-1.425
	c0.103-0.102,0.23-0.187,0.383-0.255c0.169-0.034,0.398-0.051,0.688-0.051c0.765,0,1.332,0.051,1.706,0.153
	c0.373,0.102,0.687,0.246,0.941,0.433l0.459,0.433c-0.085,0.238-0.611,0.39-1.579,0.458c-0.561,0-0.823,0.323-0.789,0.968
	c0,0.797,0.203,1.264,0.611,1.4c0.135,0.034,0.289,0.051,0.458,0.051c1.646,0,2.997-0.569,4.048-1.706
	c0.765-0.815,1.146-1.444,1.146-1.885c0-0.458-0.907-0.891-2.725-1.299c-0.424-0.034-0.84-0.05-1.247-0.05
	c-1.663-0.034-2.793-0.017-3.387,0.05c0-0.034-0.008-0.067-0.025-0.102c-0.086-0.084-0.18-0.17-0.28-0.255
	C462.987,169.395,463.242,169.089,463.514,169.004z M427.258,173.969l0.203,0.535c-1.239,0.712-2.028,1.468-2.368,2.266
	c-0.391,0.899-0.271,1.824,0.356,2.775c0.713,0.662,1.571,0.815,2.571,0.458c1.002-0.374,1.563-0.764,1.682-1.171
	c0.118-0.441,0-0.806-0.356-1.094c-0.441-0.204-0.722-0.399-0.842-0.586l0.356-0.535c1.239,0.051,2.003,0.391,2.292,1.019
	c0.103,0.221,0.152,0.755,0.152,1.604c0,0.814-0.067,1.358-0.203,1.629c-0.151,0.255-0.67,0.595-1.553,1.019
	c-2.444,0.934-4.031,1.035-4.761,0.305c-0.782-0.814-1.316-1.663-1.604-2.546c-0.204-0.611-0.307-1.104-0.307-1.477
	c0-1.629,0.103-2.622,0.307-2.979C423.709,174.342,425.067,173.935,427.258,173.969z M391,167.298
	c1.697,1.595,2.775,3.292,3.233,5.092c0.171,0.712,0.255,2.656,0.255,5.83c0,2.699-0.576,4.6-1.731,5.704
	c-0.95,0.883-3.259,1.74-6.926,2.571c-3.7,0.849-6.323,1.409-7.867,1.681c-1.545,0.289-3.683,0.908-6.416,1.858
	c-0.865-3.191-1.646-6.535-2.342-10.032c-0.477-2.479-0.9-5.016-1.274-7.612c-0.187-1.375-0.364-2.648-0.533-3.819
	c0.083-0.034,0.313-0.136,0.687-0.306c0.237-0.102,1.011-0.271,2.317-0.508c-0.188,3.089,1.714,4.786,5.703,5.092l8.556-0.611
	c-0.086,0.237-0.145,0.475-0.179,0.713c-0.29,1.392-0.434,2.283-0.434,2.673c0,0.424,0.179,1.434,0.535,3.029
	c0.288,1.613,1.096,2.419,2.42,2.419c1.322,0,1.984-0.119,1.984-0.356c-1.867-0.984-2.851-1.782-2.953-2.393
	c-0.152-0.628-0.349-1.358-0.586-2.19c-0.255-0.831-0.136-1.654,0.356-2.469c0.289-0.441,0.552-0.958,0.789-1.554l0.586-0.025
	C389.439,171.287,390.711,169.691,391,167.298z M308.607,195.891c0.578-6.417,2.673-10.609,6.289-12.578
	c8.826-3.31,14.896-4.948,18.205-4.915l0.229-0.967c0.084-0.169,0.102-0.136,0.05,0.102c-0.034,0.17-0.059,0.323-0.076,0.458
	c-0.544,3.004-0.729,5.763-0.561,8.275c0,0.747,0.051,1.477,0.153,2.189c0.204,1.715,0.51,3.225,0.917,4.532
	c0.561,1.815,2.453,4.006,5.678,6.569c-2.614,0.238-4.896,0.611-6.849,1.12c-3.429,0.798-9.141,1.197-17.136,1.197
	c-0.135,0-0.271,0-0.407,0l-3.183-0.942c-0.356-0.237-0.695-0.5-1.018-0.789c-0.188-0.204-0.383-0.416-0.586-0.637l-0.103-0.152
	c-0.289-0.408-0.55-0.849-0.788-1.325C309.047,197.299,308.777,196.586,308.607,195.891z M339.313,213.128
	c-0.102,0.204-0.204,0.398-0.305,0.586c-0.476,1.018-0.713,1.748-0.713,2.189c0,0.782,0.314,1.384,0.942,1.807
	c0.34,0.239,1.001,0.501,1.986,0.79c1.952,0.543,2.928,1.409,2.928,2.598c0,0.492-0.433,1.926-1.298,4.303
	c-0.102,0.254-0.186,0.5-0.255,0.738c-0.695,1.901-1.061,2.886-1.095,2.953c-0.051,0.034-0.077,0.339-0.077,0.915
	c-0.068,0.562,0.025,0.986,0.28,1.274c0.289,0.271,0.882,0.662,1.783,1.172c0.712,0.492,0.933,1.196,0.662,2.113
	c-0.169,0.849-0.561,1.663-1.171,2.444c-0.696,0.814-1.587,1.416-2.674,1.807c-0.916,0.307-1.969,0.46-3.157,0.46
	c-0.339,0-0.696-0.153-1.069-0.46c-1.664-1.391-3.642-5.813-5.933-13.265c-0.424-1.375-0.815-2.648-1.172-3.818
	c-0.95-3.19-1.696-5.67-2.24-7.435c-0.34-1.036-0.671-1.986-0.994-2.851c-0.372-1.206-0.754-2.266-1.145-3.183
	c-0.476-1.205-0.925-2.189-1.35-2.953c-0.407-0.883-0.755-1.417-1.043-1.605c0.017,0,0.051,0,0.102,0c0.34,0,0.653,0,0.942,0
	c2.002-0.068,3.912-0.203,5.729-0.407c1.442-0.204,2.801-0.442,4.074-0.714c0.748-0.152,1.511-0.288,2.292-0.406
	c-0.29,0.374-0.408,0.958-0.356,1.756c0.067,0.815,0.985,2.029,2.75,3.642c1.766,1.646,2.648,2.673,2.648,3.081
	C340.383,210.998,340.027,211.821,339.313,213.128z"/>
<path fill-rule="evenodd" clip-rule="evenodd" fill="#F6ED1E" d="M410.249,165.873c1.002-0.255,3.123-0.755,6.366-1.502
	c5.193-1.171,11.296-2.352,18.305-3.54c6.994-1.206,12.825-2.122,17.493-2.75c4.685-0.662,8.707-1.273,12.068-1.833
	c3.36-0.561,5.509-0.891,6.442-0.993c0.933-0.102,3.784-0.594,8.554-1.476c4.771-0.883,10.721-1.561,17.849-2.037
	c-1.018,1.392-13.24,4.549-36.664,9.471c-23.424,4.923-38.251,7.851-44.48,8.785c-1.952,0.271-3.633,0.517-5.041,0.738
	c-0.596,0.067-1.139,0.144-1.631,0.229c-0.255,0.034-0.5,0.068-0.737,0.102c-0.68,0.102-1.24,0.169-1.681,0.204
	c-0.781,0.102-1.308,0.17-1.578,0.204c-0.849,0.016-1.876,0.102-3.081,0.254l-3.208-0.407c0-0.067-0.052-0.169-0.153-0.305
	c-0.085-0.119-0.128-0.459-0.128-1.018c0-0.628,0.96-1.206,2.879-1.732l0.33-0.076c0.831-0.237,2.148-0.611,3.946-1.121
	c0.221-0.05,0.441-0.11,0.663-0.177c0.389-0.119,0.763-0.229,1.118-0.332c0.255-0.068,0.492-0.127,0.714-0.178L410.249,165.873z
	 M399.605,149.96c-1.935,0.661-3.853,1.256-5.754,1.782c-3.445,0.951-6.052,1.053-7.816,0.305c-0.577-0.101-0.916-0.296-1.018-0.585
	c4.565-2.054,8.732-3.776,12.501-5.168c0.747-0.271,1.451-0.526,2.113-0.764c0.22-0.068,0.45-0.145,0.688-0.229
	c0.389-0.119,0.805-0.254,1.245-0.407c2.988-1.036,7.062-2.334,12.223-3.896c6.365-1.952,10.49-2.962,12.374-3.03
	c1.866-0.102,2.725-0.025,2.572,0.229c-5.296,2.648-9.829,4.659-13.596,6.034c-3.787,1.375-7.428,2.733-10.925,4.074
	c-0.152,0.051-0.296,0.11-0.432,0.179c-0.475,0.169-0.917,0.331-1.326,0.484c-0.235,0.084-0.466,0.169-0.686,0.254
	c-0.288,0.102-0.577,0.204-0.865,0.306C400.464,149.68,400.03,149.824,399.605,149.96z M413.05,194.108
	c0.866-0.034,1.995-0.067,3.386-0.102c3.294-0.068,8.106-0.018,14.438,0.153c0-0.102,1.723-0.068,5.168,0.102
	c3.615,0.17,6.01,0.374,7.18,0.611c-2.155,0.849-3.742,1.273-4.761,1.273c-1.019-0.017-5.338,0.365-12.96,1.146
	c-4.838,0.442-9.039,0.764-12.604,0.968c-0.628,0.034-1.229,0.059-1.807,0.076c-0.271,0-0.526,0-0.764,0
	c-0.596,0.017-1.154,0.026-1.682,0.026c-0.492,0-0.967,0-1.426,0c-4.549,0-7.23,0.068-8.046,0.203l-6.263-0.687
	c-0.085-0.051-0.128-0.365-0.128-0.942s0.043-0.866,0.128-0.866c0.05,0.034,0.102,0.127,0.152,0.28
	c0.951-0.883,3.979-1.426,9.09-1.63c3.038-0.136,5.279-0.238,6.721-0.305h0.104c0.102,0,0.195,0,0.278,0
	c0.663-0.068,1.095-0.119,1.3-0.153h0.05c0.153-0.017,0.383-0.042,0.688-0.076C411.733,194.168,412.318,194.143,413.05,194.108z"/>
<path fill-rule="evenodd" clip-rule="evenodd" fill="#CB4646" d="M488.059,160.5c0,0.068,0,0.136,0,0.204
	c0,0.492-0.203,1.103-0.611,1.833c2.207,0.628,3.615,1.095,4.228,1.401c-0.069,0.865-0.892,1.154-2.471,0.865
	c-1.596-0.323-2.147-0.221-1.655,0.305c0.51,0.509,1.002,1.086,1.477,1.732c0,0.441-0.238,0.814-0.713,1.12
	c-0.593-0.373-1.637-1.196-3.131-2.47c-1.273,1.392-2.291,2.3-3.056,2.725c-0.271-0.119-0.433-0.204-0.484-0.255
	c-0.118-0.068-0.178-0.585-0.178-1.552c0-1.104,0.425-2.182,1.273-3.234c-0.832-0.748-1.52-1.375-2.063-1.885
	c0-0.306-0.042-0.585-0.127-0.839c0.136-0.085,0.204-0.179,0.204-0.281c0.476,0.102,1.146,0.433,2.012,0.993
	c0.492,0.119,1.044,0.272,1.655,0.458c0.186-0.136,0.374-0.272,0.561-0.407c0.186-0.781,0.695-1.468,1.527-2.063
	c1.103-0.781,1.655-0.441,1.655,1.019C488.127,160.288,488.093,160.398,488.059,160.5z M420.104,126l0.151,1.222
	c-0.492,1.41-1.281,2.768-2.368,4.074c0.239,0.646,0.373,1.401,0.408,2.267l-0.408,0.611c-0.475-0.136-1.077-0.424-1.807-0.866
	c-1.647,1.494-3.445,2.453-5.397,2.877c0.27-0.968,1.297-2.418,3.08-4.354c-1.103-0.747-2.402-1.698-3.896-2.852
	c2.835-0.747,4.957-0.688,6.366,0.178C418.016,127.341,419.305,126.29,420.104,126z M458.218,185.655
	c0.271-0.713,0.772-1.315,1.503-1.808c0.644-0.475,1.129-0.603,1.451-0.382c0.084,0,0.145,0,0.177,0l0.051,0.254
	c0.12,0.254,0.18,0.628,0.18,1.12c0,0.611-0.255,1.146-0.765,1.604l6.162,0.79c0.034,1.527-2.402,1.935-7.308,1.222
	c0.544,1.052,0.815,1.952,0.815,2.699c0,0.798,0,1.205,0,1.222c0,0.068-0.061,0.154-0.179,0.255l-0.764,0.382
	c-0.51-0.849-1.078-2.045-1.706-3.59c-1.239,0.798-2.24,1.273-3.004,1.426c-0.766-0.255-1.266-0.578-1.502-0.968
	c0.56-0.748,1.663-1.468,3.31-2.164c-0.288-0.322-0.569-0.764-0.841-1.324c-0.543-1.409-0.814-2.08-0.814-2.012
	c0-1.766,0.671-1.73,2.011,0.102c0.069,0.136,0.154,0.255,0.255,0.356c0.187,0.204,0.392,0.442,0.612,0.713
	C457.963,185.57,458.082,185.605,458.218,185.655z"/>
<path fill-rule="evenodd" clip-rule="evenodd" fill="#FFFFFF" d="M399.605,149.96c0.899,1.714,1.749,3.564,2.547,5.55
	c1.613,3.718,2.928,7.571,3.946,11.559c-1.798,0.51-3.115,0.883-3.946,1.121l-0.33,0.076c-1.919,0.526-2.879,1.104-2.879,1.732
	c0,0.559,0.043,0.899,0.128,1.018c0.102,0.136,0.153,0.238,0.153,0.305l3.208,0.407c1.205-0.152,2.232-0.238,3.081-0.254
	c0.271-0.034,0.797-0.102,1.578-0.204c1.121,5.72,1.681,11.695,1.681,17.924c0,0.221,0.033,1.884,0.101,4.991
	c0,0.085,0,0.161,0,0.229c-1.441,0.067-3.683,0.169-6.721,0.305c-5.11,0.204-8.139,0.747-9.09,1.63
	c-0.051-0.153-0.103-0.247-0.152-0.28c-0.085,0-0.128,0.289-0.128,0.866s0.043,0.891,0.128,0.942l6.263,0.687
	c0.815-0.135,3.497-0.203,8.046-0.203c0.459,0,0.934,0,1.426,0c-0.203,1.883-0.51,3.666-0.916,5.346
	c-2.24,9.014-7.299,13.52-15.175,13.52c-8.777,0-15.659-8.681-20.649-26.046c-0.034-0.051-0.052-0.11-0.052-0.179
	c0.154,0,0.298,0,0.434,0c6.688-1.205,10.177-1.859,10.465-1.96c0.305-0.103,2.01-0.519,5.117-1.248
	c3.004-0.475,4.948-1.077,5.83-1.808c0.865-0.679,1.469-2.147,1.809-4.405c0.169-2.173,0.255-3.293,0.255-3.361
	c0-3.513-0.086-5.729-0.255-6.645c-0.627-2.75-2.224-4.965-4.787-6.646l-7.714,0.153l0.204,0.025
	c-6.248,0.356-10.644,0.662-13.189,0.917c-1.561,0.17-2.513,0.416-2.853,0.739c-0.237-2.088-0.356-3.675-0.356-4.762
	c0-13.171,2.182-22.023,6.544-26.556c1.289-1.358,2.716-2.241,4.277-2.647c0.154-0.018,0.298-0.042,0.434-0.077
	c0.662-0.135,1.341-0.195,2.036-0.178c1.427,0.018,2.929,0.365,4.507,1.044c1.036,0.425,2.113,1.027,3.233,1.808
	c3.548,2.512,6.772,6.144,9.676,10.897c-3.769,1.392-7.936,3.114-12.501,5.168c0.102,0.289,0.44,0.484,1.018,0.585
	c1.765,0.748,4.371,0.646,7.816-0.305C395.753,151.216,397.671,150.621,399.605,149.96z M364.571,141.659
	c1.493-2.461,3.539-4.506,6.136-6.136c-1.562,2.563-2.801,5.924-3.718,10.083c-0.593,2.716-1.026,5.542-1.298,8.478
	c-0.085,0.679-0.144,1.375-0.177,2.087c-0.154,1.969-0.23,3.998-0.23,6.085c0,0.103,0.271,3.174,0.814,9.218
	c0.425,3.072,0.901,6.042,1.426,8.911c0.681,3.735,1.485,7.308,2.42,10.72c3.903,14.309,9.267,23.178,16.091,26.605
	c-2.647-0.508-4.88-1.246-6.697-2.214c-2.256-1.104-4.752-3.285-7.485-6.544c-2.646-3.191-5.278-5.389-7.893-6.593
	c-4.175-2.004-10.133-3.005-17.873-3.005c-1.834,0-3.558,0.05-5.169,0.152c-2.512-2.292-4.125-4.599-4.837-6.925
	c-0.493-1.528-0.9-3.047-1.222-4.558c-0.205-0.78-0.399-1.926-0.586-3.437c-0.272-1.477-0.161-3.25,0.331-5.322
	c0.154-0.577,0.28-1.103,0.382-1.578c0.102-0.374,0.187-0.704,0.254-0.993c0.136-0.628,0.246-1.086,0.332-1.375
	c0.169-0.577,0.467-1.519,0.892-2.826c1.17-2.767,1.85-4.329,2.037-4.685c1.969-0.577,4.634-1.434,7.994-2.571
	c4.499-1.596,7.919-3.811,10.261-6.646c1.63-1.935,3.081-4.728,4.354-8.376C362.568,145.92,363.723,143.068,364.571,141.659z"/>
<path fill-rule="evenodd" clip-rule="evenodd" fill="#7397C3" d="M391,167.298c-0.289,2.393-1.561,3.988-3.819,4.787l-0.586,0.025
	c0.17-0.458,0.331-0.933,0.484-1.425c-1.205,0.102-2.012,0.62-2.418,1.553l-8.556,0.611c-3.989-0.306-5.891-2.002-5.703-5.092
	c0.661-0.119,1.468-0.272,2.419-0.458c3.293-0.56,8.953-0.917,16.982-1.069C390.212,166.585,390.61,166.941,391,167.298z
	 M308.607,195.891c-0.034-0.119-0.068-0.221-0.102-0.306c-0.187-0.764-0.28-2.189-0.28-4.277c0-2.156,0.28-4.397,0.839-6.722
	c0.035-0.272,0.104-0.534,0.205-0.789l1.044-2.063c0.781-1.103,1.858-2.062,3.234-2.877c0.067-0.017,0.118-0.033,0.153-0.051
	c2.477-1.494,6.263-3.327,11.355-5.499c3.005-1.307,6.926-2.852,11.763-4.634c-1.375,2.377-2.538,5.296-3.488,8.758l-0.229,0.967
	c-3.309-0.034-9.379,1.604-18.205,4.915C311.28,185.282,309.185,189.475,308.607,195.891z"/>
<path fill="#010101" d="M496.439,267.584c-0.348-0.312-0.773-0.467-1.276-0.467c-0.756,0.013-1.446,0.839-2.069,2.482
	c-0.24,0.467-0.803,2.254-1.691,5.359c-1.499,5.205-3.31,7.82-5.432,7.844c-0.684,0.012-1.056-0.013-1.115-0.071l0.126-0.073
	c-1.319-2.71-1.854-5.168-1.603-7.375c0.121-1.979,0.211-3.465,0.271-4.461c0.084-1.763-0.096-3.388-0.54-4.875
	c-1.979,2.039-2.926,6.501-2.842,13.384c0,0.084,0.025,0.539,0.072,1.366c0.12,0.983,0.336,1.877,0.648,2.681
	c0.971,2.53,2.649,3.778,5.037,3.742c2.409-0.024,4.579-1.435,6.511-4.228c0.072,0.371,0.107,0.754,0.107,1.151
	c-0.143,0.574-0.179,2.164-0.107,4.767c0.072,2.507-0.413,5.319-1.457,8.437c-1.032,3.116-2.279,4.564-3.742,4.336
	c-1.45-0.253-2.495-1.225-3.13-2.916c-0.707-1.846-1.396-2.889-2.068-3.129c-0.3,0.157-0.605,0.348-0.918,0.575
	c-0.229,0.192-0.365,0.289-0.413,0.289c0,0.276-0.019,0.568-0.054,0.881c-0.062,0.337-0.083,0.797-0.072,1.384
	c0.011,0.913,0.414,2.076,1.205,3.491c0.792,1.415,2.088,2.446,3.886,3.094c0.972,0.36,2.074,0.606,3.311,0.736
	c0.97,0.097,2.319-0.441,4.047-1.617c1.714-1.187,2.89-7.04,3.524-17.558C497.268,276.284,497.194,269.874,496.439,267.584z"/>
<path fill="#010101" d="M459.312,269.042c-1.438,3.189-2.404,6.056-2.896,8.598c-0.107-0.336-0.191-0.677-0.252-1.024
	c-0.924-3.693-1.93-6.268-3.021-7.717c-0.396,0.154-0.77,0.988-1.115,2.5c-0.3,1.26-0.445,2.398-0.433,3.417
	c0,0.06,0.216,2.266,0.647,6.62c0.708,4.27,1.811,6.393,3.311,6.368c0.73-0.013,1.24-0.139,1.527-0.378
	c0.049-0.049,0.091-0.071,0.126-0.071c0.157-0.013,0.331-0.019,0.521-0.019c0.169,0,0.349-0.701,0.54-2.105
	c0.216-1.99,0.54-3.687,0.972-5.091c1.667-5.265,5.048-8.896,10.146-10.899C464.085,265.869,460.727,265.804,459.312,269.042z"/>
<path fill="#010101" d="M471.399,255.964c-0.06,4.018-0.102,9.558-0.125,16.621c-0.049,5.456-0.061,9.071-0.036,10.847
	c0,0.048,0.012,1.037,0.036,2.969c0.251,1.871,0.94,2.794,2.068,2.77c0.886-0.013,1.606-0.545,2.158-1.601
	c0.419-0.888,0.721-3.441,0.9-7.662c0.214-4.259,0.028-10.039-0.56-17.342C475.268,255.214,473.787,253.015,471.399,255.964z"/>
<path fill="#010101" d="M447.26,282.371c-1.583-1.332-2.411-2.53-2.483-3.598c-0.503-1.775-0.719-3.346-0.647-4.713
	c0.049-1.416-0.101-2.843-0.449-4.281c-0.803-2.016-2.692-2.111-5.667-0.288c-2.973,1.774-5.03,3.459-6.17,5.055
	c-1.187,1.535-2.05,3.166-2.59,4.893c-0.336,1.163-0.491,2.603-0.468,4.317c0.023,1.188,0.426,2.262,1.206,3.221
	c1.187,1.462,3.033,2.176,5.54,2.14c1.055-0.012,2.266-0.563,3.634-1.655c0.683-0.516,1.624-1.39,2.824-2.626
	c0.634,0.779,1.433,1.51,2.392,2.195c1.344,0.84,2.633,1.248,3.867,1.222c0.625-0.01,1.086-0.076,1.387-0.197
	c0.215-0.203,0.36-0.305,0.431-0.305l0.323-1.801C450.041,285.052,448.998,283.857,447.26,282.371z M437.275,284.854
	c-2.375,0.635-3.729,0.522-4.064-0.342c-0.384-0.875-0.582-1.649-0.595-2.321c-0.012-1.343,0.36-2.723,1.115-4.138
	c0.744-1.415,2.902-3.166,6.475-5.252C440.604,280.175,439.627,284.194,437.275,284.854z"/>
<path fill="#010101" d="M425.979,274.546c-0.252-1.188-0.767-2.255-1.547-3.202c-0.828-0.97-1.313-1.516-1.457-1.637
	c-1.812-1.403-3.855-2.032-6.134-1.89c-2.519,0.146-4.767,1.218-6.747,3.221c-2.038,1.991-3.17,3.861-3.397,5.612
	c-0.253,1.716-0.241,3.16,0.035,4.335c0.276,1.141,0.881,2.765,1.816,4.876c0.937,2.109,3.772,3.136,8.508,3.075
	c0.984-0.013,2.43-0.432,4.337-1.26c0.743-0.322,1.337-0.599,1.78-0.827c0.672-0.383,1.009-0.695,1.009-0.936
	c-0.014-0.73-0.109-1.162-0.289-1.296c-0.276-0.059-0.522-0.137-0.737-0.233c-0.062-0.023-0.12-0.048-0.181-0.07l-2.949,0.197
	c0.971,0.013,0.342,0.203-1.889,0.575c-2.255,0.408-3.903,0.144-4.948-0.791c-1.03-0.948-1.223-1.752-0.575-2.411
	c4.822-0.838,8.317-1.522,10.488-2.05c1.558-0.396,2.428-0.721,2.607-0.972c0.385-0.564,0.521-0.846,0.415-0.846
	c0.035-0.037,0.053-0.066,0.053-0.09c0.049-0.096,0.072-0.205,0.072-0.324c0.071,0.073,0.132-0.113,0.179-0.558
	c0.014-0.022,0.062-0.06,0.146-0.106l-0.146-0.486C426.381,276.356,426.23,275.721,425.979,274.546z M416.822,277.334
	c-2.975,0.528-4.891,0.894-5.757,1.097c-0.226-0.899,0.192-2.176,1.261-3.83c1.029-1.691,2.681-2.548,4.945-2.573
	c2.327-0.035,4.024,1.007,5.093,3.129c0.191,0.325,0.407,0.756,0.648,1.297C421.428,276.584,419.365,276.879,416.822,277.334z"/>
<path fill="#010101" d="M393.456,279.979c-0.383-0.564-0.876-0.882-1.475-0.954c-0.301-0.061-0.605-0.055-0.917,0.018
	c-0.169,0.036-0.931,0.67-2.285,1.907c-1.309,1.271-3.261,2.134-5.865,2.59c-2.577,0.419-4.67-0.372-6.277-2.373
	c-1.63-1.992-2.518-3.378-2.663-4.156c-0.155-0.817-0.323-2.004-0.502-3.562c-0.169-1.584,0.437-3.575,1.817-5.973
	c1.379-2.411,3.577-4.336,6.6-5.774c3.011-1.392,5.092-1.589,6.241-0.593c1.165,1.03,2.089,2.272,2.772,3.723l0.664-0.307
	c0.025-0.022,0.103-0.089,0.234-0.197c0.12-0.132,0.295-0.3,0.523-0.503c0.382-0.433,0.186-1.584-0.595-3.453
	c-0.014-0.085-0.036-0.15-0.072-0.198c-0.899-1.969-2.561-3.197-4.982-3.688c-2.387-0.504-5.176,0.137-8.363,1.925
	c-3.19,1.763-5.692,4.159-7.503,7.194c-2.027,3.55-2.704,7.304-2.032,11.261c0,0.073,0.167,0.876,0.503,2.411
	c0.517,1.737,1.211,3.267,2.087,4.588c2.842,4.255,7.242,5.851,13.204,4.782c2.674-0.454,5.007-1.461,6.996-3.021
	c0.169-0.144,0.331-0.288,0.486-0.432c1.512-1.355,2.17-2.614,1.979-3.777C393.912,280.867,393.72,280.386,393.456,279.979z"/>
<path fill="#010101" d="M398.169,256.162c-0.082,4.017-0.144,9.551-0.179,16.603c-0.014,5.47,0,9.084,0.035,10.847
	c0,0.061,0.006,1.063,0.019,3.005c0.239,1.858,0.923,2.782,2.05,2.77c0.876-0.011,1.595-0.545,2.159-1.6
	c0.419-0.889,0.695-3.538,0.827-7.951c0.12-4.438-0.102-10.325-0.666-17.665C401.814,254.843,400.399,252.84,398.169,256.162z"/>
<path fill="#010101" d="M350.878,264.832c-0.036-6.619-0.432-10.302-1.188-11.044c-0.54-0.421-1.206-0.223-1.996,0.593
	c-0.913,0.792-1.326,2.747-1.243,5.864c0.072,3.083,0.281,5.762,0.63,8.041c-1.584-1.176-3.483-1.547-5.702-1.116
	c-2.255,0.374-4.055,1.543-5.397,3.508c-1.38,1.967-2.244,3.754-2.59,5.361c-0.335,1.606-0.564,2.956-0.683,4.048
	c-0.061,1.343,0.017,2.578,0.233,3.705c0.779,3.489,2.986,5.205,6.62,5.145c1.344,0,3.401-0.73,6.17-2.196
	c0.419-0.25,0.822-0.466,1.204-0.646c0.013,0.251,0.055,0.864,0.127,1.836c0.299,1.103,1.175,1.648,2.626,1.637
	c0.803-0.012,1.313-0.102,1.529-0.27l0.27-0.343c0.132,0.145,0.186-0.443,0.163-1.763
	C351.16,278.63,350.901,271.177,350.878,264.832z M346.974,280.572c-0.635,0.384-1.865,1.084-3.687,2.104
	c-1.824,0.983-3.046,1.326-3.67,1.026c-0.646-0.313-1.337-0.852-2.068-1.62c-0.707-0.729-1.019-1.846-0.936-3.345
	c0.061-1.522,0.558-3.208,1.494-5.055c0.923-1.884,2.225-2.886,3.903-3.005c1.691-0.143,3.052,0.78,4.083,2.771
	c0.359,0.707,0.684,1.318,0.972,1.834C346.98,277.299,346.95,279.062,346.974,280.572z"/>
<path fill="#010101" d="M312.724,268.431c0.229-0.145,0.419-0.288,0.577-0.433c-0.192-0.06-0.39-0.119-0.595-0.181
	c-0.084-0.036-0.174-0.059-0.27-0.071c-3.13-0.875-6.985-1.139-11.564-0.791c-0.193-11.765-1.194-15.53-3.004-11.297
	c-0.348,1.714-0.715,4.096-1.098,7.141c-0.204,1.463-0.342,2.962-0.414,4.499l-7.699,1.187c-1.295,1.785,1.266,2.805,7.682,3.058
	c-0.025,0.503-0.03,1.025-0.019,1.565c0.011,0.407,0.019,0.827,0.019,1.258c0,0.121,0.251,2.544,0.755,7.269
	c0.635,4.641,1.331,6.955,2.086,6.943c1.426,0,2.116-1.494,2.068-4.479c0.037-3.923,0.06-7.609,0.073-11.063
	c-0.013-0.814-0.013-1.605,0-2.374c0.683,0.145,2.001,0.145,3.957,0c1.942-0.168,3.639-0.528,5.091-1.08
	c0.767-0.3,1.409-0.592,1.924-0.88C312.449,268.616,312.591,268.525,312.724,268.431z"/>
<path fill="#010101" d="M329.598,274.654c-0.036-1.177-0.996-2.662-2.878-4.462c-1.883-1.835-5.007-2.243-9.373-1.224
	c-4.389,1.031-6.584,5.176-6.584,12.431c0.24,3.863,2.04,6.033,5.397,6.512c3.789,0.527,6.631,0.39,8.525-0.413
	c1.896-0.804,2.836-1.409,2.825-1.818c0-0.191,0-0.347,0-0.467c-0.191-1.848-1.66-2.045-4.408-0.595
	c-0.407,0.073-0.959,0.162-1.655,0.271c-2.242,0.42-3.878,0.154-4.911-0.792c-1.043-0.935-1.241-1.721-0.593-2.356
	c8.321-1.487,12.687-2.5,13.095-3.04c0.395-0.599,0.533-0.897,0.414-0.899c0.036,0,0.054-0.019,0.054-0.053
	c0.048-0.121,0.072-0.235,0.072-0.343c0.084,0.084,0.145-0.097,0.18-0.54c0.024-0.06,0.078-0.102,0.163-0.126l-0.181-0.521
	C329.669,276.315,329.621,275.793,329.598,274.654z M320.189,277.154c-2.999,0.551-4.94,0.911-5.827,1.08
	c-0.205-0.89,0.221-2.153,1.276-3.797c1.032-1.702,2.705-2.566,5.02-2.59c2.277-0.036,3.958,0.982,5.037,3.058
	c0.156,0.348,0.372,0.78,0.646,1.297C324.746,276.381,322.696,276.698,320.189,277.154z"/>
<path fill="#010101" d="M275.147,265.93c-0.013-0.661-0.042-1.02-0.092-1.08c-0.214,0.097-0.413,0.049-0.591-0.145
	c-1.991,0.025-6.19,0.721-12.593,2.088c0.012-4.545,0-8.311-0.036-11.296c-0.012-0.744-0.113-1.313-0.305-1.709
	c-0.049-0.096-0.108-0.21-0.179-0.342c-0.109-0.145-0.241-0.308-0.397-0.486c-0.155,0.167-0.31,0.336-0.467,0.504
	c-1.547,1.775-2.608,4.898-3.184,9.372c-0.205,1.464-0.335,3.147-0.396,5.055c-4.292,0.946-7.064,1.564-8.312,1.852
	c-0.06,0.193-0.161,0.359-0.305,0.504v0.99c0.012,0.131,0.636,0.725,1.871,1.78c2.11-0.516,4.348-0.995,6.71-1.438
	c-0.024,0.504-0.03,1.025-0.018,1.565c0,0.407,0,0.821,0,1.239c0,0.132,0.275,2.563,0.827,7.286
	c0.636,4.653,1.314,6.974,2.033,6.961c1.451-0.024,2.153-1.521,2.105-4.497c0-3.921,0.011-7.607,0.035-11.062
	c-0.012-0.804,0.007-1.596,0.055-2.376c1.847-0.312,4.078-0.707,6.691-1.186c2.315-0.36,3.941-0.793,4.875-1.297
	C274.612,267.686,275.17,266.925,275.147,265.93z"/>
<path fill="#010101" d="M287.253,282.695c-1.703-1.415-2.639-2.813-2.807-4.191c-0.203-1.38-0.365-2.681-0.485-3.903
	c-0.167-1.225-0.288-2.771-0.36-4.641c-0.779-2.017-2.662-2.112-5.648-0.289c-2.973,1.775-5.054,3.455-6.241,5.037
	c-1.163,1.534-2.015,3.18-2.555,4.929c-0.336,1.127-0.497,2.536-0.486,4.229c0.012,1.222,0.444,2.32,1.294,3.291
	c1.151,1.438,2.975,2.146,5.47,2.122c1.042-0.012,2.253-0.552,3.633-1.619c0.708-0.516,1.654-1.385,2.842-2.607
	c0.635,0.791,1.433,1.498,2.392,2.122c1.32,0.911,2.591,1.354,3.813,1.331c0.672,0,1.14-0.095,1.404-0.288
	c0.251-0.191,0.401-0.287,0.45-0.287l0.305-1.78C289.926,285.249,288.919,284.098,287.253,282.695z M274.858,284.763
	c-0.479,0.013-0.971-0.191-1.474-0.611c-0.576-0.528-0.864-1.133-0.864-1.816c-0.023-1.32,0.528-2.813,1.655-4.48
	c1.104-1.666,2.753-3.059,4.947-4.172C280.117,281.035,278.696,284.728,274.858,284.763z"/>
<path fill="#010101" d="M238.162,269.222c-2.914,0.19-5.12,0.288-6.619,0.288c-2.687-0.108-4.041-0.787-4.065-2.033
	c-0.012-1.151,0.857-2.477,2.608-3.976c2.134-1.823,4.641-2.751,7.52-2.787c0.503-0.014,1.037,0.52,1.6,1.601
	c0.54,1.139,1.067,1.702,1.583,1.69c0.683,0,1.049-0.078,1.097-0.234l0.054-0.287c0-0.276,0.061-0.611,0.18-1.008
	c0.084-0.36,0.119-0.856,0.107-1.493c0-0.588-0.425-1.337-1.278-2.249c-0.886-0.936-1.63-1.445-2.23-1.528
	c-4.929-0.551-8.862,0.547-11.8,3.291c-2.339,2.171-3.489,4.469-3.454,6.891c0.025,2.015,0.258,3.37,0.702,4.065
	c1.415,2.063,4.653,3.063,9.713,3.004c3.131-0.036,5.043-0.013,5.739,0.072c1.991,0.287,2.992,1.085,3.003,2.393
	c0.012,1.354-0.48,2.782-1.475,4.28c-1.452,2.278-3.61,3.43-6.476,3.454c-0.924,0.011-2.58-0.407-4.965-1.26
	c-2.327-0.875-3.909-1.306-4.749-1.296c-1.548,0.026-2.311,0.956-2.285,2.79c0.012,1.091,1.199,2.099,3.562,3.021
	c2.399,0.984,5.114,1.457,8.148,1.422c5.217-0.072,8.888-1.728,11.01-4.966c1.284-2.026,1.907-4.551,1.87-7.572
	c-0.024-2.194-0.468-3.854-1.331-4.983C244.518,270.037,241.928,269.174,238.162,269.222z"/>
<rect x="175" y="223.659" display="none" fill="#E4BA00" width="370" height="2.467"/>
<path display="none" fill="#222222" d="M194.354,249.546c-1.16-1.141-1.74-2.606-1.74-4.398c0-1.791,0.58-3.258,1.74-4.398
	c1.161-1.141,2.603-1.711,4.325-1.711c1.901,0,3.394,0.781,4.477,2.342l-1.219,0.691c-0.34-0.519-0.802-0.935-1.387-1.248
	c-0.585-0.314-1.208-0.472-1.871-0.472c-1.308,0-2.392,0.448-3.253,1.344c-0.861,0.896-1.292,2.047-1.292,3.452
	c0,1.395,0.434,2.542,1.301,3.443c0.866,0.902,1.948,1.353,3.244,1.353c0.663,0,1.285-0.159,1.867-0.479
	c0.581-0.319,1.045-0.732,1.391-1.24l1.235,0.675c-1.141,1.572-2.638,2.358-4.493,2.358
	C196.957,251.257,195.516,250.687,194.354,249.546z"/>
<path display="none" fill="#222222" d="M208.597,251.041v-11.804h4.744c1.095,0,1.987,0.324,2.679,0.972
	c0.691,0.648,1.037,1.511,1.037,2.588c0,1.021-0.298,1.834-0.895,2.439c-0.597,0.606-1.326,0.944-2.19,1.015l3.188,4.79h-1.737
	l-2.989-4.666h-2.368v4.666H208.597z M210.065,245.062h3.094c0.697,0,1.268-0.213,1.711-0.64s0.665-0.968,0.665-1.625
	c0-0.674-0.222-1.217-0.665-1.629c-0.443-0.411-1.014-0.617-1.711-0.617h-3.094V245.062z"/>
<path display="none" fill="#222222" d="M222.912,251.041v-11.804h1.469v11.804H222.912z"/>
<path display="none" fill="#222222" d="M230.677,251.041v-11.804h2.1l3.681,9.099l3.664-9.099h2.108v11.804h-1.469v-9.929
	l-4.001,9.929h-0.597l-4.018-9.929v9.929H230.677z"/>
<path display="none" fill="#222222" d="M248.526,251.041v-11.804h1.469v11.804H248.526z"/>
<path display="none" fill="#222222" d="M256.291,251.041v-11.804h1.503l6.792,9.22v-9.22h1.469v11.804h-1.417l-6.878-9.419v9.419
	H256.291z"/>
<path display="none" fill="#222222" d="M271.124,251.041l4.762-11.804h1.823l4.744,11.804h-1.677l-1.046-2.618h-5.876l-1.046,2.618
	H271.124z M274.295,247.109h5.013l-2.515-6.369L274.295,247.109z"/>
<path display="none" fill="#222222" d="M287.332,251.041v-11.804h1.469v10.49h5.487v1.313H287.332z"/>
<path display="none" fill="#222222" d="M307.908,251.041v-11.804h4.035c1.804,0,3.263,0.561,4.377,1.681
	c1.115,1.12,1.672,2.53,1.672,4.229c0,1.711-0.555,3.121-1.663,4.23c-1.109,1.108-2.57,1.663-4.386,1.663H307.908z M309.377,249.728
	h2.566c1.395,0,2.498-0.437,3.31-1.31c0.813-0.872,1.219-1.963,1.219-3.271c0-1.319-0.401-2.415-1.205-3.288
	c-0.804-0.872-1.911-1.309-3.323-1.309h-2.566V249.728z"/>
<path display="none" fill="#222222" d="M323.83,251.041v-11.804h7.734v1.313h-6.266v3.793h6.136v1.313h-6.136v4.07h6.266v1.313
	H323.83z"/>
<path display="none" fill="#222222" d="M337.437,251.041v-11.804h7.734v1.313h-6.266v3.793h6.136v1.313h-6.136v5.384H337.437z"/>
<path display="none" fill="#222222" d="M350.724,251.041v-11.804h7.734v1.313h-6.266v3.793h6.136v1.313h-6.136v4.07h6.266v1.313
	H350.724z"/>
<path display="none" fill="#222222" d="M364.33,251.041v-11.804h1.503l6.792,9.22v-9.22h1.47v11.804h-1.417l-6.879-9.419v9.419
	H364.33z"/>
<path display="none" fill="#222222" d="M379.682,249.372l0.882-1.134c0.979,1.137,2.212,1.705,3.698,1.705
	c0.956,0,1.659-0.205,2.108-0.616c0.449-0.412,0.674-0.891,0.674-1.438c0-0.552-0.239-0.992-0.718-1.319
	c-0.479-0.328-1.062-0.588-1.746-0.778c-0.686-0.19-1.372-0.382-2.061-0.573c-0.688-0.191-1.271-0.526-1.749-1.004
	s-0.717-1.11-0.717-1.897c0-0.964,0.383-1.752,1.149-2.362c0.766-0.611,1.739-0.917,2.92-0.917c1.734,0,3.126,0.551,4.174,1.651
	l-0.881,1.082c-0.836-0.946-1.974-1.42-3.414-1.42c-0.708,0-1.29,0.177-1.745,0.528c-0.455,0.353-0.683,0.808-0.683,1.366
	c0,0.419,0.174,0.766,0.521,1.039s0.773,0.484,1.281,0.632s1.068,0.31,1.681,0.487c0.613,0.179,1.176,0.375,1.689,0.59
	c0.515,0.214,0.945,0.562,1.295,1.043c0.35,0.48,0.524,1.062,0.524,1.742c0,0.957-0.357,1.776-1.072,2.457
	c-0.714,0.681-1.809,1.021-3.283,1.021C382.297,251.257,380.788,250.629,379.682,249.372z"/>
<path display="none" fill="#222222" d="M394.299,251.041v-11.804h7.733v1.313h-6.265v3.793h6.136v1.313h-6.136v4.07h6.265v1.313
	H394.299z"/>
<path display="none" fill="#222222" d="M414.798,251.041l4.762-11.804h1.823l4.744,11.804h-1.677l-1.046-2.618h-5.876l-1.045,2.618
	H414.798z M417.97,247.109h5.012l-2.515-6.369L417.97,247.109z"/>
<path display="none" fill="#222222" d="M429.208,240.551v-1.313h8.952v1.313h-3.75v10.49h-1.469v-10.49H429.208z"/>
<path display="none" fill="#222222" d="M442.831,240.551v-1.313h8.952v1.313h-3.75v10.49h-1.469v-10.49H442.831z"/>
<path display="none" fill="#222222" d="M457.941,249.521c-1.089-1.158-1.634-2.615-1.634-4.373c0-1.757,0.545-3.214,1.634-4.372
	c1.09-1.158,2.497-1.737,4.221-1.737c1.725,0,3.136,0.579,4.233,1.737s1.647,2.615,1.647,4.372c0,1.758-0.55,3.215-1.647,4.373
	c-1.098,1.157-2.509,1.736-4.233,1.736C460.438,251.257,459.031,250.678,457.941,249.521z M457.829,245.147
	c0,1.395,0.395,2.542,1.185,3.443c0.79,0.902,1.84,1.353,3.148,1.353c1.298,0,2.349-0.45,3.153-1.353
	c0.804-0.901,1.206-2.049,1.206-3.443c0-1.394-0.4-2.542-1.202-3.443s-1.854-1.353-3.157-1.353c-1.309,0-2.358,0.448-3.148,1.344
	C458.224,242.592,457.829,243.742,457.829,245.147z"/>
<path display="none" fill="#222222" d="M473.864,251.041v-11.804h4.744c1.094,0,1.987,0.324,2.679,0.972
	c0.691,0.648,1.037,1.511,1.037,2.588c0,1.021-0.299,1.834-0.895,2.439c-0.597,0.606-1.327,0.944-2.19,1.015l3.188,4.79h-1.737
	l-2.989-4.666h-2.368v4.666H473.864z M475.333,245.062h3.094c0.697,0,1.268-0.213,1.711-0.64s0.665-0.968,0.665-1.625
	c0-0.674-0.222-1.217-0.665-1.629c-0.443-0.411-1.014-0.617-1.711-0.617h-3.094V245.062z"/>
<path display="none" fill="#222222" d="M488.179,251.041v-11.804h1.503l6.792,9.22v-9.22h1.47v11.804h-1.417l-6.879-9.419v9.419
	H488.179z"/>
<path display="none" fill="#222222" d="M504.239,251.041v-11.804h7.733v1.313h-6.265v3.793h6.136v1.313h-6.136v4.07h6.265v1.313
	H504.239z"/>
<path display="none" fill="#222222" d="M516.618,239.237h1.72l3.664,5.487l3.664-5.487h1.72l-4.641,6.81v4.994h-1.469v-4.994
	L516.618,239.237z"/>
<path display="none" fill="#222222" d="M191.76,208.614l2.48-4.319c1.04,1,2.399,1.92,4.239,1.92c2.52,0,4.159-1.72,4.159-4.279
	v-17.837h5.719v17.917c0,6.279-3.959,9.238-9.398,9.238C196.239,211.253,193.68,210.494,191.76,208.614z"/>
<path display="none" fill="#222222" d="M212.32,197.456c0-8.039,5.879-13.797,13.958-13.797c8.039,0,13.917,5.759,13.917,13.797
	s-5.879,13.798-13.917,13.798C218.199,211.253,212.32,205.494,212.32,197.456z M234.356,197.456c0-4.999-3.159-8.758-8.079-8.758
	c-4.959,0-8.119,3.759-8.119,8.758c0,4.959,3.16,8.759,8.119,8.759C231.197,206.214,234.356,202.415,234.356,197.456z"/>
<path display="none" fill="#222222" d="M262.596,210.773l-12.718-17.397v17.397h-5.679v-26.675h5.839l12.358,16.757v-16.757h5.679
	v26.675H262.596z"/>
<path display="none" fill="#222222" d="M281.239,208.614l2.48-4.319c1.04,1,2.399,1.92,4.239,1.92c2.52,0,4.159-1.72,4.159-4.279
	v-17.837h5.719v17.917c0,6.279-3.959,9.238-9.398,9.238C285.718,211.253,283.159,210.494,281.239,208.614z"/>
<path display="none" fill="#222222" d="M301.119,207.974c0-1.76,1.479-3.24,3.239-3.24s3.239,1.48,3.239,3.24
	c0,1.759-1.479,3.239-3.239,3.239S301.119,209.733,301.119,207.974z"/>
<path display="none" fill="#222222" d="M345.633,210.773v-19.237l-7.519,19.237h-2.479l-7.519-19.237v19.237h-5.679v-26.675h7.958
	l6.479,16.677l6.479-16.677h7.999v26.675H345.633z"/>
<path display="none" fill="#222222" d="M354.97,201.251c0-5.891,4.432-9.865,10.18-9.865c4.175,0,6.605,2.259,7.949,4.661
	l-3.488,1.716c-0.801-1.544-2.517-2.773-4.461-2.773c-3.488,0-6.005,2.659-6.005,6.262s2.517,6.262,6.005,6.262
	c1.944,0,3.66-1.229,4.461-2.774l3.488,1.687c-1.344,2.374-3.774,4.69-7.949,4.69C359.402,211.117,354.97,207.113,354.97,201.251z"
	/>
<path display="none" fill="#222222" d="M399.481,210.773v-19.237l-7.519,19.237h-2.48l-7.519-19.237v19.237h-5.679v-26.675h7.959
	l6.479,16.677l6.479-16.677h7.999v26.675H399.481z"/>
<path display="none" fill="#222222" d="M410.485,200.095v-15.997h5.759v15.837c0,3.72,2.16,6.279,6.279,6.279
	s6.238-2.56,6.238-6.279v-15.837h5.8v15.997c0,6.599-3.92,11.158-12.038,11.158C414.404,211.253,410.485,206.694,410.485,200.095z"
	/>
<path display="none" fill="#222222" d="M439.604,210.773v-26.675h5.719v21.676h11.278v4.999H439.604z"/>
<path display="none" fill="#222222" d="M460.205,210.773v-26.675h5.719v21.676h11.278v4.999H460.205z"/>
<path display="none" fill="#222222" d="M481.045,210.773v-26.675h18.877v4.999h-13.198v5.599h12.918v4.999h-12.918v6.079h13.198
	v4.999H481.045z"/>
<path display="none" fill="#222222" d="M522.761,210.773l-12.718-17.397v17.397h-5.679v-26.675h5.839l12.358,16.757v-16.757h5.679
	v26.675H522.761z"/>
</svg>
