<svg xmlns="http://www.w3.org/2000/svg" width="370" height="200" viewBox="175 116 370 200"><path fill="#222" d="M185.645 201.755c-5.848 0-10.645-4.692-10.645-10.537v-.103h10.645v-7.199c0-9.294 6.253-16.284 15.544-16.284h10.957v.633c0 5.839-4.28 9.911-9.919 10.537-2.917.313-5.104 2.396-5.104 5.322v6.991h13.772v.103a10.507 10.507 0 0 1-10.542 10.537h-3.23v31.826c0 5.837-4.595 10.539-10.431 10.539h-.944v-42.365h-.103zM214.33 243.278v-65.934a10.51 10.51 0 0 1 10.542-10.539h.943v76.473H214.33zM257.008 244.327c-15.021 0-24.627-12.099-24.627-27.123 0-15.035 11.07-27.137 26.091-27.137 15.026 0 26.087 12.213 26.087 27.239 0 2.923-2.292 4.795-5.227 4.795H244.7c1.566 6.474 6.147 11.175 12.93 11.175 6.262 0 9.29-.841 12.627-.841 4.596 0 8.455 2.925 10.019 7.195-5.007 2.71-14.292 4.697-23.268 4.697zm-12.309-31.821h27.338c-1.879-6.466-6.682-11.693-13.566-11.693-6.993 0-12.109 5.114-13.772 11.693zM346.952 243.278v-65.934a10.506 10.506 0 0 1 10.535-10.539h.939v76.473h-11.474zM389.627 244.327c-15.021 0-24.619-12.099-24.619-27.123 0-15.035 11.058-27.137 26.084-27.137s26.084 12.213 26.084 27.239c0 2.923-2.295 4.795-5.21 4.795h-34.651c1.572 6.474 6.163 11.175 12.943 11.175 6.264 0 9.288-.841 12.622-.841 4.59 0 8.454 2.925 10.021 7.195-5.013 2.71-14.294 4.697-23.274 4.697zm-12.313-31.821h27.345c-1.883-6.466-6.678-11.693-13.567-11.693-6.989 0-12.109 5.114-13.778 11.693zM426.359 260.923c1.356-4.491 4.592-7.201 8.973-7.201 4.281 0 6.045.731 12.631.731 5.836 0 11.162-4.486 11.162-10.547v-2.391c-3.443 1.145-7.828 2.287-12.314 2.287-13.983 0-25.458-11.574-25.458-26.599 0-15.035 11.783-27.137 26.813-27.137 5.222 0 9.813.318 13.457 1.459 5.011 1.569 8.977 4.704 8.977 11.372v40.176c0 12.525-8.868 22.12-21.291 22.12-9.175.001-17.624-2.286-22.95-4.27zm32.766-29.744v-29.423s-5.112-1.039-10.64-1.039c-8.459 0-15.244 7.712-15.244 16.487 0 8.771 6.684 16.071 14.19 16.071 5.854 0 11.694-2.096 11.694-2.096zM524.23 212.189v18.682c0 6.678-3.964 9.705-8.971 11.379-3.655 1.242-9.394 2.077-18.469 2.077-12.63 0-19.507-7.305-19.507-16.484s7.407-16.494 18.669-16.494h16.804c0-6.051-5.324-10.537-11.17-10.537-6.572 0-8.343.737-12.617.737-4.388 0-7.626-2.71-8.983-7.197 5.321-1.984 13.776-4.286 22.96-4.286 12.414.001 21.284 9.606 21.284 22.123zm-11.473 8.772h-15.859c-5.217 0-7.727 3.02-7.727 6.152 0 3.129 2.613 6.683 9.295 6.683 7.307 0 11.256-.941 14.291-1.679v-11.156zM533.517 243.278v-65.934a10.51 10.51 0 0 1 10.54-10.539H545v76.473h-11.483zM336.413 192.987c-2.086-2.084-4.689-2.712-6.986-2.712-3.028 0-5.842 1.046-8.243 4.171L312.85 205.2l6.716 8.451 16.847-20.664zM319.556 218.882l-7.178 9.028 9.744 12.145c1.98 2.395 5.009 4.065 8.14 4.065 2.812 0 5.631-1.149 7.403-2.924l-18.109-22.314zM310.774 207.881l-10.671-13.435 10.648 13.463zM298.434 240.157l11.828-14.878-.029-.046z"/><path fill="#222" d="M310.751 207.909l-10.648-13.462c-1.979-2.497-5.216-4.171-8.346-4.171-2.813 0-5.428 1.15-7.199 2.928l18.774 23.474-20.027 24.839c2.089 1.875 4.8 2.604 7.203 2.604 2.82 0 5.525-.842 7.925-3.963l11.8-14.924.028.046 7.17-9.025-6.658-8.373-.022.027z"/><linearGradient id="a" gradientUnits="userSpaceOnUse" x1="385.028" y1="219.504" x2="395.259" y2="219.504"><stop offset="0" stop-color="#fff" stop-opacity="0"/><stop offset="1" stop-color="#0a1a21" stop-opacity=".8"/></linearGradient><linearGradient id="b" gradientUnits="userSpaceOnUse" x1="410.228" y1="198.546" x2="410.228" y2="233.788"><stop offset=".333" stop-color="#231f20" stop-opacity="0"/><stop offset="1" stop-color="#231f20" stop-opacity=".35"/></linearGradient><linearGradient id="c" gradientUnits="userSpaceOnUse" x1="443.15" y1="198.546" x2="443.15" y2="234.293"><stop offset=".333" stop-color="#231f20" stop-opacity="0"/><stop offset="1" stop-color="#231f20" stop-opacity=".35"/></linearGradient><linearGradient id="d" gradientUnits="userSpaceOnUse" x1="480.346" y1="198.546" x2="480.346" y2="233.791"><stop offset=".333" stop-color="#231f20" stop-opacity="0"/><stop offset="1" stop-color="#231f20" stop-opacity=".35"/></linearGradient><linearGradient id="e" gradientUnits="userSpaceOnUse" x1="514.302" y1="197.764" x2="514.302" y2="234.293"><stop offset=".333" stop-color="#231f20" stop-opacity="0"/><stop offset="1" stop-color="#231f20" stop-opacity=".35"/></linearGradient></svg>