<svg xmlns="http://www.w3.org/2000/svg" width="370" height="200" viewBox="0 0 370 200"><g fill="#FFF"><path d="M0 106.201h370v2.467H0zM19.354 132.088c-1.16-1.143-1.74-2.607-1.74-4.398s.58-3.258 1.74-4.398c1.162-1.141 2.604-1.711 4.326-1.711 1.9 0 3.394.781 4.477 2.342l-1.219.691a3.705 3.705 0 0 0-1.388-1.248 3.897 3.897 0 0 0-1.87-.473c-1.309 0-2.393.449-3.254 1.344-.861.896-1.292 2.049-1.292 3.453 0 1.395.435 2.541 1.302 3.443.865.902 1.947 1.352 3.244 1.352.662 0 1.284-.158 1.866-.479a3.948 3.948 0 0 0 1.392-1.24l1.234.676c-1.141 1.572-2.638 2.357-4.492 2.357-1.723 0-3.164-.57-4.326-1.711zM33.598 133.582v-11.805h4.743c1.095 0 1.987.324 2.679.973s1.037 1.512 1.037 2.588c0 1.021-.298 1.834-.895 2.439a3.379 3.379 0 0 1-2.189 1.016l3.188 4.789h-1.737l-2.989-4.666h-2.367v4.666h-1.47zm1.466-5.978h3.095c.696 0 1.268-.213 1.711-.641.442-.426.665-.967.665-1.625 0-.674-.223-1.217-.665-1.629-.443-.41-1.015-.617-1.711-.617h-3.095v4.512zM47.912 133.582v-11.805h1.469v11.805h-1.469zM55.677 133.582v-11.805h2.101l3.681 9.1 3.664-9.1h2.108v11.805h-1.469v-9.93l-4.002 9.93h-.597l-4.019-9.93v9.93h-1.467zM73.525 133.582v-11.805h1.47v11.805h-1.47zM81.291 133.582v-11.805h1.503l6.792 9.221v-9.221h1.469v11.805h-1.416l-6.879-9.418v9.418h-1.469zM96.124 133.582l4.762-11.805h1.823l4.744 11.805h-1.678l-1.045-2.617h-5.877l-1.045 2.617h-1.684zm3.171-3.932h5.014l-2.516-6.369-2.498 6.369zM112.332 133.582v-11.805h1.469v10.49h5.487v1.314h-6.956v.001zM132.908 133.582v-11.805h4.035c1.804 0 3.263.563 4.377 1.682 1.115 1.121 1.672 2.531 1.672 4.229 0 1.711-.555 3.121-1.663 4.23-1.108 1.107-2.57 1.664-4.386 1.664h-4.035zm1.469-1.312h2.566c1.395 0 2.498-.438 3.31-1.311.813-.871 1.22-1.963 1.22-3.271 0-1.318-.402-2.414-1.205-3.287-.805-.873-1.912-1.309-3.324-1.309h-2.565l-.002 9.178zM148.83 133.582v-11.805h7.734v1.314h-6.267v3.793h6.136v1.313h-6.136v4.07h6.267v1.313h-7.734v.002zM162.438 133.582v-11.805h7.733v1.314h-6.266v3.793h6.136v1.313h-6.136v5.385h-1.467zM175.725 133.582v-11.805h7.733v1.314h-6.267v3.793h6.137v1.313h-6.137v4.07h6.267v1.313h-7.733v.002zM189.33 133.582v-11.805h1.503l6.792 9.221v-9.221h1.47v11.805h-1.417l-6.879-9.418v9.418h-1.469zM204.682 131.914l.883-1.135c.979 1.137 2.211 1.705 3.697 1.705.956 0 1.659-.205 2.108-.615.448-.412.674-.893.674-1.439 0-.551-.239-.992-.718-1.318-.479-.328-1.063-.588-1.746-.777l-2.061-.574a3.895 3.895 0 0 1-1.75-1.004c-.478-.479-.717-1.109-.717-1.896 0-.965.383-1.752 1.149-2.361.766-.611 1.739-.918 2.92-.918 1.733 0 3.126.551 4.174 1.65l-.881 1.082c-.836-.945-1.974-1.42-3.414-1.42-.708 0-1.29.178-1.745.529s-.683.807-.683 1.365c0 .42.174.766.521 1.039.348.273.773.484 1.281.633l1.682.486c.612.18 1.176.375 1.688.59.515.215.944.563 1.295 1.043s.524 1.063.524 1.742c0 .957-.357 1.775-1.072 2.457s-1.809 1.021-3.283 1.021c-1.911 0-3.42-.629-4.526-1.885zM219.299 133.582v-11.805h7.733v1.314h-6.265v3.793h6.136v1.313h-6.136v4.07h6.265v1.313h-7.733v.002zM239.798 133.582l4.762-11.805h1.823l4.744 11.805h-1.677l-1.046-2.617h-5.876l-1.045 2.617h-1.685zm3.172-3.932h5.013l-2.516-6.369-2.497 6.369zM254.208 123.092v-1.313h8.952v1.313h-3.75v10.49h-1.469v-10.49h-3.733zM267.831 123.092v-1.313h8.952v1.313h-3.75v10.49h-1.469v-10.49h-3.733zM282.941 132.063c-1.09-1.158-1.635-2.615-1.635-4.373s.545-3.215 1.635-4.373c1.09-1.156 2.497-1.736 4.221-1.736 1.725 0 3.136.58 4.232 1.736 1.098 1.158 1.647 2.615 1.647 4.373s-.55 3.215-1.647 4.373c-1.098 1.156-2.509 1.736-4.232 1.736-1.724 0-3.131-.58-4.221-1.736zm-.112-4.375c0 1.396.395 2.543 1.185 3.443.79.902 1.84 1.354 3.148 1.354 1.298 0 2.349-.449 3.153-1.354.804-.9 1.206-2.049 1.206-3.443 0-1.393-.4-2.541-1.202-3.441-.803-.902-1.854-1.354-3.157-1.354-1.309 0-2.358.447-3.148 1.344s-1.185 2.046-1.185 3.451zM298.864 133.582v-11.805h4.744c1.094 0 1.986.324 2.679.973.69.648 1.037 1.512 1.037 2.588 0 1.021-.299 1.834-.896 2.439s-1.327.943-2.189 1.016l3.188 4.789h-1.736l-2.989-4.666h-2.368v4.666h-1.47zm1.469-5.978h3.094c.697 0 1.269-.213 1.711-.641.443-.426.665-.967.665-1.625 0-.674-.222-1.217-.665-1.629-.442-.41-1.014-.617-1.711-.617h-3.094v4.512zM313.179 133.582v-11.805h1.503l6.792 9.221v-9.221h1.471v11.805h-1.417l-6.879-9.418v9.418h-1.47zM329.239 133.582v-11.805h7.732v1.314h-6.265v3.793h6.136v1.313h-6.136v4.07h6.265v1.313h-7.732v.002zM341.618 121.777h1.72l3.664 5.488 3.664-5.488h1.72l-4.641 6.811v4.994h-1.469v-4.994l-4.658-6.811zM16.76 91.156l2.48-4.319c1.039 1 2.398 1.92 4.238 1.92 2.521 0 4.16-1.72 4.16-4.279V66.641h5.719v17.916c0 6.279-3.959 9.238-9.398 9.238-2.721-.001-5.279-.759-7.199-2.639zM37.32 79.998c0-8.039 5.879-13.797 13.957-13.797 8.039 0 13.918 5.759 13.918 13.797s-5.879 13.798-13.918 13.798c-8.078-.002-13.957-5.76-13.957-13.798zm22.035 0c0-4.999-3.158-8.758-8.078-8.758-4.959 0-8.119 3.759-8.119 8.758 0 4.959 3.16 8.759 8.119 8.759 4.92-.002 8.078-3.8 8.078-8.759zM87.596 93.315L74.878 75.917v17.397h-5.679V66.639h5.839l12.358 16.758V66.639h5.679v26.676h-5.479zM106.239 91.156l2.479-4.319c1.04 1 2.399 1.92 4.239 1.92 2.521 0 4.159-1.72 4.159-4.279V66.641h5.719v17.916c0 6.279-3.959 9.238-9.398 9.238-2.719-.001-5.278-.759-7.198-2.639zM126.119 90.516c0-1.761 1.479-3.24 3.238-3.24 1.761 0 3.24 1.479 3.24 3.24 0 1.758-1.479 3.238-3.24 3.238-1.759 0-3.238-1.48-3.238-3.238zM170.633 93.315V74.078l-7.52 19.237h-2.479l-7.519-19.237v19.237h-5.679V66.639h7.957l6.479 16.678 6.479-16.678h7.998v26.676h-5.716zM179.971 83.792c0-5.892 4.432-9.865 10.18-9.865 4.175 0 6.604 2.259 7.949 4.661l-3.488 1.717c-.801-1.545-2.518-2.773-4.461-2.773-3.488 0-6.006 2.658-6.006 6.262s2.518 6.262 6.006 6.262c1.943 0 3.66-1.229 4.461-2.773l3.488 1.687c-1.345 2.374-3.774 4.69-7.949 4.69-5.749-.001-10.18-4.005-10.18-9.868zM224.481 93.315V74.078l-7.52 19.237h-2.479l-7.52-19.237v19.237h-5.679V66.639h7.959l6.479 16.678 6.479-16.678h7.999v26.676h-5.718zM235.485 82.637V66.639h5.759v15.838c0 3.72 2.16 6.278 6.279 6.278 4.118 0 6.237-2.56 6.237-6.278V66.639h5.8v15.998c0 6.598-3.92 11.157-12.037 11.157-8.119 0-12.038-4.559-12.038-11.157zM264.604 93.315V66.639h5.72v21.676h11.277v5h-16.997zM285.205 93.315V66.639h5.719v21.676h11.278v5h-16.997zM306.045 93.315V66.639h18.877v5h-13.198v5.598h12.918v5h-12.918v6.078h13.198v5h-18.877zM347.761 93.315l-12.718-17.397v17.397h-5.679V66.639h5.839l12.357 16.758V66.639h5.68v26.676h-5.479z"/></g></svg>