<svg xmlns="http://www.w3.org/2000/svg" width="370" height="200" viewBox="0 0 370 200"><g fill="#FFF"><path d="M54.517 141.695H37.511v-36.086h-12.05v46.863h29.056v-10.777zM90.948 141.828h-17.94v-8.232H88.94V122.95H73.007v-6.628h17.338v-10.713H61.089v46.863h29.858l.001-10.644zM138.411 152.473V105.61H126.16v17.006H111.7V105.61H99.449v46.863H111.7V133.66h14.46v18.813h12.251zM194.262 137.691v-32.215h-4.285l-18.678 20.352-18.343-20.352h-4.419v46.996h12.251v-20.888l9.907 10.442h1.34l9.974-10.442v20.888h6.572v-2.457l5.681-12.324zM282.295 128.574l-23.697-23.163h-4.352v29.862l6.791 14.742v2.457h5.594v-23.029l23.631 23.099h4.285v-46.931h-12.252v22.963zM304.674 105.411v47.062h12.385v-23.027l23.633 23.098h4.285v-46.932h-12.252v22.964l-23.699-23.163-4.352-.002zM227.525 66.659c10.553 0 19.107-8.556 19.107-19.109 0-10.552-8.557-19.106-19.107-19.106-10.553 0-19.107 8.555-19.107 19.106 0 10.554 8.555 19.109 19.107 19.109zm0-16.243a2.866 2.866 0 1 1 .001-5.731 2.866 2.866 0 0 1-.001 5.731zm13.334-1.788a5.731 5.731 0 0 1 2.098 7.831 5.733 5.733 0 1 1-9.93-5.732 5.733 5.733 0 0 1 7.832-2.099zM227.525 29.73a5.732 5.732 0 1 1 0 11.465 5.732 5.732 0 0 1 0-11.465zm-15.429 26.729a5.733 5.733 0 1 1 9.925-5.733 5.733 5.733 0 0 1-9.925 5.733zM285.887 47.55c0-10.552-8.559-19.106-19.111-19.106S247.67 36.998 247.67 47.55c0 10.554 8.555 19.109 19.105 19.109 10.553 0 19.112-8.555 19.112-19.109zm-5.776 1.078a5.73 5.73 0 0 1 2.096 7.831 5.73 5.73 0 1 1-9.928-5.732 5.733 5.733 0 0 1 7.832-2.099zm-20.935 9.931a5.732 5.732 0 0 1-7.83-2.1c-1.584-2.743-.645-6.248 2.098-7.831s6.25-.644 7.83 2.099a5.736 5.736 0 0 1-2.098 7.832zm1.867-23.096a5.732 5.732 0 1 1 11.465 0 5.732 5.732 0 0 1-11.465 0zm2.867 12.087a2.866 2.866 0 1 1 5.731 0 2.866 2.866 0 0 1-5.731 0z"/><path d="M215.121 86.428l6.637-14.383-.004-.003a3 3 0 0 0 .256-1.213 3.051 3.051 0 0 0-3.051-3.052c-.02 0-.039.007-.061.007l-.002-.003h-23.66l22.611-49.008h-18.98l-.008.004a3.045 3.045 0 0 0-2.711 1.762l-.012.007-30.396 65.882h49.381z"/><path d="M254.246 135.273l-22.508-48.846h48.213l.004-.003c.01 0 .02.003.029.003 1.158 0 2.152-.654 2.672-1.605l.035-.022 30.465-66.026h-92.547l-3.813 8.26H299.157L281.23 65.891l-.049.104-.012.024-.004.002a3.035 3.035 0 0 1-2.648 1.756l-.004.002h-.021c-.029 0-.057.01-.084.01s-.055-.01-.084-.01H228.46l-.021-.002-.025.002h-.037l-.006.005a3.042 3.042 0 0 0-2.676 1.729l-.014.01-.053.112-.002.005-5.378 11.66-2.67 5.776-23.318 50.613-5.68 12.324V152.472h17.006l19.211-43.279.012.027.014-.027 19.207 43.279h17.008V150.013l-6.792-14.74zM151.611 79.523c.451 0 .875-.104 1.258-.277l.015.009 16.985-7.745 14.355-31.201-31.314-14.413a3.012 3.012 0 0 0-1.299-.301 3.049 3.049 0 0 0-3.049 3.049h-.002V76.52l.006.002a3.047 3.047 0 0 0 3.045 3.001zM25 169.372c0-5.195 3.91-8.7 8.979-8.7 3.683 0 5.826 1.992 7.012 4.11l-3.077 1.514c-.706-1.362-2.22-2.446-3.935-2.446-3.076 0-5.297 2.346-5.297 5.522s2.221 5.522 5.297 5.522c1.715 0 3.229-1.084 3.935-2.444l3.077 1.487c-1.186 2.092-3.33 4.137-7.012 4.137-5.069 0-8.979-3.53-8.979-8.702zM44.59 169.372c0-5.069 3.708-8.7 8.802-8.7 5.069 0 8.777 3.631 8.777 8.7s-3.708 8.702-8.777 8.702c-5.094 0-8.802-3.633-8.802-8.702zm13.898 0c0-3.151-1.993-5.522-5.096-5.522-3.127 0-5.119 2.371-5.119 5.522 0 3.128 1.992 5.522 5.119 5.522 3.104.002 5.096-2.394 5.096-5.522zM66.958 171.037v-10.088h3.63v9.986c0 2.346 1.363 3.959 3.96 3.959 2.599 0 3.935-1.613 3.935-3.959v-9.986h3.656v10.088c0 4.162-2.471 7.037-7.591 7.037-5.119 0-7.59-2.875-7.59-7.037zM97.242 177.771l-3.305-5.978h-2.623v5.978h-3.582V160.95h7.869c3.506 0 5.676 2.295 5.676 5.422 0 2.951-1.893 4.563-3.709 4.993l3.809 6.406h-4.135zm.353-11.425c0-1.388-1.084-2.244-2.498-2.244h-3.783v4.539h3.783c1.413 0 2.498-.857 2.498-2.295zM109.847 177.771v-13.67h-4.918v-3.151h13.418v3.151h-4.894v13.67h-3.606zM141.166 177.771l-3.305-5.978h-2.621v5.978h-3.582V160.95h7.869c3.505 0 5.675 2.295 5.675 5.422 0 2.951-1.892 4.563-3.708 4.993l3.809 6.406h-4.137zm.353-11.425c0-1.388-1.084-2.244-2.498-2.244h-3.781v4.539h3.781c1.412 0 2.498-.857 2.498-2.295zM150.138 177.771V160.95h11.905v3.151h-8.323v3.53h8.146v3.153h-8.146v3.833h8.323v3.151h-11.905v.003zM167.107 177.771V160.95h7.871c3.656 0 5.648 2.472 5.648 5.422 0 2.926-2.018 5.397-5.648 5.397h-4.289v6.002h-3.582zm9.863-11.4c0-1.413-1.085-2.27-2.496-2.27h-3.785v4.514h3.785c1.411 0 2.496-.856 2.496-2.244zM184.33 169.372c0-5.069 3.708-8.7 8.801-8.7 5.07 0 8.777 3.631 8.777 8.7s-3.707 8.702-8.777 8.702c-5.094 0-8.801-3.633-8.801-8.702zm13.897 0c0-3.151-1.992-5.522-5.096-5.522-3.127 0-5.117 2.371-5.117 5.522 0 3.128 1.99 5.522 5.117 5.522 3.103.002 5.096-2.394 5.096-5.522zM216.203 177.771l-3.305-5.978h-2.621v5.978h-3.582V160.95h7.869c3.506 0 5.674 2.295 5.674 5.422 0 2.951-1.891 4.563-3.707 4.993l3.809 6.406h-4.137zm.354-11.425c0-1.388-1.084-2.244-2.496-2.244h-3.783v4.539h3.783c1.412 0 2.496-.857 2.496-2.295zM228.809 177.771v-13.67h-4.918v-3.151h13.418v3.151h-4.893v13.67h-3.607zM241.869 177.771V160.95h3.582v16.821h-3.582zM262.648 177.771l-8.021-10.972v10.972h-3.582V160.95h3.686l7.791 10.567V160.95h3.584v16.821h-3.458zM270.891 169.372c0-5.321 4.035-8.7 8.979-8.7 3.48 0 5.676 1.766 6.938 3.758l-2.951 1.614c-.781-1.187-2.221-2.194-3.984-2.194-3.076 0-5.295 2.346-5.295 5.522s2.219 5.522 5.295 5.522c1.488 0 2.875-.654 3.555-1.285v-2.019h-4.438v-3.127h8.02v6.457c-1.715 1.916-4.109 3.151-7.137 3.151-4.947.003-8.982-3.402-8.982-8.699zM292.777 181.227l-1.389-1.136c.809-.428 1.74-1.487 1.941-2.368a1.79 1.79 0 0 1-.477.074c-.961 0-1.717-.757-1.717-1.814 0-1.11.908-2.02 1.992-2.02 1.186 0 2.244.934 2.244 2.572.004 1.891-1.031 3.581-2.594 4.692zM304.527 177.771V160.95h3.58v16.821h-3.58zM323.037 177.771l-8.021-10.972v10.972h-3.582V160.95h3.684l7.793 10.567V160.95h3.582v16.821h-3.456zM329.01 169.372c0-5.195 3.908-8.7 8.979-8.7 3.684 0 5.826 1.992 7.012 4.11l-3.078 1.514c-.705-1.362-2.219-2.446-3.934-2.446-3.078 0-5.295 2.346-5.295 5.522s2.217 5.522 5.295 5.522c1.715 0 3.229-1.084 3.934-2.444l3.078 1.487c-1.186 2.092-3.328 4.137-7.012 4.137-5.071 0-8.979-3.53-8.979-8.702z"/></g><linearGradient id="a" gradientUnits="userSpaceOnUse" x1="381.027" y1="-24.504" x2="391.259" y2="-24.504" gradientTransform="matrix(1 0 0 -1 4 195)"><stop offset="0" stop-color="#fff" stop-opacity="0"/><stop offset="1" stop-color="#0a1a21" stop-opacity=".8"/></linearGradient><linearGradient id="b" gradientUnits="userSpaceOnUse" x1="406.227" y1="-3.545" x2="406.227" y2="-38.786" gradientTransform="matrix(1 0 0 -1 4 195)"><stop offset=".333" stop-color="#231f20" stop-opacity="0"/><stop offset="1" stop-color="#231f20" stop-opacity=".35"/></linearGradient><linearGradient id="c" gradientUnits="userSpaceOnUse" x1="439.15" y1="-3.546" x2="439.15" y2="-39.293" gradientTransform="matrix(1 0 0 -1 4 195)"><stop offset=".333" stop-color="#231f20" stop-opacity="0"/><stop offset="1" stop-color="#231f20" stop-opacity=".35"/></linearGradient><linearGradient id="d" gradientUnits="userSpaceOnUse" x1="476.346" y1="-3.546" x2="476.346" y2="-38.79" gradientTransform="matrix(1 0 0 -1 4 195)"><stop offset=".333" stop-color="#231f20" stop-opacity="0"/><stop offset="1" stop-color="#231f20" stop-opacity=".35"/></linearGradient><linearGradient id="e" gradientUnits="userSpaceOnUse" x1="510.301" y1="-2.764" x2="510.301" y2="-39.293" gradientTransform="matrix(1 0 0 -1 4 195)"><stop offset=".333" stop-color="#231f20" stop-opacity="0"/><stop offset="1" stop-color="#231f20" stop-opacity=".35"/></linearGradient></svg>