<svg xmlns="http://www.w3.org/2000/svg" width="370" height="200" viewBox="175 116 370 200"><path fill="#222" d="M259.228 189.691c3.491-.388 5.586-2.25 5.586-5.043V147.8c0-3.724 0-4.5-5.74-5.663v-1.939h6.051c6.982 0 8.688-.311 8.688-.311l.388.311s-2.56 2.948-2.56 9.387v14.429h28.858l.775-.776V147.8c0-3.724 0-4.5-5.74-5.663v-1.939h6.051c6.981 0 8.689-.232 8.689-.232l.387.31s-2.56 2.87-2.56 9.31v35.063c0 2.327-.388 4.189-.388 4.189l6.982.699-.311 2.171-18.695.465v-2.482c3.413-.388 5.585-2.172 5.585-4.811v-17.609h-28.858l-.775.776v16.601c0 2.327-.388 4.189-.388 4.189l6.981.699-.31 2.171-18.697.465v-2.481zM316.855 189.691c3.258-.311 4.577-1.939 5.197-3.491l18.386-45.77 3.182-.699 17.222 44.064c2.095 5.275 3.49 5.663 5.896 6.051l-.312 2.095h-3.336c-2.868 0-11.791.232-11.791.232v-2.637c2.172-.078 4.112-.699 3.258-3.026l-4.732-12.412h-18.54l-1.009.776-5.353 13.963 6.595.931-.311 2.172h-14.351v-2.249zm23.505-41.27l-8.611 22.419h16.833l-6.671-17.687c-.62-1.552-1.24-3.568-1.551-4.732zM369.162 189.691c3.413-.388 5.584-2.172 5.584-4.811V147.8c0-3.724-.387-4.5-6.36-5.663v-1.939h17.998c13.963 0 19.238 5.74 19.238 12.489 0 7.292-6.517 12.257-10.24 14.197v1.009l11.171 16.368c3.336 4.81 4.889 4.965 6.905 5.12l.854.078-.312 2.482h-11.248l-.312-.233s-1.628-3.878-4.809-8.533l-9.619-14.197h-5.664l-.776.776v15.127c0 2.25-.387 3.957-.387 3.957l6.981.699-.311 2.171-18.694.465v-2.482zm18.928-23.738c4.654 0 10.008-3.724 10.008-11.249 0-5.896-3.336-11.481-12.878-11.481h-2.871l-.776.776v21.954h6.517zM425.848 189.691c3.49-.388 5.585-2.25 5.585-5.043v-41.425h-7.68c-5.354 0-7.682 1.629-10.63 9.619h-2.637l2.405-13.111s2.017.466 5.197.466h36.306c3.182 0 5.585-.466 5.585-.466l-2.403 13.111h-2.639c.388-7.99-2.172-9.619-8.223-9.619h-7.681l-.776.776v40.649c0 2.327-.388 4.189-.388 4.189l7.759.699-.312 2.171-19.47.465v-2.481zM234.892 223.004l-11.947 37.78-3.026-.932-17.842-45.304c-1.319-3.336-4.578-4.266-4.578-4.266v-1.94h4.733c4.887 0 7.99-.31 7.99-.31l.31.31c-.853 1.862-1.318 4.888-.465 7.138l11.172 29.944c.542 1.474 1.085 3.49 1.474 4.965l10.24-32.271-1.319-3.569c-1.318-3.336-4.577-4.266-4.577-4.266v-1.94h4.732c4.887 0 7.99-.31 7.99-.31l.311.31c-.853 1.862-1.319 4.888-.466 7.138l10.938 30.099a83.794 83.794 0 0 1 1.396 4.733l10.55-33.281c1.164-3.646.31-5.586-3.724-6.749v-1.94h11.792l.31 1.087s-2.715 1.396-5.042 8.3l-13.653 43.056-3.026-.932-14.273-36.85zM263.307 257.837c3.259-.312 4.577-1.939 5.198-3.493l18.386-45.769 3.18-.699 17.222 44.064c2.095 5.274 3.491 5.662 5.896 6.051l-.311 2.095h-3.336c-2.87 0-11.791.233-11.791.233v-2.639c2.172-.078 4.111-.697 3.258-3.025l-4.731-12.412h-18.541l-1.009.775-5.352 13.965 6.593.931-.31 2.172h-14.353v-2.249zm23.506-41.272l-8.611 22.42h16.835l-6.672-17.688c-.621-1.551-1.242-3.568-1.552-4.732zM341.48 207.411c6.594 0 14.817 1.474 17.377 1.707l-2.328 11.869h-2.637c-.077-8.534-6.826-10.628-12.955-10.628-13.576 0-20.635 10.861-20.635 23.117 0 14.043 9.542 24.205 23.816 24.205 2.482 0 4.964-.31 7.758-.931v-11.248c0-3.725-.312-4.655-7.137-5.662v-1.94h16.523l.388 1.086s-3.025 1.396-3.025 7.369V259c-5.042.776-11.947 2.018-17.61 2.018-15.515 0-28.316-9.076-28.316-25.755 0-13.888 8.922-27.852 28.781-27.852zM366.192 257.837c3.49-.388 5.585-2.018 5.585-4.811v-34.909c0-5.353-1.242-6.905-6.361-7.835v-1.94h2.328c3.801 0 7.756-.31 7.756-.31s.931 1.784 2.871 4.034l28.082 32.427a70.172 70.172 0 0 1 3.104 4.112v-32.272c0-3.414-.079-5.198-6.362-5.818v-2.173h14.74l.389 1.087s-5.354 1.474-5.354 7.913v43.132h-2.018l-32.97-38.942c-.931-1.087-2.018-2.562-2.794-3.725v35.22c0 2.328-.387 4.188-.387 4.188l6.981.466-.311 2.172-15.281.467v-2.483zM423.707 257.837c3.492-.388 5.586-2.018 5.586-4.811v-37.081c0-3.724-.387-4.5-6.36-5.663v-1.94h31.961c3.181 0 5.584-.31 5.584-.31l-2.403 12.955h-2.639c.389-7.99-2.171-9.62-8.378-9.62h-10.161l-.777.776v20.171h14.352l.622-4.423 2.87-.465v13.653h-3.646v-5.741h-13.42l-.777.776v16.601c0 2.328-.387 4.345-.387 4.345h12.179c6.671 0 7.603-1.475 11.482-9.619h2.637l-2.87 12.645h-24.205c-3.878 0-11.248.233-11.248.233v-2.482zM466.041 257.837c3.413-.388 5.586-2.174 5.586-4.811v-37.081c0-3.724-.388-4.5-6.362-5.663v-1.94h17.998c13.965 0 19.238 5.741 19.238 12.49 0 7.293-6.516 12.257-10.238 14.196v1.009l11.171 16.369c3.336 4.809 4.887 4.965 6.903 5.119l.854.077-.311 2.483h-11.247l-.312-.233s-1.629-3.879-4.811-8.533l-9.619-14.196h-5.662l-.776.776v15.127c0 2.25-.388 3.957-.388 3.957l6.982.697-.311 2.172-18.696.467v-2.482zm18.928-23.739c4.656 0 10.008-3.723 10.008-11.248 0-5.896-3.336-11.482-12.876-11.482h-2.871l-.776.776v21.954h6.515zM221.774 291.999v-13.81h-4.894v-1.166h11.091v1.166h-4.895v13.81h-1.302zM247.254 291.999l-4.198-6.197h-3.301v6.197h-1.28v-14.976h5.591c2.583 0 4.558 1.639 4.558 4.378 0 2.717-1.909 4.221-4.154 4.312l4.333 6.286h-1.549zm.022-10.598c0-1.887-1.325-3.212-3.323-3.212h-4.199v6.444h4.199c1.998.001 3.323-1.346 3.323-3.232zM259.666 291.999v-14.976h1.279v14.976h-1.279zM283.372 291.999l-1.481-3.683h-7.925l-1.482 3.683h-1.481l6.129-14.976h1.594l6.13 14.976h-1.484zm-5.433-13.606l-3.547 8.756h7.072l-3.525-8.756zM294.595 291.999v-14.976h1.302v13.808h7.252v1.168h-8.554zM339.365 291.999l-1.482-3.683h-7.926l-1.482 3.683h-1.481l6.129-14.976h1.595l6.129 14.976h-1.482zm-5.434-13.606l-3.548 8.756h7.073l-3.525-8.756zM353.168 291.999v-13.81h-4.895v-1.166h11.092v1.166h-4.895v13.81h-1.302zM373.687 291.999v-13.81h-4.894v-1.166h11.09v1.166h-4.895v13.81h-1.301zM389.176 284.522c0-4.379 2.872-7.746 7.272-7.746 4.378 0 7.275 3.367 7.275 7.746 0 4.378-2.897 7.746-7.275 7.746-4.4.001-7.272-3.368-7.272-7.746zm13.199 0c0-3.795-2.334-6.578-5.927-6.578-3.614 0-5.927 2.783-5.927 6.578 0 3.771 2.313 6.577 5.927 6.577 3.593.001 5.927-2.806 5.927-6.577zM423.521 291.999l-4.198-6.197h-3.301v6.197h-1.279v-14.976h5.591c2.582 0 4.558 1.639 4.558 4.378 0 2.717-1.91 4.221-4.153 4.312l4.332 6.286h-1.55zm.023-10.598c0-1.887-1.324-3.212-3.322-3.212h-4.199v6.444h4.199c1.998.001 3.322-1.346 3.322-3.232zM446.643 291.999l-9.43-12.865v12.865h-1.278v-14.976h1.301l9.384 12.686v-12.686h1.281v14.976h-1.258zM459.48 291.999v-14.976h9.498v1.166h-8.218v5.547h8.061v1.168h-8.061v5.927h8.218v1.168h-9.498zM484.422 291.999v-6.398l-5.949-8.577h1.549l5.051 7.364 5.053-7.364h1.548l-5.948 8.577v6.398h-1.304zM500.449 289.888l.83-.966c.965 1.101 2.537 2.178 4.692 2.178 3.055 0 3.929-1.706 3.929-2.985 0-4.399-8.979-2.109-8.979-7.342 0-2.447 2.199-3.996 4.915-3.996 2.224 0 3.931.785 5.076 2.109l-.855.944c-1.077-1.302-2.604-1.886-4.287-1.886-1.998 0-3.503 1.146-3.503 2.76 0 3.84 8.982 1.729 8.982 7.32 0 1.931-1.281 4.244-5.322 4.244-2.471.001-4.333-1.011-5.478-2.38z"/><path fill="#222" d="M503.693 243.231c.666-.073.991-.384.991-.917v-7.073c0-.71 0-.858-1.095-1.08v-.37h1.153c1.333 0 1.657-.059 1.657-.059l.075.059s-.489.562-.489 1.791v6.688c0 .443-.073.813-.073.813h2.471c1.271 0 1.51-.458 2.25-2.132h.503l-.607 2.708h-4.765c-.739 0-2.071.046-2.071.046v-.474zM512.038 243.231c.665-.073.991-.384.991-.917v-7.073c0-.71 0-.858-1.096-1.08v-.37h1.154c1.332 0 1.658-.059 1.658-.059l.074.059s-.489.562-.489 1.791v6.688c0 .443-.073.813-.073.813h2.471c1.273 0 1.51-.458 2.249-2.132h.504l-.608 2.708h-4.764c-.74 0-2.071.046-2.071.046v-.474zM520.354 243.231c.65-.073 1.064-.414 1.064-.917v-7.073c0-.71-.073-.858-1.212-1.08v-.37h3.669c1.701 0 3.625.548 3.625 2.723 0 2.382-2.233 3.166-3.832 3.004v-.415c1.716-.044 2.383-1.109 2.383-2.277 0-1.776-1.393-2.457-2.959-2.457h-.224l-.146.148v7.798c0 .429-.075.754-.075.754l1.406.134-.059.414-3.641.09v-.476z"/><linearGradient id="a" gradientUnits="userSpaceOnUse" x1="385.028" y1="219.504" x2="395.259" y2="219.504"><stop offset="0" stop-color="#fff" stop-opacity="0"/><stop offset="1" stop-color="#0a1a21" stop-opacity=".8"/></linearGradient><linearGradient id="b" gradientUnits="userSpaceOnUse" x1="410.228" y1="198.546" x2="410.228" y2="233.788"><stop offset=".333" stop-color="#231f20" stop-opacity="0"/><stop offset="1" stop-color="#231f20" stop-opacity=".35"/></linearGradient><linearGradient id="c" gradientUnits="userSpaceOnUse" x1="443.15" y1="198.546" x2="443.15" y2="234.293"><stop offset=".333" stop-color="#231f20" stop-opacity="0"/><stop offset="1" stop-color="#231f20" stop-opacity=".35"/></linearGradient><linearGradient id="d" gradientUnits="userSpaceOnUse" x1="480.346" y1="198.546" x2="480.346" y2="233.791"><stop offset=".333" stop-color="#231f20" stop-opacity="0"/><stop offset="1" stop-color="#231f20" stop-opacity=".35"/></linearGradient><linearGradient id="e" gradientUnits="userSpaceOnUse" x1="514.302" y1="197.764" x2="514.302" y2="234.293"><stop offset=".333" stop-color="#231f20" stop-opacity="0"/><stop offset="1" stop-color="#231f20" stop-opacity=".35"/></linearGradient></svg>