<svg xmlns="http://www.w3.org/2000/svg" width="370" height="200" viewBox="0 0 370 200"><path fill="#FFF" d="M0 66.363v67.273h370V66.363H0zm366.637 63.91H3.364V69.727h363.273v60.546z"/><path fill="#FFF" d="M35.027 118.293c-10.334 0-18.209-6.424-18.209-18.209 0-11.061 7.932-18.377 18.32-18.377s18.266 6.367 18.266 18.152c-.002 11.06-7.988 18.434-18.377 18.434zm0-29.436c-5.922 0-9.272 4.468-9.272 11.002 0 6.704 3.463 11.284 9.438 11.284 5.865 0 9.272-4.522 9.272-11.061.001-6.702-3.517-11.225-9.438-11.225zM66.691 117.454H57.81V82.546h14.02c9.271 0 14.131 4.3 14.131 11.06 0 4.69-2.457 8.266-7.148 10.054l8.937 13.796h-9.998l-6.981-11.729-4.078.334v11.396l-.002-.003zm4.302-18.097c3.798-.279 5.864-1.844 5.864-5.194 0-3.072-2.123-4.581-6.59-4.581h-3.744v9.887l4.47-.112zM90.872 117.454V82.546h25.526v7.147H99.586v6.703h13.518v7.095H99.586v6.813h16.813v7.146l-25.527.004zM137.732 118.293c-11.17 0-18.769-6.646-18.769-18.152 0-11.451 7.373-18.434 18.824-18.434 4.468 0 9.774 1.006 13.125 3.018l-2.793 7.428c-3.295-1.898-6.703-2.904-10.054-2.904-6.256 0-10.277 4.189-10.277 10.669 0 6.98 3.52 11.115 10.167 11.115 2.01 0 4.133-.447 5.585-1.063v-5.143h-8.602v-7.036h16.645v17.263c-3.797 2.065-8.769 3.239-13.851 3.239zM173.363 118.293c-10.334 0-18.209-6.424-18.209-18.209 0-11.061 7.933-18.377 18.32-18.377 10.389 0 18.264 6.367 18.264 18.152 0 11.06-7.985 18.434-18.375 18.434zm0-29.436c-5.92 0-9.271 4.468-9.271 11.002 0 6.704 3.463 11.284 9.438 11.284 5.865 0 9.271-4.522 9.271-11.061.001-6.702-3.516-11.225-9.438-11.225zM268.123 118.293c-9.104 0-15.359-4.47-15.359-14.299V82.546h8.824v20.274c0 5.25 2.122 7.986 6.76 7.986 4.188 0 6.366-2.232 6.366-7.652V82.546h8.825v20.666c0 10.108-6.033 15.081-15.416 15.081zM313.249 82.546h8.321v35.244h-9.438l-14.688-22.957v22.621h-8.319V82.546h9.604l14.521 22.677-.001-22.677zM344.355 107.68c0-2.346-2.517-3.128-7.148-4.412-5.084-1.396-11.227-3.742-11.227-10.725 0-6.479 4.746-10.779 13.401-10.779 5.478 0 9.722 1.229 13.069 3.071l-1.729 7.317c-3.466-1.844-7.818-3.072-11.281-3.072-3.072 0-4.58 1.063-4.58 2.96 0 2.291 3.183 3.185 7.373 4.356 5.357 1.453 10.947 3.91 10.947 10.558 0 6.647-5.143 11.339-14.303 11.339-5.191 0-10.221-1.341-13.461-3.186l1.676-7.373c3.467 1.845 7.652 3.24 11.953 3.24 3.133.001 5.31-1.171 5.31-3.294zM241.26 103.658c4.692-1.788 7.149-5.362 7.149-10.055 0-6.758-4.86-11.059-14.132-11.059h-14.021v22.646l-14.501-22.644h-9.608v34.908h8.324V94.833l14.688 22.957h1.098v-.004h8.882v-11.73l4.075-.334 6.979 11.729h10l-8.933-13.793zm-7.821-4.301l-4.469.11V89.58h3.74c4.471 0 6.59 1.509 6.59 4.581.005 3.355-2.062 4.917-5.861 5.196z"/></svg>