<svg xmlns="http://www.w3.org/2000/svg" width="370" height="200" viewBox="175 116 370 200"><path fill="#E4BA00" d="M175 223.659h370v2.467H175z"/><path fill="#222" d="M194.354 249.546c-1.16-1.141-1.74-2.606-1.74-4.398 0-1.791.58-3.258 1.74-4.398 1.161-1.141 2.603-1.711 4.325-1.711 1.901 0 3.394.781 4.477 2.342l-1.219.691a3.719 3.719 0 0 0-1.387-1.248 3.897 3.897 0 0 0-1.871-.472c-1.308 0-2.392.448-3.253 1.344-.861.896-1.292 2.047-1.292 3.452 0 1.395.434 2.542 1.301 3.443.866.902 1.948 1.353 3.244 1.353.663 0 1.285-.159 1.867-.479a3.946 3.946 0 0 0 1.391-1.24l1.235.675c-1.141 1.572-2.638 2.358-4.493 2.358-1.722-.001-3.163-.571-4.325-1.712zM208.597 251.041v-11.804h4.744c1.095 0 1.987.324 2.679.972.691.648 1.037 1.511 1.037 2.588 0 1.021-.298 1.834-.895 2.439a3.361 3.361 0 0 1-2.19 1.015l3.188 4.79h-1.737l-2.989-4.666h-2.368v4.666h-1.469zm1.468-5.979h3.094c.697 0 1.268-.213 1.711-.64s.665-.968.665-1.625c0-.674-.222-1.217-.665-1.629-.443-.411-1.014-.617-1.711-.617h-3.094v4.511zM222.912 251.041v-11.804h1.469v11.804h-1.469zM230.677 251.041v-11.804h2.1l3.681 9.099 3.664-9.099h2.108v11.804h-1.469v-9.929l-4.001 9.929h-.597l-4.018-9.929v9.929h-1.468zM248.526 251.041v-11.804h1.469v11.804h-1.469zM256.291 251.041v-11.804h1.503l6.792 9.22v-9.22h1.469v11.804h-1.417l-6.878-9.419v9.419h-1.469zM271.124 251.041l4.762-11.804h1.823l4.744 11.804h-1.677l-1.046-2.618h-5.876l-1.046 2.618h-1.684zm3.171-3.932h5.013l-2.515-6.369-2.498 6.369zM287.332 251.041v-11.804h1.469v10.49h5.487v1.313h-6.956zM307.908 251.041v-11.804h4.035c1.804 0 3.263.561 4.377 1.681 1.115 1.12 1.672 2.53 1.672 4.229 0 1.711-.555 3.121-1.663 4.23-1.109 1.108-2.57 1.663-4.386 1.663h-4.035zm1.469-1.313h2.566c1.395 0 2.498-.437 3.31-1.31.813-.872 1.219-1.963 1.219-3.271 0-1.319-.401-2.415-1.205-3.288-.804-.872-1.911-1.309-3.323-1.309h-2.566v9.178zM323.83 251.041v-11.804h7.734v1.313h-6.266v3.793h6.136v1.313h-6.136v4.07h6.266v1.313h-7.734zM337.437 251.041v-11.804h7.734v1.313h-6.266v3.793h6.136v1.313h-6.136v5.384h-1.468zM350.724 251.041v-11.804h7.734v1.313h-6.266v3.793h6.136v1.313h-6.136v4.07h6.266v1.313h-7.734zM364.33 251.041v-11.804h1.503l6.792 9.22v-9.22h1.47v11.804h-1.417l-6.879-9.419v9.419h-1.469zM379.682 249.372l.882-1.134c.979 1.137 2.212 1.705 3.698 1.705.956 0 1.659-.205 2.108-.616.449-.412.674-.891.674-1.438 0-.552-.239-.992-.718-1.319-.479-.328-1.062-.588-1.746-.778l-2.061-.573c-.688-.191-1.271-.526-1.749-1.004s-.717-1.11-.717-1.897c0-.964.383-1.752 1.149-2.362.766-.611 1.739-.917 2.92-.917 1.734 0 3.126.551 4.174 1.651l-.881 1.082c-.836-.946-1.974-1.42-3.414-1.42-.708 0-1.29.177-1.745.528-.455.353-.683.808-.683 1.366 0 .419.174.766.521 1.039s.773.484 1.281.632l1.681.487c.613.179 1.176.375 1.689.59.515.214.945.562 1.295 1.043.35.48.524 1.062.524 1.742 0 .957-.357 1.776-1.072 2.457-.714.681-1.809 1.021-3.283 1.021-1.912 0-3.421-.628-4.527-1.885zM394.299 251.041v-11.804h7.733v1.313h-6.265v3.793h6.136v1.313h-6.136v4.07h6.265v1.313h-7.733zM414.798 251.041l4.762-11.804h1.823l4.744 11.804h-1.677l-1.046-2.618h-5.876l-1.045 2.618h-1.685zm3.172-3.932h5.012l-2.515-6.369-2.497 6.369zM429.208 240.551v-1.313h8.952v1.313h-3.75v10.49h-1.469v-10.49h-3.733zM442.831 240.551v-1.313h8.952v1.313h-3.75v10.49h-1.469v-10.49h-3.733zM457.941 249.521c-1.089-1.158-1.634-2.615-1.634-4.373 0-1.757.545-3.214 1.634-4.372 1.09-1.158 2.497-1.737 4.221-1.737 1.725 0 3.136.579 4.233 1.737s1.647 2.615 1.647 4.372c0 1.758-.55 3.215-1.647 4.373-1.098 1.157-2.509 1.736-4.233 1.736-1.724 0-3.131-.579-4.221-1.736zm-.112-4.374c0 1.395.395 2.542 1.185 3.443.79.902 1.84 1.353 3.148 1.353 1.298 0 2.349-.45 3.153-1.353.804-.901 1.206-2.049 1.206-3.443 0-1.394-.4-2.542-1.202-3.443s-1.854-1.353-3.157-1.353c-1.309 0-2.358.448-3.148 1.344-.79.897-1.185 2.047-1.185 3.452zM473.864 251.041v-11.804h4.744c1.094 0 1.987.324 2.679.972.691.648 1.037 1.511 1.037 2.588 0 1.021-.299 1.834-.895 2.439a3.364 3.364 0 0 1-2.19 1.015l3.188 4.79h-1.737l-2.989-4.666h-2.368v4.666h-1.469zm1.469-5.979h3.094c.697 0 1.268-.213 1.711-.64s.665-.968.665-1.625c0-.674-.222-1.217-.665-1.629-.443-.411-1.014-.617-1.711-.617h-3.094v4.511zM488.179 251.041v-11.804h1.503l6.792 9.22v-9.22h1.47v11.804h-1.417l-6.879-9.419v9.419h-1.469zM504.239 251.041v-11.804h7.733v1.313h-6.265v3.793h6.136v1.313h-6.136v4.07h6.265v1.313h-7.733zM516.618 239.237h1.72l3.664 5.487 3.664-5.487h1.72l-4.641 6.81v4.994h-1.469v-4.994l-4.658-6.81zM191.76 208.614l2.48-4.319c1.04 1 2.399 1.92 4.239 1.92 2.52 0 4.159-1.72 4.159-4.279v-17.837h5.719v17.917c0 6.279-3.959 9.238-9.398 9.238-2.72-.001-5.279-.76-7.199-2.64zM212.32 197.456c0-8.039 5.879-13.797 13.958-13.797 8.039 0 13.917 5.759 13.917 13.797s-5.879 13.798-13.917 13.798c-8.079-.001-13.958-5.76-13.958-13.798zm22.036 0c0-4.999-3.159-8.758-8.079-8.758-4.959 0-8.119 3.759-8.119 8.758 0 4.959 3.16 8.759 8.119 8.759 4.92-.001 8.079-3.8 8.079-8.759zM262.596 210.773l-12.718-17.397v17.397h-5.679v-26.675h5.839l12.358 16.757v-16.757h5.679v26.675h-5.479zM281.239 208.614l2.48-4.319c1.04 1 2.399 1.92 4.239 1.92 2.52 0 4.159-1.72 4.159-4.279v-17.837h5.719v17.917c0 6.279-3.959 9.238-9.398 9.238-2.72-.001-5.279-.76-7.199-2.64zM301.119 207.974c0-1.76 1.479-3.24 3.239-3.24s3.239 1.48 3.239 3.24c0 1.759-1.479 3.239-3.239 3.239s-3.239-1.48-3.239-3.239zM345.633 210.773v-19.237l-7.519 19.237h-2.479l-7.519-19.237v19.237h-5.679v-26.675h7.958l6.479 16.677 6.479-16.677h7.999v26.675h-5.719zM354.97 201.251c0-5.891 4.432-9.865 10.18-9.865 4.175 0 6.605 2.259 7.949 4.661l-3.488 1.716c-.801-1.544-2.517-2.773-4.461-2.773-3.488 0-6.005 2.659-6.005 6.262s2.517 6.262 6.005 6.262c1.944 0 3.66-1.229 4.461-2.774l3.488 1.687c-1.344 2.374-3.774 4.69-7.949 4.69-5.748 0-10.18-4.004-10.18-9.866zM399.481 210.773v-19.237l-7.519 19.237h-2.48l-7.519-19.237v19.237h-5.679v-26.675h7.959l6.479 16.677 6.479-16.677h7.999v26.675h-5.719zM410.485 200.095v-15.997h5.759v15.837c0 3.72 2.16 6.279 6.279 6.279s6.238-2.56 6.238-6.279v-15.837h5.8v15.997c0 6.599-3.92 11.158-12.038 11.158-8.119 0-12.038-4.559-12.038-11.158zM439.604 210.773v-26.675h5.719v21.676h11.278v4.999h-16.997zM460.205 210.773v-26.675h5.719v21.676h11.278v4.999h-16.997zM481.045 210.773v-26.675h18.877v4.999h-13.198v5.599h12.918v4.999h-12.918v6.079h13.198v4.999h-18.877zM522.761 210.773l-12.718-17.397v17.397h-5.679v-26.675h5.839l12.358 16.757v-16.757h5.679v26.675h-5.479z"/></svg>