<svg xmlns="http://www.w3.org/2000/svg" width="370" height="200" viewBox="0 0 370 200"><g fill="#FFF"><path d="M81.729 73.692c3.49-.389 5.586-2.25 5.586-5.043V31.801c0-3.724 0-4.5-5.74-5.663V24.2h6.051c6.982 0 8.688-.312 8.688-.312l.389.312s-2.561 2.948-2.561 9.387v14.429H123l.774-.775v-15.44c0-3.724 0-4.5-5.739-5.663V24.2h6.051c6.981 0 8.688-.232 8.688-.232l.388.31s-2.56 2.871-2.56 9.311v35.063c0 2.328-.389 4.189-.389 4.189l6.982.699-.312 2.171-18.694.465v-2.481c3.412-.389 5.584-2.172 5.584-4.812V51.272H94.917l-.775.775v16.602c0 2.326-.388 4.188-.388 4.188l6.981.699-.311 2.171-18.697.465v-2.48h.002zM139.356 73.692c3.258-.312 4.576-1.939 5.196-3.491l18.386-45.771 3.183-.699 17.222 44.064c2.096 5.275 3.49 5.663 5.896 6.051l-.313 2.096h-3.336c-2.867 0-11.791.231-11.791.231v-2.637c2.172-.078 4.112-.699 3.258-3.026l-4.731-12.412h-18.54l-1.01.776-5.353 13.963 6.595.931-.311 2.172h-14.352v-2.248h.001zm23.504-41.27l-8.61 22.419h16.833l-6.671-17.688c-.62-1.55-1.241-3.567-1.552-4.731zM191.662 73.692c3.414-.389 5.584-2.172 5.584-4.812V31.8c0-3.724-.387-4.5-6.359-5.663v-1.938h17.998c13.963 0 19.238 5.739 19.238 12.489 0 7.291-6.518 12.256-10.24 14.196v1.009l11.17 16.369c3.336 4.809 4.891 4.965 6.906 5.119l.854.078-.313 2.482h-11.248l-.311-.233s-1.629-3.878-4.811-8.533l-9.619-14.196h-5.664l-.775.775v15.127c0 2.25-.387 3.957-.387 3.957l6.98.699-.311 2.171-18.693.465v-2.481h.001zm18.928-23.738c4.654 0 10.008-3.725 10.008-11.249 0-5.896-3.336-11.481-12.877-11.481h-2.871l-.776.776v21.954h6.516zM248.348 73.692c3.49-.389 5.586-2.25 5.586-5.043V27.224h-7.68c-5.354 0-7.682 1.629-10.631 9.619h-2.637l2.404-13.111s2.018.467 5.197.467h36.307c3.182 0 5.584-.467 5.584-.467l-2.402 13.111h-2.639c.389-7.99-2.172-9.619-8.223-9.619h-7.682l-.774.776v40.649c0 2.326-.389 4.188-.389 4.188l7.76.699-.313 2.171-19.471.465v-2.48h.003zM57.393 107.005l-11.947 37.78-3.026-.933-17.842-45.303C23.258 95.213 20 94.283 20 94.283v-1.94h4.733c4.887 0 7.99-.31 7.99-.31l.31.31c-.853 1.862-1.318 4.889-.466 7.139l11.172 29.943c.543 1.475 1.086 3.49 1.475 4.965l10.24-32.271-1.319-3.569c-1.317-3.336-4.577-4.266-4.577-4.266v-1.94h4.732c4.887 0 7.99-.31 7.99-.31l.311.31c-.854 1.862-1.318 4.888-.466 7.138l10.938 30.1a84.596 84.596 0 0 1 1.396 4.732l10.55-33.28c1.164-3.646.311-5.587-3.724-6.749v-1.94h11.792l.31 1.087s-2.715 1.396-5.042 8.301l-13.652 43.056-3.026-.933-14.274-36.851zM85.807 141.838c3.26-.312 4.577-1.938 5.198-3.493l18.386-45.769 3.18-.699 17.223 44.063c2.096 5.274 3.491 5.662 5.896 6.052l-.312 2.095h-3.336c-2.87 0-11.791.232-11.791.232v-2.639c2.172-.078 4.11-.697 3.258-3.025l-4.731-12.411h-18.541l-1.008.774-5.353 13.965 6.593.932-.31 2.172H85.807v-2.249zm23.506-41.273l-8.61 22.42h16.835l-6.672-17.688c-.621-1.55-1.242-3.568-1.553-4.732zM163.981 91.412c6.594 0 14.816 1.474 17.377 1.707l-2.328 11.868h-2.637c-.078-8.533-6.826-10.627-12.955-10.627-13.576 0-20.635 10.861-20.635 23.117 0 14.043 9.541 24.205 23.815 24.205 2.481 0 4.964-.311 7.758-.932v-11.248c0-3.725-.312-4.654-7.137-5.662v-1.939h16.522l.389 1.086s-3.025 1.396-3.025 7.369v12.645c-5.042.775-11.947 2.018-17.609 2.018-15.516 0-28.316-9.076-28.316-25.754 0-13.889 8.922-27.853 28.781-27.853zM188.691 141.838c3.49-.388 5.586-2.019 5.586-4.812v-34.908c0-5.354-1.242-6.905-6.361-7.835v-1.94h2.328c3.801 0 7.756-.31 7.756-.31s.932 1.784 2.871 4.034l28.082 32.427a69.295 69.295 0 0 1 3.104 4.112v-32.272c0-3.414-.078-5.198-6.361-5.817v-2.174h14.74l.389 1.088s-5.354 1.473-5.354 7.912v43.133h-2.018l-32.971-38.942c-.932-1.087-2.018-2.562-2.795-3.726v35.221c0 2.328-.387 4.188-.387 4.188l6.982.467-.313 2.172-15.281.467v-2.483h.003zM246.207 141.838c3.492-.388 5.586-2.019 5.586-4.812v-37.08c0-3.725-.387-4.5-6.359-5.663v-1.94h31.961c3.182 0 5.584-.31 5.584-.31l-2.402 12.954h-2.641c.391-7.989-2.17-9.619-8.377-9.619h-10.16l-.777.775v20.172h14.352l.621-4.424 2.871-.465v13.653h-3.646v-5.741H259.4l-.777.776v16.601c0 2.328-.387 4.346-.387 4.346h12.18c6.67 0 7.602-1.476 11.48-9.619h2.639l-2.871 12.645h-24.205c-3.877 0-11.248.232-11.248.232v-2.481h-.004zM288.541 141.838c3.414-.388 5.586-2.174 5.586-4.812v-37.08c0-3.725-.387-4.5-6.361-5.663v-1.94h17.998c13.965 0 19.238 5.741 19.238 12.49 0 7.293-6.516 12.257-10.238 14.195v1.01l11.17 16.369c3.336 4.809 4.889 4.965 6.904 5.119l.854.076-.311 2.483h-11.248l-.311-.233s-1.629-3.879-4.813-8.533l-9.619-14.195h-5.662l-.775.775v15.127c0 2.25-.387 3.957-.387 3.957l6.98.697-.311 2.172-18.695.467v-2.481h.001zm18.928-23.739c4.656 0 10.008-3.723 10.008-11.248 0-5.896-3.336-11.481-12.875-11.481h-2.871l-.775.776v21.953h6.513zM44.274 176v-13.81H39.38v-1.166h11.091v1.166h-4.895V176h-1.302zM69.754 176l-4.197-6.197h-3.302V176h-1.28v-14.976h5.592c2.582 0 4.558 1.639 4.558 4.377 0 2.718-1.909 4.222-4.153 4.313L71.303 176h-1.549zm.022-10.599c0-1.887-1.324-3.211-3.322-3.211h-4.199v6.443h4.199c1.998.002 3.322-1.345 3.322-3.232zM82.167 176v-14.976h1.279V176h-1.279zM105.873 176l-1.481-3.683h-7.925L94.985 176h-1.481l6.129-14.976h1.595L107.356 176h-1.483zm-5.433-13.606l-3.547 8.756h7.071l-3.524-8.756zM117.096 176v-14.976h1.301v13.808h7.252V176h-8.553zM161.866 176l-1.482-3.683h-7.926L150.975 176h-1.48l6.129-14.976h1.595l6.13 14.976h-1.483zm-5.434-13.606l-3.549 8.756h7.073l-3.524-8.756zM175.668 176v-13.81h-4.895v-1.166h11.092v1.166h-4.895V176h-1.302zM196.188 176v-13.81h-4.895v-1.166h11.09v1.166h-4.895V176h-1.3zM211.676 168.522c0-4.379 2.873-7.746 7.273-7.746 4.377 0 7.273 3.367 7.273 7.746s-2.896 7.746-7.273 7.746c-4.4.003-7.273-3.367-7.273-7.746zm13.199 0c0-3.795-2.334-6.578-5.926-6.578-3.615 0-5.928 2.783-5.928 6.578 0 3.771 2.313 6.578 5.928 6.578 3.592.001 5.926-2.806 5.926-6.578zM246.021 176l-4.197-6.197h-3.301V176h-1.279v-14.976h5.59c2.582 0 4.559 1.639 4.559 4.377 0 2.718-1.91 4.222-4.152 4.313l4.332 6.286h-1.552zm.024-10.599c0-1.887-1.324-3.211-3.322-3.211h-4.199v6.443h4.199c1.998.002 3.322-1.345 3.322-3.232zM269.143 176l-9.43-12.865V176h-1.277v-14.976h1.301l9.385 12.686v-12.686h1.281V176h-1.26zM281.98 176v-14.976h9.498v1.166h-8.219v5.547h8.063v1.168h-8.063v5.927h8.219V176h-9.498zM306.922 176v-6.397l-5.949-8.578h1.551l5.051 7.365 5.053-7.365h1.547l-5.947 8.578V176h-1.306zM322.949 173.89l.83-.967c.965 1.102 2.537 2.178 4.691 2.178 3.057 0 3.93-1.705 3.93-2.984 0-4.399-8.979-2.109-8.979-7.342 0-2.447 2.199-3.996 4.914-3.996 2.225 0 3.932.785 5.076 2.109l-.855.943c-1.076-1.303-2.604-1.887-4.287-1.887-1.998 0-3.502 1.146-3.502 2.761 0 3.84 8.982 1.729 8.982 7.319 0 1.932-1.281 4.244-5.322 4.244-2.47.003-4.333-1.01-5.478-2.378z"/><path d="M326.193 127.231c.666-.072.99-.383.99-.916v-7.073c0-.71 0-.858-1.094-1.08v-.37h1.152c1.334 0 1.658-.059 1.658-.059l.074.059s-.488.563-.488 1.791v6.688c0 .443-.074.813-.074.813h2.471c1.271 0 1.51-.458 2.25-2.132h.504l-.607 2.708h-4.766c-.738 0-2.07.046-2.07.046v-.475zM334.539 127.231c.664-.072.99-.383.99-.916v-7.073c0-.71 0-.858-1.096-1.08v-.37h1.154c1.332 0 1.658-.059 1.658-.059l.074.059s-.49.563-.49 1.791v6.688c0 .443-.072.813-.072.813h2.471c1.273 0 1.51-.458 2.248-2.132h.506l-.609 2.708h-4.764c-.74 0-2.07.046-2.07.046v-.475zM342.854 127.231c.65-.072 1.064-.414 1.064-.916v-7.073c0-.71-.072-.858-1.211-1.08v-.37h3.668c1.701 0 3.625.548 3.625 2.723 0 2.383-2.232 3.166-3.832 3.004v-.414c1.717-.045 2.383-1.109 2.383-2.277 0-1.776-1.393-2.457-2.959-2.457h-.223l-.146.148v7.797c0 .43-.074.754-.074.754l1.404.135-.059.414-3.641.09v-.478h.001z"/></g><linearGradient id="a" gradientUnits="userSpaceOnUse" x1="381.027" y1="-24.504" x2="391.259" y2="-24.504" gradientTransform="matrix(1 0 0 -1 4 195)"><stop offset="0" stop-color="#fff" stop-opacity="0"/><stop offset="1" stop-color="#0a1a21" stop-opacity=".8"/></linearGradient><linearGradient id="b" gradientUnits="userSpaceOnUse" x1="406.227" y1="-3.545" x2="406.227" y2="-38.786" gradientTransform="matrix(1 0 0 -1 4 195)"><stop offset=".333" stop-color="#231f20" stop-opacity="0"/><stop offset="1" stop-color="#231f20" stop-opacity=".35"/></linearGradient><linearGradient id="c" gradientUnits="userSpaceOnUse" x1="439.15" y1="-3.546" x2="439.15" y2="-39.293" gradientTransform="matrix(1 0 0 -1 4 195)"><stop offset=".333" stop-color="#231f20" stop-opacity="0"/><stop offset="1" stop-color="#231f20" stop-opacity=".35"/></linearGradient><linearGradient id="d" gradientUnits="userSpaceOnUse" x1="476.346" y1="-3.546" x2="476.346" y2="-38.79" gradientTransform="matrix(1 0 0 -1 4 195)"><stop offset=".333" stop-color="#231f20" stop-opacity="0"/><stop offset="1" stop-color="#231f20" stop-opacity=".35"/></linearGradient><linearGradient id="e" gradientUnits="userSpaceOnUse" x1="510.301" y1="-2.764" x2="510.301" y2="-39.293" gradientTransform="matrix(1 0 0 -1 4 195)"><stop offset=".333" stop-color="#231f20" stop-opacity="0"/><stop offset="1" stop-color="#231f20" stop-opacity=".35"/></linearGradient></svg>