<svg xmlns="http://www.w3.org/2000/svg" width="370" height="200" viewBox="175 116 370 200"><path fill-rule="evenodd" clip-rule="evenodd" fill="#010101" d="M397.519 146.293c-2.903-4.753-6.128-8.386-9.676-10.897-1.12-.781-2.197-1.383-3.233-1.808-1.578-.679-3.08-1.026-4.507-1.044a9.052 9.052 0 0 0-2.036.178 3.397 3.397 0 0 1-.434.077c-1.562.407-2.988 1.29-4.277 2.647-4.362 4.533-6.544 13.385-6.544 26.556 0 1.086.119 2.674.356 4.762.34-.323 1.292-.569 2.853-.739 2.546-.254 6.941-.56 13.189-.917l-.204-.025 7.714-.153c2.563 1.681 4.16 3.896 4.787 6.646.169.917.255 3.132.255 6.645 0 .068-.086 1.188-.255 3.361-.34 2.257-.943 3.726-1.809 4.405-.882.73-2.826 1.333-5.83 1.808-3.107.729-4.813 1.146-5.117 1.248-.288.101-3.777.755-10.465 1.96h-.434c0 .068.018.127.052.179 4.99 17.365 11.872 26.046 20.649 26.046 7.876 0 12.935-4.505 15.175-13.52.406-1.681.713-3.463.916-5.346.527 0 1.086-.009 1.682-.026h.764a73.433 73.433 0 0 0 1.807-.076c-.459 5.007-1.96 9.786-4.507 14.335-2.597 4.6-6.466 7.434-11.609 8.504-10.355 2.292-19.131-.468-26.328-8.275-3.852-4.159-8.503-6.849-13.953-8.071a53.679 53.679 0 0 0-16.218-1.095c.255.34.535.696.841 1.069a13.724 13.724 0 0 1 2.851 5.729v-.051c.323 1.171.288 2.351-.102 3.54v-.051a9.23 9.23 0 0 1-.434 1.146 8.254 8.254 0 0 1 2.343 1.654h.051a8.633 8.633 0 0 1 1.96 3.311l.025.024c.339 1.137.306 2.344-.103 3.615a35.857 35.857 0 0 1-2.24 5.322c.254.306.509.602.764.892h-.025c2.563 3.089 2.928 6.076 1.095 8.961a12.11 12.11 0 0 1-1.299 1.63l-.026.052c-2.986 3.156-6.543 4.031-10.667 2.622-1.239-.441-2.097-1.18-2.572-2.216a60.722 60.722 0 0 1-1.019-2.088 224.61 224.61 0 0 1-12.5-32.843 22.908 22.908 0 0 1-2.445-.077c-3.599-.356-6.5-1.876-8.707-4.558v-.026c-4.787-5.907-5.39-12.298-1.809-19.172a8.597 8.597 0 0 1 2.088-2.699c7.18-6.433 15.523-10.948 25.028-13.545a57.074 57.074 0 0 0 17.646-8.326 7.002 7.002 0 0 0 1.731-1.807v.05a128.627 128.627 0 0 0 8.683-15.429c.898-1.935 2.062-3.607 3.488-5.017 1.765-1.73 3.759-3.046 5.983-3.946h.05c7.555-3.004 14.657-1.985 21.311 3.056h.026a33.687 33.687 0 0 1 5.423 5.246 68.364 68.364 0 0 1 3.844 5.168c-.44.153-.856.289-1.245.407-.238.085-.469.161-.688.229-.662.237-1.366.492-2.113.763zm15.531 47.815c-.731.034-1.316.06-1.758.077-.305.034-.534.06-.688.076h-.05c-.205.034-.637.084-1.3.153h-.382v-.229a784.59 784.59 0 0 1-.101-4.991c0-6.229-.56-12.204-1.681-17.924a24.48 24.48 0 0 0 1.681-.204c.237-.034.482-.068.737-.102a29.78 29.78 0 0 1 1.631-.229 130.042 130.042 0 0 1 1.911 23.373zm-2.801-28.235l-1.655.509c-.222.051-.459.11-.714.178a80.07 80.07 0 0 0-1.118.332 9.712 9.712 0 0 1-.663.177 76.697 76.697 0 0 0-3.946-11.559 60.295 60.295 0 0 0-2.547-5.55c.425-.136.858-.28 1.3-.433l.865-.306c.22-.085.45-.17.686-.254.409-.153.852-.314 1.326-.484 2.986 5.33 5.126 11.083 6.417 17.262-.001.034.016.076.049.128zm-39.847 1.884c-1.307.237-2.08.407-2.317.508-.373.17-.604.272-.687.306.169 1.171.347 2.444.533 3.819a165.13 165.13 0 0 0 1.274 7.612c.695 3.497 1.477 6.84 2.342 10.032 2.733-.951 4.871-1.57 6.416-1.858 1.544-.272 4.167-.832 7.867-1.681 3.667-.832 5.976-1.688 6.926-2.571 1.155-1.104 1.731-3.005 1.731-5.704 0-3.174-.084-5.118-.255-5.83-.458-1.8-1.536-3.497-3.233-5.092a67.32 67.32 0 0 0-1.196-1.069c-8.029.152-13.689.509-16.982 1.069-.951.187-1.758.34-2.419.459zm16.193 4.353a8.757 8.757 0 0 1-.789 1.554c-.492.815-.611 1.639-.356 2.469.237.832.434 1.562.586 2.19.103.611 1.086 1.409 2.953 2.393 0 .238-.662.356-1.984.356-1.324 0-2.132-.806-2.42-2.419-.356-1.596-.535-2.605-.535-3.029 0-.391.144-1.282.434-2.673.034-.238.093-.476.179-.713.406-.934 1.213-1.451 2.418-1.553-.155.492-.316.967-.486 1.425zm-22.024-30.451c-.849 1.409-2.003 4.261-3.463 8.555-1.273 3.649-2.724 6.442-4.354 8.376-2.342 2.835-5.763 5.049-10.261 6.646-3.36 1.138-6.025 1.995-7.994 2.571-.187.356-.866 1.918-2.037 4.685a121.65 121.65 0 0 0-.892 2.826c-.085.289-.195.747-.332 1.375-.067.289-.152.619-.254.993a34.278 34.278 0 0 1-.382 1.578c-.492 2.071-.603 3.845-.331 5.322.187 1.511.381 2.657.586 3.437.322 1.511.729 3.03 1.222 4.558.713 2.326 2.325 4.633 4.837 6.925a82.061 82.061 0 0 1 5.169-.152c7.74 0 13.698 1.001 17.873 3.005 2.614 1.205 5.246 3.402 7.893 6.593 2.733 3.259 5.229 5.44 7.485 6.544 1.817.968 4.05 1.706 6.697 2.214-6.824-3.428-12.188-12.296-16.091-26.605a126.265 126.265 0 0 1-2.42-10.72 209.062 209.062 0 0 1-1.426-8.911c-.543-6.043-.814-9.115-.814-9.218 0-2.087.076-4.116.23-6.085.033-.713.092-1.409.177-2.087a69.763 69.763 0 0 1 1.298-8.478c.917-4.159 2.156-7.52 3.718-10.083-2.595 1.63-4.641 3.675-6.134 6.136zm-31.24 35.772c.95-3.462 2.113-6.381 3.488-8.758-4.837 1.783-8.758 3.327-11.763 4.634-5.092 2.172-8.878 4.005-11.355 5.499a.748.748 0 0 1-.153.051c-1.375.815-2.453 1.774-3.234 2.877l-1.044 2.063c-.101.255-.17.517-.205.789-.56 2.325-.839 4.566-.839 6.722 0 2.087.093 3.513.28 4.277.034.085.067.187.102.306.17.695.44 1.408.816 2.138.238.476.5.917.788 1.325l.103.152.586.637c.322.289.662.551 1.018.789l3.183.942h.407c7.996 0 13.707-.398 17.136-1.197 1.952-.509 4.234-.882 6.849-1.12-3.225-2.563-5.117-4.753-5.678-6.569-.407-1.307-.713-2.817-.917-4.532a15.433 15.433 0 0 1-.153-2.189c-.169-2.512.017-5.271.561-8.275.017-.136.042-.289.076-.458.049-.239.032-.272-.052-.103zm5.982 35.697c.714-1.307 1.07-2.131 1.07-2.47 0-.407-.882-1.435-2.648-3.081-1.765-1.613-2.683-2.827-2.75-3.642-.051-.798.067-1.383.356-1.756a47.22 47.22 0 0 0-2.292.406c-1.272.272-2.631.51-4.074.714a73.83 73.83 0 0 1-5.729.407h-1.044c.289.188.636.722 1.043 1.605.424.764.874 1.748 1.35 2.953a32.97 32.97 0 0 1 1.145 3.183c.323.865.653 1.815.994 2.851.544 1.765 1.29 4.245 2.24 7.435.356 1.17.748 2.443 1.172 3.818 2.291 7.451 4.269 11.874 5.933 13.265.373.307.729.46 1.069.46 1.188 0 2.241-.153 3.157-.46 1.087-.391 1.978-.992 2.674-1.807.611-.781 1.002-1.596 1.171-2.444.271-.917.051-1.621-.662-2.113-.9-.51-1.494-.9-1.783-1.172-.255-.288-.348-.713-.28-1.274 0-.576.025-.881.077-.915.034-.067.399-1.052 1.095-2.953.069-.238.153-.484.255-.738.866-2.377 1.298-3.811 1.298-4.303 0-1.188-.976-2.055-2.928-2.598-.985-.289-1.646-.551-1.986-.79-.628-.423-.942-1.025-.942-1.807 0-.441.237-1.171.713-2.189.102-.186.204-.381.306-.585z"/><path fill-rule="evenodd" clip-rule="evenodd" fill="#4A75AA" d="M471.076 134.326c.306.883.177 2.096-.383 3.641a118.14 118.14 0 0 0-3.92-.509c-1.427-.187-2.131-.271-2.113-.254-.136.271-.459.84-.968 1.706-.493.832-.136 1.511 1.069 2.037 1.188.493 3.114.127 5.779-1.095.119.169.322.382.611.637v.152c0 .221-.229.509-.687.866-.63.492-1.214.925-1.759 1.299-2.663 1.035-4.684.967-6.059-.204-.34-.221-.594-.39-.764-.509-.288-.289-.434-.832-.434-1.63 0-.967.195-1.884.586-2.75.322-.679.653-1.171.993-1.477.052-.153.179-.331.382-.535 0-.136.111-.297.33-.484.204-.153 1.419-.568 3.642-1.248 2.193-.678 3.423-.559 3.695.357zm-7.562 34.678c2.683-1.342 5.024-1.342 7.027 0 .356.508.621.916.789 1.222.154.271.255.857.306 1.756.052.934-.288 2.232-1.019 3.896-.729 1.63-2.257 2.232-4.584 1.808-2.341-.441-3.546-.857-3.615-1.248a22.13 22.13 0 0 1-.279-1.68c-.102-.73-.109-1.315-.025-1.757.051-.407.128-.882.229-1.425.103-.102.23-.187.383-.255a3.65 3.65 0 0 1 .688-.051c.765 0 1.332.051 1.706.153.373.102.687.246.941.433l.459.433c-.085.238-.611.39-1.579.458-.561 0-.823.323-.789.968 0 .797.203 1.264.611 1.4.135.034.289.051.458.051 1.646 0 2.997-.569 4.048-1.706.765-.815 1.146-1.444 1.146-1.885 0-.458-.907-.891-2.725-1.299-.424-.034-.84-.05-1.247-.05-1.663-.034-2.793-.017-3.387.05a.229.229 0 0 0-.025-.102 5.502 5.502 0 0 0-.28-.255c.236-.524.491-.83.763-.915zm-36.256 4.965l.203.535c-1.239.712-2.028 1.468-2.368 2.266-.391.899-.271 1.824.356 2.775.713.662 1.571.815 2.571.458 1.002-.374 1.563-.764 1.682-1.171.118-.441 0-.806-.356-1.094-.441-.204-.722-.399-.842-.586l.356-.535c1.239.051 2.003.391 2.292 1.019.103.221.152.755.152 1.604 0 .814-.067 1.358-.203 1.629-.151.255-.67.595-1.553 1.019-2.444.934-4.031 1.035-4.761.305-.782-.814-1.316-1.663-1.604-2.546-.204-.611-.307-1.104-.307-1.477 0-1.629.103-2.622.307-2.979.526-.849 1.884-1.256 4.075-1.222zM391 167.298c1.697 1.595 2.775 3.292 3.233 5.092.171.712.255 2.656.255 5.83 0 2.699-.576 4.6-1.731 5.704-.95.883-3.259 1.74-6.926 2.571-3.7.849-6.323 1.409-7.867 1.681-1.545.289-3.683.908-6.416 1.858a151.076 151.076 0 0 1-2.342-10.032c-.477-2.479-.9-5.016-1.274-7.612a477.153 477.153 0 0 0-.533-3.819c.083-.034.313-.136.687-.306.237-.102 1.011-.271 2.317-.508-.188 3.089 1.714 4.786 5.703 5.092l8.556-.611a3.564 3.564 0 0 0-.179.713c-.29 1.392-.434 2.283-.434 2.673 0 .424.179 1.434.535 3.029.288 1.613 1.096 2.419 2.42 2.419 1.322 0 1.984-.119 1.984-.356-1.867-.984-2.851-1.782-2.953-2.393a58.01 58.01 0 0 0-.586-2.19c-.255-.831-.136-1.654.356-2.469.289-.441.552-.958.789-1.554l.586-.025c2.259-.798 3.531-2.394 3.82-4.787zm-82.393 28.593c.578-6.417 2.673-10.609 6.289-12.578 8.826-3.31 14.896-4.948 18.205-4.915l.229-.967c.084-.169.102-.136.05.102-.034.17-.059.323-.076.458-.544 3.004-.729 5.763-.561 8.275 0 .747.051 1.477.153 2.189.204 1.715.51 3.225.917 4.532.561 1.815 2.453 4.006 5.678 6.569-2.614.238-4.896.611-6.849 1.12-3.429.798-9.141 1.197-17.136 1.197h-.407l-3.183-.942a9.03 9.03 0 0 1-1.018-.789l-.586-.637-.103-.152c-.289-.408-.55-.849-.788-1.325a9.786 9.786 0 0 1-.814-2.137zm30.706 17.237c-.102.204-.204.398-.305.586-.476 1.018-.713 1.748-.713 2.189 0 .782.314 1.384.942 1.807.34.239 1.001.501 1.986.79 1.952.543 2.928 1.409 2.928 2.598 0 .492-.433 1.926-1.298 4.303-.102.254-.186.5-.255.738-.695 1.901-1.061 2.886-1.095 2.953-.051.034-.077.339-.077.915-.068.562.025.986.28 1.274.289.271.882.662 1.783 1.172.712.492.933 1.196.662 2.113-.169.849-.561 1.663-1.171 2.444-.696.814-1.587 1.416-2.674 1.807-.916.307-1.969.46-3.157.46-.339 0-.696-.153-1.069-.46-1.664-1.391-3.642-5.813-5.933-13.265-.424-1.375-.815-2.648-1.172-3.818-.95-3.19-1.696-5.67-2.24-7.435a75.387 75.387 0 0 0-.994-2.851 32.873 32.873 0 0 0-1.145-3.183c-.476-1.205-.925-2.189-1.35-2.953-.407-.883-.755-1.417-1.043-1.605h1.044a73.901 73.901 0 0 0 5.729-.407 59.277 59.277 0 0 0 4.074-.714 46.035 46.035 0 0 1 2.292-.406c-.29.374-.408.958-.356 1.756.067.815.985 2.029 2.75 3.642 1.766 1.646 2.648 2.673 2.648 3.081-.001.339-.357 1.162-1.071 2.469z"/><path fill-rule="evenodd" clip-rule="evenodd" fill="#F6ED1E" d="M410.249 165.873c1.002-.255 3.123-.755 6.366-1.502 5.193-1.171 11.296-2.352 18.305-3.54 6.994-1.206 12.825-2.122 17.493-2.75a503.569 503.569 0 0 0 12.068-1.833c3.36-.561 5.509-.891 6.442-.993.933-.102 3.784-.594 8.554-1.476 4.771-.883 10.721-1.561 17.849-2.037-1.018 1.392-13.24 4.549-36.664 9.471-23.424 4.923-38.251 7.851-44.48 8.785-1.952.271-3.633.517-5.041.738-.596.067-1.139.144-1.631.229-.255.034-.5.068-.737.102-.68.102-1.24.169-1.681.204a412.9 412.9 0 0 1-1.578.204c-.849.016-1.876.102-3.081.254l-3.208-.407c0-.067-.052-.169-.153-.305-.085-.119-.128-.459-.128-1.018 0-.628.96-1.206 2.879-1.732l.33-.076 3.946-1.121c.221-.05.441-.11.663-.177a80.07 80.07 0 0 1 1.118-.332c.255-.068.492-.127.714-.178l1.655-.51zm-10.644-15.913a101.736 101.736 0 0 1-5.754 1.782c-3.445.951-6.052 1.053-7.816.305-.577-.101-.916-.296-1.018-.585 4.565-2.054 8.732-3.776 12.501-5.168.747-.271 1.451-.526 2.113-.764.22-.068.45-.145.688-.229.389-.119.805-.254 1.245-.407 2.988-1.036 7.062-2.334 12.223-3.896 6.365-1.952 10.49-2.962 12.374-3.03 1.866-.102 2.725-.025 2.572.229-5.296 2.648-9.829 4.659-13.596 6.034a652.133 652.133 0 0 0-10.925 4.074c-.152.051-.296.11-.432.179a87.28 87.28 0 0 0-1.326.484c-.235.084-.466.169-.686.254l-.865.306a57.97 57.97 0 0 1-1.298.432zm13.445 44.148c.866-.034 1.995-.067 3.386-.102 3.294-.068 8.106-.018 14.438.153 0-.102 1.723-.068 5.168.102 3.615.17 6.01.374 7.18.611-2.155.849-3.742 1.273-4.761 1.273-1.019-.017-5.338.365-12.96 1.146-4.838.442-9.039.764-12.604.968-.628.034-1.229.059-1.807.076h-.764c-.596.017-1.154.026-1.682.026h-1.426c-4.549 0-7.23.068-8.046.203l-6.263-.687c-.085-.051-.128-.365-.128-.942s.043-.866.128-.866c.05.034.102.127.152.28.951-.883 3.979-1.426 9.09-1.63 3.038-.136 5.279-.238 6.721-.305h.382a26.901 26.901 0 0 0 1.3-.153h.05l.688-.076c.441-.017 1.026-.042 1.758-.077z"/><path fill-rule="evenodd" clip-rule="evenodd" fill="#CB4646" d="M488.059 160.5v.204c0 .492-.203 1.103-.611 1.833 2.207.628 3.615 1.095 4.228 1.401-.069.865-.892 1.154-2.471.865-1.596-.323-2.147-.221-1.655.305a14.96 14.96 0 0 1 1.477 1.732c0 .441-.238.814-.713 1.12-.593-.373-1.637-1.196-3.131-2.47-1.273 1.392-2.291 2.3-3.056 2.725-.271-.119-.433-.204-.484-.255-.118-.068-.178-.585-.178-1.552 0-1.104.425-2.182 1.273-3.234-.832-.748-1.52-1.375-2.063-1.885 0-.306-.042-.585-.127-.839.136-.085.204-.179.204-.281.476.102 1.146.433 2.012.993.492.119 1.044.272 1.655.458l.561-.407c.186-.781.695-1.468 1.527-2.063 1.103-.781 1.655-.441 1.655 1.019a9.767 9.767 0 0 1-.103.331zM420.104 126l.151 1.222c-.492 1.41-1.281 2.768-2.368 4.074.239.646.373 1.401.408 2.267l-.408.611c-.475-.136-1.077-.424-1.807-.866-1.647 1.494-3.445 2.453-5.397 2.877.27-.968 1.297-2.418 3.08-4.354a79.163 79.163 0 0 1-3.896-2.852c2.835-.747 4.957-.688 6.366.178 1.783-1.816 3.072-2.867 3.871-3.157zm38.114 59.655c.271-.713.772-1.315 1.503-1.808.644-.475 1.129-.603 1.451-.382h.177l.051.254c.12.254.18.628.18 1.12 0 .611-.255 1.146-.765 1.604l6.162.79c.034 1.527-2.402 1.935-7.308 1.222.544 1.052.815 1.952.815 2.699v1.222c0 .068-.061.154-.179.255l-.764.382c-.51-.849-1.078-2.045-1.706-3.59-1.239.798-2.24 1.273-3.004 1.426-.766-.255-1.266-.578-1.502-.968.56-.748 1.663-1.468 3.31-2.164-.288-.322-.569-.764-.841-1.324-.543-1.409-.814-2.08-.814-2.012 0-1.766.671-1.73 2.011.102.069.136.154.255.255.356.187.204.392.442.612.713.101.018.22.053.356.103z"/><path fill-rule="evenodd" clip-rule="evenodd" fill="#FFF" d="M399.605 149.96a60.561 60.561 0 0 1 2.547 5.55 76.586 76.586 0 0 1 3.946 11.559c-1.798.51-3.115.883-3.946 1.121l-.33.076c-1.919.526-2.879 1.104-2.879 1.732 0 .559.043.899.128 1.018.102.136.153.238.153.305l3.208.407c1.205-.152 2.232-.238 3.081-.254.271-.034.797-.102 1.578-.204 1.121 5.72 1.681 11.695 1.681 17.924 0 .221.033 1.884.101 4.991v.229c-1.441.067-3.683.169-6.721.305-5.11.204-8.139.747-9.09 1.63-.051-.153-.103-.247-.152-.28-.085 0-.128.289-.128.866s.043.891.128.942l6.263.687c.815-.135 3.497-.203 8.046-.203h1.426a41.863 41.863 0 0 1-.916 5.346c-2.24 9.014-7.299 13.52-15.175 13.52-8.777 0-15.659-8.681-20.649-26.046a.314.314 0 0 1-.052-.179h.434c6.688-1.205 10.177-1.859 10.465-1.96.305-.103 2.01-.519 5.117-1.248 3.004-.475 4.948-1.077 5.83-1.808.865-.679 1.469-2.147 1.809-4.405.169-2.173.255-3.293.255-3.361 0-3.513-.086-5.729-.255-6.645-.627-2.75-2.224-4.965-4.787-6.646l-7.714.153.204.025c-6.248.356-10.644.662-13.189.917-1.561.17-2.513.416-2.853.739-.237-2.088-.356-3.675-.356-4.762 0-13.171 2.182-22.023 6.544-26.556 1.289-1.358 2.716-2.241 4.277-2.647.154-.018.298-.042.434-.077a9.052 9.052 0 0 1 2.036-.178c1.427.018 2.929.365 4.507 1.044 1.036.425 2.113 1.027 3.233 1.808 3.548 2.512 6.772 6.144 9.676 10.897-3.769 1.392-7.936 3.114-12.501 5.168.102.289.44.484 1.018.585 1.765.748 4.371.646 7.816-.305 1.9-.524 3.818-1.119 5.752-1.78zm-35.034-8.301c1.493-2.461 3.539-4.506 6.136-6.136-1.562 2.563-2.801 5.924-3.718 10.083a69.99 69.99 0 0 0-1.298 8.478 26.788 26.788 0 0 0-.177 2.087 78.071 78.071 0 0 0-.23 6.085c0 .103.271 3.174.814 9.218.425 3.072.901 6.042 1.426 8.911a126.265 126.265 0 0 0 2.42 10.72c3.903 14.309 9.267 23.178 16.091 26.605-2.647-.508-4.88-1.246-6.697-2.214-2.256-1.104-4.752-3.285-7.485-6.544-2.646-3.191-5.278-5.389-7.893-6.593-4.175-2.004-10.133-3.005-17.873-3.005-1.834 0-3.558.05-5.169.152-2.512-2.292-4.125-4.599-4.837-6.925a46.198 46.198 0 0 1-1.222-4.558c-.205-.78-.399-1.926-.586-3.437-.272-1.477-.161-3.25.331-5.322.154-.577.28-1.103.382-1.578.102-.374.187-.704.254-.993.136-.628.246-1.086.332-1.375.169-.577.467-1.519.892-2.826 1.17-2.767 1.85-4.329 2.037-4.685 1.969-.577 4.634-1.434 7.994-2.571 4.499-1.596 7.919-3.811 10.261-6.646 1.63-1.935 3.081-4.728 4.354-8.376 1.458-4.294 2.613-7.146 3.461-8.555z"/><path fill-rule="evenodd" clip-rule="evenodd" fill="#7397C3" d="M391 167.298c-.289 2.393-1.561 3.988-3.819 4.787l-.586.025c.17-.458.331-.933.484-1.425-1.205.102-2.012.62-2.418 1.553l-8.556.611c-3.989-.306-5.891-2.002-5.703-5.092a168.65 168.65 0 0 0 2.419-.458c3.293-.56 8.953-.917 16.982-1.069.409.355.807.711 1.197 1.068zm-82.393 28.593a3.21 3.21 0 0 0-.102-.306c-.187-.764-.28-2.189-.28-4.277 0-2.156.28-4.397.839-6.722.035-.272.104-.534.205-.789l1.044-2.063c.781-1.103 1.858-2.062 3.234-2.877a.77.77 0 0 0 .153-.051c2.477-1.494 6.263-3.327 11.355-5.499 3.005-1.307 6.926-2.852 11.763-4.634-1.375 2.377-2.538 5.296-3.488 8.758l-.229.967c-3.309-.034-9.379 1.604-18.205 4.915-3.616 1.969-5.711 6.162-6.289 12.578z"/><path fill="#010101" d="M496.439 267.584c-.348-.312-.773-.467-1.276-.467-.756.013-1.446.839-2.069 2.482-.24.467-.803 2.254-1.691 5.359-1.499 5.205-3.31 7.82-5.432 7.844-.684.012-1.056-.013-1.115-.071l.126-.073c-1.319-2.71-1.854-5.168-1.603-7.375l.271-4.461c.084-1.763-.096-3.388-.54-4.875-1.979 2.039-2.926 6.501-2.842 13.384 0 .084.025.539.072 1.366.12.983.336 1.877.648 2.681.971 2.53 2.649 3.778 5.037 3.742 2.409-.024 4.579-1.435 6.511-4.228.072.371.107.754.107 1.151-.143.574-.179 2.164-.107 4.767.072 2.507-.413 5.319-1.457 8.437-1.032 3.116-2.279 4.564-3.742 4.336-1.45-.253-2.495-1.225-3.13-2.916-.707-1.846-1.396-2.889-2.068-3.129-.3.157-.605.348-.918.575-.229.192-.365.289-.413.289 0 .276-.019.568-.054.881-.062.337-.083.797-.072 1.384.011.913.414 2.076 1.205 3.491.792 1.415 2.088 2.446 3.886 3.094.972.36 2.074.606 3.311.736.97.097 2.319-.441 4.047-1.617 1.714-1.187 2.89-7.04 3.524-17.558.613-10.529.539-16.939-.216-19.229zM459.312 269.042c-1.438 3.189-2.404 6.056-2.896 8.598a7.847 7.847 0 0 1-.252-1.024c-.924-3.693-1.93-6.268-3.021-7.717-.396.154-.77.988-1.115 2.5-.3 1.26-.445 2.398-.433 3.417 0 .06.216 2.266.647 6.62.708 4.27 1.811 6.393 3.311 6.368.73-.013 1.24-.139 1.527-.378.049-.049.091-.071.126-.071.157-.013.331-.019.521-.019.169 0 .349-.701.54-2.105.216-1.99.54-3.687.972-5.091 1.667-5.265 5.048-8.896 10.146-10.899-5.3-3.372-8.658-3.437-10.073-.199zM471.399 255.964c-.06 4.018-.102 9.558-.125 16.621-.049 5.456-.061 9.071-.036 10.847l.036 2.969c.251 1.871.94 2.794 2.068 2.77.886-.013 1.606-.545 2.158-1.601.419-.888.721-3.441.9-7.662.214-4.259.028-10.039-.56-17.342-.572-7.352-2.053-9.551-4.441-6.602zM447.26 282.371c-1.583-1.332-2.411-2.53-2.483-3.598-.503-1.775-.719-3.346-.647-4.713a15.806 15.806 0 0 0-.449-4.281c-.803-2.016-2.692-2.111-5.667-.288-2.973 1.774-5.03 3.459-6.17 5.055-1.187 1.535-2.05 3.166-2.59 4.893-.336 1.163-.491 2.603-.468 4.317.023 1.188.426 2.262 1.206 3.221 1.187 1.462 3.033 2.176 5.54 2.14 1.055-.012 2.266-.563 3.634-1.655.683-.516 1.624-1.39 2.824-2.626.634.779 1.433 1.51 2.392 2.195 1.344.84 2.633 1.248 3.867 1.222.625-.01 1.086-.076 1.387-.197.215-.203.36-.305.431-.305l.323-1.801c-.349-.898-1.392-2.093-3.13-3.579zm-9.985 2.483c-2.375.635-3.729.522-4.064-.342-.384-.875-.582-1.649-.595-2.321-.012-1.343.36-2.723 1.115-4.138.744-1.415 2.902-3.166 6.475-5.252.398 7.374-.579 11.393-2.931 12.053zM425.979 274.546a7.373 7.373 0 0 0-1.547-3.202c-.828-.97-1.313-1.516-1.457-1.637-1.812-1.403-3.855-2.032-6.134-1.89-2.519.146-4.767 1.218-6.747 3.221-2.038 1.991-3.17 3.861-3.397 5.612-.253 1.716-.241 3.16.035 4.335.276 1.141.881 2.765 1.816 4.876.937 2.109 3.772 3.136 8.508 3.075.984-.013 2.43-.432 4.337-1.26a30.766 30.766 0 0 0 1.78-.827c.672-.383 1.009-.695 1.009-.936-.014-.73-.109-1.162-.289-1.296a3.713 3.713 0 0 1-.737-.233c-.062-.023-.12-.048-.181-.07l-2.949.197c.971.013.342.203-1.889.575-2.255.408-3.903.144-4.948-.791-1.03-.948-1.223-1.752-.575-2.411 4.822-.838 8.317-1.522 10.488-2.05 1.558-.396 2.428-.721 2.607-.972.385-.564.521-.846.415-.846.035-.037.053-.066.053-.09a.705.705 0 0 0 .072-.324c.071.073.132-.113.179-.558a.462.462 0 0 1 .146-.106l-.146-.486c-.047-.096-.198-.731-.449-1.906zm-9.157 2.788c-2.975.528-4.891.894-5.757 1.097-.226-.899.192-2.176 1.261-3.83 1.029-1.691 2.681-2.548 4.945-2.573 2.327-.035 4.024 1.007 5.093 3.129.191.325.407.756.648 1.297-1.584.13-3.647.425-6.19.88zM393.456 279.979c-.383-.564-.876-.882-1.475-.954a2.121 2.121 0 0 0-.917.018c-.169.036-.931.67-2.285 1.907-1.309 1.271-3.261 2.134-5.865 2.59-2.577.419-4.67-.372-6.277-2.373-1.63-1.992-2.518-3.378-2.663-4.156-.155-.817-.323-2.004-.502-3.562-.169-1.584.437-3.575 1.817-5.973 1.379-2.411 3.577-4.336 6.6-5.774 3.011-1.392 5.092-1.589 6.241-.593a11.375 11.375 0 0 1 2.772 3.723l.664-.307c.025-.022.103-.089.234-.197.12-.132.295-.3.523-.503.382-.433.186-1.584-.595-3.453a.446.446 0 0 0-.072-.198c-.899-1.969-2.561-3.197-4.982-3.688-2.387-.504-5.176.137-8.363 1.925-3.19 1.763-5.692 4.159-7.503 7.194-2.027 3.55-2.704 7.304-2.032 11.261 0 .073.167.876.503 2.411.517 1.737 1.211 3.267 2.087 4.588 2.842 4.255 7.242 5.851 13.204 4.782 2.674-.454 5.007-1.461 6.996-3.021.169-.144.331-.288.486-.432 1.512-1.355 2.17-2.614 1.979-3.777a4.288 4.288 0 0 0-.575-1.438zM398.169 256.162c-.082 4.017-.144 9.551-.179 16.603-.014 5.47 0 9.084.035 10.847l.019 3.005c.239 1.858.923 2.782 2.05 2.77.876-.011 1.595-.545 2.159-1.6.419-.889.695-3.538.827-7.951.12-4.438-.102-10.325-.666-17.665-.6-7.328-2.015-9.331-4.245-6.009zM350.878 264.832c-.036-6.619-.432-10.302-1.188-11.044-.54-.421-1.206-.223-1.996.593-.913.792-1.326 2.747-1.243 5.864.072 3.083.281 5.762.63 8.041-1.584-1.176-3.483-1.547-5.702-1.116-2.255.374-4.055 1.543-5.397 3.508-1.38 1.967-2.244 3.754-2.59 5.361-.335 1.606-.564 2.956-.683 4.048-.061 1.343.017 2.578.233 3.705.779 3.489 2.986 5.205 6.62 5.145 1.344 0 3.401-.73 6.17-2.196.419-.25.822-.466 1.204-.646.013.251.055.864.127 1.836.299 1.103 1.175 1.648 2.626 1.637.803-.012 1.313-.102 1.529-.27l.27-.343c.132.145.186-.443.163-1.763-.491-8.562-.75-16.015-.773-22.36zm-3.904 15.74c-.635.384-1.865 1.084-3.687 2.104-1.824.983-3.046 1.326-3.67 1.026-.646-.313-1.337-.852-2.068-1.62-.707-.729-1.019-1.846-.936-3.345.061-1.522.558-3.208 1.494-5.055.923-1.884 2.225-2.886 3.903-3.005 1.691-.143 3.052.78 4.083 2.771.359.707.684 1.318.972 1.834a92.597 92.597 0 0 0-.091 5.29zM312.724 268.431c.229-.145.419-.288.577-.433-.192-.06-.39-.119-.595-.181a.994.994 0 0 0-.27-.071c-3.13-.875-6.985-1.139-11.564-.791-.193-11.765-1.194-15.53-3.004-11.297-.348 1.714-.715 4.096-1.098 7.141a49.246 49.246 0 0 0-.414 4.499l-7.699 1.187c-1.295 1.785 1.266 2.805 7.682 3.058-.025.503-.03 1.025-.019 1.565.011.407.019.827.019 1.258 0 .121.251 2.544.755 7.269.635 4.641 1.331 6.955 2.086 6.943 1.426 0 2.116-1.494 2.068-4.479.037-3.923.06-7.609.073-11.063a72.245 72.245 0 0 1 0-2.374c.683.145 2.001.145 3.957 0 1.942-.168 3.639-.528 5.091-1.08.767-.3 1.409-.592 1.924-.88.156-.086.298-.177.431-.271zM329.598 274.654c-.036-1.177-.996-2.662-2.878-4.462-1.883-1.835-5.007-2.243-9.373-1.224-4.389 1.031-6.584 5.176-6.584 12.431.24 3.863 2.04 6.033 5.397 6.512 3.789.527 6.631.39 8.525-.413 1.896-.804 2.836-1.409 2.825-1.818v-.467c-.191-1.848-1.66-2.045-4.408-.595-.407.073-.959.162-1.655.271-2.242.42-3.878.154-4.911-.792-1.043-.935-1.241-1.721-.593-2.356 8.321-1.487 12.687-2.5 13.095-3.04.395-.599.533-.897.414-.899.036 0 .054-.019.054-.053a.93.93 0 0 0 .072-.343c.084.084.145-.097.18-.54.024-.06.078-.102.163-.126l-.181-.521c-.071.096-.119-.426-.142-1.565zm-9.409 2.5c-2.999.551-4.94.911-5.827 1.08-.205-.89.221-2.153 1.276-3.797 1.032-1.702 2.705-2.566 5.02-2.59 2.277-.036 3.958.982 5.037 3.058.156.348.372.78.646 1.297-1.595.179-3.645.496-6.152.952zM275.147 265.93c-.013-.661-.042-1.02-.092-1.08-.214.097-.413.049-.591-.145-1.991.025-6.19.721-12.593 2.088.012-4.545 0-8.311-.036-11.296-.012-.744-.113-1.313-.305-1.709-.049-.096-.108-.21-.179-.342a8.423 8.423 0 0 0-.397-.486l-.467.504c-1.547 1.775-2.608 4.898-3.184 9.372-.205 1.464-.335 3.147-.396 5.055-4.292.946-7.064 1.564-8.312 1.852-.06.193-.161.359-.305.504v.99c.012.131.636.725 1.871 1.78 2.11-.516 4.348-.995 6.71-1.438-.024.504-.03 1.025-.018 1.565v1.239c0 .132.275 2.563.827 7.286.636 4.653 1.314 6.974 2.033 6.961 1.451-.024 2.153-1.521 2.105-4.497 0-3.921.011-7.607.035-11.062a31.11 31.11 0 0 1 .055-2.376 496.9 496.9 0 0 0 6.691-1.186c2.315-.36 3.941-.793 4.875-1.297 1.138-.526 1.696-1.287 1.673-2.282zM287.253 282.695c-1.703-1.415-2.639-2.813-2.807-4.191a81.926 81.926 0 0 1-.485-3.903c-.167-1.225-.288-2.771-.36-4.641-.779-2.017-2.662-2.112-5.648-.289-2.973 1.775-5.054 3.455-6.241 5.037-1.163 1.534-2.015 3.18-2.555 4.929-.336 1.127-.497 2.536-.486 4.229.012 1.222.444 2.32 1.294 3.291 1.151 1.438 2.975 2.146 5.47 2.122 1.042-.012 2.253-.552 3.633-1.619.708-.516 1.654-1.385 2.842-2.607.635.791 1.433 1.498 2.392 2.122 1.32.911 2.591 1.354 3.813 1.331.672 0 1.14-.095 1.404-.288.251-.191.401-.287.45-.287l.305-1.78c-.348-.902-1.355-2.053-3.021-3.456zm-12.395 2.068c-.479.013-.971-.191-1.474-.611-.576-.528-.864-1.133-.864-1.816-.023-1.32.528-2.813 1.655-4.48 1.104-1.666 2.753-3.059 4.947-4.172.995 7.351-.426 11.044-4.264 11.079zM238.162 269.222c-2.914.19-5.12.288-6.619.288-2.687-.108-4.041-.787-4.065-2.033-.012-1.151.857-2.477 2.608-3.976 2.134-1.823 4.641-2.751 7.52-2.787.503-.014 1.037.52 1.6 1.601.54 1.139 1.067 1.702 1.583 1.69.683 0 1.049-.078 1.097-.234l.054-.287c0-.276.061-.611.18-1.008.084-.36.119-.856.107-1.493 0-.588-.425-1.337-1.278-2.249-.886-.936-1.63-1.445-2.23-1.528-4.929-.551-8.862.547-11.8 3.291-2.339 2.171-3.489 4.469-3.454 6.891.025 2.015.258 3.37.702 4.065 1.415 2.063 4.653 3.063 9.713 3.004 3.131-.036 5.043-.013 5.739.072 1.991.287 2.992 1.085 3.003 2.393.012 1.354-.48 2.782-1.475 4.28-1.452 2.278-3.61 3.43-6.476 3.454-.924.011-2.58-.407-4.965-1.26-2.327-.875-3.909-1.306-4.749-1.296-1.548.026-2.311.956-2.285 2.79.012 1.091 1.199 2.099 3.562 3.021 2.399.984 5.114 1.457 8.148 1.422 5.217-.072 8.888-1.728 11.01-4.966 1.284-2.026 1.907-4.551 1.87-7.572-.024-2.194-.468-3.854-1.331-4.983-1.413-1.775-4.003-2.638-7.769-2.59z"/></svg>