<svg xmlns="http://www.w3.org/2000/svg" width="370" height="200" viewBox="175 116 370 200"><path fill="#222" d="M229.517 257.695h-17.005V221.61h-12.05v46.862h29.055v-10.777zM265.948 257.828h-17.94v-8.233h15.932V238.95h-15.932v-6.628h17.338V221.61H236.09v46.862h29.858v-10.644zM313.411 268.473V221.61H301.16v17.005H286.7V221.61h-12.251v46.862H286.7V249.66h14.46v18.812l12.251.001zM369.262 253.691v-32.214h-4.285l-18.678 20.351-18.343-20.351h-4.419v46.995h12.251v-20.887l9.908 10.443h1.339l9.974-10.443v20.887h6.572v-2.457l5.681-12.324zM457.296 244.574l-23.698-23.163h-4.352v29.863l6.792 14.741v2.457h5.593v-23.028l23.632 23.098h4.284v-46.931h-12.251v22.963zM479.675 221.411v47.062h12.384v-23.028l23.633 23.098h4.285v-46.931h-12.252v22.963l-23.699-23.163h-4.351zM402.525 182.659c10.553 0 19.108-8.556 19.108-19.109 0-10.552-8.556-19.107-19.108-19.107s-19.107 8.555-19.107 19.107c0 10.553 8.555 19.109 19.107 19.109zm.001-16.243a2.866 2.866 0 1 1 0-5.732 2.866 2.866 0 0 1 0 5.732zm13.333-1.788a5.73 5.73 0 0 1 2.098 7.831 5.731 5.731 0 1 1-9.929-5.732 5.733 5.733 0 0 1 7.831-2.099zm-13.333-18.897a5.733 5.733 0 1 1-.002 11.466 5.733 5.733 0 0 1 .002-11.466zm-15.431 26.728a5.732 5.732 0 1 1 9.928-5.732 5.732 5.732 0 1 1-9.928 5.732zM460.887 163.55c0-10.552-8.558-19.107-19.111-19.107-10.552 0-19.106 8.555-19.106 19.107 0 10.553 8.555 19.109 19.106 19.109 10.553 0 19.111-8.556 19.111-19.109zm-5.776 1.078a5.73 5.73 0 0 1 2.097 7.831 5.73 5.73 0 0 1-7.829 2.099 5.734 5.734 0 0 1 5.732-9.93zm-20.935 9.93a5.733 5.733 0 1 1-5.73-9.932 5.733 5.733 0 0 1 5.73 9.932zm1.868-23.095a5.732 5.732 0 1 1 5.731 5.733 5.732 5.732 0 0 1-5.731-5.733zm2.867 12.087a2.866 2.866 0 1 1 5.731 0 2.866 2.866 0 0 1-5.731 0z"/><path fill="#222" d="M390.121 202.428l6.637-14.383-.003-.003c.163-.372.256-.782.256-1.213a3.051 3.051 0 0 0-3.052-3.051c-.02 0-.038.006-.061.006l-.001-.003h-23.661l22.611-49.007h-18.98l-.008.004a3.044 3.044 0 0 0-2.711 1.761l-.011.007-30.397 65.882h49.381z"/><path fill="#222" d="M429.246 251.274l-22.507-48.846h48.213l.004-.003c.01 0 .019.003.029.003a3.042 3.042 0 0 0 2.671-1.606l.036-.022 30.464-66.026h-92.547l-3.811 8.259h82.36L456.23 181.89c-.014.037-.033.07-.048.105l-.012.024-.003.002a3.04 3.04 0 0 1-2.648 1.757l-.004.002h-.022c-.029 0-.056.009-.084.009s-.055-.009-.085-.009h-49.862l-.022-.002-.025.002h-.037l-.007.004a3.042 3.042 0 0 0-2.675 1.73l-.014.009-.052.113a.008.008 0 0 0-.002.004l-5.38 11.66-2.669 5.776-23.319 50.614-5.68 12.324V268.472h17.007l19.21-43.278.013.027.013-.027 19.207 43.278h17.007V266.014l-6.791-14.74zM326.611 195.523a3.03 3.03 0 0 0 1.258-.277l.015.009 16.985-7.745 14.355-31.201-31.314-14.413a3.026 3.026 0 0 0-1.299-.3 3.05 3.05 0 0 0-3.049 3.048h-.001v47.875l.005.003a3.048 3.048 0 0 0 3.045 3.001zM200 285.372c0-5.195 3.91-8.7 8.978-8.7 3.683 0 5.826 1.992 7.012 4.11l-3.077 1.514c-.706-1.362-2.22-2.446-3.935-2.446-3.076 0-5.296 2.345-5.296 5.522s2.22 5.523 5.296 5.523c1.715 0 3.229-1.084 3.935-2.445l3.077 1.487c-1.186 2.093-3.33 4.137-7.012 4.137-5.068 0-8.978-3.53-8.978-8.702zM219.591 285.372c0-5.069 3.708-8.7 8.802-8.7 5.069 0 8.777 3.631 8.777 8.7s-3.708 8.702-8.777 8.702c-5.094 0-8.802-3.633-8.802-8.702zm13.897 0c0-3.152-1.993-5.522-5.095-5.522-3.127 0-5.12 2.37-5.12 5.522 0 3.128 1.993 5.523 5.12 5.523 3.103.001 5.095-2.395 5.095-5.523zM241.958 287.037v-10.088h3.63v9.986c0 2.347 1.363 3.96 3.96 3.96 2.598 0 3.934-1.613 3.934-3.96v-9.986h3.657v10.088c0 4.162-2.471 7.037-7.591 7.037-5.119 0-7.59-2.875-7.59-7.037zM272.242 293.771l-3.304-5.977h-2.624v5.977h-3.581V276.95h7.869c3.505 0 5.675 2.295 5.675 5.422 0 2.951-1.892 4.564-3.708 4.993l3.808 6.406h-4.135zm.354-11.425c0-1.388-1.085-2.244-2.498-2.244h-3.783v4.539h3.783c1.413 0 2.498-.857 2.498-2.295zM284.848 293.771v-13.669h-4.918v-3.152h13.417v3.152h-4.893v13.669h-3.606zM316.166 293.771l-3.304-5.977h-2.622v5.977h-3.582V276.95h7.869c3.505 0 5.675 2.295 5.675 5.422 0 2.951-1.892 4.564-3.708 4.993l3.809 6.406h-4.137zm.353-11.425c0-1.388-1.084-2.244-2.497-2.244h-3.782v4.539h3.782c1.412 0 2.497-.857 2.497-2.295zM325.139 293.771V276.95h11.905v3.152h-8.323v3.53h8.146v3.153h-8.146v3.833h8.323v3.152h-11.905zM342.108 293.771V276.95h7.87c3.657 0 5.649 2.472 5.649 5.422 0 2.926-2.017 5.397-5.649 5.397h-4.288v6.002h-3.582zm9.862-11.4c0-1.413-1.084-2.27-2.496-2.27h-3.784v4.514h3.784c1.412 0 2.496-.856 2.496-2.244zM359.33 285.372c0-5.069 3.707-8.7 8.802-8.7 5.07 0 8.777 3.631 8.777 8.7s-3.707 8.702-8.777 8.702c-5.095 0-8.802-3.633-8.802-8.702zm13.897 0c0-3.152-1.992-5.522-5.095-5.522-3.128 0-5.119 2.37-5.119 5.522 0 3.128 1.991 5.523 5.119 5.523 3.102.001 5.095-2.395 5.095-5.523zM391.203 293.771l-3.304-5.977h-2.622v5.977h-3.582V276.95h7.869c3.506 0 5.674 2.295 5.674 5.422 0 2.951-1.891 4.564-3.706 4.993l3.808 6.406h-4.137zm.354-11.425c0-1.388-1.084-2.244-2.497-2.244h-3.782v4.539h3.782c1.413 0 2.497-.857 2.497-2.295zM403.81 293.771v-13.669h-4.918v-3.152h13.417v3.152h-4.893v13.669h-3.606zM416.87 293.771V276.95h3.581v16.821h-3.581zM437.649 293.771l-8.021-10.971v10.971h-3.582V276.95h3.684l7.792 10.567V276.95h3.583v16.821h-3.456zM445.891 285.372c0-5.321 4.035-8.7 8.979-8.7 3.48 0 5.675 1.765 6.937 3.757l-2.951 1.615c-.781-1.186-2.22-2.194-3.985-2.194-3.076 0-5.295 2.345-5.295 5.522s2.219 5.523 5.295 5.523c1.489 0 2.875-.655 3.556-1.286v-2.018h-4.438v-3.127h8.02v6.457c-1.715 1.916-4.111 3.152-7.138 3.152-4.945.001-8.98-3.404-8.98-8.701zM467.777 297.227l-1.387-1.136c.808-.428 1.74-1.487 1.941-2.369a1.75 1.75 0 0 1-.478.075c-.96 0-1.716-.757-1.716-1.815 0-1.11.908-2.019 1.992-2.019 1.186 0 2.244.933 2.244 2.572.002 1.891-1.032 3.581-2.596 4.692zM479.527 293.771V276.95h3.581v16.821h-3.581zM498.037 293.771l-8.021-10.971v10.971h-3.582V276.95h3.683l7.793 10.567V276.95h3.582v16.821h-3.455zM504.01 285.372c0-5.195 3.909-8.7 8.979-8.7 3.683 0 5.826 1.992 7.012 4.11l-3.078 1.514c-.706-1.362-2.219-2.446-3.934-2.446-3.078 0-5.296 2.345-5.296 5.522s2.218 5.523 5.296 5.523c1.715 0 3.228-1.084 3.934-2.445l3.078 1.487c-1.186 2.093-3.329 4.137-7.012 4.137-5.07 0-8.979-3.53-8.979-8.702z"/><linearGradient id="a" gradientUnits="userSpaceOnUse" x1="385.028" y1="219.504" x2="395.259" y2="219.504"><stop offset="0" stop-color="#fff" stop-opacity="0"/><stop offset="1" stop-color="#0a1a21" stop-opacity=".8"/></linearGradient><linearGradient id="b" gradientUnits="userSpaceOnUse" x1="410.228" y1="198.546" x2="410.228" y2="233.788"><stop offset=".333" stop-color="#231f20" stop-opacity="0"/><stop offset="1" stop-color="#231f20" stop-opacity=".35"/></linearGradient><linearGradient id="c" gradientUnits="userSpaceOnUse" x1="443.15" y1="198.546" x2="443.15" y2="234.293"><stop offset=".333" stop-color="#231f20" stop-opacity="0"/><stop offset="1" stop-color="#231f20" stop-opacity=".35"/></linearGradient><linearGradient id="d" gradientUnits="userSpaceOnUse" x1="480.346" y1="198.546" x2="480.346" y2="233.791"><stop offset=".333" stop-color="#231f20" stop-opacity="0"/><stop offset="1" stop-color="#231f20" stop-opacity=".35"/></linearGradient><linearGradient id="e" gradientUnits="userSpaceOnUse" x1="514.302" y1="197.764" x2="514.302" y2="234.293"><stop offset=".333" stop-color="#231f20" stop-opacity="0"/><stop offset="1" stop-color="#231f20" stop-opacity=".35"/></linearGradient></svg>