<svg xmlns="http://www.w3.org/2000/svg" width="370" height="200" viewBox="0 0 370 200"><g fill="#FFF"><path d="M110.847 155.263c-1.708-1.452-2.642-2.878-2.803-4.275a90.228 90.228 0 0 1-.444-4.013c-.161-1.237-.269-2.811-.322-4.72-.766-2.058-2.675-2.186-5.728-.384-3.066 1.789-5.21 3.477-6.434 5.063-1.21 1.56-2.091 3.228-2.642 5.001-.376 1.157-.564 2.597-.564 4.316 0 1.237.423 2.359 1.271 3.368 1.156 1.479 3.005 2.219 5.546 2.219 1.062 0 2.306-.532 3.731-1.594.713-.524 1.688-1.404 2.924-2.642.632.819 1.439 1.546 2.42 2.178 1.318.955 2.608 1.432 3.872 1.432.672 0 1.149-.094 1.432-.282.242-.188.39-.282.444-.282l.343-1.814c-.337-.929-1.352-2.12-3.046-3.571zm-12.645 1.975c-.497 0-.995-.222-1.492-.665-.578-.537-.867-1.149-.867-1.834 0-1.346.579-2.864 1.734-4.559 1.157-1.681 2.85-3.08 5.082-4.195.941 7.502-.544 11.253-4.457 11.253zM61.013 141.387c-2.984.161-5.244.229-6.776.202-2.729-.136-4.094-.833-4.094-2.098 0-1.184.901-2.527 2.702-4.033 2.192-1.828 4.753-2.743 7.684-2.743.524 0 1.069.552 1.634 1.654.524 1.169 1.048 1.755 1.573 1.755.686 0 1.055-.081 1.109-.242l.081-.282c0-.282.067-.625.201-1.029.081-.362.121-.874.121-1.532 0-.592-.423-1.358-1.271-2.299-.9-.955-1.654-1.487-2.259-1.594-5.015-.632-9.042.438-12.08 3.207-2.407 2.191-3.61 4.518-3.61 6.978 0 2.058.222 3.441.666 4.155 1.412 2.125 4.706 3.187 9.882 3.187 3.187 0 5.136.047 5.849.141 2.017.323 3.025 1.143 3.025 2.461 0 1.398-.518 2.85-1.553 4.356-1.506 2.299-3.724 3.448-6.655 3.448-.955 0-2.629-.45-5.022-1.351-2.379-.915-3.993-1.372-4.84-1.372-1.587 0-2.38.935-2.38 2.804 0 1.116 1.203 2.157 3.61 3.126 2.447 1.035 5.217 1.553 8.309 1.553 5.311 0 9.062-1.641 11.253-4.921 1.345-2.058 2.017-4.618 2.017-7.685 0-2.244-.43-3.944-1.291-5.102-1.424-1.829-4.053-2.744-7.885-2.744zM96.992 140.359c1.156-.525 1.734-1.29 1.734-2.3 0-.685-.027-1.055-.081-1.108-.215.08-.41.026-.584-.162-2.044 0-6.34.652-12.887 1.957.081-4.625.121-8.458.121-11.496 0-.766-.094-1.352-.282-1.754a3.086 3.086 0 0 0-.182-.343 5.04 5.04 0 0 0-.403-.483 7.34 7.34 0 0 0-.484.483c-1.6 1.787-2.723 4.954-3.368 9.499-.215 1.506-.37 3.227-.464 5.162-4.384.915-7.213 1.506-8.491 1.775a1.224 1.224 0 0 1-.323.524v.987c0 .135.625.753 1.876 1.855 2.165-.497 4.45-.961 6.857-1.391-.027.511-.04 1.041-.04 1.593v1.271c0 .135.249 2.614.746 7.441.578 4.732 1.237 7.1 1.977 7.1 1.479 0 2.218-1.52 2.218-4.559.054-3.993.107-7.744.162-11.253 0-.82.026-1.627.081-2.42 1.882-.296 4.167-.666 6.856-1.109 2.353-.348 4.007-.773 4.961-1.269zM154.086 147.619c-.027-1.197-.982-2.729-2.864-4.597-1.896-1.884-4.127-2.771-6.696-2.663-2.528.08-4.813 1.136-6.857 3.167-2.111 2.042-3.301 3.933-3.57 5.666-.255 1.775-.255 3.254 0 4.438.269 1.143.867 2.797 1.795 4.961.928 2.165 3.805 3.247 8.632 3.247 1.008 0 2.474-.396 4.396-1.189 1.936-.794 2.904-1.399 2.904-1.815v-.484c-.161-1.868-1.653-2.091-4.477-.666-.403.082-.961.169-1.674.263-2.299.403-3.973.114-5.021-.867-1.035-.968-1.224-1.774-.565-2.42 8.511-1.398 12.975-2.373 13.392-2.924.402-.604.55-.906.444-.908.027 0 .04-.014.04-.04a.968.968 0 0 0 .081-.363c.081.081.142-.101.182-.544.026-.054.08-.094.161-.121l-.161-.525c-.067.078-.115-.459-.142-1.616zm-9.599 2.42c-3.065.524-5.049.867-5.95 1.028-.201-.9.249-2.184 1.352-3.852 1.062-1.721 2.77-2.58 5.123-2.58 2.326 0 4.027 1.068 5.103 3.206.162.349.376.786.646 1.311-1.616.161-3.707.457-6.274.887zM137.589 140.157l-12.201-1.411c-.631-5.339-.961-8.975-.988-10.911-.027-1.52.047-2.413.222-2.682 0-.014.007-.027.021-.042-.296 0-.941-.053-1.936-.16l-.081.202c-.564 1.559-1.176 4.726-1.835 9.499a71.89 71.89 0 0 0-.464 4.598l-9.035 1.271c.309.9.403 1.432.282 1.593-.026 0-.04.33-.04.988 0 .134.061.201.181.201 3.254.604 6.098.693 8.531.263a30.175 30.175 0 0 0-.041 1.593v1.271c0 .134.235 2.615.706 7.441.578 4.732 1.25 7.1 2.017 7.1 1.452 0 2.178-1.52 2.178-4.559.081-3.993.148-7.743.202-11.253 0-.819.013-1.626.041-2.42 1.882-.417 3.536-.552 4.961-.404 1.398.135 2.824-.06 4.275-.583 1.451-.553 2.453-1.084 3.004-1.595zM175.908 137.637c.053-6.736-.303-10.488-1.069-11.254-.551-.431-1.236-.234-2.057.585-.928.794-1.365 2.776-1.311 5.95.026 3.146.202 5.875.524 8.188-1.586-1.21-3.516-1.613-5.788-1.21-2.299.362-4.148 1.533-5.546 3.509-1.425 1.99-2.327 3.805-2.702 5.445-.363 1.627-.612 2.999-.747 4.113-.081 1.372-.013 2.63.202 3.772.74 3.563 2.958 5.345 6.655 5.345 1.371 0 3.482-.727 6.332-2.179.417-.241.828-.457 1.231-.645 0 .269.026.894.08 1.875.296 1.129 1.19 1.693 2.683 1.693.82 0 1.338-.08 1.553-.242l.282-.343c.134.148.202-.45.202-1.795-.403-8.738-.578-16.34-.524-22.807zm-4.195 15.993c-.631.376-1.889 1.074-3.771 2.097-1.869.981-3.12 1.318-3.751 1.008-.646-.323-1.338-.881-2.077-1.674-.712-.766-1.015-1.915-.908-3.448.081-1.533.612-3.233 1.593-5.102.955-1.91 2.286-2.918 3.993-3.025 1.721-.121 3.099.833 4.134 2.864.363.739.679 1.37.948 1.896a105.353 105.353 0 0 0-.161 5.384zM224.209 128.944c-.135 4.101-.27 9.74-.403 16.921-.067 5.578-.102 9.264-.102 11.051v3.066c.229 1.896.915 2.843 2.058 2.843.887 0 1.627-.537 2.219-1.613.443-.9.76-3.597.947-8.087.162-4.518 0-10.514-.483-17.99-.499-7.475-1.91-9.539-4.236-6.191zM252.302 149.192a7.488 7.488 0 0 0-1.554-3.287c-.819-.995-1.303-1.56-1.452-1.694-1.828-1.452-3.905-2.117-6.23-1.996-2.556.107-4.854 1.169-6.898 3.187-2.11 2.003-3.293 3.892-3.549 5.666-.27 1.762-.27 3.241 0 4.438.256 1.155.847 2.817 1.774 4.981s3.805 3.247 8.632 3.247c1.008 0 2.487-.41 4.437-1.23a19.84 19.84 0 0 0 1.835-.827c.687-.39 1.029-.705 1.029-.947 0-.739-.094-1.177-.282-1.312a3.253 3.253 0 0 1-.747-.241l-.161-.082-3.005.162c.968.026.316.215-1.956.565-2.3.39-3.973.1-5.021-.868-1.035-.981-1.224-1.802-.564-2.46 4.921-.794 8.49-1.452 10.708-1.977 1.613-.376 2.509-.686 2.683-.928.403-.579.551-.867.444-.867.026-.026.04-.054.04-.081a.753.753 0 0 0 .081-.343c.08.066.147-.121.201-.564.027-.026.074-.066.142-.121l-.142-.504c-.056-.082-.202-.719-.445-1.917zm-9.358 2.703c-3.038.524-5.002.881-5.89 1.067-.215-.926.229-2.224 1.331-3.891 1.063-1.707 2.757-2.562 5.083-2.562 2.354 0 4.066 1.083 5.143 3.247.188.336.403.773.646 1.311-1.613.121-3.718.397-6.313.828zM219.105 154.314c-.402-.591-.906-.921-1.512-.987a2.785 2.785 0 0 0-.947 0c-.162.027-.941.658-2.341 1.896-1.344 1.29-3.34 2.151-5.989 2.58-2.635.391-4.76-.443-6.373-2.5-1.64-2.058-2.528-3.482-2.662-4.275-.147-.82-.303-2.023-.464-3.611-.161-1.613.483-3.636 1.936-6.069 1.426-2.446 3.685-4.376 6.776-5.788 3.093-1.398 5.218-1.58 6.374-.545a11.773 11.773 0 0 1 2.782 3.812l.666-.282a4.3 4.3 0 0 1 .242-.202c.134-.134.315-.31.544-.523.404-.417.223-1.587-.544-3.509a1.818 1.818 0 0 0-.081-.203c-.901-2.016-2.574-3.286-5.021-3.811-2.434-.552-5.29.061-8.571 1.836-3.268 1.761-5.842 4.174-7.724 7.24-2.11 3.588-2.85 7.406-2.219 11.454 0 .08.161.9.484 2.461.497 1.788 1.196 3.354 2.097 4.698 2.824 4.369 7.288 6.05 13.392 5.042 2.716-.43 5.103-1.432 7.159-3.005l.484-.403c1.559-1.371 2.245-2.655 2.057-3.853a4.311 4.311 0 0 0-.545-1.453zM298.849 129.751c-.12 4.088-.235 9.728-.343 16.921-.108 5.565-.161 9.249-.161 11.052v3.045c.215 1.896.9 2.844 2.057 2.844.9 0 1.641-.538 2.219-1.613.444-.901.786-3.503 1.029-7.805.269-4.33.147-10.219-.363-17.668-.499-7.503-1.977-9.761-4.438-6.776zM273.901 156.493c-1.587-1.371-2.406-2.602-2.461-3.69-.497-1.803-.699-3.402-.605-4.8a16.894 16.894 0 0 0-.423-4.397c-.793-2.057-2.709-2.171-5.748-.342-3.065 1.762-5.189 3.448-6.373 5.062-1.224 1.561-2.124 3.214-2.702 4.962-.335 1.183-.504 2.648-.504 4.396 0 1.211.39 2.307 1.169 3.288 1.196 1.506 3.072 2.259 5.628 2.259 1.062 0 2.305-.544 3.729-1.634.687-.523 1.655-1.404 2.905-2.642.631.807 1.432 1.56 2.399 2.259 1.357.859 2.668 1.29 3.933 1.29.632 0 1.096-.061 1.393-.181.228-.216.382-.323.463-.323l.362-1.795c-.348-.942-1.403-2.181-3.165-3.712zm-10.184 2.42c-2.434.605-3.818.471-4.154-.403-.377-.901-.564-1.693-.564-2.38 0-1.371.396-2.77 1.189-4.194.766-1.425 2.984-3.18 6.655-5.264.323 7.515-.72 11.596-3.126 12.241zM286.345 143.767c-1.505 3.228-2.527 6.132-3.065 8.713a5.494 5.494 0 0 1-.222-1.028c-.9-3.778-1.896-6.42-2.984-7.925-.417.16-.814 1.008-1.19 2.54-.309 1.291-.464 2.454-.464 3.489 0 .054.195 2.298.585 6.735.659 4.356 1.755 6.534 3.288 6.534.739 0 1.256-.12 1.553-.362.054-.055.094-.08.12-.08h.546c.161 0 .35-.713.563-2.139.256-2.03.612-3.758 1.069-5.184 1.761-5.337 5.257-8.994 10.486-10.971-5.377-3.494-8.807-3.603-10.285-.322zM324.622 145.804a137.07 137.07 0 0 1-.423-2.844c-.349-.309-.78-.463-1.29-.463-.767 0-1.479.833-2.139 2.5-.242.471-.84 2.279-1.794 5.425-1.601 5.285-3.483 7.926-5.647 7.926-.699 0-1.082-.025-1.149-.08l.142-.081c-1.022-3.589-1.533-6.097-1.533-7.521 1.008-3.551 1.533-5.977 1.573-7.281.026-1.317-.552-2.063-1.734-2.238-2.031 2.044-3.046 6.574-3.046 13.594 0 .079.013.544.04 1.39.121 1.01.33 1.924.626 2.744.954 2.58 2.647 3.872 5.082 3.872 2.474 0 4.705-1.412 6.695-4.235.067.391.102.786.102 1.189-.148.578-.209 2.191-.182 4.841.054 2.554-.479 5.418-1.593 8.591-1.076 3.174-2.36 4.626-3.854 4.356-1.479-.27-2.533-1.271-3.166-3.005-.686-1.882-1.37-2.951-2.057-3.207-.31.148-.626.343-.948.586-.242.188-.39.282-.443.282 0 .281-.014.584-.041.907-.067.322-.101.786-.101 1.392 0 .928.402 2.118 1.209 3.569.781 1.453 2.085 2.521 3.913 3.207.968.377 2.084.638 3.348.786.995.122 1.903-.141 2.723-.786 2.192-1.734 3.766-6.226 4.72-13.472 1.371-9.936 1.695-17.252.967-21.944z"/></g><path fill="#FFF" d="M254.662 94.421a1.904 1.904 0 0 1-.242-.343c-1.277-1.734-1.916-1.768-1.916-.101 0-.067.262.564.786 1.896.256.537.518.961.786 1.27-1.56.659-2.602 1.338-3.125 2.036.228.378.705.687 1.432.929.713-.147 1.653-.599 2.823-1.352.497 1.209.961 2.199 1.391 2.965.082.161.161.31.243.443l.726-.383c.107-.081.162-.155.162-.222v-1.17c0-.699-.256-1.553-.767-2.561 4.639.685 6.943.301 6.916-1.15l-5.849-.747c.485-.43.728-.935.728-1.512 0-.471-.055-.828-.161-1.068l-.041-.243h-.181c-.297-.215-.754-.094-1.372.363-.686.471-1.163 1.042-1.432 1.714a1.264 1.264 0 0 0-.323-.101 20.017 20.017 0 0 0-.584-.663M270.735 26.052c-.27-.86-1.438-.974-3.509-.342-2.111.645-3.26 1.042-3.449 1.19-.215.174-.322.328-.322.463-.188.188-.31.356-.363.504-.31.282-.618.747-.928 1.391a6.36 6.36 0 0 0-.545 2.603c0 .765.135 1.284.404 1.552.161.108.402.269.726.483 1.305 1.117 3.213 1.178 5.728.183.524-.35 1.082-.753 1.674-1.21.43-.35.646-.625.646-.827V31.9c-.269-.242-.457-.443-.564-.605-2.528 1.157-4.356 1.499-5.485 1.029-1.144-.497-1.479-1.143-1.009-1.937.47-.807.772-1.337.907-1.593-.014-.027.659.047 2.017.222 1.398.161 2.636.323 3.711.484.522-1.463.645-2.613.361-3.448M279.669 58.522c.027-.094.055-.194.081-.303 0-1.384-.518-1.707-1.553-.967-.794.551-1.278 1.203-1.452 1.956-.176.122-.356.249-.545.384a19.97 19.97 0 0 0-1.553-.444c-.82-.538-1.459-.847-1.917-.928 0 .081-.06.168-.182.262.067.229.102.491.102.787.524.483 1.184 1.082 1.977 1.794-.807.996-1.21 2.017-1.21 3.066 0 .914.053 1.404.161 1.471.054.041.208.123.464.243.726-.403 1.688-1.271 2.884-2.602 1.411 1.21 2.399 1.997 2.965 2.36.457-.295.686-.651.686-1.068a15.956 15.956 0 0 0-1.392-1.654c-.471-.497.047-.592 1.553-.282 1.506.269 2.286 0 2.34-.807-.578-.295-1.909-.74-3.993-1.332.391-.698.585-1.277.585-1.735l-.001-.201M216.484 85.285c1.492 1.479 3.933 2.11 7.321 1.895 3.374-.215 5.29-.322 5.747-.322.498 0 1.036-.014 1.614-.041h.705c.551-.013 3.718-.162 9.499-.444 5.769-.296 10.823-.794 15.166-1.492 4.343-.699 6.037-1.076 5.083-1.13-9.815-.807-18.427-1.176-25.835-1.109a4.503 4.503 0 0 0-.424-.021l.021.021c-1.56.013-3.065.047-4.517.101-8.484.31-13.277 1.157-14.38 2.542M238.567 66.207c-.255.094-.49.39-.705.887.094.068.175.148.242.243.026.027.041.054.041.081.563-.053 1.633-.067 3.206-.04.377 0 .767.013 1.169.04 1.722.39 2.582.8 2.582 1.231 0 .43-.356 1.029-1.068 1.794-1.009 1.075-2.286 1.614-3.832 1.614-.161 0-.31-.014-.444-.041-.39-.134-.585-.578-.585-1.332-.026-.618.223-.927.747-.927.928-.068 1.424-.209 1.491-.425l-.423-.403a2.493 2.493 0 0 0-.888-.423c-.362-.094-.9-.141-1.613-.141-.282 0-.504.013-.665.041-.148.067-.27.148-.363.243-.094.51-.161.96-.202 1.351-.079.431-.074.988.021 1.674.094.698.31 1.357.646 1.976.323.605 1.58 1.103 3.771 1.492 2.179.376 3.496-.322 3.953-2.097.457-1.788.665-3.119.625-3.993-.054-.861-.147-1.419-.282-1.674-.161-.296-.41-.679-.745-1.149-1.912-1.28-4.138-1.286-6.679-.022M213.762 55.619v.202c.176.995 1.324 1.438 3.448 1.331 2.111-.121 3.53-.229 4.256-.323.431-.04.968-.108 1.614-.202.215-.027.443-.054.686-.08.47-.081.987-.156 1.553-.223 1.331-.215 2.917-.45 4.76-.706 5.916-.887 19.966-3.657 42.149-8.309 22.198-4.679 33.781-7.67 34.749-8.975-6.764.443-12.403 1.083-16.92 1.916-4.519.833-7.214 1.304-8.088 1.412-.887.093-2.925.403-6.11.927a408.167 408.167 0 0 1-11.436 1.735c-4.423.592-9.949 1.459-16.578 2.601-6.642 1.13-12.423 2.252-17.345 3.369-3.064.698-5.074 1.168-6.029 1.411l-1.573.484c-.201.055-.423.114-.665.181-.336.095-.692.195-1.068.303a6.027 6.027 0 0 1-.626.162c-1.707.497-2.957.854-3.75 1.068l-.303.081c-1.817.498-2.724 1.043-2.724 1.635M235.825 26.033c-4.894 1.479-8.753 2.709-11.576 3.691l-1.19.382c-.214.081-.43.155-.646.223-.631.214-2.903 1.129-6.815 2.742-3.913 1.601-5.594 2.844-5.043 3.731.687.74 2.3.733 4.841-.02 2.528-.753 4.43-1.352 5.707-1.795 1.264-.444 2.104-.739 2.521-.887.269-.095.544-.188.826-.283.202-.081.417-.161.646-.242.39-.148.807-.302 1.251-.464.134-.067.27-.121.404-.161a737.105 737.105 0 0 1 10.365-3.852c3.563-1.304 7.853-3.213 12.867-5.728.147-.243-.659-.315-2.421-.222-1.787.068-5.7 1.03-11.737 2.885M152.695 97.487c-1.963-1.439-3.105-2.65-3.429-3.63-.134-.417-.02-.82.343-1.21-4.693-.27-10.924-.047-18.695.665 3.482 10.542 7.549 20.584 12.201 30.13.403.888 1.136 1.52 2.199 1.896 3.522 1.196 6.555.442 9.095-2.261l.021-.02c2.729-2.891 2.79-5.908.182-9.055v.02a18.026 18.026 0 0 0-.625-.747c1.116-1.626 1.821-3.004 2.117-4.134.295-1.115.315-1.976.06-2.58-1.841-2.394-3.644-3.623-5.404-3.69 1.129-1.305 1.748-2.125 1.855-2.461v.04a4.983 4.983 0 0 0 .08-3.004v.041M157.091 45.938v-.041c.176-.255.35-.504.525-.746a46.74 46.74 0 0 0-.525.787"/><path fill="#FFF" d="M214.205 82.219a123.47 123.47 0 0 0-1.794-22.144 332.387 332.387 0 0 0-1.05-5.083 102.722 102.722 0 0 0-1.109-4.719c-.08-.268-.127-.382-.141-.343a55.08 55.08 0 0 0-4.68-10.951 62.625 62.625 0 0 1-2.076-3.388h-.021a63.641 63.641 0 0 0-3.65-4.901 31.597 31.597 0 0 0-5.123-4.981h-.04c-6.306-4.773-13.034-5.735-20.188-2.885h-.041c-2.111.848-4 2.091-5.667 3.731a16.092 16.092 0 0 0-2.985 4.094c-.295.282-2.057 3.476-5.284 9.58-2.595 4.866-7.375 8.887-14.339 12.06-.457.215-.928.423-1.412.625l-.081.04-.04.04c-1.493.485-3.315 1.069-5.465 1.755-7.395 2.353-12.981 5.143-16.759 8.37-3.792 3.227-5.943 5.337-6.454 6.333-3.388 6.507-2.81 12.557 1.734 18.151v.04c2.084 2.541 4.827 3.979 8.229 4.315h.02c.727.067 1.493.094 2.299.081l2.542-.283c7.771-.713 14.002-.934 18.695-.666h.524a51.204 51.204 0 0 1 10.79 1.21c5.163 1.157 9.566 3.705 13.21 7.644 6.816 7.395 15.132 10.01 24.947 7.846 4.881-1.022 8.544-3.704 10.992-8.047 2.419-4.316 3.844-8.847 4.275-13.593.013-1.412.066-2.723.161-3.933l-.019.002zm-4.296 3.247a38.603 38.603 0 0 1-.685 4.921c-1.331 6.037-3.98 9.91-7.946 11.617-1.492.632-3.16.963-5.001.987-7.609.121-13.707-7.716-18.292-23.514v.04a170.42 170.42 0 0 1-2.542-10.326c-.43-2.259-.827-4.578-1.189-6.958-.147-.982-.29-1.909-.424-2.784-.012 0-.012-.006 0-.02l-.121-.687c.014 0 .034.061.061.183a6.375 6.375 0 0 1-.061-.403 20.276 20.276 0 0 1-.222-1.432c-.242-1.909-.37-3.368-.383-4.377-.202-12.073 1.553-20.215 5.264-24.423.66-.752 1.291-1.304 1.896-1.653.39-.175.793-.316 1.21-.424a10.1 10.1 0 0 1 .847-.162c2.662-.349 5.727.666 9.196 3.046 4.396 3.012 7.812 7.321 10.245 12.928a63.596 63.596 0 0 1 1.896 4.235 73.664 73.664 0 0 1 3.408 9.861c.054.215.114.444.181.686h.021c.281.995.584 2.272.906 3.832 1.063 5.23 1.641 10.702 1.734 16.417.015.202.062 1.728.142 4.578v.201h-.02a20.886 20.886 0 0 1-.121 3.631z"/><path fill="#FFF" d="M190.085 58.2c-1.546-1.278-6.231-1.264-14.057.04h-.02l-.363.041c.135.981.283 2.017.444 3.105.363 2.379.76 4.698 1.19 6.958a173.556 173.556 0 0 0 1.937 8.107c.026.094.054.194.081.303.107-.054.222-.108.343-.162.094-.04.887-.261 2.379-.665 1.492-.403 3.765-1.352 6.815-2.843 3.039-1.506 4.39-4.047 4.055-7.624-.337-3.575-1.271-5.997-2.804-7.26M221.043 19.115l-.142-1.149c-.754.282-1.977 1.284-3.671 3.005-1.331-.834-3.342-.895-6.03-.181a77.88 77.88 0 0 0 3.69 2.702c-1.694 1.828-2.669 3.207-2.925 4.134 1.856-.403 3.563-1.318 5.123-2.742.686.429 1.257.706 1.715.827l.383-.584c-.027-.82-.154-1.533-.383-2.138 1.022-1.239 1.768-2.529 2.24-3.874"/></svg>