<svg xmlns="http://www.w3.org/2000/svg" width="370" height="200" viewBox="0 0 370 200"><g fill="#FFF"><path d="M10.645 85.756C4.797 85.756 0 81.063 0 75.219v-.103h10.645v-7.199c0-9.294 6.254-16.284 15.545-16.284h10.957v.634c0 5.838-4.28 9.91-9.92 10.536-2.916.313-5.104 2.396-5.104 5.322v6.991h13.771v.103a10.506 10.506 0 0 1-10.541 10.537h-3.23v31.826c0 5.837-4.596 10.539-10.432 10.539h-.943V85.756h-.103zM39.33 127.278V61.345a10.51 10.51 0 0 1 10.542-10.539h.942v76.473H39.33v-.001zM82.008 128.328c-15.021 0-24.627-12.099-24.627-27.123 0-15.035 11.07-27.138 26.092-27.138 15.025 0 26.086 12.213 26.086 27.24 0 2.922-2.291 4.795-5.227 4.795H69.7c1.565 6.474 6.147 11.174 12.93 11.174 6.263 0 9.29-.84 12.627-.84 4.597 0 8.455 2.924 10.019 7.194-5.006 2.711-14.292 4.698-23.268 4.698zM69.699 96.507h27.338c-1.879-6.466-6.682-11.693-13.566-11.693-6.992-.001-12.11 5.114-13.772 11.693zM171.952 127.278V61.345a10.506 10.506 0 0 1 10.534-10.539h.939v76.473h-11.473v-.001zM214.627 128.328c-15.021 0-24.619-12.099-24.619-27.123 0-15.035 11.059-27.138 26.084-27.138 15.026 0 26.084 12.213 26.084 27.24 0 2.922-2.295 4.795-5.21 4.795h-34.651c1.572 6.474 6.164 11.174 12.943 11.174 6.265 0 9.288-.84 12.622-.84 4.59 0 8.454 2.924 10.021 7.194-5.013 2.711-14.294 4.698-23.274 4.698zm-12.313-31.821h27.345c-1.883-6.466-6.678-11.693-13.567-11.693-6.988-.001-12.11 5.114-13.778 11.693zM251.359 144.924c1.355-4.491 4.592-7.2 8.973-7.2 4.281 0 6.045.73 12.631.73 5.836 0 11.162-4.486 11.162-10.547v-2.391c-3.443 1.145-7.828 2.286-12.314 2.286-13.982 0-25.458-11.573-25.458-26.599 0-15.035 11.783-27.137 26.813-27.137 5.222 0 9.813.317 13.457 1.459 5.011 1.568 8.977 4.703 8.977 11.371v40.177c0 12.524-8.867 22.12-21.291 22.12-9.175.001-17.624-2.285-22.95-4.269zm32.766-29.743V85.757s-5.112-1.039-10.64-1.039c-8.459 0-15.244 7.713-15.244 16.487 0 8.771 6.684 16.071 14.189 16.071 5.855 0 11.695-2.095 11.695-2.095zM349.23 96.19v18.682c0 6.678-3.965 9.705-8.972 11.379-3.655 1.242-9.394 2.077-18.469 2.077-12.63 0-19.507-7.306-19.507-16.484s7.407-16.493 18.669-16.493h16.804c0-6.052-5.324-10.537-11.17-10.537-6.572 0-8.343.736-12.617.736-4.388 0-7.626-2.71-8.982-7.197 5.32-1.983 13.775-4.285 22.96-4.285 12.414-.001 21.284 9.605 21.284 22.122zm-11.473 8.772h-15.858c-5.218 0-7.728 3.02-7.728 6.152 0 3.129 2.613 6.683 9.295 6.683 7.308 0 11.256-.94 14.291-1.679v-11.156zM358.517 127.278V61.345a10.51 10.51 0 0 1 10.54-10.539H370v76.473h-11.483v-.001zM161.413 76.987c-2.086-2.084-4.688-2.711-6.986-2.711-3.028 0-5.842 1.045-8.243 4.17l-8.334 10.755 6.717 8.45 16.846-20.664zM144.557 102.883l-7.179 9.028 9.744 12.145c1.979 2.396 5.009 4.065 8.14 4.065 2.813 0 5.631-1.149 7.403-2.925l-18.108-22.313zM135.773 91.882l-10.669-13.436 10.647 13.464zM123.434 124.158l11.828-14.878-.03-.047z"/><path d="M135.751 91.91l-10.647-13.462c-1.979-2.497-5.217-4.172-8.347-4.172-2.813 0-5.428 1.15-7.198 2.929l18.773 23.474-20.027 24.84c2.09 1.875 4.801 2.604 7.203 2.604 2.82 0 5.525-.842 7.926-3.963l11.799-14.924.028.045 7.171-9.024-6.658-8.373-.023.026z"/></g><linearGradient id="a" gradientUnits="userSpaceOnUse" x1="381.027" y1="-24.504" x2="391.259" y2="-24.504" gradientTransform="matrix(1 0 0 -1 4 195)"><stop offset="0" stop-color="#fff" stop-opacity="0"/><stop offset="1" stop-color="#0a1a21" stop-opacity=".8"/></linearGradient><linearGradient id="b" gradientUnits="userSpaceOnUse" x1="406.227" y1="-3.545" x2="406.227" y2="-38.786" gradientTransform="matrix(1 0 0 -1 4 195)"><stop offset=".333" stop-color="#231f20" stop-opacity="0"/><stop offset="1" stop-color="#231f20" stop-opacity=".35"/></linearGradient><linearGradient id="c" gradientUnits="userSpaceOnUse" x1="439.15" y1="-3.546" x2="439.15" y2="-39.293" gradientTransform="matrix(1 0 0 -1 4 195)"><stop offset=".333" stop-color="#231f20" stop-opacity="0"/><stop offset="1" stop-color="#231f20" stop-opacity=".35"/></linearGradient><linearGradient id="d" gradientUnits="userSpaceOnUse" x1="476.346" y1="-3.546" x2="476.346" y2="-38.79" gradientTransform="matrix(1 0 0 -1 4 195)"><stop offset=".333" stop-color="#231f20" stop-opacity="0"/><stop offset="1" stop-color="#231f20" stop-opacity=".35"/></linearGradient><linearGradient id="e" gradientUnits="userSpaceOnUse" x1="510.301" y1="-2.764" x2="510.301" y2="-39.293" gradientTransform="matrix(1 0 0 -1 4 195)"><stop offset=".333" stop-color="#231f20" stop-opacity="0"/><stop offset="1" stop-color="#231f20" stop-opacity=".35"/></linearGradient></svg>