<svg xmlns="http://www.w3.org/2000/svg" width="370" height="200" viewBox="175 116 370 200"><path fill="#222" d="M175 182.363v67.273h370v-67.273H175zm366.637 63.91H178.364v-60.547h363.272v60.547z"/><path fill="#222" d="M210.027 234.293c-10.333 0-18.208-6.424-18.208-18.209 0-11.06 7.931-18.377 18.32-18.377s18.265 6.367 18.265 18.152c-.001 11.06-7.988 18.434-18.377 18.434zm0-29.436c-5.921 0-9.272 4.468-9.272 11.002 0 6.704 3.463 11.284 9.439 11.284 5.865 0 9.272-4.525 9.272-11.06 0-6.703-3.518-11.226-9.439-11.226zM241.691 233.454h-8.881v-34.908h14.02c9.272 0 14.131 4.3 14.131 11.059 0 4.691-2.457 8.266-7.149 10.054l8.937 13.796h-9.998l-6.982-11.728-4.078.334v11.393zm4.302-18.097c3.798-.279 5.864-1.843 5.864-5.194 0-3.072-2.122-4.581-6.59-4.581h-3.743v9.887l4.469-.112zM265.872 233.454v-34.908h25.527v7.148h-16.813v6.703h13.517v7.094h-13.517v6.813h16.813v7.149h-25.527zM312.732 234.293c-11.17 0-18.768-6.647-18.768-18.153 0-11.45 7.373-18.433 18.824-18.433 4.468 0 9.774 1.006 13.125 3.017l-2.793 7.429c-3.295-1.899-6.703-2.905-10.053-2.905-6.256 0-10.278 4.189-10.278 10.669 0 6.982 3.52 11.115 10.167 11.115 2.01 0 4.133-.447 5.585-1.061v-5.141h-8.602v-7.036h16.645v17.26c-3.798 2.065-8.769 3.239-13.852 3.239zM348.363 234.293c-10.333 0-18.209-6.424-18.209-18.209 0-11.06 7.933-18.377 18.321-18.377 10.389 0 18.264 6.367 18.264 18.152 0 11.06-7.986 18.434-18.376 18.434zm0-29.436c-5.92 0-9.271 4.468-9.271 11.002 0 6.704 3.462 11.284 9.438 11.284 5.865 0 9.271-4.525 9.271-11.06.001-6.703-3.516-11.226-9.438-11.226z"/><path fill="none" d="M407.715 205.582h-3.743v9.887l4.468-.111c3.799-.279 5.865-1.843 5.865-5.194 0-3.073-2.122-4.582-6.59-4.582z"/><path fill="#459A41" d="M416.26 219.658c4.692-1.788 7.149-5.362 7.149-10.054 0-6.759-4.86-11.059-14.132-11.059h-14.019v35.241h8.881v-11.727l4.077-.334 6.981 11.728h9.999l-8.936-13.795zm-7.821-4.301l-4.468.111v-9.887h3.743c4.468 0 6.59 1.509 6.59 4.581.001 3.353-2.066 4.916-5.865 5.195zM443.123 234.293c-9.104 0-15.36-4.47-15.36-14.299v-21.448h8.825v20.274c0 5.25 2.122 7.987 6.759 7.987 4.188 0 6.367-2.233 6.367-7.652v-20.609h8.825v20.666c0 10.108-6.033 15.081-15.416 15.081zM488.249 198.546h8.322v35.244h-9.439l-14.69-22.957v22.621h-8.321v-34.908h9.606l14.522 22.676v-22.676zM519.356 223.679c0-2.345-2.514-3.127-7.149-4.411-5.084-1.397-11.227-3.743-11.227-10.725 0-6.479 4.747-10.779 13.405-10.779 5.474 0 9.719 1.229 13.069 3.071l-1.731 7.317c-3.463-1.844-7.819-3.072-11.282-3.072-3.072 0-4.58 1.062-4.58 2.96 0 2.291 3.183 3.184 7.373 4.357 5.361 1.452 10.947 3.91 10.947 10.557s-5.139 11.339-14.299 11.339c-5.194 0-10.221-1.341-13.461-3.185l1.676-7.373c3.463 1.844 7.652 3.239 11.953 3.239 3.128.001 5.306-1.171 5.306-3.295z"/><path fill="#222" d="M395.259 231.792v-10.599l-14.504-22.647h-9.608v34.908h8.323v-22.621l14.689 22.957h1.098v-1.998z"/></svg>