<?xml version="1.0" encoding="UTF-8" standalone="no"?>
<!-- Created with Inkscape (http://www.inkscape.org/) -->

<svg
   xmlns:dc="http://purl.org/dc/elements/1.1/"
   xmlns:cc="http://creativecommons.org/ns#"
   xmlns:rdf="http://www.w3.org/1999/02/22-rdf-syntax-ns#"
   xmlns:svg="http://www.w3.org/2000/svg"
   xmlns="http://www.w3.org/2000/svg"
   xmlns:sodipodi="http://sodipodi.sourceforge.net/DTD/sodipodi-0.dtd"
   xmlns:inkscape="http://www.inkscape.org/namespaces/inkscape"
   id="svg2985"
   version="1.1"
   inkscape:version="0.48.2 r9819"
   width="1000"
   height="183.21373"
   xml:space="preserve"
   sodipodi:docname="FTPUserManual.pdf"><metadata
     id="metadata2991"><rdf:RDF><cc:Work
         rdf:about=""><dc:format>image/svg+xml</dc:format><dc:type
           rdf:resource="http://purl.org/dc/dcmitype/StillImage" /><dc:title></dc:title></cc:Work></rdf:RDF></metadata><defs
     id="defs2989"><clipPath
       clipPathUnits="userSpaceOnUse"
       id="clipPath3595"><path
         d="M 0,0 600,0 600,800 0,800 0,0 z"
         id="path3597"
         inkscape:connector-curvature="0" /></clipPath></defs><sodipodi:namedview
     pagecolor="#ffffff"
     bordercolor="#666666"
     borderopacity="1"
     objecttolerance="10"
     gridtolerance="10"
     guidetolerance="10"
     inkscape:pageopacity="0"
     inkscape:pageshadow="2"
     inkscape:window-width="1920"
     inkscape:window-height="1028"
     id="namedview2987"
     showgrid="false"
     fit-margin-left="0.5"
     fit-margin-top="0.5"
     fit-margin-bottom="0.5"
     fit-margin-right="0.5"
     inkscape:zoom="1.3350176"
     inkscape:cx="433.12614"
     inkscape:cy="33.594011"
     inkscape:window-x="-8"
     inkscape:window-y="-8"
     inkscape:window-maximized="1"
     inkscape:current-layer="g2993" /><g
     id="g2993"
     inkscape:groupmode="layer"
     inkscape:label="FTPUserManual"
     transform="matrix(1.25,0,0,-1.25,-570.86541,1116.4641)"><g
       id="g3591"
       transform="matrix(7.4755935,0,0,7.4755935,-2959.9439,-4837.2703)"><g
         id="g3593"
         clip-path="url(#clipPath3595)"><g
           id="g3599"
           transform="translate(482.9285,760.4963)"><path
             d="m 0,0 c -0.541,0 -0.89,-0.37 -0.89,-0.943 l 0,-7.916 c 0,-0.573 0.349,-0.943 0.89,-0.943 0.541,0 0.89,0.37 0.89,0.943 l 0,7.916 C 0.89,-0.37 0.541,0 0,0"
             style="fill:#000000;fill-opacity:1;fill-rule:nonzero;stroke:none"
             id="path3601"
             inkscape:connector-curvature="0" /></g><g
           id="g3603"
           transform="translate(482.9285,763.663)"><path
             d="m 0,0 c -0.588,0 -1.066,-0.478 -1.066,-1.066 0,-0.588 0.478,-1.066 1.066,-1.066 0.588,0 1.066,0.478 1.066,1.066 C 1.066,-0.478 0.588,0 0,0"
             style="fill:#000000;fill-opacity:1;fill-rule:nonzero;stroke:none"
             id="path3605"
             inkscape:connector-curvature="0" /></g><g
           id="g3607"
           transform="translate(489.4103,758.4255)"><path
             d="m 0,0 c -1.302,0.459 -2.426,0.855 -2.426,2.008 0,0.977 0.77,1.66 1.872,1.66 0.895,0 1.332,-0.28 1.683,-0.506 0.253,-0.163 0.472,-0.303 0.78,-0.303 0.44,0 0.784,0.352 0.784,0.802 0,0.929 -1.683,1.576 -3.194,1.576 -2.279,0 -3.811,-1.724 -3.811,-3.335 0,-2.296 1.811,-2.92 3.408,-3.47 1.362,-0.469 2.538,-0.875 2.538,-2.159 0,-1.434 -1.008,-2.435 -2.452,-2.435 -0.972,0 -1.621,0.38 -2.096,0.658 -0.296,0.173 -0.529,0.309 -0.754,0.309 -0.458,0 -0.767,-0.364 -0.767,-0.907 0,-0.974 1.861,-1.629 3.6,-1.629 2.992,0 4.355,2.112 4.355,4.074 C 3.52,-1.241 1.65,-0.582 0,0"
             style="fill:#000000;fill-opacity:1;fill-rule:nonzero;stroke:none"
             id="path3609"
             inkscape:connector-curvature="0" /></g><g
           id="g3611"
           transform="translate(496.8768,760.3909)"><path
             d="m 0,0 -0.517,0 0,1.907 c 0,0.573 -0.35,0.943 -0.89,0.943 -0.541,0 -0.891,-0.37 -0.891,-0.943 l 0,-1.907 -0.517,0 c -0.565,0 -0.89,-0.286 -0.89,-0.785 0,-0.498 0.325,-0.784 0.89,-0.784 l 0.517,0 0,-7.185 c 0,-0.572 0.35,-0.943 0.891,-0.943 0.54,0 0.89,0.371 0.89,0.943 l 0,7.185 0.517,0 c 0.566,0 0.89,0.286 0.89,0.784 C 0.89,-0.286 0.566,0 0,0"
             style="fill:#000000;fill-opacity:1;fill-rule:nonzero;stroke:none"
             id="path3613"
             inkscape:connector-curvature="0" /></g><g
           id="g3615"
           transform="translate(502.136,760.4963)"><path
             d="m 0,0 c -2.779,0 -4.233,-2.466 -4.233,-4.901 0,-2.436 1.454,-4.901 4.233,-4.901 2.779,0 4.232,2.465 4.232,4.901 C 4.232,-2.466 2.779,0 0,0 m 0,-8.233 c -1.81,0 -2.452,1.795 -2.452,3.332 0,1.537 0.642,3.332 2.452,3.332 1.81,0 2.452,-1.795 2.452,-3.332 C 2.452,-6.438 1.81,-8.233 0,-8.233"
             style="fill:#000000;fill-opacity:1;fill-rule:nonzero;stroke:none"
             id="path3617"
             inkscape:connector-curvature="0" /></g><g
           id="g3619"
           transform="translate(511.5283,758.9272)"><path
             d="m 0,0 c 0.576,0 0.892,-0.152 1.172,-0.286 0.22,-0.106 0.428,-0.206 0.711,-0.206 0.448,0 0.749,0.396 0.749,0.767 0,0.762 -1.083,1.294 -2.632,1.294 -2.996,0 -4.338,-2.461 -4.338,-4.901 0,-2.439 1.342,-4.901 4.338,-4.901 1.675,0 2.579,0.685 2.579,1.33 0,0.466 -0.28,0.767 -0.714,0.767 -0.226,0 -0.404,-0.093 -0.611,-0.2 C 0.974,-6.482 0.624,-6.664 0,-6.664 c -1.767,0 -2.557,1.674 -2.557,3.332 C -2.557,-1.673 -1.767,0 0,0"
             style="fill:#000000;fill-opacity:1;fill-rule:nonzero;stroke:none"
             id="path3621"
             inkscape:connector-curvature="0" /></g><g
           id="g3623"
           transform="translate(517.8946,756.2365)"><path
             d="M 0,0 3.414,2.697 C 3.714,2.926 3.847,3.16 3.847,3.458 3.847,3.93 3.531,4.26 3.08,4.26 2.814,4.26 2.51,4.1 2.126,3.758 l -3.187,-2.672 0,6.347 c 0,0.573 -0.35,0.943 -0.891,0.943 -0.541,0 -0.89,-0.37 -0.89,-0.943 l 0,-12.032 c 0,-0.573 0.349,-0.943 0.89,-0.943 0.541,0 0.891,0.37 0.891,0.943 l 0,3.44 3.707,-3.874 c 0.388,-0.389 0.573,-0.509 0.979,-0.509 0.416,0 0.767,0.335 0.767,0.732 0,0.351 -0.102,0.571 -0.404,0.874 L 0,0 z"
             style="fill:#000000;fill-opacity:1;fill-rule:nonzero;stroke:none"
             id="path3625"
             inkscape:connector-curvature="0" /></g><g
           id="g3627"
           transform="translate(527.3768,760.4963)"><path
             d="m 0,0 c -1.11,0 -1.922,-0.352 -2.418,-1.046 l 0,0.103 C -2.418,-0.37 -2.767,0 -3.307,0 -3.848,0 -4.198,-0.37 -4.198,-0.943 l 0,-11.61 c 0,-0.573 0.35,-0.943 0.891,-0.943 0.54,0 0.889,0.37 0.889,0.943 l 0,3.842 C -1.93,-9.273 -1.091,-9.802 0,-9.802 c 2.698,0 4.109,2.465 4.109,4.901 C 4.109,-2.466 2.698,0 0,0 m -0.123,-1.569 c 1.81,0 2.452,-1.795 2.452,-3.332 0,-1.537 -0.642,-3.332 -2.452,-3.332 -1.81,0 -2.453,1.795 -2.453,3.332 0,1.537 0.643,3.332 2.453,3.332"
             style="fill:#000000;fill-opacity:1;fill-rule:nonzero;stroke:none"
             id="path3629"
             inkscape:connector-curvature="0" /></g><g
           id="g3631"
           transform="translate(536.8219,760.4963)"><path
             d="m 0,0 c -0.992,0 -1.871,-0.379 -2.505,-1.072 l 0,4.246 c 0,0.572 -0.349,0.943 -0.89,0.943 -0.541,0 -0.89,-0.371 -0.89,-0.943 l 0,-12.033 c 0,-0.573 0.349,-0.943 0.89,-0.943 0.541,0 0.89,0.37 0.89,0.943 l 0,5.102 c 0,1.511 1.029,2.188 2.048,2.188 1.019,0 2.048,-0.677 2.048,-2.188 l 0,-5.102 c 0,-0.573 0.349,-0.943 0.889,-0.943 0.541,0 0.891,0.37 0.891,0.943 l 0,5.19 C 3.371,-1.135 1.678,0 0,0"
             style="fill:#000000;fill-opacity:1;fill-rule:nonzero;stroke:none"
             id="path3633"
             inkscape:connector-curvature="0" /></g><g
           id="g3635"
           transform="translate(545.4762,760.4963)"><path
             d="m 0,0 c -2.779,0 -4.232,-2.466 -4.232,-4.901 0,-2.436 1.453,-4.901 4.232,-4.901 2.779,0 4.232,2.465 4.232,4.901 C 4.232,-2.466 2.779,0 0,0 m 0,-8.233 c -1.81,0 -2.452,1.795 -2.452,3.332 0,1.537 0.642,3.332 2.452,3.332 1.81,0 2.452,-1.795 2.452,-3.332 C 2.452,-6.438 1.81,-8.233 0,-8.233"
             style="fill:#000000;fill-opacity:1;fill-rule:nonzero;stroke:none"
             id="path3637"
             inkscape:connector-curvature="0" /></g><g
           id="g3639"
           transform="translate(553.4612,760.3909)"><path
             d="m 0,0 -0.517,0 0,1.907 c 0,0.573 -0.35,0.943 -0.89,0.943 -0.541,0 -0.89,-0.37 -0.89,-0.943 l 0,-1.907 -0.518,0 c -0.565,0 -0.89,-0.286 -0.89,-0.785 0,-0.498 0.325,-0.784 0.89,-0.784 l 0.518,0 0,-7.185 c 0,-0.572 0.349,-0.943 0.89,-0.943 0.54,0 0.89,0.371 0.89,0.943 l 0,7.185 0.517,0 c 0.566,0 0.891,0.286 0.891,0.784 C 0.891,-0.286 0.566,0 0,0"
             style="fill:#000000;fill-opacity:1;fill-rule:nonzero;stroke:none"
             id="path3641"
             inkscape:connector-curvature="0" /></g><g
           id="g3643"
           transform="translate(558.5452,760.4963)"><path
             d="m 0,0 c -2.779,0 -4.233,-2.466 -4.233,-4.901 0,-2.436 1.454,-4.901 4.233,-4.901 2.779,0 4.232,2.465 4.232,4.901 C 4.232,-2.466 2.779,0 0,0 m 0,-8.233 c -1.811,0 -2.453,1.795 -2.453,3.332 0,1.537 0.642,3.332 2.453,3.332 1.81,0 2.452,-1.795 2.452,-3.332 C 2.452,-6.438 1.81,-8.233 0,-8.233"
             style="fill:#000000;fill-opacity:1;fill-rule:nonzero;stroke:none"
             id="path3645"
             inkscape:connector-curvature="0" /></g><g
           id="g3647"
           transform="translate(561.2712,762.6207)"><path
             d="M 0,0 C 0,0.753 0.612,1.363 1.365,1.363 2.118,1.363 2.729,0.753 2.729,0 2.729,-0.754 2.118,-1.365 1.365,-1.365 0.612,-1.365 0,-0.754 0,0 M 2.42,0 C 2.42,0.595 1.937,1.078 1.365,1.078 0.792,1.078 0.31,0.595 0.31,0 c 0,-0.596 0.482,-1.078 1.055,-1.078 0.572,0 1.055,0.482 1.055,1.078 m -1.368,-0.132 0,-0.539 c 0,-0.076 -0.042,-0.12 -0.124,-0.12 -0.083,0 -0.125,0.044 -0.125,0.12 l 0,1.353 c 0,0.057 0.027,0.08 0.087,0.08 l 0.498,0 c 0.376,0 0.568,-0.111 0.568,-0.45 0,-0.293 -0.173,-0.407 -0.388,-0.433 l 0.336,-0.512 c 0.015,-0.023 0.038,-0.069 0.038,-0.095 0,-0.042 -0.077,-0.063 -0.14,-0.063 -0.076,0 -0.113,0.021 -0.151,0.082 l -0.358,0.577 -0.241,0 z m 0.287,0.225 c 0.191,0 0.37,0.016 0.37,0.238 0,0.188 -0.185,0.203 -0.348,0.203 l -0.309,0 0,-0.441 0.287,0 z"
             style="fill:#000000;fill-opacity:1;fill-rule:nonzero;stroke:none"
             id="path3649"
             inkscape:connector-curvature="0" /></g><g
           id="g3651"
           transform="translate(472.5593,766.2123)"><path
             d="M 0,0 C -0.014,0.014 -0.028,0.026 -0.044,0.039 -0.39,0.301 -0.813,0.358 -1.233,0.2 l -13.092,-4.911 c -0.64,-0.239 -1.142,-0.937 -1.142,-1.588 l 0,-6.925 c 0,-0.54 0.301,-0.87 0.335,-0.905 0.004,-0.003 2.64,-2.567 2.64,-2.567 -0.144,0.132 -0.222,0.328 -0.222,0.561 l 0,6.833 c 0,0.549 0.427,1.139 0.974,1.345 l 13.849,5.193 c 0.284,0.106 0.562,0.088 0.762,-0.052 0.036,-0.024 0.067,-0.053 0.096,-0.083 L 0,0 z m -10,-5.735 c -0.055,-0.424 -0.633,-0.735 -1.336,-0.735 -0.703,0 -1.283,0.318 -1.338,0.742 0,0.003 10e-4,0.518 10e-4,0.518 0,0.042 0.034,0.077 0.076,0.077 0.044,0 0.079,-0.035 0.079,-0.077 0,-0.356 0.541,-0.657 1.182,-0.657 0.634,0 1.164,0.287 1.182,0.639 10e-4,0.042 0.036,0.074 0.078,0.074 0.041,-0.002 0.075,-0.036 0.075,-0.077 0,0 -0.004,-0.511 10e-4,-0.504"
             style="fill:#000000;fill-opacity:1;fill-rule:nonzero;stroke:none"
             id="path3653"
             inkscape:connector-curvature="0" /></g><g
           id="g3655"
           transform="translate(471.8006,758.7355)"><path
             d="M 0,0 2.541,0.947 C 2.697,1.006 2.827,1.185 2.827,1.34 l 0,1.567 C 2.827,2.967 2.808,3.014 2.77,3.041 2.727,3.07 2.663,3.073 2.594,3.047 L 0.054,2.099 C -0.102,2.041 -0.233,1.861 -0.233,1.707 l 0,-1.568 c 0,-0.059 0.02,-0.107 0.057,-0.133 C -0.133,-0.024 -0.069,-0.026 0,0"
             style="fill:#000000;fill-opacity:1;fill-rule:nonzero;stroke:none"
             id="path3657"
             inkscape:connector-curvature="0" /></g><g
           id="g3659"
           transform="translate(472.3621,755.8262)"><path
             d="m 0,0 c -0.503,0.4 -1.232,0.485 -2.053,0.241 -1.727,-0.512 -3.216,-2.297 -3.321,-3.976 -0.045,-0.715 0.179,-1.305 0.629,-1.664 0.503,-0.4 1.231,-0.486 2.052,-0.243 1.726,0.514 3.217,2.299 3.322,3.977 C 0.673,-0.949 0.45,-0.359 0,0"
             style="fill:#000000;fill-opacity:1;fill-rule:nonzero;stroke:none"
             id="path3661"
             inkscape:connector-curvature="0" /></g></g></g></g></svg>