<?xml version="1.0" encoding="utf-8"?>
<!-- Generator: Adobe Illustrator 15.0.2, SVG Export Plug-In . SVG Version: 6.00 Build 0)  -->
<!DOCTYPE svg PUBLIC "-//W3C//DTD SVG 1.1//EN" "http://www.w3.org/Graphics/SVG/1.1/DTD/svg11.dtd">
<svg version="1.1" id="Layer_1" xmlns="http://www.w3.org/2000/svg" xmlns:xlink="http://www.w3.org/1999/xlink" x="0px" y="0px"
	 width="200px" height="200px" viewBox="0 0 200 200" enable-background="new 0 0 200 200" xml:space="preserve">
<g>
	<path fill="none" d="M30.314,59.647c0-0.456,0.369-0.836,0.824-0.836c0.277,0,0.511,0.137,0.667,0.334
		c-0.156-0.198-0.389-0.335-0.668-0.335C30.682,58.81,30.313,59.19,30.314,59.647c-0.001-0.001-0.012,5.587-0.012,5.619
		c0.13,1.001,0.544,1.943,1.168,2.812c-0.624-0.868-1.038-1.81-1.167-2.811C30.303,65.234,30.314,59.647,30.314,59.647z"/>
	<path fill="none" d="M44.819,66.775c6.879,0,12.629-3.114,12.824-6.933c0.012-0.455,0.391-0.803,0.847-0.803
		c0.222,0.011,0.425,0.108,0.572,0.259c-0.147-0.151-0.351-0.249-0.574-0.26c-0.456,0-0.835,0.348-0.847,0.803
		C57.447,63.66,51.696,66.774,44.819,66.775c-5.216-0.001-9.821-1.838-11.798-4.385C34.997,64.938,39.603,66.775,44.819,66.775z"/>
	<path d="M189.632,51.247c-0.467-0.315-1.161-0.348-1.909-0.065l-27.559,10.285c-1.691,0.629-3.114,2.583-3.114,4.253v17.013
		c0,0.64,0.218,1.161,0.619,1.442c0.468,0.326,1.161,0.348,1.909,0.065l27.568-10.274c1.692-0.64,3.104-2.583,3.104-4.264V52.7
		C190.25,52.05,190.044,51.54,189.632,51.247z"/>
	<path d="M165.67,115.807c-5.457-4.341-13.365-5.264-22.273-2.615c-18.736,5.555-34.893,24.92-36.031,43.138
		c-0.487,7.758,1.941,14.159,6.824,18.054c5.457,4.34,13.355,5.273,22.264,2.637c18.727-5.576,34.902-24.941,36.043-43.147
		C172.973,126.102,170.553,119.7,165.67,115.807z"/>
	<path d="M59.303,59.875c0-0.223-0.092-0.426-0.241-0.577c0.147,0.151,0.239,0.354,0.239,0.576c0,0-0.043,5.544,0.011,5.468
		c-0.595,4.6-6.867,7.975-14.494,7.975c-5.967,0-11.103-2.117-13.349-5.239c2.245,3.123,7.381,5.24,13.35,5.24
		c7.627,0,13.898-3.375,14.495-7.975C59.26,65.418,59.303,59.875,59.303,59.875z"/>
	<path d="M33.021,62.39c-0.659-0.849-1.025-1.777-1.025-2.743c0-0.191-0.078-0.36-0.19-0.502c0.112,0.142,0.189,0.311,0.189,0.501
		C31.994,60.612,32.361,61.54,33.021,62.39z"/>
	<path d="M167.811,3.12c-0.151-0.151-0.305-0.282-0.478-0.423c-3.755-2.843-8.345-3.461-12.899-1.747L12.39,54.232
		C5.446,56.825,0,64.398,0,71.462v75.134c0,5.858,3.266,9.438,3.635,9.818c0.043,0.031,28.643,27.85,28.643,27.85
		c-1.563-1.431-2.409-3.558-2.409-6.086v-74.134c0-5.957,4.633-12.359,10.567-14.594l150.255-56.342
		c3.08-1.15,6.098-0.955,8.268,0.564c0.391,0.26,0.727,0.575,1.041,0.9L167.811,3.12z M44.82,73.318
		c-5.968,0-11.105-2.117-13.35-5.24c-0.625-0.869-1.039-1.811-1.168-2.812c0-0.032,0.011-5.62,0.011-5.62
		c0-0.456,0.369-0.836,0.824-0.836c0.279,0,0.512,0.137,0.668,0.335c0.112,0.142,0.19,0.311,0.19,0.502
		c0,0.965,0.367,1.894,1.025,2.743c1.977,2.547,6.582,4.384,11.797,4.384c6.878,0,12.629-3.114,12.824-6.933
		c0.012-0.455,0.391-0.803,0.847-0.803c0.223,0.011,0.426,0.109,0.574,0.26c0.148,0.151,0.241,0.354,0.241,0.577
		c0,0-0.043,5.543,0.012,5.468C58.718,69.943,52.447,73.318,44.82,73.318z"/>
</g>
</svg>
