<?xml version="1.0" encoding="utf-8"?>
<!-- Generator: Adobe Illustrator 15.0.2, SVG Export Plug-In . SVG Version: 6.00 Build 0)  -->
<!DOCTYPE svg PUBLIC "-//W3C//DTD SVG 1.1//EN" "http://www.w3.org/Graphics/SVG/1.1/DTD/svg11.dtd">
<svg version="1.1" id="Layer_1" xmlns="http://www.w3.org/2000/svg" xmlns:xlink="http://www.w3.org/1999/xlink" x="0px" y="0px"
	 width="200px" height="200px" viewBox="0 0 200 200" enable-background="new 0 0 200 200" xml:space="preserve">
<path fill="#231F20" d="M61.993,67.211c-13.742,0-24.922,11.179-24.922,24.92c0,13.74,11.18,24.92,24.922,24.92
	c13.741,0,24.92-11.18,24.92-24.92C86.914,78.391,75.734,67.211,61.993,67.211 M61.993,111.736
	c-10.811,0-19.606-8.795-19.606-19.604c0-10.811,8.795-19.606,19.606-19.606s19.605,8.795,19.605,19.606
	C81.598,102.941,72.804,111.736,61.993,111.736 M115.926,67.211c-13.742,0-24.922,11.179-24.922,24.92
	c0,13.74,11.18,24.92,24.922,24.92c13.74,0,24.92-11.18,24.92-24.92C140.846,78.391,129.666,67.211,115.926,67.211 M115.926,111.736
	c-10.813,0-19.606-8.795-19.606-19.604c0-10.811,8.795-19.606,19.606-19.606s19.604,8.795,19.604,19.606
	C135.529,102.941,126.734,111.736,115.926,111.736 M19.16,82.157c-4.801-0.689-9.482,0.587-13.295,3.523V72.472h22.381
	c0.778,0,1.335-0.14,1.335-2.437c0-2.241-0.903-2.33-1.499-2.33H3.3c-1.439,0-2.201,1.164-2.201,2.455v21.676
	c0,1.137,0.72,1.522,2.062,1.788c1.174,0.232,1.855,0.096,2.369-0.473l0.054-0.083c2.361-3.403,7.499-6.7,12.381-6.103
	c5.829,0.713,10.522,5.363,11.164,11.055c0.409,3.632-0.699,7.125-3.119,9.832c-2.389,2.676-5.81,4.209-9.382,4.209
	c-5.293,0-9.919-3.403-11.846-8.342c-0.285-0.729-0.767-1.271-2.852-0.514c-1.916,0.697-2.027,1.502-1.763,2.232
	c2.508,6.905,9.123,11.547,16.46,11.547c4.969,0,9.725-2.131,13.047-5.846c3.367-3.765,4.896-8.613,4.333-13.661
	C33.124,89.581,27.01,83.28,19.16,82.157 M157.876,67.459c-6.7,0.51-11.948,6.402-11.948,13.416v22.177
	c0,1.283,0.977,1.548,2.442,1.548c1.465,0,2.442-0.265,2.442-1.548V80.823c0-4.37,3.18-8.121,7.236-8.542
	c2.329-0.238,4.568,0.492,6.311,2.062c1.709,1.541,2.689,3.757,2.69,6.079c0,0.665-0.325,2.83-1.812,4.839
	c-1.123,1.519-3.252,3.327-7.025,3.327c-0.021,0.001-0.048,0-0.072,0c-0.968,0-1.793,0.045-1.953,2.34
	c-0.106,1.543-0.099,2.234,1.235,2.42c2.379,0.329,4.804-0.135,7.208-1.384c4.104-2.136,6.854-6.182,7.178-10.561
	c0.28-3.803-1.092-7.513-3.765-10.179C165.361,68.548,161.657,67.177,157.876,67.459 M190.538,80.447l9.041-9.042
	c0.328-0.328,1.097-1.098-0.459-2.7c-0.667-0.688-1.274-1.038-1.808-1.042h-0.011c-0.458,0-0.767,0.246-1.008,0.487l-9.063,9.063
	l-9.047-9.104c-0.731-0.732-1.588-0.56-2.691,0.542c-1.123,1.129-1.307,1.996-0.578,2.728l9.049,9.103l-8.861,8.863l-0.063,0.063
	c-0.216,0.209-0.541,0.524-0.546,1.039c-0.004,0.531,0.35,1.155,1.051,1.857c0.592,0.593,1.152,0.893,1.668,0.893l0,0
	c0.581-0.001,0.951-0.373,1.161-0.582l8.896-8.896l9.098,9.098c0.113,0.114,0.436,0.378,0.949,0.378h0.019
	c0.575-0.007,1.181-0.341,1.801-0.992c1.021-1.072,1.19-1.965,0.507-2.654L190.538,80.447z"/>
<rect id="SVGID_1_" y="67.211" fill="none" width="200" height="49.84"/>
</svg>
