<?xml version="1.0" encoding="utf-8"?>
<!-- Generator: Adobe Illustrator 15.0.2, SVG Export Plug-In  -->
<!DOCTYPE svg PUBLIC "-//W3C//DTD SVG 1.1//EN" "http://www.w3.org/Graphics/SVG/1.1/DTD/svg11.dtd" [
	<!ENTITY ns_flows "http://ns.adobe.com/Flows/1.0/">
]>
<svg version="1.1"
	 xmlns="http://www.w3.org/2000/svg" xmlns:xlink="http://www.w3.org/1999/xlink" xmlns:a="http://ns.adobe.com/AdobeSVGViewerExtensions/3.0/"
	 x="0px" y="0px" width="200px" height="200px" viewBox="0 -7.868 200 200" enable-background="new 0 -7.868 200 200"
	 xml:space="preserve">
<defs>
</defs>
<path fill="#231F20" d="M199.904,45.639c-0.893,19.476-14.49,46.144-40.789,79.989c-27.193,35.355-50.199,53.034-69.021,53.034
	c-11.654,0-21.523-10.762-29.581-32.298c-5.38-19.738-10.761-39.477-16.142-59.215C38.387,65.626,31.97,54.852,25.106,54.852
	c-1.496,0-6.733,3.149-15.696,9.423L0,52.148c9.869-8.675,19.607-17.35,29.188-26.038C42.351,14.732,52.233,8.748,58.821,8.144
	c15.565-1.496,25.146,9.147,28.741,31.931c3.885,24.581,6.575,39.87,8.084,45.854c4.488,20.395,9.424,30.578,14.817,30.578
	c4.187,0,10.474-6.614,18.86-19.843c8.373-13.229,12.861-23.295,13.465-30.211c1.193-11.418-3.295-17.14-13.465-17.14
	c-4.791,0-9.726,1.103-14.805,3.281c9.83-32.206,28.611-47.85,56.328-46.957C191.398,6.241,201.084,19.575,199.904,45.639z"/>
<path display="none" fill="#231F20" d="M61.993,67.211c-13.742,0-24.922,11.179-24.922,24.92c0,13.74,11.18,24.92,24.922,24.92
	c13.741,0,24.92-11.18,24.92-24.92C86.914,78.391,75.734,67.211,61.993,67.211 M61.993,111.737
	c-10.811,0-19.606-8.795-19.606-19.605c0-10.811,8.795-19.606,19.606-19.606c10.811,0,19.605,8.795,19.605,19.606
	C81.598,102.942,72.804,111.737,61.993,111.737 M115.926,67.211c-13.742,0-24.922,11.179-24.922,24.92
	c0,13.74,11.18,24.92,24.922,24.92c13.74,0,24.92-11.18,24.92-24.92C140.846,78.391,129.666,67.211,115.926,67.211 M115.926,111.737
	c-10.812,0-19.606-8.795-19.606-19.605c0-10.811,8.795-19.606,19.606-19.606c10.81,0,19.604,8.795,19.604,19.606
	C135.53,102.942,126.735,111.737,115.926,111.737 M19.16,82.157c-4.801-0.689-9.482,0.587-13.295,3.523V72.472h22.381
	c0.778,0,1.335-0.14,1.335-2.437c0-2.241-0.903-2.33-1.499-2.33H3.3c-1.439,0-2.201,1.164-2.201,2.455v21.676
	c0,1.137,0.72,1.522,2.062,1.788c1.174,0.232,1.855,0.096,2.369-0.473l0.054-0.083c2.361-3.403,7.499-6.7,12.381-6.103
	c5.829,0.713,10.522,5.363,11.164,11.055c0.409,3.633-0.699,7.125-3.119,9.832c-2.389,2.676-5.81,4.209-9.382,4.209
	c-5.293,0-9.919-3.404-11.846-8.342c-0.285-0.73-0.767-1.271-2.852-0.514c-1.916,0.697-2.027,1.502-1.763,2.232
	c2.508,6.906,9.123,11.547,16.46,11.547c4.969,0,9.725-2.131,13.047-5.846c3.367-3.764,4.896-8.613,4.333-13.66
	C33.124,89.581,27.01,83.28,19.16,82.157 M157.876,67.459c-6.7,0.51-11.948,6.402-11.948,13.416v22.177
	c0,1.283,0.977,1.547,2.442,1.547s2.442-0.264,2.442-1.547V80.823c0-4.37,3.18-8.121,7.237-8.542
	c2.329-0.238,4.568,0.492,6.31,2.062c1.71,1.541,2.69,3.757,2.691,6.079c0,0.665-0.325,2.83-1.811,4.839
	c-1.124,1.519-3.252,3.327-7.026,3.327c-0.021,0.001-0.048,0-0.072,0c-0.968,0-1.794,0.045-1.954,2.34
	c-0.106,1.543-0.098,2.234,1.236,2.42c2.379,0.329,4.804-0.135,7.208-1.384c4.104-2.136,6.854-6.182,7.177-10.561
	c0.281-3.803-1.091-7.513-3.764-10.179C165.362,68.548,161.657,67.177,157.876,67.459 M190.538,80.447l9.041-9.042
	c0.328-0.328,1.097-1.098-0.459-2.7c-0.667-0.688-1.275-1.038-1.808-1.042h-0.01c-0.458,0-0.767,0.246-1.008,0.487l-9.063,9.063
	l-9.048-9.104c-0.731-0.732-1.588-0.56-2.691,0.542c-1.123,1.129-1.307,1.996-0.578,2.728l9.049,9.103l-8.862,8.863l-0.063,0.062
	c-0.216,0.209-0.541,0.524-0.546,1.039c-0.004,0.531,0.35,1.155,1.051,1.857c0.592,0.593,1.152,0.893,1.668,0.893l0,0
	c0.581-0.001,0.951-0.373,1.161-0.582l8.896-8.896l9.097,9.098c0.114,0.114,0.436,0.378,0.949,0.378h0.019
	c0.575-0.007,1.181-0.341,1.801-0.992c1.021-1.072,1.19-1.965,0.506-2.654L190.538,80.447z"/>
<rect id="SVGID_1_" y="67.211" display="none" fill="none" width="200" height="49.84"/>
<path display="none" fill="none" d="M59.303,59.875c0-0.445-0.369-0.814-0.813-0.836c-0.456,0-0.835,0.348-0.847,0.803
	c-0.195,3.819-5.945,6.933-12.824,6.933c-6.955,0-12.824-3.266-12.824-7.128c0-0.456-0.38-0.836-0.857-0.836
	c-0.455,0-0.824,0.38-0.824,0.836c0,0-0.011,5.587-0.011,5.62c0.596,4.6,6.889,8.051,14.517,8.051
	c7.627,0,13.898-3.375,14.495-7.975C59.26,65.418,59.303,59.875,59.303,59.875z"/>
<path display="none" d="M167.81,3.12c-0.151-0.151-0.304-0.282-0.477-0.423c-3.755-2.843-8.345-3.461-12.9-1.747L12.39,54.232
	C5.446,56.825,0,64.398,0,71.462v75.133c0,5.859,3.266,9.439,3.635,9.819c0.043,0.032,28.643,27.85,28.643,27.85
	c-1.563-1.431-2.409-3.558-2.409-6.086v-74.134c0-5.957,4.633-12.359,10.567-14.594l150.255-56.342
	c3.081-1.15,6.098-0.955,8.268,0.564c0.391,0.26,0.727,0.575,1.041,0.9L167.81,3.12z M44.819,73.317
	c-7.627,0-13.92-3.451-14.517-8.051c0-0.032,0.011-5.62,0.011-5.62c0-0.456,0.369-0.836,0.824-0.836c0.478,0,0.857,0.38,0.857,0.836
	c0,3.862,5.87,7.128,12.824,7.128c6.878,0,12.629-3.114,12.824-6.933c0.012-0.455,0.391-0.803,0.847-0.803
	c0.445,0.022,0.813,0.391,0.813,0.836c0,0-0.043,5.544,0.011,5.468C58.718,69.942,52.446,73.317,44.819,73.317z"/>
<path display="none" d="M189.632,51.247c-0.467-0.315-1.161-0.348-1.909-0.065l-27.559,10.285c-1.692,0.629-3.114,2.583-3.114,4.253
	v17.013c0,0.64,0.218,1.161,0.619,1.442c0.467,0.326,1.161,0.348,1.909,0.065l27.568-10.274c1.693-0.64,3.104-2.583,3.104-4.264
	V52.7C190.25,52.05,190.044,51.54,189.632,51.247z"/>
<path display="none" d="M165.67,115.806c-5.457-4.34-13.366-5.263-22.274-2.615c-18.736,5.555-34.892,24.921-36.031,43.138
	c-0.487,7.758,1.942,14.159,6.825,18.054c5.457,4.34,13.355,5.273,22.263,2.637c18.727-5.576,34.903-24.942,36.043-43.148
	C172.972,126.102,170.553,119.7,165.67,115.806z"/>
</svg>
